<svg width="24" height="24" viewBox="0 0 24 24" fill="none" xmlns="http://www.w3.org/2000/svg">
<circle cx="12" cy="12" r="12" fill="#F3F6FB"/>
<g clip-path="url(#clip0_4718_28431)">
<path d="M9 7.75H11.94C13.76 7.75 15.15 8.28 15.15 9.93C15.15 10.75 14.69 11.59 13.94 11.85V11.91C14.9 12.14 15.61 12.81 15.61 14.01C15.61 15.8 14.12 16.62 12.17 16.62H9V7.75ZM11.81 11.36C12.94 11.36 13.43 10.9 13.43 10.2C13.43 9.42 12.9 9.11 11.84 9.11H10.77V11.36H11.8H11.81ZM12.01 15.26C13.22 15.26 13.88 14.83 13.88 13.9C13.88 13.04 13.23 12.68 12.01 12.68H10.77V15.26H12.01Z" fill="black"/>
<path d="M12.5498 6H11.5498V18.55H12.5498V6Z" fill="black"/>
</g>
<defs>
<clipPath id="clip0_4718_28431">
<rect width="6.61" height="12.55" fill="white" transform="translate(9 6)"/>
</clipPath>
</defs>
</svg>
