<svg width="24" height="24" viewBox="0 0 24 24" fill="none" xmlns="http://www.w3.org/2000/svg">
<circle cx="12" cy="12" r="12" fill="#F3F6FB"/>
<g clip-path="url(#clip0_4718_28427)">
<path d="M7 8H8.43V12.8H8.47L10.41 10.38H12.01L10.07 12.67L12.19 15.98H10.6L9.24 13.66L8.43 14.58V15.98H7V8Z" fill="black"/>
<path d="M13.0498 10.3802H14.2498L14.3498 11.3702H14.3898C14.7998 10.6402 15.3998 10.2402 15.9798 10.2402C16.2898 10.2402 16.4698 10.2902 16.6398 10.3602L16.3798 11.6302C16.1898 11.5702 16.0298 11.5402 15.7998 11.5402C15.3598 11.5402 14.8298 11.8302 14.5098 12.6402V15.9802H13.0498V10.3802Z" fill="black"/>
</g>
<defs>
<clipPath id="clip0_4718_28427">
<rect width="9.64" height="7.98" fill="white" transform="translate(7 8)"/>
</clipPath>
</defs>
</svg>
