<svg width="24" height="24" viewBox="0 0 24 24" fill="none" xmlns="http://www.w3.org/2000/svg">
<circle cx="12" cy="12" r="12" fill="#F3F6FB"/>
<path d="M3.01 11.87C3.01 9.43 4.42 8 6.09 8C6.93 8 7.61 8.45 8.03 8.95L7.33 9.89C7 9.53 6.61 9.27 6.11 9.27C5.11 9.27 4.35 10.23 4.35 11.82C4.35 13.41 5.03 14.4 6.08 14.4C6.64 14.4 7.09 14.1 7.45 13.67L8.15 14.59C7.6 15.3 6.9 15.68 6.04 15.68C4.36 15.68 3 14.34 3 11.87H3.01Z" fill="black"/>
<path d="M9.22998 8.13965H10.56V11.0496H13.07V8.13965H14.39V15.5396H13.07V12.3396H10.56V15.5396H9.22998V8.13965Z" fill="black"/>
<path d="M16.0195 8.13965H20.1095V9.36965H17.3495V11.2996H19.7095V12.5396H17.3495V15.5396H16.0195V8.13965Z" fill="black"/>
</svg>
