<svg width="24" height="24" viewBox="0 0 24 24" fill="none" xmlns="http://www.w3.org/2000/svg">
<circle cx="12" cy="12" r="12" fill="#F3F6FB"/>
<path d="M13.3333 18C14.62 18 15.7467 17.2411 16 16.0541L14.8333 15.4832C14.6667 16.1903 14.22 16.7027 13.3333 16.7027H10.0667C10.62 16.0541 11.0667 15.1849 11.0667 14.1081C11.0667 13.8811 11.0467 13.6605 11.0133 13.4595H13.3333V12.1622H10.5467C10 11.1373 9.33333 10.6054 9.33333 9.56757C9.33333 8.31568 10.38 7.2973 11.6667 7.2973C12.6667 7.2973 13.5267 7.91351 13.8533 8.77622L15.0867 8.27027C14.5533 6.94054 13.2267 6 11.6667 6C9.64 6 8 7.59568 8 9.56757C8 10.7222 8.52667 11.4486 8.99333 12.1622H8V13.4595H9.64667C9.7 13.6605 9.73333 13.8746 9.73333 14.1081C9.73333 15.8595 8 16.7027 8 16.7027V18H13.3333Z" fill="black"/>
</svg>
