<svg width="24" height="24" viewBox="0 0 24 24" fill="none" xmlns="http://www.w3.org/2000/svg">
<circle cx="12" cy="12" r="12" fill="#F3F6FB"/>
<path d="M14.7419 8.43C14.1632 7.94467 13.5146 7.65533 12.7959 7.562V11.384C12.8612 11.412 12.9266 11.4447 12.9919 11.482C13.0572 11.51 13.1226 11.5333 13.1879 11.552C13.6079 11.748 13.9766 11.944 14.2939 12.14C14.6206 12.336 14.8959 12.56 15.1199 12.812C15.3439 13.064 15.5119 13.3533 15.6239 13.68C15.7359 13.9973 15.7919 14.38 15.7919 14.828C15.7919 15.6773 15.5306 16.3447 15.0079 16.83C14.4946 17.3153 13.7572 17.6187 12.7959 17.74V19.112H11.7039V17.81C11.1439 17.7913 10.5606 17.7073 9.9539 17.558C9.35657 17.4087 8.83857 17.1893 8.3999 16.9L8.9179 15.71C9.3379 15.9807 9.79524 16.186 10.2899 16.326C10.7939 16.4567 11.2652 16.5267 11.7039 16.536V12.504C11.2279 12.2987 10.7752 12.0793 10.3459 11.846C9.91657 11.6127 9.55257 11.3187 9.2539 10.964C9.04857 10.7307 8.88524 10.4647 8.7639 10.166C8.64257 9.858 8.5819 9.494 8.5819 9.074C8.5819 8.70067 8.64724 8.35067 8.7779 8.024C8.9179 7.69733 9.11857 7.41267 9.3799 7.17C9.64124 6.918 9.96324 6.71733 10.3459 6.568C10.7379 6.40933 11.1906 6.31133 11.7039 6.274V5H12.7959V6.274C13.2159 6.302 13.6032 6.36267 13.9579 6.456C14.3219 6.54933 14.6999 6.666 15.0919 6.806V8.43H14.7419ZM10.2339 9.074C10.2339 9.28867 10.2712 9.49867 10.3459 9.704C10.4299 9.9 10.5512 10.0773 10.7099 10.236C10.8406 10.376 10.9899 10.502 11.1579 10.614C11.3352 10.7167 11.5172 10.8147 11.7039 10.908V7.548C11.1532 7.62267 10.7706 7.80467 10.5559 8.094C10.3412 8.374 10.2339 8.70067 10.2339 9.074ZM14.1399 14.814C14.1399 14.338 14.0139 13.9647 13.7619 13.694C13.5099 13.4233 13.1879 13.19 12.7959 12.994V16.438C13.2159 16.3353 13.5426 16.158 13.7759 15.906C14.0186 15.6447 14.1399 15.2807 14.1399 14.814Z" fill="black"/>
</svg>
