<svg width="24" height="24" viewBox="0 0 24 24" fill="none" xmlns="http://www.w3.org/2000/svg">
<circle cx="12" cy="12" r="12" fill="#F3F6FB"/>
<path d="M13.7501 15.7917C12.2859 15.7917 11.0201 14.9633 10.3901 13.75H13.7501L14.3334 12.5833H10.0051C9.97591 12.3908 9.95841 12.1983 9.95841 12C9.95841 11.8017 9.97591 11.6092 10.0051 11.4167H13.7501L14.3334 10.25H10.3901C11.0201 9.03667 12.2917 8.20833 13.7501 8.20833C14.6892 8.20833 15.5526 8.5525 16.2176 9.12417L17.2501 8.09167C16.3226 7.2575 15.0917 6.75 13.7501 6.75C11.4634 6.75 9.52675 8.21417 8.80341 10.25H6.75008L6.16675 11.4167H8.53508C8.51175 11.6092 8.50008 11.8017 8.50008 12C8.50008 12.1983 8.51175 12.3908 8.53508 12.5833H6.75008L6.16675 13.75H8.80341C9.52675 15.7858 11.4634 17.25 13.7501 17.25C15.0976 17.25 16.3226 16.7425 17.2501 15.9083L16.2117 14.8758C15.5526 15.4475 14.6951 15.7917 13.7501 15.7917Z" fill="black"/>
</svg>
