<svg width="24" height="24" viewBox="0 0 24 24" fill="none" xmlns="http://www.w3.org/2000/svg">
<circle cx="12" cy="12.0002" r="10.8" fill="white"/>
<path fill-rule="evenodd" clip-rule="evenodd" d="M17.7331 9.38722C16.8308 10.0467 15.919 9.77497 15.5521 8.47963C15.3678 7.83451 14.9114 7.50489 14.4446 7.68832C13.9795 7.87119 14.2547 8.72149 14.6086 9.50969C15.3164 11.3144 13.5579 11.2543 13.3536 11.2309C12.4194 11.0345 12.2297 10.1881 12.2297 10.1881C12.1524 9.89011 12.1346 9.51421 12.1964 9.03446C12.3243 8.03064 12.5944 7.55879 12.9012 6.78187C13.3174 5.73657 12.3076 5.12531 12.4744 4.74066C12.7028 4.21999 13.4241 4.88176 14.2276 4.93059C14.9202 4.96897 15.3367 4.93425 15.8755 5.00593C16.5909 5.10104 17.4464 5.34374 17.8271 5.79132C18.1762 6.20024 17.6428 6.69947 17.0007 6.3865C16.5322 6.15819 15.941 6.29873 16.2873 6.78751C16.7052 7.25259 16.9048 7.26501 17.3298 7.37705C18.5013 7.6855 18.5242 8.80615 17.7331 9.38722M15.9877 19.4096C15.148 19.9906 14.2178 20.2635 12.9981 20.329C12.8874 20.3442 12.6888 20.2808 12.6786 20.0866C12.6707 19.8789 12.9744 19.8264 12.9744 19.8264C15.6936 19.291 14.8991 17.5075 13.9367 16.5977C13.5329 16.2147 9.74601 12.9495 9.74601 12.9495C6.13694 9.84131 6.42566 7.41517 6.42566 7.41517C6.59979 4.42969 9.2143 3.68917 11.1921 3.85991C11.4241 3.87966 11.5522 4.02161 11.5102 4.21436C11.4667 4.42433 11.1611 4.43985 11.1611 4.43985C10.5317 4.47738 9.96953 4.54144 9.54055 4.82958C7.94712 5.90168 8.41759 7.72503 10.543 9.75467C10.8097 10.0109 11.0939 10.2796 11.3852 10.5525C11.3852 10.5525 11.8124 10.9289 12.6619 11.7369C14.296 13.2428 15.1915 14.0552 15.1915 14.0552C18.0719 16.454 17.0886 18.6465 15.9877 19.4096M9.92737 19.7941C8.91137 19.6944 7.69837 19.3741 6.64173 18.4606C5.67088 17.6202 5.06834 16.4649 4.77624 15.4517C4.47736 14.4126 4.35149 13.1977 4.84566 13.2934C4.99722 13.3239 5.25997 13.9913 5.54558 14.4773C5.83994 14.979 6.08124 15.2567 6.30532 15.4255C6.40805 15.5022 6.75434 14.7315 7.25782 14.2933C7.55134 14.0514 7.87251 13.9682 7.92359 14.69C7.98681 15.5762 7.82791 16.6288 8.0853 16.6288C8.32745 16.6288 8.8727 16.4468 10.0699 16.3455C10.5189 16.3071 10.7752 16.3918 10.3465 16.9977C10.1325 17.2985 9.84524 17.7252 9.16706 18.212C10.1845 19.165 11.4059 19.0507 11.4274 19.4546C11.4435 19.7455 10.7357 19.8728 9.92737 19.7941M0.0127111 12.5423C0.311585 19.1632 5.92133 24.2864 12.5417 23.9876C19.1652 23.6893 24.2864 18.0787 23.9876 11.4581C23.689 4.83664 18.0784 -0.287979 11.458 0.0125726C4.83562 0.311149 -0.28955 5.92116 0.0127111 12.5423Z" fill="#0480E9"/>
</svg>
