<svg width="24" height="24" viewBox="0 0 24 24" fill="none" xmlns="http://www.w3.org/2000/svg">
<circle cx="12" cy="12" r="12" fill="#D71820"/>
<mask id="mask0_820_10694" style="mask-type:alpha" maskUnits="userSpaceOnUse" x="15" y="8" width="8" height="8">
<path fill-rule="evenodd" clip-rule="evenodd" d="M15.9624 8.52539H22.0818V15.1295H15.9624V8.52539Z" fill="white"/>
</mask>
<g mask="url(#mask0_820_10694)">
<path fill-rule="evenodd" clip-rule="evenodd" d="M21.4602 9.70415H22.0161C22.0524 9.70415 22.0818 9.67444 22.0818 9.63823V8.59057C22.0818 8.55461 22.0524 8.52539 22.0161 8.52539H21.236C20.3332 8.52539 19.8553 8.81381 19.5816 9.42685L17.8842 13.5838C17.7818 13.8322 17.6331 13.9502 17.3409 13.9502V8.59057C17.3409 8.55461 17.311 8.52539 17.2749 8.52539H16.0285C15.9914 8.52539 15.9624 8.55461 15.9624 8.59057V15.014C15.9624 15.0767 16.0142 15.1296 16.0779 15.1296H17.4773C18.3795 15.1296 18.7919 14.8408 19.0647 14.2278L20.74 10.1227C20.8738 9.83163 21.0675 9.70415 21.4602 9.70415Z" fill="#FEFEFE"/>
</g>
<mask id="mask1_820_10694" style="mask-type:alpha" maskUnits="userSpaceOnUse" x="1" y="8" width="7" height="8">
<path fill-rule="evenodd" clip-rule="evenodd" d="M1.19971 8.52539H7.22885V15.1295H1.19971V8.52539Z" fill="white"/>
</mask>
<g mask="url(#mask1_820_10694)">
<path fill-rule="evenodd" clip-rule="evenodd" d="M4.7669 13.9785H2.65771V12.4297H4.7669C5.33462 12.4297 5.71917 12.7764 5.71917 13.2038C5.71917 13.6318 5.33462 13.9785 4.7669 13.9785ZM6.21877 11.8281C6.72019 11.6196 7.13371 11.152 7.13371 10.3776C7.13371 9.22521 6.14486 8.52539 4.95186 8.52539H1.26463C1.22867 8.52539 1.19971 8.55461 1.19971 8.59044V9.6381C1.19971 9.67431 1.22867 9.70415 1.26463 9.70415H4.69566C5.24939 9.70415 5.62371 10.0429 5.62371 10.4592C5.62371 10.8757 5.24939 11.2138 4.69566 11.2138H2.6574V10.4359C2.6574 10.399 2.62843 10.3699 2.59135 10.3699H1.26463C1.22867 10.3699 1.19971 10.399 1.19971 10.4359V15.0642C1.19971 15.1005 1.22867 15.1295 1.26463 15.1295H4.89805C6.25635 15.1295 7.22885 14.4962 7.22885 13.2041C7.22885 12.5697 6.85429 12.0447 6.21877 11.8281Z" fill="#FEFEFE"/>
</g>
<mask id="mask2_820_10694" style="mask-type:alpha" maskUnits="userSpaceOnUse" x="20" y="12" width="3" height="4">
<path fill-rule="evenodd" clip-rule="evenodd" d="M20.0171 12.3135H22.7638V15.1293H20.0171V12.3135Z" fill="white"/>
</mask>
<g mask="url(#mask2_820_10694)">
<path fill-rule="evenodd" clip-rule="evenodd" d="M22.7521 15.053L20.6135 12.319C20.6074 12.3109 20.5984 12.3119 20.595 12.3205L20.0198 13.7288C20.0159 13.7374 20.0159 13.747 20.0217 13.7545L20.9566 15.0072C21.0228 15.0962 21.0973 15.1293 21.2093 15.1293H22.7153C22.7599 15.1293 22.7776 15.0865 22.7521 15.053Z" fill="#FEFEFE"/>
</g>
<mask id="mask3_820_10694" style="mask-type:alpha" maskUnits="userSpaceOnUse" x="8" y="10" width="2" height="6">
<path fill-rule="evenodd" clip-rule="evenodd" d="M8.25635 10.3701H9.63625V15.1298H8.25635V10.3701Z" fill="white"/>
</mask>
<g mask="url(#mask3_820_10694)">
<path fill-rule="evenodd" clip-rule="evenodd" d="M9.57095 10.3701H8.32215C8.28531 10.3701 8.25635 10.3992 8.25635 10.4362V15.0644C8.25635 15.1008 8.28531 15.1299 8.32215 15.1299H9.57095C9.60604 15.1299 9.63625 15.1008 9.63625 15.0644V10.4362C9.63625 10.3992 9.60604 10.3701 9.57095 10.3701Z" fill="#FEFEFE"/>
</g>
<mask id="mask4_820_10694" style="mask-type:alpha" maskUnits="userSpaceOnUse" x="8" y="8" width="7" height="8">
<path fill-rule="evenodd" clip-rule="evenodd" d="M8.25635 8.52539H14.7714V15.1295H8.25635V8.52539Z" fill="white"/>
</mask>
<g mask="url(#mask4_820_10694)">
<path fill-rule="evenodd" clip-rule="evenodd" d="M14.7059 8.52539H13.4583C13.4224 8.52539 13.3933 8.55461 13.3933 8.59044V13.9502C13.1002 13.9502 12.9528 13.8321 12.8499 13.5838L11.1516 9.42685C10.8788 8.81381 10.3999 8.52539 9.49804 8.52539H8.32215C8.28531 8.52539 8.25635 8.55461 8.25635 8.59044V9.63823C8.25635 9.67444 8.28531 9.70415 8.32215 9.70415H9.27242C9.66622 9.70415 9.85924 9.83163 9.99434 10.1225L11.6691 14.2278C11.9426 14.8408 12.355 15.1296 13.2572 15.1296H14.6557C14.719 15.1296 14.7714 15.0767 14.7714 15.014V8.59044C14.7714 8.55461 14.7423 8.52539 14.7059 8.52539Z" fill="#FEFEFE"/>
</g>
</svg>
