<svg width="24" height="24" viewBox="0 0 24 24" fill="none" xmlns="http://www.w3.org/2000/svg">
<circle cx="12" cy="12" r="11.5" fill="white" stroke="#EBEFF5"/>
<mask id="mask0_805_13404" style="mask-type:alpha" maskUnits="userSpaceOnUse" x="3" y="6" width="17" height="13">
<path fill-rule="evenodd" clip-rule="evenodd" d="M3.6001 6H19.7772V18.8986H3.6001V6Z" fill="white"/>
</mask>
<g mask="url(#mask0_805_13404)">
<path fill-rule="evenodd" clip-rule="evenodd" d="M7.17974 10.9471C6.45667 10.9915 5.83978 10.4471 5.79341 9.72945C5.7504 9.01108 6.29203 8.39015 7.01645 8.34446C7.73213 8.29876 8.34768 8.84711 8.39338 9.56481C8.43974 10.2832 7.8961 10.9028 7.17974 10.9471ZM19.1878 9.01258C18.3438 8.15846 16.9487 8.3063 16.1262 9.17789C15.0557 10.3015 14.2231 10.7215 13.2305 10.6798C11.8462 10.6193 11.1628 9.54749 10.4525 8.19744C9.71395 6.78691 8.5776 6 7.1617 6C4.93469 6 3.6001 7.80365 3.6001 9.81427C3.6001 12.9075 5.77536 14.7575 7.28131 15.537C8.53258 16.1889 9.92429 16.461 11.1628 16.4926C11.0895 17.2318 10.8718 18.2076 10.6319 18.899H10.7589H11.9148H13.0692H13.1788C12.9281 18.2076 12.7057 17.1512 12.6372 16.41C16.3688 15.9254 18.1415 14.2313 19.1119 12.6179C19.5473 11.9096 19.7798 11.1737 19.7772 10.5138C19.7738 9.93523 19.5897 9.40906 19.1878 9.01258Z" fill="#6DB33F"/>
</g>
</svg>
