<svg width="24" height="24" viewBox="0 0 24 24" fill="none" xmlns="http://www.w3.org/2000/svg">
<rect opacity="0.01" width="24" height="24" fill="#F800FF"/>
<circle cx="12" cy="12" r="12" fill="white"/>
<mask id="mask0_17096_85638" style="mask-type:alpha" maskUnits="userSpaceOnUse" x="0" y="0" width="24" height="24">
<circle cx="12" cy="12" r="12" fill="white"/>
</mask>
<g mask="url(#mask0_17096_85638)">
<path d="M11.9986 11.9879C11.3221 11.1873 10.4955 10.5268 9.56543 10.0435V13.943C10.4969 13.4572 11.3237 12.7929 11.9986 11.9879Z" fill="#E43D30"/>
<path d="M-0.00271621 24.0027H10.0728C11.3048 23.2351 12.3082 22.1508 12.9782 20.863C13.6483 19.5753 13.9604 18.1313 13.882 16.6818C13.8008 15.3633 13.3937 14.0855 12.6973 12.963C11.7371 14.0372 10.5365 14.8691 9.19355 15.3909L8.92792 15.4945L8.42056 15.6671V8.29577L9.19886 8.59593C10.5412 9.11773 11.7415 9.94862 12.7026 11.0212C13.399 9.89863 13.8061 8.62083 13.8873 7.30229C13.9664 5.85911 13.6582 4.42102 12.9945 3.13707C12.3308 1.85312 11.3358 0.770012 10.1126 0H-0.00537109L-0.00271621 24.0027ZM4.51307 7.85481H5.71374V16.1214H4.51307V7.85481Z" fill="#148FCA"/>
<path d="M24.0001 0H12.012C13.0256 0.929742 13.8214 2.07182 14.3426 3.34468C14.8637 4.61754 15.0974 5.98977 15.027 7.36339C14.9387 8.87623 14.473 10.3429 13.6722 11.6295L13.4491 11.9881L13.6722 12.3467C14.4733 13.6322 14.939 15.098 15.027 16.6101C15.0965 17.9916 14.8585 19.3713 14.3302 20.6497C13.802 21.9281 12.9966 23.0733 11.9722 24.0027H23.9921L24.0001 0ZM20.8125 16.124H19.3116L16.2223 11.9801L19.3568 7.83091H20.8683L17.7285 11.9907L20.8125 16.124Z" fill="#055198"/>
</g>
</svg>
