<svg width="24" height="24" viewBox="0 0 24 24" fill="none" xmlns="http://www.w3.org/2000/svg">
<circle cx="12" cy="12" r="12" fill="#632C00"/>
<mask id="mask0_820_10505" style="mask-type:alpha" maskUnits="userSpaceOnUse" x="0" y="0" width="24" height="24">
<circle cx="12" cy="12" r="12" fill="white"/>
</mask>
<g mask="url(#mask0_820_10505)">
</g>
<path fill-rule="evenodd" clip-rule="evenodd" d="M10.3627 13.9033C10.5319 13.9033 10.8295 14.0449 11.2363 14.4865C13.3423 16.7773 15.7123 18.5869 17.7043 19.6813C17.9899 19.8397 18.1495 19.9561 18.1495 20.1061C18.1495 20.2201 18.1339 20.3353 17.8843 20.3353C17.4367 20.3353 14.9251 19.8397 14.2603 19.5277C13.5943 19.2157 12.1591 18.0493 10.4467 15.0997C10.2523 14.7661 10.0483 14.4793 10.0483 14.2117C10.0483 13.9453 10.2919 13.9033 10.3627 13.9033Z" fill="#659AD1"/>
<mask id="mask1_820_10505" style="mask-type:alpha" maskUnits="userSpaceOnUse" x="4" y="3" width="14" height="18">
<path fill-rule="evenodd" clip-rule="evenodd" d="M4.80029 3.60059H17.7085V20.3485H4.80029V3.60059Z" fill="white"/>
</mask>
<g mask="url(#mask1_820_10505)">
<path fill-rule="evenodd" clip-rule="evenodd" d="M16.0501 5.47379C16.0501 5.47379 16.4677 6.29699 12.4105 6.86699C12.8521 5.61419 13.1449 4.78979 13.1449 4.78979C13.4029 4.03979 12.8221 3.60059 12.4033 3.60059C11.9833 3.60059 11.6785 3.92219 11.5045 4.32659L10.2985 7.08659C8.71687 7.19219 7.54327 7.13699 7.01527 7.08419C6.27967 7.01099 6.09007 7.41779 6.09007 7.83419C6.09007 8.55899 7.36927 9.29459 8.18407 9.21419C8.70007 9.16499 8.99767 9.14339 9.41767 9.10019L4.93327 19.3518C4.76287 19.7346 4.62487 20.349 5.39407 20.349C6.16447 20.349 7.89727 19.6458 8.18647 18.831C8.30887 18.4878 9.20167 15.957 10.1965 13.137C10.6885 13.0386 12.5005 12.7602 13.0045 12.7602C13.4821 12.7602 13.7269 12.975 13.7269 13.2294C13.7269 13.8198 12.3121 15.513 9.56887 17.601C9.26647 17.8302 9.51607 18.0114 9.67087 18.0114C10.0945 18.0114 11.9845 16.7154 12.9229 16.0074C13.9525 15.231 15.7489 13.2078 15.7489 11.787C15.7489 11.2254 15.5005 10.7118 14.3749 10.7118C13.2841 10.7118 11.3593 10.9542 10.9489 11.007C11.2153 10.2486 11.4781 9.50579 11.7241 8.81219C13.8457 8.51819 15.1129 8.32739 15.8581 8.17139C16.8841 7.95299 17.7085 7.36379 17.7085 6.75539C17.7085 5.45939 16.0501 5.47379 16.0501 5.47379Z" fill="#FEFEFE"/>
</g>
</svg>
