<svg width="24" height="24" viewBox="0 0 24 24" fill="none" xmlns="http://www.w3.org/2000/svg">
<circle cx="12" cy="12" r="12" fill="#E51738"/>
<path fill-rule="evenodd" clip-rule="evenodd" d="M5.39974 13.2603C5.06011 13.1007 4.78018 12.9718 4.78018 12.7118C4.78018 12.5129 4.93956 12.3683 5.25308 12.3683C5.36818 12.3683 5.46354 12.3808 5.56116 12.3994C5.61201 12.4078 5.66695 12.4155 5.7119 12.4155C5.98592 12.4155 6.14076 12.2523 6.2436 11.9415L6.28628 11.8139C6.24247 11.7964 5.79431 11.5996 5.20972 11.5996C4.2805 11.5996 3.78921 12.1962 3.78989 12.816C3.78989 13.128 3.88774 13.355 4.04076 13.533C4.2385 13.7625 4.5191 13.913 4.78155 14.0408C5.16431 14.2293 5.51008 14.3682 5.51008 14.647C5.51008 14.8945 5.25467 15.0357 4.91254 15.0357C4.44555 15.0357 4.03667 14.7678 3.98491 14.7353L3.6001 15.4566C3.66821 15.4952 4.16267 15.8098 4.97815 15.8098C5.84517 15.8096 6.50173 15.3108 6.50173 14.5441C6.50173 13.7822 5.89284 13.4991 5.39974 13.2603Z" fill="#FEFEFE"/>
<path fill-rule="evenodd" clip-rule="evenodd" d="M8.79324 13.6168L10.3672 11.6846H9.24593L7.99092 13.3525H7.97208V11.6846H7.04785V15.7779H7.10279C7.50213 15.7779 7.97798 15.5926 7.97798 14.9249V13.9846H7.99751L9.2768 15.7275H10.4526L8.79324 13.6168Z" fill="#FEFEFE"/>
<path fill-rule="evenodd" clip-rule="evenodd" d="M10.4195 7.29883C10.0935 7.36013 9.6111 7.65549 9.61291 8.17969C9.61382 8.65418 10.0023 8.94182 10.0034 9.56433C10.005 10.0329 9.74754 10.3483 9.46875 10.5231C9.58136 10.5126 9.70509 10.5063 9.84039 10.5063C10.1255 10.5054 10.2967 10.5324 10.3074 10.5346L11.7674 8.74C11.3615 8.13224 10.8879 7.66071 10.4195 7.29883Z" fill="#FEFEFE"/>
<path fill-rule="evenodd" clip-rule="evenodd" d="M11.646 12.1434C11.8295 11.8578 11.8533 11.4008 11.8685 10.9356C11.8858 10.5022 11.9761 10.1755 12.5555 10.1732C12.6838 10.1725 12.8066 10.1907 13.0282 10.19C13.877 10.1864 14.4307 9.8933 14.7758 9.70147C14.0713 9.25195 13.0427 8.79222 11.7675 8.74023C11.6846 8.97612 11.038 10.7755 10.9888 10.9206C10.9967 10.9295 11.1098 11.0566 11.2512 11.3045C11.4599 11.6448 11.5713 11.9331 11.646 12.1434Z" fill="#FEFEFE"/>
<mask id="mask0_820_10502" style="mask-type:alpha" maskUnits="userSpaceOnUse" x="7" y="6" width="4" height="5">
<path fill-rule="evenodd" clip-rule="evenodd" d="M7.98633 6.22656H10.2126V10.673H7.98633V6.22656Z" fill="white"/>
</mask>
<g mask="url(#mask0_820_10502)">
<path fill-rule="evenodd" clip-rule="evenodd" d="M8.56139 10.6731C8.48829 10.6731 8.45151 10.6243 8.44175 10.5396C8.43244 10.4545 8.06693 7.11061 8.01244 6.60366C8.00472 6.52942 7.98633 6.39388 7.98633 6.3453C7.98565 6.2672 8.03673 6.22656 8.0969 6.22656C8.26966 6.22611 9.21183 6.44746 10.2126 7.14943C9.92446 7.23048 9.40253 7.53106 9.4048 8.15311C9.4073 8.70252 9.80028 9.0056 9.80255 9.55841C9.80528 10.4556 8.77571 10.6727 8.56139 10.6731Z" fill="#FEFEFE"/>
</g>
<path fill-rule="evenodd" clip-rule="evenodd" d="M11.7295 12.3812C11.7452 12.4236 11.7599 12.4593 11.7751 12.4833C11.7978 12.5231 11.8276 12.5408 11.8653 12.5408C11.8882 12.5408 11.9166 12.5319 11.9481 12.5176C12.0253 12.4822 15.0736 11.0615 15.5333 10.849C15.6008 10.8172 15.7263 10.7607 15.769 10.7361C15.8114 10.7116 15.831 10.6751 15.831 10.6385C15.831 10.6183 15.8248 10.5977 15.8139 10.5786C15.7567 10.4857 15.4609 10.1724 14.9676 9.83008C14.5762 10.0453 13.9648 10.3797 13.0551 10.3831C12.8317 10.3836 12.782 10.3677 12.6299 10.3693C12.1858 10.3706 12.0753 10.5602 12.0585 10.9502C12.0557 11.0238 12.0555 11.1228 12.0503 11.2317C12.0364 11.5807 11.9956 12.0606 11.7295 12.3812Z" fill="#FEFEFE"/>
<path fill-rule="evenodd" clip-rule="evenodd" d="M15.7742 12.8387H16.6187V12.4932H13.8758V12.8387H14.7253L13.7725 13.7343H14.4188L15.2486 12.9613L15.9719 13.6308C16.0477 13.7012 16.1304 13.735 16.2491 13.735L16.7386 13.7343L15.7742 12.8387Z" fill="#FEFEFE"/>
<mask id="mask1_820_10502" style="mask-type:alpha" maskUnits="userSpaceOnUse" x="13" y="14" width="4" height="2">
<path fill-rule="evenodd" clip-rule="evenodd" d="M13.5952 14.002H16.9014V15.8147H13.5952V14.002Z" fill="white"/>
</mask>
<g mask="url(#mask1_820_10502)">
<path fill-rule="evenodd" clip-rule="evenodd" d="M15.2483 15.4621C14.7861 15.4621 14.4741 15.2374 14.4741 14.9602C14.4741 14.6823 14.7861 14.458 15.2483 14.458C15.7105 14.458 16.0227 14.6823 16.0227 14.9602C16.0227 15.2374 15.7105 15.4621 15.2483 15.4621ZM16.9014 14.002H13.5952V14.3486H14.378C14.1147 14.5012 13.9716 14.7284 13.9716 14.9816C13.9716 15.442 14.4377 15.8148 15.2484 15.8148C16.0589 15.8148 16.5252 15.442 16.5252 14.9816C16.5252 14.7284 16.3829 14.5012 16.1191 14.3486H16.9014V14.002Z" fill="#FEFEFE"/>
</g>
<path fill-rule="evenodd" clip-rule="evenodd" d="M19.7906 12.4932V14.1897H19.0298V14.536H19.7906V14.8141H20.2841V12.4932H19.7906Z" fill="#FEFEFE"/>
<path fill-rule="evenodd" clip-rule="evenodd" d="M19.6015 13.6578H19.3218V12.4932H17.6463V12.8389H18.8287V13.6578H17.395V14.0038H18.2791V14.6449H18.7726V14.0038H19.6015" fill="#FEFEFE"/>
<mask id="mask2_820_10502" style="mask-type:alpha" maskUnits="userSpaceOnUse" x="17" y="14" width="4" height="2">
<path fill-rule="evenodd" clip-rule="evenodd" d="M17.7856 14.7588H20.3407V15.7264H17.7856V14.7588Z" fill="white"/>
</mask>
<g mask="url(#mask2_820_10502)">
<path fill-rule="evenodd" clip-rule="evenodd" d="M18.279 15.3802V14.7588H17.7856V15.3629C17.7856 15.5638 17.9489 15.7264 18.1487 15.7264H20.3408V15.3802H18.279Z" fill="#FEFEFE"/>
</g>
</svg>
