<svg width="24" height="24" viewBox="0 0 24 24" fill="none" xmlns="http://www.w3.org/2000/svg">
<circle cx="12" cy="12" r="12" fill="#00427A"/>
<path fill-rule="evenodd" clip-rule="evenodd" d="M4.38051 9.99023C4.36108 10.1228 4.09225 11.9986 4.06738 12.1735H4.66845C4.6871 12.0408 4.95625 10.1647 4.98189 9.99023H4.38051Z" fill="#FEFEFE"/>
<path fill-rule="evenodd" clip-rule="evenodd" d="M9.30174 9.99023C9.28278 10.1228 9.01379 11.9986 8.98877 12.1735H10.3988C10.412 12.0777 10.4481 11.8245 10.4658 11.7022H9.61175L9.66956 11.2985H10.4445C10.458 11.205 10.491 10.9779 10.5079 10.8586H9.73249L9.78999 10.4606H10.6212C10.6353 10.3649 10.6714 10.1119 10.6891 9.99023H9.30174Z" fill="#FEFEFE"/>
<path fill-rule="evenodd" clip-rule="evenodd" d="M2.60402 11.241C2.60402 11.241 3.10657 10.0905 3.1465 9.99023H3.90328C3.90359 10.1431 3.80243 12.0186 3.80383 12.1735H3.25917L3.34898 10.6445C3.34898 10.6445 2.73641 12.0758 2.69555 12.1735H2.2651L2.07163 10.6445C2.0578 10.7139 1.85346 11.735 1.74204 12.1735H1.19971C1.25627 11.9788 1.67118 10.1021 1.7035 9.99023H2.43277L2.60402 11.241Z" fill="#FEFEFE"/>
<path fill-rule="evenodd" clip-rule="evenodd" d="M7.73047 11.2809L8.07498 10.4707L8.18733 11.2809H7.73047ZM8.2447 11.7316C8.2447 11.7316 8.28401 12.0871 8.29706 12.1735H8.87389C8.84173 11.9936 8.52721 10.118 8.5039 9.99023H7.77416C7.7322 10.0813 6.89897 11.9586 6.80029 12.1735H7.38567C7.4169 12.0999 7.56546 11.7318 7.56546 11.7318L8.2447 11.7316Z" fill="#FEFEFE"/>
<path fill-rule="evenodd" clip-rule="evenodd" d="M5.82011 10.3999H5.95421C6.04621 10.3999 6.14861 10.4095 6.21217 10.4831C6.25692 10.5352 6.27324 10.6086 6.25988 10.7016C6.25988 10.7016 6.24123 10.8688 6.13183 10.9214C6.13183 10.9214 6.056 10.9706 5.93075 10.9739H5.65896L6.17239 12.1734H6.75575L6.31458 11.2531C6.58186 11.204 6.79055 11.1245 6.84323 10.71C6.85038 10.6578 6.85473 10.6082 6.85473 10.5618C6.85473 10.4082 6.81464 10.2842 6.73477 10.1922C6.58963 10.025 6.34084 9.99023 6.15732 9.99023H5.33263C5.31352 10.1228 5.04499 11.9986 5.01904 12.1734H5.56712C5.58499 12.0514 5.82011 10.3999 5.82011 10.3999Z" fill="#FEFEFE"/>
<path fill-rule="evenodd" clip-rule="evenodd" d="M22.6719 7.2002C22.3212 8.65283 21.0615 9.44458 20.3209 9.86741L20.2891 9.82483C20.5935 9.57775 21.6353 8.8087 21.9683 7.53445L22.6719 7.2002Z" fill="#FEFEFE"/>
<path fill-rule="evenodd" clip-rule="evenodd" d="M16.8372 11.0155C16.831 11.0168 16.8246 11.0175 16.8182 11.0188C16.8243 11.0175 16.831 11.0168 16.8372 11.0155Z" fill="#004179"/>
<path fill-rule="evenodd" clip-rule="evenodd" d="M17.6255 10.8597C17.6359 10.8571 17.6467 10.8546 17.6575 10.8523C17.6467 10.8546 17.6352 10.8571 17.6239 10.8597H17.6255Z" fill="#004179"/>
<path fill-rule="evenodd" clip-rule="evenodd" d="M16.6658 11.0435C16.6529 11.0457 16.6411 11.0472 16.6283 11.0494C16.6411 11.0472 16.6529 11.0457 16.6658 11.0435Z" fill="#004179"/>
<path fill-rule="evenodd" clip-rule="evenodd" d="M17.8577 10.8038C17.8157 10.8139 17.7737 10.8241 17.7313 10.8341C17.7737 10.8241 17.8157 10.8139 17.8577 10.8038Z" fill="#004179"/>
<path fill-rule="evenodd" clip-rule="evenodd" d="M16.454 11.0757C16.4578 11.0751 16.4618 11.0743 16.466 11.0738C16.4618 11.0743 16.4578 11.0751 16.454 11.0757Z" fill="#004179"/>
<path fill-rule="evenodd" clip-rule="evenodd" d="M18.1452 10.7304C18.1187 10.7375 18.0926 10.7442 18.0659 10.7512C18.0926 10.7442 18.1187 10.7375 18.1452 10.7304Z" fill="#004179"/>
<path fill-rule="evenodd" clip-rule="evenodd" d="M15.5111 11.1859C15.5095 11.1859 15.5083 11.1859 15.5066 11.1863C15.5083 11.1859 15.5097 11.1859 15.5111 11.1859Z" fill="#004179"/>
<path fill-rule="evenodd" clip-rule="evenodd" d="M18.8091 10.5344H18.8086C18.7481 10.5542 18.6866 10.5736 18.623 10.5936C18.6866 10.5736 18.7489 10.5542 18.8091 10.5344Z" fill="#004179"/>
<path fill-rule="evenodd" clip-rule="evenodd" d="M18.5841 10.605C18.5588 10.6131 18.5328 10.6209 18.5069 10.6285C18.5328 10.6209 18.5588 10.6131 18.5841 10.605Z" fill="#004179"/>
<path fill-rule="evenodd" clip-rule="evenodd" d="M18.4656 10.6402C18.3791 10.6657 18.2891 10.691 18.1968 10.7164C18.2891 10.691 18.3791 10.6657 18.4656 10.6402Z" fill="#004179"/>
<path fill-rule="evenodd" clip-rule="evenodd" d="M18.0084 10.767C17.9817 10.7733 17.9559 10.7797 17.9292 10.7869C17.9559 10.7797 17.9817 10.7733 18.0084 10.767Z" fill="#004179"/>
<path fill-rule="evenodd" clip-rule="evenodd" d="M12.9668 11.2254H12.9718C12.9702 11.2254 12.9682 11.2254 12.9668 11.2249V11.2254Z" fill="#004179"/>
<path fill-rule="evenodd" clip-rule="evenodd" d="M13.9671 11.2516L13.9665 11.2514H13.9432C13.9511 11.2514 13.9592 11.2516 13.9671 11.2516Z" fill="#004179"/>
<path fill-rule="evenodd" clip-rule="evenodd" d="M13.7461 11.2509C13.7322 11.2504 13.7182 11.2504 13.7042 11.2502C13.7182 11.2504 13.7322 11.2504 13.7461 11.2509Z" fill="#004179"/>
<path fill-rule="evenodd" clip-rule="evenodd" d="M15.3543 11.1981C15.3493 11.1984 15.3437 11.1987 15.3382 11.1995C15.3437 11.1987 15.3493 11.1984 15.3543 11.1981Z" fill="#004179"/>
<path fill-rule="evenodd" clip-rule="evenodd" d="M15.0109 11.2216C15.0069 11.2219 15.0032 11.2221 14.999 11.2229C15.0032 11.2221 15.0069 11.2219 15.0109 11.2216Z" fill="#004179"/>
<path fill-rule="evenodd" clip-rule="evenodd" d="M15.1841 11.2111C15.1791 11.2111 15.1742 11.2117 15.1695 11.2119C15.1742 11.2117 15.1791 11.2111 15.1841 11.2111Z" fill="#004179"/>
<path fill-rule="evenodd" clip-rule="evenodd" d="M14.8291 11.2322C14.8312 11.2322 14.8329 11.2318 14.8351 11.2318C14.8329 11.2318 14.8312 11.2318 14.8291 11.2322Z" fill="#004179"/>
<path fill-rule="evenodd" clip-rule="evenodd" d="M16.1525 10.8495C16.1485 10.8479 15.9934 10.7699 15.9934 10.7699L15.9914 10.7691L15.9892 10.7677C15.9382 10.7384 15.8181 10.6686 15.8181 10.5514C15.8186 10.4953 15.8407 10.4455 15.8812 10.4119C15.9305 10.3699 16.0068 10.3549 16.0887 10.3696C16.192 10.3856 16.3106 10.4528 16.4408 10.5646C16.503 10.4455 16.6212 10.2184 16.6635 10.137C16.5141 10.0139 16.369 9.94773 16.1535 9.90965C15.8868 9.87034 15.6292 9.92721 15.4489 10.0641C15.2965 10.181 15.2017 10.3513 15.1768 10.5577C15.1726 10.5928 15.1709 10.6273 15.1709 10.6599C15.1709 10.7735 15.1944 10.8719 15.2422 10.9542C15.5676 10.9468 15.9096 10.9306 16.2549 10.9023C16.2232 10.8838 16.1894 10.866 16.1525 10.8495Z" fill="#FEFEFE"/>
<path fill-rule="evenodd" clip-rule="evenodd" d="M18.5858 9.99023C18.5729 10.0816 18.5305 10.3689 18.5103 10.5094C18.9339 10.3908 19.4473 10.2201 19.9223 9.99023H18.5858Z" fill="#FEFEFE"/>
<path fill-rule="evenodd" clip-rule="evenodd" d="M18.8092 10.5332C18.7496 10.5529 18.6874 10.5723 18.6237 10.5924C18.611 10.5963 18.5977 10.6003 18.5849 10.604C18.5595 10.6121 18.5336 10.6199 18.5075 10.6275C18.4936 10.6319 18.4796 10.6356 18.466 10.6399C18.3794 10.6656 18.2894 10.6909 18.1971 10.7159C18.1802 10.7206 18.163 10.7257 18.1455 10.7304C18.1193 10.7374 18.0932 10.7441 18.0665 10.7511C18.0469 10.7563 18.0281 10.7613 18.0088 10.7664C17.9821 10.7728 17.9563 10.7793 17.9292 10.7863C17.9061 10.7921 17.8818 10.7981 17.8579 10.8036C17.816 10.8138 17.774 10.8239 17.7314 10.834C17.7067 10.8398 17.6831 10.8458 17.6582 10.8511C17.6473 10.8535 17.6366 10.8559 17.6262 10.8586H17.625C17.3784 10.9145 17.1161 10.9674 16.8377 11.0149C16.8314 11.016 16.825 11.0168 16.8188 11.018C16.7687 11.0266 16.7178 11.0346 16.6665 11.0429C16.6537 11.0451 16.6418 11.0468 16.629 11.0488C16.5753 11.057 16.5209 11.0654 16.4663 11.0735C16.4621 11.074 16.4581 11.0747 16.4544 11.0754C16.1557 11.119 15.841 11.156 15.5111 11.1851C15.5099 11.1851 15.5083 11.1851 15.5066 11.1854C15.4567 11.1899 15.4059 11.1939 15.3548 11.1978C15.3497 11.1981 15.3441 11.1984 15.3388 11.1992C15.2877 11.2031 15.2362 11.2068 15.1846 11.2106C15.1797 11.2106 15.1747 11.2112 15.17 11.2113C15.1172 11.2148 15.0641 11.2179 15.0111 11.2211C15.007 11.2214 15.003 11.2216 14.9989 11.2224C14.9444 11.225 14.8902 11.2281 14.835 11.2304C14.8328 11.2304 14.8311 11.2309 14.8289 11.2309C14.5511 11.2443 14.2638 11.2513 13.9671 11.2513L13.9677 11.2514C13.9597 11.2514 13.9517 11.2513 13.9438 11.2513C13.8787 11.2513 13.8128 11.2506 13.7466 11.25C13.7326 11.2496 13.7186 11.2496 13.7047 11.2494C13.4661 11.2463 13.2215 11.2381 12.972 11.2247H12.9668V11.2242C12.588 11.2042 12.1959 11.1723 11.7911 11.1268L12.2567 10.6889C12.2567 10.6889 12.528 10.7702 12.9014 10.8373C12.8307 10.4152 12.7682 10.044 12.7588 9.99023H12.0286C11.986 10.0813 11.1532 11.9586 11.0547 12.1735H11.6401C11.6711 12.0999 11.868 11.6307 11.868 11.6307L12.4783 11.6303C12.4783 11.6303 12.5376 12.0871 12.5513 12.1735H13.1286C13.1154 12.1028 13.0598 11.7737 12.9954 11.3911C13.4064 11.4137 13.819 11.4186 14.203 11.4126C14.2223 11.4452 14.2327 11.4802 14.2327 11.5175C14.2327 11.531 14.2316 11.5436 14.2286 11.5579C14.2207 11.607 14.1948 11.6474 14.1551 11.6752C14.0756 11.731 13.9617 11.7187 13.883 11.7052C13.6964 11.6725 13.5489 11.5311 13.4291 11.4143C13.3542 11.5366 13.1974 11.792 13.1463 11.8753C13.3662 12.0755 13.6043 12.1976 13.856 12.2326C14.1099 12.2708 14.3626 12.2136 14.5492 12.0758C14.7119 11.9557 14.8153 11.7799 14.8468 11.5678C14.8571 11.5064 14.8611 11.4489 14.8583 11.3939C15.2698 11.3764 15.6117 11.3507 15.8316 11.3315C15.9033 11.3841 15.9406 11.4464 15.9406 11.5175C15.9406 11.531 15.9388 11.5436 15.9371 11.5579C15.9284 11.607 15.9027 11.6474 15.8629 11.6752C15.7832 11.731 15.6696 11.7187 15.5912 11.7052C15.4045 11.6725 15.2564 11.5311 15.1379 11.4143C15.0625 11.5366 14.9055 11.792 14.8543 11.8753C15.0746 12.0755 15.3122 12.1976 15.5636 12.2326C15.8182 12.2708 16.0701 12.2136 16.2566 12.0758C16.4202 11.9557 16.5229 11.7799 16.5545 11.5678C16.5747 11.4497 16.5701 11.3431 16.5422 11.2482C16.6349 11.2343 16.7245 11.2208 16.8107 11.2068C16.7453 11.6651 16.6836 12.0946 16.6721 12.1735H18.082C18.0957 12.0775 18.1319 11.8245 18.1494 11.7021H17.2949L17.3532 11.2985H18.1278C18.1398 11.2148 18.1673 11.0239 18.1852 10.8993C18.2912 10.8657 18.3438 10.8458 18.3438 10.8458C18.3438 10.8458 18.606 10.7671 18.9452 10.6413C18.8966 10.9832 18.7471 12.0281 18.7261 12.1735H19.337C19.355 12.0441 19.5724 10.5332 19.5724 10.5332H20.014C20.0274 10.4393 20.0693 10.1394 20.0891 10.0033C19.86 10.1306 19.4269 10.3304 18.8092 10.5332Z" fill="#FEFEFE"/>
<path fill-rule="evenodd" clip-rule="evenodd" d="M14.6301 10.9593C14.5771 10.9181 14.5151 10.881 14.4442 10.8496C14.4416 10.848 14.2865 10.77 14.2865 10.77L14.2832 10.7692L14.2812 10.7677C14.2298 10.7385 14.1101 10.6687 14.1101 10.5515C14.1106 10.4954 14.1328 10.4455 14.1727 10.412C14.2232 10.37 14.2992 10.3549 14.3805 10.3697C14.4838 10.3857 14.6027 10.4528 14.7334 10.5647C14.7949 10.4455 14.9137 10.2185 14.9553 10.1371C14.806 10.014 14.6618 9.9478 14.4453 9.90958C14.1788 9.87042 13.9212 9.92729 13.7409 10.0642C13.5881 10.1811 13.4941 10.3514 13.4688 10.5577C13.4644 10.5929 13.4629 10.6273 13.4629 10.66C13.4629 10.756 13.4801 10.8415 13.5142 10.9156C13.5266 10.9165 13.539 10.9172 13.5518 10.9181C13.8253 10.9389 14.1992 10.9559 14.6301 10.9593Z" fill="#FEFEFE"/>
<path fill-rule="evenodd" clip-rule="evenodd" d="M17.4726 10.4606H18.3042C18.3179 10.3649 18.3546 10.1119 18.3717 9.99023H16.9852C16.9767 10.0466 16.9229 10.4179 16.8628 10.8401C17.0546 10.8162 17.2448 10.7879 17.4303 10.7549L17.4726 10.4606Z" fill="#FEFEFE"/>
<path fill-rule="evenodd" clip-rule="evenodd" d="M8.96769 12.8291L8.66529 14.5459H8.36631L8.66902 12.8291H8.96769ZM7.61882 13.1025L7.44043 14.1075H7.86155L8.03808 13.1025H7.61882ZM8.37826 12.8643L8.11672 14.3477H7.35C7.26687 14.3477 7.20797 14.3306 7.17363 14.2962C7.13944 14.2631 7.12794 14.2136 7.13975 14.1475L7.36585 12.8643H8.37826Z" fill="#FEFEFE"/>
<path fill-rule="evenodd" clip-rule="evenodd" d="M10.0938 12.8663L9.95346 13.6628H9.56311L9.48075 14.1286H10.0099L10.2394 12.8301H10.5379L10.4173 13.5116H10.6398L10.7598 12.8301H11.0586L10.7561 14.5464H10.459L10.6018 13.734H10.3797L10.2364 14.5478H9.93621L9.97149 14.3478H9.40367C9.31914 14.3478 9.25807 14.3317 9.22093 14.2998C9.18255 14.2658 9.16934 14.2157 9.18068 14.1514L9.29987 13.4753H9.68774L9.75549 13.0829H9.36902L9.40725 12.8663H10.0938Z" fill="#FEFEFE"/>
<path fill-rule="evenodd" clip-rule="evenodd" d="M13.1202 12.8301L12.8173 14.5469H12.5269L12.8293 12.8301H13.1202ZM11.6443 13.1831C11.5969 13.2914 11.5576 13.4343 11.5268 13.611C11.4936 13.798 11.4816 13.9467 11.49 14.0572C11.4987 14.1763 11.5312 14.2359 11.5879 14.2359C11.6415 14.2359 11.6942 14.1763 11.7458 14.0572C11.7938 13.9467 11.8343 13.798 11.8668 13.611C11.8981 13.4343 11.9096 13.2914 11.8999 13.1831C11.8901 13.0656 11.8581 13.0068 11.8044 13.0068C11.7479 13.0068 11.6948 13.0656 11.6443 13.1831ZM12.0308 13.7328L12.0743 13.511H12.2715L12.3919 12.8301H12.6808L12.3782 14.5466H12.0878L12.2317 13.7325L12.0308 13.7328ZM12.1406 13.638C12.0961 13.8665 12.0253 14.0519 11.926 14.193C11.82 14.345 11.6969 14.4212 11.5561 14.4212C11.4123 14.4212 11.3142 14.3416 11.2617 14.1831C11.2137 14.0362 11.2105 13.8454 11.2522 13.6103C11.292 13.3831 11.3614 13.1969 11.4606 13.0532C11.5689 12.8975 11.6948 12.8193 11.8383 12.8193C11.9616 12.8193 12.052 12.8789 12.109 12.9979C12.1619 13.109 12.1804 13.2574 12.1651 13.444C12.1651 13.444 12.163 13.4993 12.1406 13.638Z" fill="#FEFEFE"/>
<path fill-rule="evenodd" clip-rule="evenodd" d="M14.5596 14.219C14.6701 14.3023 14.8086 14.3568 14.9759 14.3817L14.8209 14.5525C14.6767 14.5268 14.5471 14.4833 14.4335 14.4218C14.3191 14.3568 14.2392 14.2832 14.1946 14.2016C14.1248 14.2832 14.0175 14.3576 13.8717 14.4235C13.7258 14.4895 13.5698 14.5349 13.4046 14.5604L13.3213 14.3918C13.4946 14.3692 13.6559 14.3142 13.8053 14.2272C13.9794 14.124 14.0779 14.005 14.1015 13.8701H14.3996C14.376 14.005 14.4296 14.1211 14.5596 14.219ZM15.1818 12.8291L15.0096 13.8087H14.7148L14.8872 12.8291H15.1818ZM14.7417 12.8291L14.5692 13.8082H14.2747L14.3589 13.3285H14.1459L14.1799 13.134H14.3938L14.4472 12.8291H14.7417ZM14.0312 12.8428C13.9928 13.0623 13.9886 13.2356 14.0183 13.3621C14.0464 13.4852 14.11 13.5806 14.2096 13.648L14.0328 13.7733C13.9673 13.729 13.9106 13.6717 13.8618 13.6003C13.8339 13.5607 13.8042 13.5083 13.7725 13.4437C13.7277 13.4979 13.6797 13.5495 13.6286 13.5978C13.5542 13.6696 13.4766 13.729 13.3958 13.7769L13.2646 13.6499C13.3873 13.5744 13.4817 13.4832 13.5487 13.3761C13.6322 13.2466 13.6937 13.0689 13.7336 12.8428H14.0312Z" fill="#FEFEFE"/>
<path fill-rule="evenodd" clip-rule="evenodd" d="M16.8133 14.0346C16.9289 14.0968 16.979 14.1739 16.9625 14.2652C16.947 14.3569 16.8697 14.434 16.7322 14.4966C16.578 14.5667 16.3793 14.6017 16.1353 14.6017C15.8879 14.6017 15.6996 14.5667 15.5691 14.4966C15.4531 14.434 15.404 14.3569 15.42 14.2652C15.4362 14.1739 15.5127 14.0968 15.6508 14.0346C15.8057 13.9656 16.0065 13.9307 16.2531 13.9307C16.4976 13.9307 16.6839 13.9656 16.8133 14.0346ZM15.8531 14.1694C15.7728 14.1949 15.7294 14.2265 15.723 14.2648C15.7164 14.3021 15.7484 14.3335 15.8195 14.359C15.901 14.3878 16.0175 14.4028 16.1698 14.4028C16.3194 14.4028 16.4393 14.3878 16.5297 14.359C16.6105 14.3335 16.6545 14.3021 16.6613 14.2648C16.668 14.2265 16.6349 14.1949 16.5629 14.1694C16.4815 14.1416 16.3662 14.1279 16.2183 14.1279C16.0672 14.1279 15.9454 14.1416 15.8531 14.1694ZM17.1817 13.6211L17.1469 13.818H15.3931L15.4282 13.6211H17.1817ZM17.1959 12.8643L17.1612 13.0608H16.5423C16.5294 13.1351 16.5886 13.1998 16.7209 13.254C16.8473 13.3073 17.015 13.3409 17.2242 13.3558L17.0677 13.5112C16.8766 13.4927 16.7223 13.4659 16.6043 13.4311C16.4878 13.3985 16.4035 13.3564 16.3512 13.3057C16.2802 13.3564 16.179 13.3985 16.0461 13.4311C15.9173 13.4644 15.7599 13.4914 15.5733 13.5112L15.4878 13.3538C15.7016 13.3405 15.878 13.3065 16.0169 13.2521C16.1557 13.2007 16.232 13.1368 16.2449 13.0608H15.6544L15.6889 12.8643H17.1959Z" fill="#FEFEFE"/>
<path fill-rule="evenodd" clip-rule="evenodd" d="M19.2855 12.8301L19.0556 14.1314H18.7562L18.7837 13.9735H18.44L18.4741 13.7805H18.8174L18.842 13.6444H18.1843L18.1158 14.0346H17.8693L17.8154 14.3411H19.0308L18.9964 14.538H17.7464C17.6505 14.538 17.584 14.5228 17.5477 14.492C17.5136 14.4628 17.5026 14.4145 17.5146 14.3466L17.5837 13.9558H17.8299L17.8846 13.6444H17.4478L17.4818 13.4514H18.233C18.2605 13.4007 18.2836 13.3451 18.3006 13.2841C18.3158 13.2327 18.3312 13.158 18.3483 13.061H17.6293L17.6639 12.8641H18.6793L18.6348 13.1138C18.623 13.1807 18.6093 13.2374 18.593 13.2854C18.5742 13.3427 18.5511 13.3979 18.5229 13.4514H18.8762L18.9852 12.8301H19.2855Z" fill="#FEFEFE"/>
</svg>
