<svg width="24" height="24" viewBox="0 0 24 24" fill="none" xmlns="http://www.w3.org/2000/svg">
<circle cx="12" cy="12" r="12" fill="#00427A"/>
<path fill-rule="evenodd" clip-rule="evenodd" d="M4.38075 11.1895C4.36132 11.322 4.09249 13.1978 4.06763 13.3728H4.6687C4.68734 13.2401 4.95649 11.364 4.98213 11.1895H4.38075Z" fill="#FEFEFE"/>
<path fill-rule="evenodd" clip-rule="evenodd" d="M9.30198 11.1895C9.28302 11.322 9.01403 13.1978 8.98901 13.3728H10.3991C10.4123 13.2769 10.4483 13.0237 10.466 12.9014H9.61199L9.6698 12.4977H10.4448C10.4583 12.4042 10.4912 12.1771 10.5082 12.0578H9.73274L9.79023 11.6598H10.6214C10.6356 11.5641 10.6716 11.3111 10.6894 11.1895H9.30198Z" fill="#FEFEFE"/>
<path fill-rule="evenodd" clip-rule="evenodd" d="M2.60426 12.4402C2.60426 12.4402 3.10681 11.2897 3.14675 11.1895H3.90353C3.90384 11.3424 3.80267 13.2178 3.80407 13.3728H3.25941L3.34923 11.8437C3.34923 11.8437 2.73666 13.275 2.69579 13.3728H2.26534L2.07188 11.8437C2.05805 11.9131 1.8537 12.9342 1.74228 13.3728H1.19995C1.25652 13.1781 1.67142 11.3013 1.70374 11.1895H2.43302L2.60426 12.4402Z" fill="#FEFEFE"/>
<path fill-rule="evenodd" clip-rule="evenodd" d="M7.73071 12.4802L8.07523 11.6699L8.18758 12.4802H7.73071ZM8.24494 12.9308C8.24494 12.9308 8.28426 13.2864 8.29731 13.3728H8.87414C8.84197 13.1928 8.52745 11.3172 8.50414 11.1895H7.7744C7.73245 11.2805 6.89921 13.1579 6.80054 13.3728H7.38591C7.41715 13.2991 7.56571 12.931 7.56571 12.931L8.24494 12.9308Z" fill="#FEFEFE"/>
<path fill-rule="evenodd" clip-rule="evenodd" d="M5.82011 11.5991H5.95421C6.04621 11.5991 6.14861 11.6087 6.21217 11.6824C6.25692 11.7344 6.27324 11.8078 6.25988 11.9009C6.25988 11.9009 6.24123 12.0681 6.13183 12.1206C6.13183 12.1206 6.056 12.1698 5.93075 12.1731H5.65896L6.17239 13.3726H6.75575L6.31458 12.4524C6.58186 12.4032 6.79055 12.3237 6.84323 11.9092C6.85038 11.857 6.85473 11.8075 6.85473 11.761C6.85473 11.6075 6.81464 11.4835 6.73477 11.3915C6.58963 11.2243 6.34084 11.1895 6.15732 11.1895H5.33263C5.31352 11.322 5.04499 13.1978 5.01904 13.3726H5.56712C5.58499 13.2506 5.82011 11.5991 5.82011 11.5991Z" fill="#FEFEFE"/>
<path fill-rule="evenodd" clip-rule="evenodd" d="M22.6719 8.39941C22.3212 9.85205 21.0615 10.6438 20.3209 11.0666L20.2891 11.024C20.5935 10.777 21.6353 10.0079 21.9683 8.73367L22.6719 8.39941Z" fill="#FEFEFE"/>
<path fill-rule="evenodd" clip-rule="evenodd" d="M16.8372 12.2147C16.831 12.216 16.8246 12.2168 16.8182 12.218C16.8243 12.2168 16.831 12.216 16.8372 12.2147Z" fill="#004179"/>
<path fill-rule="evenodd" clip-rule="evenodd" d="M17.6259 12.059C17.6364 12.0563 17.6472 12.0538 17.658 12.0515C17.6472 12.0538 17.6357 12.0563 17.6244 12.059H17.6259Z" fill="#004179"/>
<path fill-rule="evenodd" clip-rule="evenodd" d="M16.6662 12.2427C16.6533 12.2449 16.6415 12.2464 16.6288 12.2486C16.6415 12.2464 16.6533 12.2449 16.6662 12.2427Z" fill="#004179"/>
<path fill-rule="evenodd" clip-rule="evenodd" d="M17.8577 12.003C17.8157 12.0131 17.7737 12.0233 17.7313 12.0333C17.7737 12.0233 17.8157 12.0131 17.8577 12.003Z" fill="#004179"/>
<path fill-rule="evenodd" clip-rule="evenodd" d="M16.4545 12.2749C16.4583 12.2743 16.4623 12.2735 16.4665 12.2731C16.4623 12.2735 16.4583 12.2743 16.4545 12.2749Z" fill="#004179"/>
<path fill-rule="evenodd" clip-rule="evenodd" d="M18.1456 11.9296C18.1192 11.9367 18.0931 11.9434 18.0664 11.9504C18.0931 11.9434 18.1192 11.9367 18.1456 11.9296Z" fill="#004179"/>
<path fill-rule="evenodd" clip-rule="evenodd" d="M15.5111 12.3852C15.5095 12.3852 15.5083 12.3852 15.5066 12.3855C15.5083 12.3852 15.5097 12.3852 15.5111 12.3852Z" fill="#004179"/>
<path fill-rule="evenodd" clip-rule="evenodd" d="M18.8095 11.7336H18.8091C18.7486 11.7534 18.6871 11.7728 18.6235 11.7928C18.6871 11.7728 18.7494 11.7534 18.8095 11.7336Z" fill="#004179"/>
<path fill-rule="evenodd" clip-rule="evenodd" d="M18.5846 11.8042C18.5592 11.8123 18.5333 11.8201 18.5073 11.8277C18.5333 11.8201 18.5592 11.8123 18.5846 11.8042Z" fill="#004179"/>
<path fill-rule="evenodd" clip-rule="evenodd" d="M18.4656 11.8394C18.3791 11.8649 18.2891 11.8902 18.1968 11.9156C18.2891 11.8902 18.3791 11.8649 18.4656 11.8394Z" fill="#004179"/>
<path fill-rule="evenodd" clip-rule="evenodd" d="M18.0089 11.9662C17.9822 11.9726 17.9564 11.9789 17.9297 11.9861C17.9564 11.9789 17.9822 11.9726 18.0089 11.9662Z" fill="#004179"/>
<path fill-rule="evenodd" clip-rule="evenodd" d="M12.9666 12.4246H12.9715C12.97 12.4246 12.968 12.4246 12.9666 12.4241V12.4246Z" fill="#004179"/>
<path fill-rule="evenodd" clip-rule="evenodd" d="M13.9676 12.4508L13.967 12.4507H13.9437C13.9516 12.4507 13.9597 12.4508 13.9676 12.4508Z" fill="#004179"/>
<path fill-rule="evenodd" clip-rule="evenodd" d="M13.7466 12.4501C13.7326 12.4496 13.7187 12.4496 13.7047 12.4495C13.7187 12.4496 13.7326 12.4496 13.7466 12.4501Z" fill="#004179"/>
<path fill-rule="evenodd" clip-rule="evenodd" d="M15.3547 12.3973C15.3498 12.3976 15.3442 12.3979 15.3387 12.3987C15.3442 12.3979 15.3498 12.3976 15.3547 12.3973Z" fill="#004179"/>
<path fill-rule="evenodd" clip-rule="evenodd" d="M15.0109 12.4208C15.0069 12.4211 15.0032 12.4213 14.999 12.4221C15.0032 12.4213 15.0069 12.4211 15.0109 12.4208Z" fill="#004179"/>
<path fill-rule="evenodd" clip-rule="evenodd" d="M15.1846 12.4103C15.1796 12.4103 15.1747 12.4109 15.17 12.4111C15.1747 12.4109 15.1796 12.4103 15.1846 12.4103Z" fill="#004179"/>
<path fill-rule="evenodd" clip-rule="evenodd" d="M14.8291 12.4314C14.8312 12.4314 14.8329 12.431 14.8351 12.431C14.8329 12.431 14.8312 12.431 14.8291 12.4314Z" fill="#004179"/>
<path fill-rule="evenodd" clip-rule="evenodd" d="M16.1525 12.0487C16.1485 12.0472 15.9934 11.9691 15.9934 11.9691L15.9914 11.9684L15.9892 11.967C15.9382 11.9376 15.8181 11.8678 15.8181 11.7507C15.8186 11.6946 15.8407 11.6447 15.8812 11.6111C15.9305 11.5692 16.0068 11.5541 16.0887 11.5688C16.192 11.5849 16.3106 11.652 16.4408 11.7639C16.503 11.6447 16.6212 11.4176 16.6635 11.3362C16.5141 11.2131 16.369 11.1469 16.1535 11.1089C15.8868 11.0696 15.6292 11.1264 15.4489 11.2633C15.2965 11.3802 15.2017 11.5505 15.1768 11.7569C15.1726 11.792 15.1709 11.8265 15.1709 11.8591C15.1709 11.9727 15.1944 12.0711 15.2422 12.1534C15.5676 12.146 15.9096 12.1298 16.2549 12.1015C16.2232 12.083 16.1894 12.0652 16.1525 12.0487Z" fill="#FEFEFE"/>
<path fill-rule="evenodd" clip-rule="evenodd" d="M18.5858 11.1895C18.5729 11.2808 18.5305 11.5682 18.5103 11.7086C18.9339 11.5901 19.4473 11.4193 19.9223 11.1895H18.5858Z" fill="#FEFEFE"/>
<mask id="mask0_802_6028" style="mask-type:alpha" maskUnits="userSpaceOnUse" x="11" y="11" width="10" height="3">
<path fill-rule="evenodd" clip-rule="evenodd" d="M11.0544 11.1895H20.0888V13.4433H11.0544V11.1895Z" fill="white"/>
</mask>
<g mask="url(#mask0_802_6028)">
<path fill-rule="evenodd" clip-rule="evenodd" d="M18.809 11.7324C18.7493 11.7521 18.6872 11.7716 18.6235 11.7916C18.6107 11.7955 18.5975 11.7995 18.5846 11.8033C18.5593 11.8113 18.5333 11.8191 18.5072 11.8267C18.4934 11.8311 18.4794 11.8348 18.4657 11.8392C18.3792 11.8648 18.2892 11.8901 18.1969 11.9152C18.18 11.9198 18.1627 11.9249 18.1453 11.9296C18.119 11.9366 18.0929 11.9433 18.0662 11.9503C18.0466 11.9556 18.0278 11.9605 18.0086 11.9657C17.9818 11.972 17.956 11.9786 17.929 11.9855C17.9058 11.9913 17.8816 11.9974 17.8577 12.0028C17.8157 12.0131 17.7738 12.0232 17.7312 12.0333C17.7065 12.039 17.6828 12.0451 17.658 12.0503C17.6471 12.0527 17.6364 12.0552 17.626 12.0578H17.6247C17.3781 12.1137 17.1158 12.1666 16.8375 12.2141C16.8311 12.2152 16.8248 12.216 16.8185 12.2172C16.7685 12.2258 16.7175 12.2339 16.6662 12.2421C16.6535 12.2443 16.6415 12.246 16.6288 12.248C16.575 12.2562 16.5206 12.2646 16.4661 12.2727C16.4619 12.2732 16.4579 12.274 16.4541 12.2746C16.1555 12.3182 15.8408 12.3552 15.5109 12.3843C15.5096 12.3843 15.5081 12.3843 15.5064 12.3846C15.4565 12.3891 15.4057 12.3931 15.3546 12.397C15.3494 12.3973 15.3438 12.3977 15.3385 12.3984C15.2874 12.4023 15.236 12.406 15.1844 12.4098C15.1794 12.4098 15.1744 12.4104 15.1698 12.4106C15.117 12.414 15.0638 12.4171 15.0108 12.4203C15.0068 12.4207 15.0027 12.4208 14.9987 12.4216C14.9442 12.4242 14.8899 12.4273 14.8348 12.4297C14.8326 12.4297 14.8309 12.4301 14.8287 12.4301C14.5508 12.4435 14.2635 12.4505 13.9669 12.4505L13.9675 12.4506C13.9594 12.4506 13.9515 12.4505 13.9436 12.4505C13.8784 12.4505 13.8126 12.4499 13.7464 12.4492C13.7324 12.4488 13.7184 12.4488 13.7044 12.4486C13.4659 12.4455 13.2213 12.4373 12.9717 12.4239H12.9666V12.4235C12.5877 12.4034 12.1957 12.3715 11.7909 12.326L12.2564 11.8881C12.2564 11.8881 12.5278 11.9694 12.9012 12.0365C12.8305 11.6145 12.768 11.2432 12.7585 11.1895H12.0283C11.9857 11.2805 11.153 13.1579 11.0544 13.3728H11.6398C11.6709 13.2991 11.8678 12.83 11.8678 12.83L12.478 12.8295C12.478 12.8295 12.5374 13.2864 12.5511 13.3728H13.1284C13.1151 13.3021 13.0595 12.9729 12.9952 12.5903C13.4062 12.6129 13.8188 12.6179 14.2028 12.6118C14.222 12.6444 14.2324 12.6794 14.2324 12.7167C14.2324 12.7302 14.2314 12.7428 14.2284 12.7571C14.2205 12.8062 14.1945 12.8466 14.1549 12.8744C14.0753 12.9302 13.9614 12.9179 13.8828 12.9044C13.6962 12.8718 13.5487 12.7304 13.4289 12.6135C13.354 12.7358 13.1972 12.9913 13.1461 13.0746C13.366 13.2747 13.604 13.3968 13.8558 13.4318C14.1097 13.47 14.3624 13.4129 14.549 13.275C14.7117 13.1549 14.815 12.9791 14.8466 12.767C14.8568 12.7056 14.8609 12.6482 14.8581 12.5931C15.2696 12.5756 15.6114 12.5499 15.8313 12.5307C15.9031 12.5834 15.9404 12.6457 15.9404 12.7167C15.9404 12.7302 15.9385 12.7428 15.9368 12.7571C15.9281 12.8062 15.9025 12.8466 15.8627 12.8744C15.783 12.9302 15.6694 12.9179 15.5909 12.9044C15.4043 12.8718 15.2562 12.7304 15.1376 12.6135C15.0623 12.7358 14.9053 12.9913 14.854 13.0746C15.0744 13.2747 15.312 13.3968 15.5634 13.4318C15.8179 13.47 16.0698 13.4129 16.2563 13.275C16.4199 13.1549 16.5227 12.9791 16.5542 12.767C16.5744 12.6489 16.5699 12.5423 16.5419 12.4474C16.6347 12.4336 16.7242 12.42 16.8105 12.406C16.745 12.8643 16.6833 13.2938 16.6718 13.3728H18.0817C18.0954 13.2767 18.1316 13.0237 18.1492 12.9013H17.2947L17.3529 12.4977H18.1276C18.1396 12.414 18.1671 12.2231 18.1849 12.0985C18.2909 12.065 18.3436 12.0451 18.3436 12.0451C18.3436 12.0451 18.6057 11.9663 18.945 11.8406C18.8963 12.1824 18.7468 13.2273 18.7259 13.3728H19.3367C19.3547 13.2433 19.5721 11.7324 19.5721 11.7324H20.0138C20.0271 11.6385 20.0691 11.3386 20.0888 11.2025C19.8598 11.3298 19.4267 11.5296 18.809 11.7324Z" fill="#FEFEFE"/>
</g>
<path fill-rule="evenodd" clip-rule="evenodd" d="M14.6298 12.1585C14.5768 12.1173 14.5148 12.0802 14.444 12.0488C14.4413 12.0472 14.2862 11.9692 14.2862 11.9692L14.283 11.9684L14.281 11.9669C14.2295 11.9377 14.1099 11.8679 14.1099 11.7507C14.1103 11.6946 14.1326 11.6448 14.1725 11.6112C14.223 11.5692 14.299 11.5542 14.3803 11.5689C14.4836 11.5849 14.6025 11.6521 14.7332 11.7639C14.7947 11.6448 14.9134 11.4177 14.9551 11.3363C14.8057 11.2132 14.6615 11.147 14.4451 11.1088C14.1786 11.0696 13.9209 11.1265 13.7406 11.2634C13.5879 11.3803 13.4939 11.5506 13.4686 11.757C13.4642 11.7921 13.4626 11.8266 13.4626 11.8592C13.4626 11.9552 13.4799 12.0407 13.5139 12.1148C13.5264 12.1158 13.5388 12.1164 13.5515 12.1173C13.825 12.1381 14.1989 12.1551 14.6298 12.1585Z" fill="#FEFEFE"/>
<path fill-rule="evenodd" clip-rule="evenodd" d="M17.4731 11.6598H18.3047C18.3184 11.5641 18.3551 11.3111 18.3722 11.1895H16.9857C16.9772 11.2459 16.9234 11.6171 16.8633 12.0393C17.055 12.0154 17.2452 11.9871 17.4308 11.9542L17.4731 11.6598Z" fill="#FEFEFE"/>
</svg>
