<svg width="24" height="24" viewBox="0 0 24 24" fill="none" xmlns="http://www.w3.org/2000/svg">
<circle cx="12" cy="12" r="12" fill="#537833"/>
<path fill-rule="evenodd" clip-rule="evenodd" d="M19.4527 13.9016L18.4035 13.2155C17.7185 13.6989 16.7793 13.7455 16.0352 13.2583C16.0352 13.2583 12.8405 11.1713 12.5457 10.9757C12.194 10.7405 11.7556 10.7259 11.3806 10.9697C11.0066 11.2131 7.87803 13.2583 7.87803 13.2583C7.13342 13.7455 6.19587 13.6989 5.50923 13.2155L4.46167 13.9016C3.58265 14.4766 3.33553 15.6542 3.90998 16.5327C4.48443 17.4123 5.6626 17.6594 6.54162 17.0838L11.4196 13.8956C11.8038 13.6588 12.1165 13.6588 12.4959 13.8945L17.3717 17.0838C18.2512 17.6594 19.4288 17.4123 20.0038 16.5327C20.5772 15.6542 20.3312 14.4766 19.4527 13.9016Z" fill="#C9D2BE"/>
<path fill-rule="evenodd" clip-rule="evenodd" d="M11.6016 7.99706C11.7089 7.93095 11.8357 7.89355 11.9712 7.89355C12.1039 7.89355 12.2281 7.92986 12.3354 7.99381C12.5353 8.11358 14.6597 9.52099 14.6597 9.52099C15.3642 9.98109 16.2698 9.88788 16.8681 9.35028L18.0739 10.1404C18.8212 10.6276 19.031 11.6297 18.5427 12.377C18.0539 13.1238 17.0529 13.334 16.3056 12.8452C16.3056 12.8452 12.8415 10.5864 12.505 10.3935C12.1684 10.1995 11.7707 10.1914 11.4249 10.3973C11.1442 10.5637 7.60805 12.8452 7.60805 12.8452C6.86777 13.2923 5.85923 13.1238 5.37094 12.377C4.88266 11.6297 5.09239 10.6276 5.83917 10.1404L7.04606 9.35028C7.64382 9.88788 8.54885 9.98109 9.25445 9.52099C9.25445 9.52099 11.3918 8.12442 11.6016 7.99706Z" fill="#DCE4D9"/>
<mask id="mask0_820_10498" style="mask-type:alpha" maskUnits="userSpaceOnUse" x="6" y="4" width="11" height="6">
<path fill-rule="evenodd" clip-rule="evenodd" d="M6.93555 4.14258H16.9776V9.32141H6.93555V4.14258Z" fill="white"/>
</mask>
<g mask="url(#mask0_820_10498)">
<path fill-rule="evenodd" clip-rule="evenodd" d="M12.3752 7.42441L14.9304 9.10657C15.5423 9.50598 16.3622 9.33364 16.7622 8.72234C17.1616 8.11158 16.9898 7.29109 16.3785 6.8906L12.3568 4.2595C12.1015 4.10397 11.8127 4.10397 11.5645 4.25733L7.53573 6.8906C6.92334 7.29109 6.75155 8.11158 7.15095 8.72234C7.55199 9.33364 8.37085 9.50598 8.9827 9.10657L11.5748 7.42332C11.6962 7.34311 11.823 7.28675 11.9742 7.28675C12.1254 7.28675 12.2549 7.34311 12.3752 7.42441Z" fill="#FEFEFE"/>
</g>
<path fill-rule="evenodd" clip-rule="evenodd" d="M14.7006 19.212L12.6104 15.7929C12.4446 15.5106 12.2029 15.367 11.9568 15.3594C11.7108 15.367 11.4685 15.5106 11.3027 15.7929L9.21245 19.212C8.94148 19.6315 9.00543 20.3007 9.7533 20.3007H14.1598C14.9071 20.3007 14.9716 19.6315 14.7006 19.212Z" fill="#FEFEFE"/>
</svg>
