<svg width="24" height="24" viewBox="0 0 24 24" fill="none" xmlns="http://www.w3.org/2000/svg">
<circle cx="12" cy="12" r="12" fill="#026693"/>
<mask id="mask0_820_10501" style="mask-type:alpha" maskUnits="userSpaceOnUse" x="3" y="6" width="14" height="14">
<path fill-rule="evenodd" clip-rule="evenodd" d="M3.59961 6.53027H16.1832V19.1138H3.59961V6.53027Z" fill="white"/>
</mask>
<g mask="url(#mask0_820_10501)">
<path fill-rule="evenodd" clip-rule="evenodd" d="M9.89131 6.53027C6.41648 6.53027 3.59961 9.34714 3.59961 12.822C3.59961 16.297 6.41648 19.1139 9.89131 19.1139C12.0905 19.1139 14.0253 17.9847 15.1499 16.2751L13.6488 14.8767C12.9151 16.1668 11.5308 17.0386 9.94072 17.0386C7.58477 17.0386 5.6749 15.1285 5.6749 12.7726C5.6749 10.4168 7.58477 8.50674 9.94072 8.50674C11.8057 8.50674 13.3869 9.70528 13.9668 11.3726H9.39719C8.64218 11.3726 8.03007 11.9847 8.03007 12.7398C8.03007 12.9459 8.07711 13.1408 8.15893 13.3161H9.39719H10.6354H11.4725H14.1682H15.9526H16.1621C16.1747 13.153 16.1832 12.9886 16.1832 12.822C16.1832 9.34714 13.3661 6.53027 9.89131 6.53027Z" fill="white"/>
</g>
<mask id="mask1_820_10501" style="mask-type:alpha" maskUnits="userSpaceOnUse" x="15" y="4" width="6" height="7">
<path fill-rule="evenodd" clip-rule="evenodd" d="M15.1035 4.99805H20.2769V10.1716H15.1035V4.99805Z" fill="white"/>
</mask>
<g mask="url(#mask1_820_10501)">
<path fill-rule="evenodd" clip-rule="evenodd" d="M17.69 8.86143C16.9846 8.86143 16.4126 8.28944 16.4126 7.58403C16.4126 6.87863 16.9846 6.30664 17.69 6.30664C18.3954 6.30664 18.9674 6.87863 18.9674 7.58403C18.9674 8.28944 18.3954 8.86143 17.69 8.86143ZM17.6901 4.99805C16.2615 4.99805 15.1035 6.15626 15.1035 7.58485C15.1035 9.01344 16.2615 10.1717 17.6901 10.1717C19.1187 10.1717 20.2769 9.01344 20.2769 7.58485C20.2769 6.15626 19.1187 4.99805 17.6901 4.99805Z" fill="#F78E1D"/>
</g>
</svg>
