<svg width="24" height="24" viewBox="0 0 24 24" fill="none" xmlns="http://www.w3.org/2000/svg">
<circle cx="12" cy="12" r="12" fill="#EC008C"/>
<path fill-rule="evenodd" clip-rule="evenodd" d="M17.2332 10.5674V15.3138H18.5745V13.4289L19.8364 15.3138H21.4574L19.7829 12.8235H18.5745V10.5674H17.2332Z" fill="#D7D8DA"/>
<mask id="mask0_820_10692" style="mask-type:alpha" maskUnits="userSpaceOnUse" x="18" y="8" width="5" height="6">
<path fill-rule="evenodd" clip-rule="evenodd" d="M18.2705 8.5918H22.7056V13.5521H18.2705V8.5918Z" fill="white"/>
</mask>
<g mask="url(#mask0_820_10692)">
<path fill-rule="evenodd" clip-rule="evenodd" d="M22.7058 8.5918L21.884 13.0097L21.488 12.2626C21.488 12.2626 21.224 11.784 21.0066 11.5671L19.2813 13.5522L18.2705 12.6734L19.996 10.6881C19.7512 10.5029 19.2404 10.3085 19.2404 10.3085L18.4456 10.0203L22.7058 8.5918Z" fill="#FEFEFE"/>
</g>
<path fill-rule="evenodd" clip-rule="evenodd" d="M4.08836 10.1814C4.08741 10.009 4.05491 9.87483 3.97998 9.72363H4.81665C4.82659 9.72363 4.83519 9.73109 4.83519 9.73701V14.1901C4.83519 14.1956 4.82735 14.2015 4.81665 14.2015H4.1071C4.09582 14.2015 4.08836 14.1956 4.08836 14.1901V10.1814Z" fill="#FEFEFE"/>
<mask id="mask1_820_10692" style="mask-type:alpha" maskUnits="userSpaceOnUse" x="1" y="10" width="3" height="4">
<path fill-rule="evenodd" clip-rule="evenodd" d="M1.2002 10H3.49895V13.6298H1.2002V10Z" fill="white"/>
</mask>
<g mask="url(#mask1_820_10692)">
<path fill-rule="evenodd" clip-rule="evenodd" d="M1.39115 10V10.5406H2.66517C2.74909 10.5406 2.74278 10.6103 2.74278 10.6356C2.74278 10.8606 2.71793 11.0704 2.67511 11.2656H1.35598V11.8064H2.49772C2.06267 12.7883 1.2002 13.2561 1.2002 13.2561L1.77422 13.6298C3.35828 12.6442 3.49897 11.3048 3.49897 10.2921V10H1.39115Z" fill="#FEFEFE"/>
</g>
<mask id="mask2_820_10692" style="mask-type:alpha" maskUnits="userSpaceOnUse" x="1" y="8" width="22" height="8">
<path fill-rule="evenodd" clip-rule="evenodd" d="M1.2002 15.3146H22.7058V8.5918H1.2002V15.3146Z" fill="white"/>
</mask>
<g mask="url(#mask2_820_10692)">
<path fill-rule="evenodd" clip-rule="evenodd" d="M6.47119 13.6036H8.06481V13.1318H6.47119V13.6036ZM9.25689 11.6914H5.30715C5.29587 11.6914 5.28784 11.6975 5.28784 11.7034V12.2064C5.28784 12.2119 5.29587 12.2182 5.30715 12.2182H6.84706V12.6122H5.63229C5.71086 12.7661 5.74393 12.902 5.74393 13.0763V14.1041C5.74393 14.1112 5.75291 14.1167 5.764 14.1167H8.78991C8.801 14.1167 8.8096 14.1112 8.8096 14.1041V12.6242C8.8096 12.6175 8.8008 12.6122 8.78991 12.6122H7.70494V12.2182H9.25689C9.26721 12.2182 9.276 12.2129 9.276 12.2064V11.7034C9.276 11.6968 9.26721 11.6914 9.25689 11.6914Z" fill="#FEFEFE"/>
<path fill-rule="evenodd" clip-rule="evenodd" d="M14.0435 10.3601V9.8486C14.0435 9.84248 14.049 9.83789 14.0557 9.83789H16.2297C16.2365 9.83789 16.2421 9.84286 16.2421 9.84898C16.2421 9.8549 16.2255 10.4861 16.0878 11.152C16.0878 11.1517 16.0865 11.1593 16.0865 11.1593L16.0804 11.1863H16.6301C16.6366 11.1863 16.6427 11.1914 16.6427 11.1974V11.7045C16.6427 11.7102 16.6366 11.7152 16.6301 11.7152H15.2714V12.5436C15.2714 12.5497 15.2659 12.5543 15.259 12.5543H14.5393C14.5324 12.5543 14.5267 12.5497 14.5267 12.5436V11.7152H13.8076C13.8007 11.7152 13.7952 11.7102 13.7952 11.7045V11.1974C13.7952 11.1914 13.8007 11.1863 13.8076 11.1863H15.3486L15.3553 11.1645C15.3756 11.0947 15.4446 10.8328 15.4721 10.411C15.4721 10.4104 15.474 10.3714 15.474 10.3714H15.448H14.0557C14.049 10.3714 14.0435 10.3662 14.0435 10.3601Z" fill="#FEFEFE"/>
<path fill-rule="evenodd" clip-rule="evenodd" d="M14.5727 14.1006V13.275C14.5727 13.1005 14.5417 12.9648 14.4678 12.8105C14.5003 12.8105 15.2987 12.8113 15.2987 12.8113C15.309 12.8113 15.3172 12.8172 15.3172 12.8255V13.5841H17.5715C17.5814 13.5841 17.59 13.5904 17.59 13.5979V14.1006C17.59 14.1086 17.5818 14.115 17.5715 14.115H14.5914C14.5813 14.115 14.5727 14.1086 14.5727 14.1006Z" fill="#FEFEFE"/>
<path fill-rule="evenodd" clip-rule="evenodd" d="M17.5539 9.73633C17.5638 9.73633 17.5724 9.74359 17.5724 9.74952V12.9909C17.5724 12.9962 17.5646 13.0023 17.5539 13.0023H16.8619C16.851 13.0023 16.8434 12.9962 16.8434 12.9909V12.4962H15.8161C15.806 12.4962 15.7976 12.4899 15.7976 12.482V11.9829C15.7976 11.9757 15.806 11.9695 15.8161 11.9695H16.8434V10.1941C16.8424 10.0215 16.8101 9.88753 16.735 9.73633H17.5539Z" fill="#FEFEFE"/>
<path fill-rule="evenodd" clip-rule="evenodd" d="M7.2685 10.0986C6.92882 10.0986 6.65356 10.2993 6.65356 10.5469C6.65356 10.7942 6.92882 10.9947 7.2685 10.9947C7.60798 10.9947 7.88362 10.7942 7.88362 10.5469C7.88362 10.2993 7.60798 10.0986 7.2685 10.0986ZM8.72121 10.5462C8.72121 11.0872 8.07073 11.5259 7.26847 11.5259C6.46621 11.5259 5.81592 11.0872 5.81592 10.5462C5.81592 10.0049 6.46621 9.56641 7.26847 9.56641C8.07073 9.56641 8.72121 10.0049 8.72121 10.5462Z" fill="#FEFEFE"/>
<path fill-rule="evenodd" clip-rule="evenodd" d="M9.9443 10.3609V9.84804C9.9443 9.84288 9.94889 9.83887 9.95462 9.83887H13.2105C13.2157 9.83887 13.2204 9.84288 13.2204 9.84804V10.3609C13.2204 10.3659 13.216 10.3701 13.2105 10.3701H12.0515L12.1205 10.4333C12.568 10.8432 13.3982 11.0538 13.4919 11.0762C13.4993 11.0785 13.5058 11.0827 13.5066 11.0844C13.5066 11.0848 13.4984 11.1031 13.4984 11.1031C13.4968 11.1043 13.1388 11.4812 13.122 11.5124C13.122 11.5118 13.1208 11.5132 13.1033 11.5103C13.0675 11.5015 12.1787 11.2838 11.6088 10.8554L11.5823 10.8357L11.5557 10.8554C10.992 11.2792 10.0945 11.5019 10.0567 11.5111C10.0448 11.513 10.0441 11.5128 10.037 11.5049C10.0345 11.4998 10.0238 11.4808 9.66064 11.0953C9.66293 11.0984 9.65796 11.0852 9.65796 11.0852C9.65891 11.0823 9.66618 11.0781 9.6721 11.0768C9.76539 11.054 10.5984 10.8413 11.0436 10.4337L11.113 10.3701H9.95462C9.94889 10.3701 9.9443 10.3659 9.9443 10.3609Z" fill="#FEFEFE"/>
<path fill-rule="evenodd" clip-rule="evenodd" d="M13.526 12.2049C13.5359 12.2049 13.5445 12.1994 13.5445 12.1931V11.69C13.5445 11.6833 13.5359 11.6777 13.526 11.6777H9.63874C9.62747 11.6777 9.61963 11.6842 9.61963 11.69V12.1931C9.61963 12.1986 9.62747 12.2049 9.63874 12.2049H13.526Z" fill="#FEFEFE"/>
<path fill-rule="evenodd" clip-rule="evenodd" d="M11.5818 12.8633C11.2367 12.8633 10.9573 13.0613 10.9573 13.3058C10.9573 13.5501 11.2367 13.7479 11.5818 13.7479C11.927 13.7479 12.2066 13.5501 12.2066 13.3058C12.2066 13.0613 11.927 12.8633 11.5818 12.8633ZM13.0418 13.3059C13.0418 13.844 12.3883 14.28 11.5818 14.28C10.7756 14.28 10.1218 13.844 10.1218 13.3059C10.1218 12.768 10.7756 12.332 11.5818 12.332C12.3883 12.332 13.0418 12.768 13.0418 13.3059Z" fill="#FEFEFE"/>
</g>
</svg>
