<svg width="24" height="24" viewBox="0 0 24 24" fill="none" xmlns="http://www.w3.org/2000/svg">
<circle cx="12" cy="12" r="12" fill="#0B4DA2"/>
<path fill-rule="evenodd" clip-rule="evenodd" d="M20.7305 13.7476H21.0247L21.0607 12.8828H19.8857V13.1354H20.7563L20.7305 13.7476Z" fill="#FEFEFE"/>
<path fill-rule="evenodd" clip-rule="evenodd" d="M21.2661 12.8105V14.2274H20.8555V14.4629H21.2661V14.8525H21.5782V12.8105H21.2661Z" fill="#FEFEFE"/>
<path fill-rule="evenodd" clip-rule="evenodd" d="M20.001 14.2295V15.2458H21.5778V14.9852H20.3041V14.2295H20.001Z" fill="#FEFEFE"/>
<path fill-rule="evenodd" clip-rule="evenodd" d="M20.4436 14.6706H20.7275V14.0985H21.1911V13.8467H19.8193V14.0985H20.4436V14.6706Z" fill="#FEFEFE"/>
<path fill-rule="evenodd" clip-rule="evenodd" d="M17.7754 14.0902H19.6018V13.8477H17.7754V14.0902Z" fill="#FEFEFE"/>
<path fill-rule="evenodd" clip-rule="evenodd" d="M14.9287 12.8105V14.0919H15.2439V13.5776H15.5103V13.3159H15.2439V12.8105H14.9287Z" fill="#FEFEFE"/>
<path fill-rule="evenodd" clip-rule="evenodd" d="M13.7632 15.3963H15.2438V14.1963H13.7632V15.3963ZM14.0655 15.1026H14.9403V14.4893H14.0655V15.1026Z" fill="#FEFEFE"/>
<path fill-rule="evenodd" clip-rule="evenodd" d="M17.376 12.8105V14.0919H17.0662V13.5776H16.665V13.3165H17.0615V12.8105H17.376Z" fill="#FEFEFE"/>
<path fill-rule="evenodd" clip-rule="evenodd" d="M17.1118 14.7246C17.1118 14.5399 16.8831 14.3896 16.6014 14.3896C16.3194 14.3896 16.0908 14.5399 16.0908 14.7246C16.0908 14.9098 16.3194 15.0608 16.6014 15.0608C16.8831 15.0608 17.1118 14.9098 17.1118 14.7246ZM16.6014 15.325C16.1473 15.325 15.7803 15.0577 15.7803 14.7249C15.7803 14.3936 16.1473 14.125 16.6014 14.125C17.0547 14.125 17.4207 14.3936 17.4207 14.7249C17.4207 15.0577 17.0547 15.325 16.6014 15.325Z" fill="#FEFEFE"/>
<path fill-rule="evenodd" clip-rule="evenodd" d="M14.1867 12.8574C14.1867 12.8574 14.1451 13.5507 14.7064 13.8377L14.5448 14.0607C14.5448 14.0607 14.1334 13.7898 14.0404 13.492C13.947 13.7898 13.5361 14.0607 13.5361 14.0607L13.3745 13.8377C13.9369 13.5507 13.8948 12.8574 13.8948 12.8574H14.1867Z" fill="#FEFEFE"/>
<path fill-rule="evenodd" clip-rule="evenodd" d="M16.133 13.492C16.0406 13.7896 15.6631 14.0376 15.6631 14.0376L15.5015 13.8144C16.0283 13.5509 15.9861 12.8574 15.9861 12.8574H16.2775C16.2775 12.8574 16.2368 13.5509 16.764 13.8144L16.6029 14.0376C16.6029 14.0376 16.2258 13.7896 16.133 13.492Z" fill="#FEFEFE"/>
<mask id="mask0_811_10469" style="mask-type:alpha" maskUnits="userSpaceOnUse" x="17" y="14" width="3" height="2">
<path fill-rule="evenodd" clip-rule="evenodd" d="M17.8813 14.1709H19.5003V15.3126H17.8813V14.1709Z" fill="white"/>
</mask>
<g mask="url(#mask0_811_10469)">
<path fill-rule="evenodd" clip-rule="evenodd" d="M19.1949 14.7704C19.1949 14.5856 18.9686 14.4355 18.6912 14.4355C18.4137 14.4355 18.1885 14.5856 18.1885 14.7704C18.1885 14.9561 18.4137 15.1062 18.6912 15.1062C18.9686 15.1062 19.1949 14.9561 19.1949 14.7704ZM18.6909 15.3709C18.2439 15.3709 17.8813 15.1017 17.8813 14.7708C17.8813 14.4399 18.2439 14.1709 18.6909 14.1709C19.1389 14.1709 19.5003 14.4399 19.5003 14.7708C19.5003 15.1017 19.1389 15.3709 18.6909 15.3709Z" fill="#FEFEFE"/>
</g>
<path fill-rule="evenodd" clip-rule="evenodd" d="M17.8749 12.8906V13.1486H18.4995C18.4995 13.1486 18.427 13.4183 17.8657 13.5058L17.9216 13.7533C17.9216 13.7533 18.5687 13.6402 18.69 13.3421C18.8108 13.6402 19.4563 13.7533 19.4563 13.7533L19.5139 13.5058C18.9515 13.4183 18.8796 13.1486 18.8796 13.1486H19.5037V12.8906H17.8749Z" fill="#FEFEFE"/>
<mask id="mask1_811_10469" style="mask-type:alpha" maskUnits="userSpaceOnUse" x="2" y="8" width="16" height="6">
<path fill-rule="evenodd" clip-rule="evenodd" d="M2.40039 8.58789H17.1794V13.4944H2.40039V8.58789Z" fill="white"/>
</mask>
<g mask="url(#mask1_811_10469)">
<path fill-rule="evenodd" clip-rule="evenodd" d="M13.7722 11.7852H13.2091L12.831 10.5428H12.8249L12.8454 11.7852H12.4526V10.2324H13.0396L13.3893 11.4264H13.397L13.3772 10.2324H13.7722V11.7852ZM12.0273 11.3539C12.0278 11.383 12.025 11.4416 12.0235 11.4574C11.9991 11.715 11.814 11.8468 11.4746 11.8468C11.1346 11.8468 10.9493 11.715 10.9254 11.4574C10.9247 11.4416 10.9219 11.383 10.9219 11.3539V10.2305H11.3262V11.3896C11.3262 11.4149 11.3271 11.4345 11.3309 11.4477C11.3357 11.4729 11.3612 11.5569 11.4746 11.5569C11.5894 11.5569 11.6146 11.4729 11.6207 11.4477C11.6231 11.4345 11.6239 11.4143 11.6239 11.3896V10.2305H12.0273V11.3539ZM10.5615 11.497C10.5179 11.8012 10.2204 11.854 10.0101 11.854C9.66057 11.854 9.44434 11.7049 9.44434 11.4004L9.44527 11.2763H9.86804V11.4316C9.86804 11.5153 9.92788 11.566 10.0187 11.566C10.0999 11.566 10.1477 11.5332 10.1648 11.4664C10.1717 11.4357 10.1756 11.39 10.162 11.3551C10.0833 11.1602 9.53363 11.0647 9.4667 10.7482C9.45123 10.6757 9.45105 10.616 9.46316 10.5379C9.50939 10.2514 9.78565 10.1914 10.0069 10.1914C10.2049 10.1914 10.3497 10.2345 10.4362 10.3211C10.5001 10.386 10.533 10.4746 10.533 10.5851V10.6986H10.138V10.5983C10.138 10.513 10.0843 10.4634 9.99909 10.4634C9.9234 10.4634 9.87699 10.4969 9.86226 10.5637C9.86021 10.5767 9.85611 10.6093 9.86469 10.6416C9.90719 10.8161 10.4949 10.9227 10.5604 11.2418C10.5674 11.2828 10.579 11.3704 10.5615 11.497ZM8.67385 11.8014L8.66397 10.4388H8.65726L8.40393 11.8014H7.99905L7.74684 10.4388H7.73957L7.73044 11.8014H7.3291L7.36396 10.2324H8.00912L8.19664 11.3982H8.20615L8.39386 10.2324H9.03883L9.0722 11.8014H8.67385ZM6.60042 11.8014L6.39686 10.4121H6.38922L6.17988 11.8014H5.74854L6.03821 10.2324H6.74172L7.02934 11.8014H6.60042ZM17.1704 9.75578C16.9687 8.60266 13.5024 8.24196 9.42567 8.95161C7.7137 9.24987 6.16894 9.68979 4.96419 10.1845C5.14948 10.1886 5.28705 10.2307 5.37074 10.3133C5.43543 10.3786 5.46786 10.4686 5.46786 10.5801V10.6934H5.0682V10.5935C5.0682 10.5096 5.01862 10.4569 4.92877 10.4569C4.85328 10.4569 4.80686 10.4904 4.79195 10.5579C4.78822 10.5763 4.78673 10.6084 4.79418 10.6375C4.8365 10.8127 5.43021 10.9206 5.49526 11.2442C5.50384 11.2847 5.51409 11.3742 5.49675 11.5011C5.45947 11.7615 5.23112 11.8622 4.93958 11.8622C4.5334 11.8622 4.36862 11.6698 4.36862 11.4036V11.2787H4.79735L4.79773 11.4353C4.79773 11.5231 4.86185 11.5718 4.94816 11.5718C5.03092 11.5718 5.0792 11.5384 5.09635 11.4698C5.10306 11.439 5.10754 11.3926 5.093 11.3578C5.01377 11.1589 4.45884 11.0662 4.39098 10.7437C4.37533 10.6718 4.37477 10.6101 4.38726 10.5329C4.39415 10.4904 4.4072 10.4546 4.42286 10.4216C3.08762 11.0455 2.30639 11.7326 2.40947 12.3256C2.61135 13.4804 6.07816 13.8398 10.1538 13.1311C11.945 12.8181 13.5557 12.3511 14.7817 11.8286C14.7644 11.8294 14.7471 11.8307 14.7293 11.8307C14.4497 11.8307 14.2003 11.7265 14.1753 11.4415C14.1699 11.3896 14.1699 11.368 14.1696 11.3386L14.1699 10.6822C14.1699 10.6546 14.1729 10.6047 14.1759 10.5788C14.2095 10.3031 14.4272 10.1897 14.7293 10.1897C14.9625 10.1897 15.2489 10.257 15.2809 10.5791C15.2845 10.6192 15.2841 10.663 15.2841 10.6768V10.6777V10.7389H14.8807V10.647C14.8807 10.6446 14.8796 10.6101 14.8759 10.5886C14.8688 10.5558 14.841 10.4794 14.7252 10.4794C14.6117 10.4794 14.5826 10.5558 14.575 10.5886C14.572 10.6067 14.5692 10.6334 14.5692 10.6615V11.3742C14.5692 11.3986 14.5705 11.4182 14.5733 11.4333C14.5743 11.4433 14.5951 11.5416 14.7275 11.5416C14.8589 11.5416 14.879 11.4433 14.8807 11.4333C14.8844 11.4135 14.8854 11.3904 14.8844 11.3742V11.1533H14.7249V10.9152H15.2871V11.3386C15.2871 11.3671 15.2871 11.388 15.2819 11.4415C15.2744 11.5155 15.2511 11.58 15.2142 11.6335C16.5157 11.0163 17.2719 10.34 17.1704 9.75578Z" fill="#FEFEFE"/>
</g>
</svg>
