<svg width="24" height="24" viewBox="0 0 24 24" fill="none" xmlns="http://www.w3.org/2000/svg">
<rect opacity="0.01" width="24" height="24" fill="#F800FF"/>
<circle cx="12" cy="12" r="12" fill="#FFEB00"/>
<circle cx="12" cy="12" r="11.5" fill="white" stroke="#EBEFF5"/>
<path d="M18.9553 11.7469C18.5689 8.45886 15.7757 6.03168 12.5282 6C12.5041 6 12.48 6 12.4559 6C12.2056 6.0006 11.9528 6.01435 11.6976 6.04364C10.7768 6.15065 9.92277 6.44359 9.16926 6.8788V6.87821C9.1524 6.88777 9.13616 6.89794 9.11991 6.9075C9.10546 6.91587 9.09102 6.92424 9.07657 6.93321C5.33489 9.14756 4 14.2578 4 17.3689L7.01284 15.6411C8.0745 17.651 10.1117 18.9752 12.3837 18.9997C12.4078 19.0003 12.4319 18.9997 12.4559 18.9997C12.7063 18.9991 12.9591 18.9854 13.2143 18.9561C16.8037 18.5394 19.3742 15.3123 18.9553 11.7469Z" fill="#0064FF"/>
</svg>
