<svg width="24" height="24" viewBox="0 0 24 24" fill="none" xmlns="http://www.w3.org/2000/svg">
<circle cx="12" cy="12" r="12" fill="#F15929"/>
<mask id="mask0_820_10506" style="mask-type:alpha" maskUnits="userSpaceOnUse" x="0" y="0" width="24" height="24">
<circle cx="12" cy="12" r="12" fill="white"/>
</mask>
<g mask="url(#mask0_820_10506)">
</g>
<mask id="mask1_820_10506" style="mask-type:alpha" maskUnits="userSpaceOnUse" x="8" y="8" width="12" height="10">
<path fill-rule="evenodd" clip-rule="evenodd" d="M8.63916 8.62305H19.9398V17.2736H8.63916V8.62305Z" fill="white"/>
</mask>
<g mask="url(#mask1_820_10506)">
<path fill-rule="evenodd" clip-rule="evenodd" d="M19.9221 12.9943C19.679 10.6057 16.9579 8.64851 13.8475 8.62331C10.7365 8.59712 8.41266 10.5128 8.65676 12.9024C8.90135 15.2909 11.6205 17.2476 14.7319 17.2733C17.8434 17.2995 20.1667 15.3833 19.9221 12.9943ZM9.6321 12.396C9.41913 10.4704 11.4401 8.92428 14.1429 8.94553C16.8442 8.96727 19.2086 10.545 19.4201 12.4691C19.6316 14.3952 17.6131 15.9412 14.9093 15.9215C12.2079 15.8997 9.84407 14.323 9.6321 12.396Z" fill="#FEFEFE"/>
</g>
<path fill-rule="evenodd" clip-rule="evenodd" d="M9.54938 12.0671C7.76907 13.9285 7.73992 16.7899 9.48415 18.461C11.2284 20.1321 14.0883 19.9769 15.8696 18.1166C17.6509 16.2562 17.6786 13.3938 15.9344 11.7217C14.1911 10.0511 11.3317 10.2063 9.54938 12.0671ZM15.2267 17.3234C13.6944 18.9219 11.2367 19.0558 9.73555 17.6199C8.23294 16.182 8.25863 13.7178 9.79138 12.1179C11.3236 10.5164 13.7834 10.386 15.2835 11.8214C16.7856 13.2583 16.7604 15.721 15.2267 17.3234Z" fill="#FEFEFE"/>
<path fill-rule="evenodd" clip-rule="evenodd" d="M6.75298 7.10225C3.44783 9.71909 2.60585 13.5134 4.87188 15.5744C7.14086 17.6344 11.6596 17.1842 14.9667 14.5659C18.2723 11.9486 19.1133 8.15472 16.8458 6.09425C14.5778 4.03229 10.0591 4.48441 6.75298 7.10225ZM9.71226 6.07592C12.8983 4.88114 16.0498 6.09074 16.7495 8.77479C17.4501 11.4578 15.4356 14.6044 12.2496 15.7977C9.0625 16.993 5.9125 15.7834 5.21036 13.0993C4.5097 10.4148 6.5252 7.2702 9.71226 6.07592Z" fill="#FEFEFE"/>
</svg>
