<svg width="59" height="58" viewBox="0 0 59 58" fill="none" xmlns="http://www.w3.org/2000/svg">
<path d="M19.1874 32.8432C19.1874 39.3872 20.8514 40.4112 21.7954 40.6352V41.5792C19.5074 41.3712 17.9394 39.0672 17.9394 32.8432C17.9394 26.6352 19.5074 24.3792 21.7954 24.1872V25.1152C20.8514 25.3392 19.1874 26.3632 19.1874 32.8432ZM33.7164 35.8512V26.9552C33.7164 26.4912 33.6684 25.9472 33.3644 25.6912V25.4192H34.9484V35.8512H33.7164ZM29.4924 29.5952C29.4924 28.0112 28.4844 26.7632 26.7724 26.7632C25.0604 26.7632 24.0524 28.0112 24.0524 29.5952C24.0524 31.1792 25.0604 32.4592 26.7724 32.4592C28.4844 32.4592 29.4924 31.1792 29.4924 29.5952ZM30.7244 29.5952C30.7244 31.8032 29.0924 33.5312 26.7724 33.5312C24.4524 33.5312 22.8204 31.8032 22.8204 29.5952C22.8204 27.3872 24.4524 25.6912 26.7724 25.6912C29.0924 25.6912 30.7244 27.3872 30.7244 29.5952ZM35.2684 40.2192H25.9084C25.4924 40.2192 25.3324 40.0432 25.3324 39.6432V35.0352H26.5644V39.1472H35.2684V40.2192ZM39.1875 32.8432C39.1875 26.3632 37.5235 25.3392 36.5795 25.1152V24.1872C38.8515 24.3792 40.4355 26.6352 40.4355 32.8432C40.4355 39.0672 38.8515 41.3712 36.5795 41.5792V40.6352C37.5235 40.4112 39.1875 39.3872 39.1875 32.8432Z" fill="#B9C1C9"/>
<mask id="mask0_9070_238882" style="mask-type:alpha" maskUnits="userSpaceOnUse" x="1" y="-1" width="59" height="59">
<path d="M52.7367 28.8516L58.2353 28.8595L59.4308 28.8533L59.3422 32.7133L58.4725 36.9048L56.3505 42.773L52.7355 47.803L46.6938 53.2522L44.9993 54.1009L43.5622 52.767L44.4686 54.5098L35.1332 57.887L22.4034 57.8218L16.0386 54.849L7.83829 48.3967L3.30967 41.8824L1.45351 32.6476L1.45361 26.6885L2.30492 20.3037L11.2369 23.8719L11.2325 23.0336L3.05797 19.7187L3.58177 10.9392L12.0948 5.83135L18.9052 1.57483L27.0534 -0.127778L36.357 -0.127775L45.7448 2.53104L56.3505 13.0676L58.4734 21.3918L52.7096 23.622L52.1161 24.4342L58.8978 22.2329L59.4308 28.1009L52.7346 28.447L52.7367 28.8516Z" fill="#D9D9D9"/>
</mask>
<g mask="url(#mask0_9070_238882)">
<path d="M14.501 5.88142C19.0659 2.83231 24.4328 1.20483 29.9231 1.20483C37.2854 1.20483 44.346 4.12843 49.5518 9.33235C54.7575 14.5363 57.682 21.5942 57.682 28.9535C57.682 34.4415 56.0541 39.8064 53.0039 44.3696C49.9538 48.9329 45.6184 52.4895 40.5461 54.5898C35.4738 56.6901 29.8923 57.2396 24.5076 56.1689C19.1228 55.0982 14.1766 52.4553 10.2945 48.5746C6.41234 44.6938 3.76862 39.7495 2.69756 34.3669C1.62651 28.9842 2.17621 23.405 4.27717 18.3346C6.37813 13.2643 9.93602 8.93052 14.501 5.88142Z" stroke="#D61111" stroke-width="2"/>
<mask id="mask1_9070_238882" style="mask-type:alpha" maskUnits="userSpaceOnUse" x="1" y="0" width="59" height="58">
<path d="M7.39399 31.0098H2.17405H1.04333L1.88386 22.6875L7.39399 11.1386L18.4081 3.43928L19.6853 4.5776L22.6098 8.18963L20.5468 3.01154L30.8125 0.965576L48.7776 7.71669L59.0433 27.8204L57.3324 36.8198L53.0416 36.0171V36.8198L57.3324 38.3691L48.7776 49.6351L36.3731 57.7622L13.2752 53.4848L2.17405 39.7971L7.39399 36.0171L7.95935 35.2424L1.88394 37.5945L1.31858 32.5591L7.39399 31.3971V31.0098Z" fill="#D9D9D9"/>
</mask>
<g mask="url(#mask1_9070_238882)">
<path d="M29.9231 4.64385C34.7328 4.64385 39.4345 6.06958 43.4336 8.74075C47.4327 11.4119 50.5496 15.2085 52.3902 19.6505C54.2308 24.0925 54.7124 28.9803 53.7741 33.6959C52.8358 38.4115 50.5197 42.743 47.1187 46.1428C43.7177 49.5425 39.3847 51.8578 34.6674 52.7958C29.9501 53.7337 25.0605 53.2523 20.617 51.4124C16.1734 49.5725 12.3754 46.4567 9.70329 42.459C7.03117 38.4613 5.60493 33.7613 5.60493 28.9533C5.60493 22.5061 8.16702 16.3229 12.7276 11.7639C17.2881 7.20503 23.4736 4.64385 29.9231 4.64385ZM29.9231 3.58691C24.9043 3.58691 19.9982 5.07463 15.8253 7.86193C11.6523 10.6492 8.39983 14.6109 6.47922 19.246C4.5586 23.8811 4.05608 28.9815 5.0352 33.9021C6.01432 38.8227 8.43111 43.3426 11.9799 46.8901C15.5288 50.4377 20.0503 52.8536 24.9726 53.8324C29.895 54.8112 34.9972 54.3088 39.6339 52.3889C44.2707 50.469 48.2338 47.2177 51.0221 43.0462C53.8104 38.8747 55.2986 33.9704 55.2986 28.9533C55.2986 22.2258 52.6252 15.7737 47.8663 11.0166C43.1075 6.25945 36.6531 3.58691 29.9231 3.58691Z" fill="#D61111"/>
</g>
<path d="M25.9109 32.448V32.016C25.3349 32.192 24.5189 32.256 23.7829 32.256H15.5749V30.816H19.7509V29.776C18.1189 29.488 17.0949 28.464 17.0949 26.976C17.0949 26.4 17.3029 25.856 17.7029 25.408H16.3269V24.112H19.7349V23.936C19.7349 23.28 19.6389 22.928 19.3349 22.672V22.352H21.6069V24.112H25.0309V25.408H23.6229C24.0069 25.856 24.2309 26.4 24.2309 26.976C24.2309 28.448 23.2069 29.472 21.6069 29.76V30.816H25.9109V24.304C25.9109 23.648 25.8149 23.296 25.5109 23.04V22.72H27.7669V26.928H30.1349V28.4H27.7669V32.448H25.9109ZM25.9109 37.76V34.64H17.8149V33.248H27.3989C27.6549 33.248 27.7669 33.328 27.7669 33.6V37.76H25.9109ZM18.9509 26.944C18.9509 27.856 19.5749 28.48 20.6629 28.48C21.7509 28.48 22.3749 27.856 22.3749 26.944C22.3749 26.064 21.7829 25.44 20.7429 25.408H20.5829C19.5429 25.44 18.9509 26.064 18.9509 26.944ZM41.414 33.104V24.304C41.414 23.648 41.318 23.296 41.014 23.04V22.72H43.27V33.104H41.414ZM43.606 37.52H34.086C33.59 37.52 33.35 37.28 33.35 36.816V32.416H35.206V36.064H43.606V37.52ZM30.822 26.992C30.822 24.656 32.518 23.024 34.934 23.024C37.35 23.024 39.046 24.656 39.046 26.992C39.046 29.328 37.35 30.96 34.934 30.96C32.518 30.96 30.822 29.328 30.822 26.992ZM32.678 26.992C32.678 28.448 33.542 29.488 34.934 29.488C36.326 29.488 37.19 28.448 37.19 26.992C37.19 25.536 36.326 24.496 34.934 24.496C33.542 24.496 32.678 25.52 32.678 26.992Z" fill="#C7192B"/>
</g>
</svg>
