<svg width="46" height="46" viewBox="0 0 46 46" fill="none" xmlns="http://www.w3.org/2000/svg">
<mask id="mask0_4435_132654" style="mask-type:alpha" maskUnits="userSpaceOnUse" x="8" y="14" width="30" height="18">
<path fill-rule="evenodd" clip-rule="evenodd" d="M23.0657 17.101C23.0713 18.2994 21.2642 19.2794 19.0295 19.2899C16.7948 19.3003 14.9787 18.3373 14.9731 17.1389C14.9675 15.9405 16.7745 14.9605 19.0092 14.95C21.2439 14.9396 23.06 15.9026 23.0657 17.101ZM33.2764 19.7774C33.282 20.9759 31.475 21.9558 29.2403 21.9663C27.0056 21.9768 25.1894 21.0138 25.1838 19.8154C25.1782 18.6169 26.9852 17.637 29.2199 17.6265C31.4547 17.616 33.2708 18.579 33.2764 19.7774ZM33.9026 27.3538C36.1373 27.3433 37.9443 26.3633 37.9387 25.1649C37.9331 23.9665 36.117 23.0035 33.8823 23.0139C31.6476 23.0244 29.8405 24.0044 29.8462 25.2028C29.8518 26.4012 31.6679 27.3642 33.9026 27.3538ZM24.7 29.5408C28.5333 27.4918 28.5679 24.1765 24.7691 22.1332C20.9703 20.0899 14.7771 20.0956 10.9438 22.1389C7.11048 24.188 7.0817 27.5033 10.8805 29.5466C14.6793 31.5898 20.8667 31.5898 24.7 29.5408Z" fill="white"/>
</mask>
<g mask="url(#mask0_4435_132654)">
<path fill-rule="evenodd" clip-rule="evenodd" d="M23.0657 17.101C23.0713 18.2994 21.2642 19.2794 19.0295 19.2899C16.7948 19.3003 14.9787 18.3373 14.9731 17.1389C14.9675 15.9405 16.7745 14.9605 19.0092 14.95C21.2439 14.9396 23.06 15.9026 23.0657 17.101ZM33.2764 19.7774C33.282 20.9759 31.475 21.9558 29.2403 21.9663C27.0056 21.9768 25.1894 21.0138 25.1838 19.8154C25.1782 18.6169 26.9852 17.637 29.2199 17.6265C31.4547 17.616 33.2708 18.579 33.2764 19.7774ZM33.9026 27.3538C36.1373 27.3433 37.9443 26.3633 37.9387 25.1649C37.9331 23.9665 36.117 23.0035 33.8823 23.0139C31.6476 23.0244 29.8405 24.0044 29.8462 25.2028C29.8518 26.4012 31.6679 27.3642 33.9026 27.3538ZM24.7 29.5408C28.5333 27.4918 28.5679 24.1765 24.7691 22.1332C20.9703 20.0899 14.7771 20.0956 10.9438 22.1389C7.11048 24.188 7.0817 27.5033 10.8805 29.5466C14.6793 31.5898 20.8667 31.5898 24.7 29.5408Z" fill="#CFD5DF"/>
<path fill-rule="evenodd" clip-rule="evenodd" d="M23.6406 18.2509C23.6463 19.4493 21.8392 20.4293 19.6045 20.4398C17.3698 20.4502 15.5537 19.4872 15.5481 18.2888C15.5425 17.0904 17.3495 16.1104 19.5842 16.0999C21.8189 16.0895 23.635 17.0525 23.6406 18.2509ZM33.8514 20.9273C33.857 22.1258 32.05 23.1057 29.8153 23.1162C27.5806 23.1267 25.7644 22.1637 25.7588 20.9653C25.7532 19.7668 27.5602 18.7869 29.7949 18.7764C32.0296 18.7659 33.8458 19.7289 33.8514 20.9273ZM34.4776 28.5037C36.7123 28.4932 38.5193 27.5132 38.5137 26.3148C38.5081 25.1164 36.692 24.1534 34.4573 24.1638C32.2226 24.1743 30.4155 25.1543 30.4212 26.3527C30.4268 27.5511 32.2429 28.5141 34.4776 28.5037ZM25.275 30.6907C29.1083 28.6417 29.1429 25.3264 25.3441 23.2831C21.5453 21.2398 15.3521 21.2455 11.5188 23.2888C7.68548 25.3379 7.6567 28.6532 11.4555 30.6965C15.2543 32.7397 21.4417 32.7397 25.275 30.6907Z" fill="#EDF0F5"/>
</g>
</svg>
