<svg width="298" height="465" viewBox="0 0 298 465" fill="none" xmlns="http://www.w3.org/2000/svg">
<g filter="url(#filter0_d_2743_54466)">
<mask id="mask0_2743_54466" style="mask-type:alpha" maskUnits="userSpaceOnUse" x="14" y="10" width="250" height="456">
<rect x="17" y="13" width="244" height="450" rx="33" fill="#C4C4C4" stroke="black" stroke-width="6"/>
</mask>
<g mask="url(#mask0_2743_54466)">
<rect x="20.7308" y="10" width="237.5" height="487.411" fill="white"/>
<path d="M182.386 171.243H184.282V172.343C184.282 173.257 185.275 174.012 186.544 174.526L185.82 175.627C185.654 175.853 184.93 175.454 184.435 175.125C183.992 174.833 183.622 174.504 183.328 174.145C183.008 174.553 182.565 174.926 182.058 175.245V176.528H187.077V177.877H174.964V176.528H180V175.272C179.493 174.966 179.084 174.584 178.731 174.145C178.398 174.553 178.032 174.899 177.661 175.152C177.027 175.587 176.494 175.88 176.315 175.653L175.501 174.593C176.809 174.065 177.776 173.191 177.776 172.37C177.776 172.143 177.776 171.868 177.585 171.629C177.419 171.429 177.508 171.243 177.7 171.243H179.655V172.343C179.655 173.044 180.226 173.759 181.002 174.145C181.79 173.759 182.386 173.031 182.386 172.37V171.243ZM183.609 180.535V179.86H176.375V178.564H185.347C185.552 178.564 185.641 178.631 185.641 178.857V181.795H178.445V182.27C178.445 182.443 178.496 182.509 178.688 182.509H185.807V183.818H177.623C176.745 183.818 176.417 183.432 176.417 182.642V181.888C176.417 181.453 176.328 181.227 176.085 180.921C175.932 180.708 176.021 180.535 176.213 180.535H183.609Z" fill="#011B6A"/>
<path d="M170.589 171.602H170.163V183.458H170.589V171.602Z" fill="#112369"/>
<path d="M91.4127 180.911C92.2947 181.657 93.6921 182.105 94.655 182.105C95.8521 182.105 96.5679 181.568 96.5679 180.548C96.5679 179.749 96.2697 179.247 95.2855 178.728C94.1693 178.138 93.2575 177.774 92.4097 177.015C91.6428 176.323 91.0975 175.458 91.0975 174.193C91.0975 172.409 92.5119 171.163 94.8722 171.163C96.1717 171.163 97.2496 171.389 98.2636 171.837V173.723C98.2636 173.998 98.0122 174.087 97.8162 173.914C96.9854 173.186 96.1376 172.858 95.1534 172.858C94.1224 172.858 93.5259 173.359 93.5259 174.193C93.5259 174.783 93.7432 175.196 94.1224 175.529C94.8552 176.15 95.7669 176.603 96.5679 177.002C98.0974 177.765 98.9964 178.648 98.9964 180.517C98.9964 182.855 97.1005 183.809 94.689 183.809C92.9082 183.809 90.6629 182.926 90.9484 182.163L91.4127 180.911Z" fill="#011B6A"/>
<path d="M110.504 171.509V183.459H108.109V178.174H103.836V183.459H101.442V173.049C101.442 172.529 101.357 172.268 101.075 171.939C100.892 171.713 101.007 171.504 101.225 171.504H103.836V176.337H108.109V171.504H110.504V171.509Z" fill="#011B6A"/>
<path d="M114.134 183.459V173.049C114.134 172.529 114.048 172.268 113.767 171.939C113.584 171.713 113.699 171.504 113.916 171.504H116.528V183.454H114.134V183.459Z" fill="#011B6A"/>
<path d="M120.039 183.459V173.049C120.039 172.529 119.953 172.268 119.672 171.939C119.489 171.713 119.604 171.504 119.821 171.504H122.365L125.858 177.828L127.022 180.064L126.872 177.482V171.504H129.267V183.454H126.907L123.366 176.958L122.301 174.828L122.433 177.477V183.454H120.039V183.459Z" fill="#011B6A"/>
<path d="M141.473 171.509V183.459H139.079V178.174H134.805V183.459H132.411V173.049C132.411 172.529 132.326 172.268 132.045 171.939C131.861 171.713 131.976 171.504 132.194 171.504H134.805V176.337H139.079V171.504H141.473V171.509Z" fill="#011B6A"/>
<path d="M147.514 173.448C147.766 172.791 147.698 172.392 147.514 172.046C147.331 171.7 147.399 171.509 147.796 171.509H149.99L154.412 183.459H152.001L150.838 180.135H147.28L146.134 183.459H143.757L147.514 173.448ZM147.898 178.316H150.211L149.048 174.868L147.898 178.316Z" fill="#011B6A"/>
<path d="M156.564 183.459V173.049C156.564 172.529 156.478 172.268 156.197 171.939C156.014 171.713 156.129 171.504 156.346 171.504H158.89L162.383 177.828L163.546 180.064L163.397 177.482V171.504H165.792V183.454H163.431L159.891 176.958L158.826 174.828L158.958 177.477V183.454H156.564V183.459Z" fill="#011B6A"/>
<path d="M169.724 92V130.805H187.077V137.847H160.539V97.915C160.539 95.9226 160.219 94.9242 159.137 93.664C158.434 92.7987 158.881 92.0044 159.712 92.0044H169.724V92Z" fill="url(#paint0_linear_2743_54466)"/>
<mask id="mask1_2743_54466" style="mask-type:alpha" maskUnits="userSpaceOnUse" x="115" y="109" width="48" height="49">
<path d="M139.104 109.181C126.246 109.181 115.821 120.04 115.821 133.432C115.821 146.824 126.246 157.682 139.104 157.682C151.962 157.682 162.388 146.824 162.388 133.432C162.388 120.04 151.962 109.181 139.104 109.181ZM139.104 149.499C130.583 149.499 123.677 142.306 123.677 133.432C123.677 124.557 130.583 117.364 139.104 117.364C147.625 117.364 154.531 124.557 154.531 133.432C154.531 142.306 147.621 149.499 139.104 149.499Z" fill="url(#paint1_linear_2743_54466)"/>
</mask>
<g mask="url(#mask1_2743_54466)">
<path d="M140.855 176.758C152.343 176.758 161.655 167.059 161.655 155.095C161.655 143.131 152.343 133.432 140.855 133.432C129.368 133.432 120.056 143.131 120.056 155.095C120.056 167.059 129.368 176.758 140.855 176.758Z" fill="url(#paint2_linear_2743_54466)"/>
<path d="M138.763 138.53C151.811 138.53 162.388 127.514 162.388 113.925C162.388 100.336 151.811 89.3198 138.763 89.3198C125.716 89.3198 115.139 100.336 115.139 113.925C115.139 127.514 125.716 138.53 138.763 138.53Z" fill="url(#paint3_linear_2743_54466)"/>
<path d="M131.197 153.812C143.435 153.812 153.355 143.48 153.355 130.734C153.355 117.988 143.435 107.655 131.197 107.655C118.959 107.655 109.038 117.988 109.038 130.734C109.038 143.48 118.959 153.812 131.197 153.812Z" fill="url(#paint4_linear_2743_54466)"/>
<path d="M156.696 147.329C170.096 147.329 180.959 136.015 180.959 122.059C180.959 108.102 170.096 96.7878 156.696 96.7878C143.295 96.7878 132.432 108.102 132.432 122.059C132.432 136.015 143.295 147.329 156.696 147.329Z" fill="url(#paint5_linear_2743_54466)"/>
</g>
<path d="M92.8016 139.626C96.1844 142.484 101.54 144.21 105.242 144.21C109.835 144.21 112.579 142.151 112.579 138.228C112.579 135.171 111.428 133.245 107.666 131.253C103.393 128.994 99.8825 127.597 96.6317 124.677C93.6963 122.019 91.5916 118.695 91.5916 113.845C91.5916 107.003 97.0152 102.219 106.073 102.219C111.049 102.219 115.195 103.085 119.089 104.811V112.052C119.089 113.117 118.13 113.446 117.367 112.785C114.176 109.993 110.926 108.733 107.159 108.733C103.206 108.733 100.905 110.659 100.905 113.85C100.905 116.108 101.736 117.701 103.201 118.966C106.009 121.358 109.515 123.084 112.579 124.615C118.45 127.539 121.892 130.925 121.892 138.104C121.892 147.072 114.619 150.728 105.37 150.728C98.5447 150.728 89.9301 147.338 91.0165 144.414L92.8016 139.626Z" fill="#011B6A"/>
<rect x="17" y="13" width="244" height="482" rx="33" stroke="#EBEFF5" stroke-width="6"/>
</g>
</g>
<defs>
<filter id="filter0_d_2743_54466" x="0" y="0" width="298" height="504" filterUnits="userSpaceOnUse" color-interpolation-filters="sRGB">
<feFlood flood-opacity="0" result="BackgroundImageFix"/>
<feColorMatrix in="SourceAlpha" type="matrix" values="0 0 0 0 0 0 0 0 0 0 0 0 0 0 0 0 0 0 127 0" result="hardAlpha"/>
<feOffset dx="10" dy="14"/>
<feGaussianBlur stdDeviation="12"/>
<feColorMatrix type="matrix" values="0 0 0 0 0.0862745 0 0 0 0 0.145098 0 0 0 0 0.258824 0 0 0 0.16 0"/>
<feBlend mode="normal" in2="BackgroundImageFix" result="effect1_dropShadow_2743_54466"/>
<feBlend mode="normal" in="SourceGraphic" in2="effect1_dropShadow_2743_54466" result="shape"/>
</filter>
<linearGradient id="paint0_linear_2743_54466" x1="176.775" y1="108.502" x2="134.34" y2="176.922" gradientUnits="userSpaceOnUse">
<stop stop-color="#44C8F5"/>
<stop offset="1" stop-color="#112369"/>
</linearGradient>
<linearGradient id="paint1_linear_2743_54466" x1="139.103" y1="157.63" x2="139.103" y2="109.258" gradientUnits="userSpaceOnUse">
<stop stop-color="#44C8F5"/>
<stop offset="1" stop-color="#112369"/>
</linearGradient>
<linearGradient id="paint2_linear_2743_54466" x1="118.909" y1="155.097" x2="161.657" y2="155.097" gradientUnits="userSpaceOnUse">
<stop stop-color="#44C8F5"/>
<stop offset="1" stop-color="#112369"/>
</linearGradient>
<linearGradient id="paint3_linear_2743_54466" x1="138.763" y1="139.89" x2="138.763" y2="89.32" gradientUnits="userSpaceOnUse">
<stop stop-color="#00C0F3"/>
<stop offset="1" stop-color="#112369"/>
</linearGradient>
<linearGradient id="paint4_linear_2743_54466" x1="131.197" y1="110.579" x2="131.197" y2="156.054" gradientUnits="userSpaceOnUse">
<stop stop-color="#44C8F5"/>
<stop offset="1" stop-color="#112369"/>
</linearGradient>
<linearGradient id="paint5_linear_2743_54466" x1="156.695" y1="147.273" x2="156.695" y2="96.8694" gradientUnits="userSpaceOnUse">
<stop stop-color="#44C8F5"/>
<stop offset="1" stop-color="#112369"/>
</linearGradient>
</defs>
</svg>
