<svg width="100" height="29" viewBox="0 0 100 29" fill="none" xmlns="http://www.w3.org/2000/svg">
<path d="M37.5072 4.27335C37.5072 3.72378 37.4711 3.42921 37.1516 3.07749C36.949 2.82689 37.084 2.59827 37.3226 2.59827H40.262V4.80533C40.262 6.97722 42.4362 8.25662 44.4033 8.90291L43.6741 10.2482C43.4535 10.6483 42.6207 10.4989 41.1623 9.61954C40.3295 9.12273 39.5328 8.45886 39.0061 7.7642C38.3759 8.64351 37.5972 9.37334 36.6969 9.95368C35.6616 10.6176 34.3382 11.2463 34.1176 10.833L33.3389 9.39092C35.5986 8.5292 37.5162 7.08713 37.5162 4.98119V4.27335H37.5072ZM48.6796 15.867V17.74H38.9836C36.931 17.74 36.1117 17.2256 36.1117 15.5505V13.1456C36.1117 12.8114 35.9947 12.5652 35.7561 12.2838C35.5536 12.0376 35.6886 11.8046 35.9272 11.8046H38.8126V15.2032C38.8126 15.7175 38.9836 15.867 39.5103 15.867H48.6796ZM45.7267 12.6488V4.02714C45.7267 3.4468 45.6232 3.14783 45.3036 2.80051C45.101 2.5499 45.2361 2.33447 45.4926 2.33447H48.396V12.6532H45.7267V12.6488Z" fill="white"/>
<path d="M54.3017 3.56108C54.3017 2.98073 54.2702 2.71694 53.9461 2.33444C53.7256 2.08384 53.8606 1.86841 54.1172 1.86841H57.0206V3.72375H60.8738V5.54831H59.0912C59.6179 6.12866 59.942 6.8409 59.942 7.68943C59.942 9.77779 58.362 11.3693 55.5441 11.3693C52.7398 11.3693 51.1463 9.77779 51.1463 7.68943C51.1463 6.82771 51.4524 6.11547 51.961 5.54831H50.1785V3.72815H54.3063V3.56108H54.3017ZM65.1186 15.867V17.7399H55.5937C53.5365 17.7399 52.7218 17.2255 52.7218 15.5504V13.8094C52.7218 13.4797 52.6047 13.2291 52.3661 12.9477C52.1636 12.6971 52.2986 12.4641 52.5372 12.4641H55.4226V15.2031C55.4226 15.7175 55.5937 15.867 56.1203 15.867H65.1186ZM55.5396 9.54917C56.71 9.54917 57.3897 8.66986 57.3897 7.61029C57.3897 6.48038 56.71 5.61866 55.5396 5.61866C54.3513 5.61866 53.6896 6.48038 53.6896 7.61029C53.6896 8.66986 54.3513 9.54917 55.5396 9.54917ZM62.2467 12.8817V4.02711C62.2467 3.44677 62.1612 3.18297 61.8371 2.80048C61.6165 2.54987 61.7516 2.33444 62.0081 2.33444H64.9115V6.24736H66.8471V8.12029H64.9115V12.8817H62.2467Z" fill="white"/>
<path d="M83.507 9.84824V11.6552H67.3245V9.84824H83.507ZM69.3636 13.9942C69.3636 13.66 69.2421 13.4138 69.008 13.1325C68.8054 12.8819 68.9405 12.6532 69.179 12.6532H72.0644V15.3879C72.0644 15.7044 72.249 15.8715 72.5911 15.8715H81.8775V17.7444H71.4027C70.0928 17.7444 69.3636 16.9794 69.3636 15.8539V13.9942ZM81.6389 5.61877C81.6389 7.57523 79.7528 9.07005 75.4225 9.07005C71.0921 9.07005 69.206 7.57523 69.206 5.61877C69.206 3.6623 71.0921 2.16748 75.4225 2.16748C79.7573 2.16748 81.6389 3.6623 81.6389 5.61877ZM79.0236 5.61877C79.0236 4.60756 78.0063 3.94368 75.4225 3.94368C72.8432 3.94368 71.8214 4.60756 71.8214 5.61877C71.8214 6.62997 72.8387 7.29385 75.4225 7.29385C78.0063 7.29385 79.0236 6.62997 79.0236 5.61877Z" fill="white"/>
<path d="M87.6843 3.54351C87.6843 2.94558 87.6483 2.6642 87.3467 2.31688C87.1261 2.05309 87.2791 1.82007 87.5312 1.82007H90.3311V3.59627H93.3515V5.42084H92.2127C92.6043 5.93523 92.8429 6.55075 92.8429 7.26299C92.8429 9.4041 91.4159 10.8286 88.8861 10.8286C86.3564 10.8286 84.9294 9.4041 84.9294 7.26299C84.9294 6.55075 85.168 5.93523 85.5416 5.42084H84.2002V3.59627H87.6798V3.54351H87.6843ZM88.8906 9.03479C89.9935 9.03479 90.4526 8.15549 90.4526 7.27618C90.4526 6.34851 89.9935 5.4692 88.8906 5.4692C87.7878 5.4692 87.3287 6.34851 87.3287 7.27618C87.3287 8.15549 87.7878 9.03479 88.8906 9.03479ZM99.9956 14.7547C99.9956 16.9266 97.925 18.206 93.8647 18.206C89.8044 18.206 87.7338 16.9266 87.7338 14.7547C87.7338 12.5828 89.8044 11.3034 93.8647 11.3034C97.925 11.3078 99.9956 12.5828 99.9956 14.7547ZM97.2632 14.7547C97.2632 13.7743 96.4485 13.1148 93.8692 13.1148C91.2899 13.1148 90.4706 13.7787 90.4706 14.7547C90.4706 15.7351 91.2854 16.3946 93.8692 16.3946C96.4485 16.399 97.2632 15.7351 97.2632 14.7547ZM99.9956 2.33446V10.9737H97.5693V7.43885H96.4305V10.5252H93.9997V3.97437C93.9997 3.37644 93.8647 3.1786 93.6621 2.89722C93.4596 2.61584 93.5946 2.43119 93.8152 2.43119H96.4305V5.48239H97.5693V2.33446H99.9956Z" fill="white"/>
<path d="M34.9368 25.8867C35.3465 26.2077 35.9992 26.4099 36.4493 26.4099C37.003 26.4099 37.3406 26.1769 37.3406 25.7284C37.3406 25.3811 37.1965 25.1613 36.7464 24.9371C36.2242 24.6777 35.8011 24.515 35.405 24.1896C35.0494 23.8819 34.7973 23.5082 34.7973 22.9498C34.7973 22.1716 35.4545 21.6309 36.5528 21.6309C37.156 21.6309 37.6647 21.7232 38.1373 21.9254V22.7476C38.1373 22.8663 38.0203 22.9103 37.9258 22.8267C37.5431 22.5102 37.147 22.3651 36.6924 22.3651C36.2062 22.3651 35.9316 22.5849 35.9316 22.9454C35.9316 23.2048 36.0262 23.3851 36.2062 23.5258C36.5483 23.7984 36.9715 24.0006 37.3496 24.1765C38.0608 24.5062 38.4794 24.8931 38.4794 25.7065C38.4794 26.7221 37.5972 27.1441 36.4718 27.1441C35.6436 27.1441 34.5947 26.7572 34.7343 26.4231L34.9368 25.8867Z" fill="white"/>
<path d="M40.7392 21.6353H41.9096V23.5038C42.1977 23.262 42.5623 23.1169 42.9899 23.1169C43.8542 23.1169 44.4214 23.6049 44.4214 24.3127V27.0034H43.3455V24.4534C43.3455 24.0709 43.1475 23.8995 42.7243 23.8995C42.4452 23.8995 42.1842 24.0182 41.9096 24.2116V27.0034H40.8338V22.3035C40.8338 22.0749 40.7977 21.9606 40.6627 21.8199C40.5817 21.7188 40.6402 21.6353 40.7392 21.6353Z" fill="white"/>
<path d="M48.1079 23.2401V26.9991H47.0321V23.8996C47.0321 23.6841 46.9826 23.5698 46.8611 23.4291C46.78 23.328 46.8341 23.2357 46.9286 23.2357H48.1079V23.2401ZM48.1485 22.0486C48.1485 22.4091 47.8739 22.6861 47.4958 22.6861C47.1176 22.6861 46.8431 22.4135 46.8431 22.0486C46.8431 21.6881 47.1176 21.4111 47.4958 21.4111C47.8739 21.4111 48.1485 21.6881 48.1485 22.0486Z" fill="white"/>
<path d="M50.6466 23.24H51.79V23.6094C52.0691 23.3412 52.4112 23.1125 52.8928 23.1125C53.7076 23.1125 54.3333 23.561 54.3333 24.3831V26.9991H53.2574V24.4755C53.2574 24.0534 53.0639 23.8688 52.6362 23.8688C52.3346 23.8688 52.0736 23.9875 51.826 24.2029V26.9991H50.7501V23.9171C50.7501 23.6885 50.7096 23.5742 50.5791 23.4335C50.4891 23.3324 50.5431 23.24 50.6466 23.24Z" fill="white"/>
<path d="M56.8091 21.6353H57.9794V23.5038C58.2675 23.262 58.6321 23.1169 59.0598 23.1169C59.924 23.1169 60.4912 23.6049 60.4912 24.3127V27.0034H59.4154V24.4534C59.4154 24.0709 59.2173 23.8995 58.7942 23.8995C58.5151 23.8995 58.254 24.0182 57.9794 24.2116V27.0034H56.9036V22.3035C56.9036 22.0749 56.8676 21.9606 56.7325 21.8199C56.6515 21.7188 56.7055 21.6353 56.8091 21.6353Z" fill="white"/>
<path d="M64.5966 23.8204C64.1779 23.8204 63.7413 24.0094 63.4307 24.2029C63.2822 24.304 63.1921 24.2513 63.1921 24.0974V23.3939C63.5973 23.2181 64.2049 23.1125 64.6641 23.1125C65.7264 23.1125 66.3341 23.5126 66.3341 24.3436V26.9991H65.2808V26.5902C64.9792 26.9507 64.5471 27.1178 64.0879 27.1178C63.3227 27.1178 62.7915 26.6342 62.7915 25.9263C62.7915 25.1218 63.3587 24.6206 64.5651 24.6206H65.2583V24.3392C65.2583 23.9743 65.0197 23.8204 64.5966 23.8204ZM65.2583 25.3196H64.5606C64.0339 25.3196 63.8268 25.5526 63.8268 25.9088C63.8268 26.2033 64.0069 26.4056 64.322 26.4056C64.6911 26.4056 65.0197 26.2385 65.2628 25.9703V25.3196H65.2583Z" fill="white"/>
<path d="M68.7919 23.24H69.9352V23.6094C70.2143 23.3412 70.5564 23.1125 71.0381 23.1125C71.8528 23.1125 72.4785 23.561 72.4785 24.3831V26.9991H71.4027V24.4755C71.4027 24.0534 71.2091 23.8688 70.7815 23.8688C70.4799 23.8688 70.2188 23.9875 69.9713 24.2029V26.9991H68.8954V23.9171C68.8954 23.6885 68.8549 23.5742 68.7244 23.4335C68.6343 23.3324 68.6883 23.24 68.7919 23.24Z" fill="white"/>
<path d="M77.7767 21.7805H79.6583C80.7837 21.7805 81.4949 22.2817 81.4949 23.0907C81.4949 23.6007 81.2878 23.9744 80.8917 24.2074C81.4454 24.414 81.783 24.8097 81.783 25.5044C81.783 26.4892 80.9682 26.9948 79.7438 26.9948H77.8803V22.4576C77.8803 22.229 77.8397 22.1147 77.7092 21.974C77.6282 21.8728 77.6822 21.7805 77.7767 21.7805ZM78.9966 23.9084H79.5863C80.0995 23.9084 80.383 23.7194 80.383 23.2182C80.383 22.7082 80.104 22.5235 79.5683 22.5235H79.0011V23.9084H78.9966ZM80.6351 25.4472C80.6351 24.8933 80.32 24.6515 79.6763 24.6515H78.9966V26.2562H79.6808C80.3245 26.2562 80.6351 26.01 80.6351 25.4472Z" fill="white"/>
<path d="M85.6945 23.8204C85.2758 23.8204 84.8392 24.0094 84.5286 24.2029C84.3801 24.304 84.29 24.2513 84.29 24.0974V23.3939C84.6952 23.2181 85.3028 23.1125 85.762 23.1125C86.8243 23.1125 87.432 23.5126 87.432 24.3436V26.9991H86.3787V26.5902C86.0771 26.9507 85.6449 27.1178 85.1858 27.1178C84.4206 27.1178 83.8894 26.6342 83.8894 25.9263C83.8894 25.1218 84.4566 24.6206 85.663 24.6206H86.3562V24.3392C86.3562 23.9743 86.1176 23.8204 85.6945 23.8204ZM86.3562 25.3196H85.6584C85.1318 25.3196 84.9247 25.5526 84.9247 25.9088C84.9247 26.2033 85.1048 26.4056 85.4199 26.4056C85.789 26.4056 86.1176 26.2385 86.3607 25.9703V25.3196H86.3562Z" fill="white"/>
<path d="M89.8898 23.24H91.0331V23.6094C91.3122 23.3412 91.6543 23.1125 92.136 23.1125C92.9507 23.1125 93.5764 23.561 93.5764 24.3831V26.9991H92.5006V24.4755C92.5006 24.0534 92.307 23.8688 91.8794 23.8688C91.5778 23.8688 91.3167 23.9875 91.0691 24.2029V26.9991H89.9933V23.9171C89.9933 23.6885 89.9528 23.5742 89.8223 23.4335C89.7322 23.3324 89.7863 23.24 89.8898 23.24Z" fill="white"/>
<path d="M96.1468 26.999V22.3035C96.1468 22.0749 96.1107 21.9606 95.9757 21.8199C95.8947 21.7188 95.9487 21.6309 96.0522 21.6309H97.2226V24.7084L98.5865 23.2356H99.8199L98.348 24.8403L100 26.9946H98.8161L97.6322 25.4207C97.5107 25.2536 97.4522 25.2272 97.3261 25.2272H97.2316V26.9946H96.1468V26.999Z" fill="white"/>
<path d="M11.3935 26.7584C9.77044 26.6018 7.82929 26.0996 6.14038 24.6581C4.58307 23.3353 3.62346 21.5211 3.15188 19.9176C2.67482 18.2816 2.47193 16.3703 3.26704 16.5215C3.50831 16.5701 3.93054 17.6175 4.38567 18.3842C4.85724 19.1725 5.24109 19.6098 5.59751 19.8798C5.75654 19.9986 6.31585 18.7892 7.12192 18.0927C7.5935 17.7093 8.10346 17.5797 8.1912 18.719C8.2899 20.112 8.03218 21.7749 8.44892 21.7749C8.82728 21.7749 9.70464 21.4887 11.6184 21.3268C12.3367 21.2674 12.748 21.4024 12.0625 22.3526C11.7171 22.8277 11.2619 23.5026 10.1762 24.2693C11.8048 25.7703 13.7569 25.5867 13.7953 26.2292C13.8172 26.5964 13.0879 26.7961 12.1338 26.7961C11.898 26.7961 11.6513 26.7853 11.3935 26.7584ZM16.877 13.2712C15.3855 12.9634 15.0784 11.6298 15.0784 11.6298C14.9578 11.1601 14.9249 10.5662 15.0291 9.81032C15.232 8.22836 15.6652 7.48867 16.1587 6.25765C16.8222 4.6109 15.21 3.64985 15.4733 3.04514C15.8352 2.22446 16.9867 3.26651 18.2808 3.34209C19.3885 3.40149 20.052 3.34749 20.9129 3.46088C22.0589 3.61205 23.4298 3.9954 24.0384 4.69729C24.5978 5.34519 23.7423 6.12807 22.7169 5.63675C21.9657 5.275 21.0225 5.49637 21.5764 6.26845C22.2399 7.00274 22.5579 7.01894 23.2433 7.19711C25.1187 7.68304 25.1571 9.45397 23.8849 10.3664C22.4428 11.4085 20.9787 10.9765 20.3974 8.93565C20.1068 7.9152 19.3775 7.39688 18.6263 7.68844C17.886 7.97459 18.3247 9.31359 18.8895 10.5554C19.8655 13.0174 17.886 13.2766 17.1293 13.2766C17.0086 13.282 16.9154 13.2766 16.877 13.2712ZM15.7968 27.2227C15.7803 26.8933 16.2684 26.8123 16.2684 26.8123C20.6222 25.9647 19.3446 23.1571 17.8092 21.7263C17.1622 21.127 11.1029 15.9762 11.1029 15.9762C5.32882 11.0791 5.78944 7.2619 5.78944 7.2619C6.07458 2.55921 10.253 1.39299 13.417 1.66295C13.7898 1.69534 13.9927 1.91131 13.9269 2.21906C13.8611 2.54841 13.3676 2.57541 13.3676 2.57541C12.3586 2.6348 11.4593 2.73199 10.7739 3.19092C8.22958 4.88086 8.97534 7.75323 12.3751 10.9495C12.8028 11.3545 13.2579 11.7756 13.7295 12.2076C13.7295 12.2076 14.4095 12.8015 15.7694 14.0703C18.385 16.4405 19.8162 17.7201 19.8162 17.7201C24.4278 21.4995 22.8485 24.955 21.0938 26.1536C19.7504 27.0715 18.2643 27.498 16.3067 27.606C16.2903 27.606 16.2738 27.606 16.2574 27.606C16.0764 27.606 15.8077 27.5034 15.7968 27.2227ZM14.0421 0.0161975C5.92652 0.377943 -0.352058 7.14852 0.0153354 15.1393C0.382728 23.1301 7.25901 29.3122 15.3746 28.9504C23.4901 28.5887 29.7687 21.8181 29.4013 13.8273C29.0503 6.05788 22.536 0 14.7165 0C14.4917 0 14.2669 0.00539918 14.0421 0.0161975Z" fill="white"/>
</svg>
