<svg width="46" height="46" viewBox="0 0 46 46" fill="none" xmlns="http://www.w3.org/2000/svg">
<mask id="mask0_4435_132898" style="mask-type:alpha" maskUnits="userSpaceOnUse" x="8" y="14" width="30" height="18">
<path fill-rule="evenodd" clip-rule="evenodd" d="M22.9344 17.101C22.9288 18.2994 24.7358 19.2794 26.9705 19.2899C29.2052 19.3003 31.0213 18.3373 31.0269 17.1389C31.0325 15.9405 29.2255 14.9605 26.9908 14.95C24.7561 14.9396 22.94 15.9026 22.9344 17.101ZM12.7236 19.7775C12.718 20.9759 14.525 21.9559 16.7597 21.9663C18.9944 21.9768 20.8106 21.0138 20.8162 19.8154C20.8218 18.617 19.0148 17.637 16.7801 17.6265C14.5454 17.6161 12.7292 18.5791 12.7236 19.7775ZM12.0974 27.3537C9.86271 27.3433 8.05567 26.3633 8.06129 25.1649C8.0669 23.9665 9.88303 23.0034 12.1177 23.0139C14.3524 23.0244 16.1595 24.0044 16.1539 25.2028C16.1482 26.4012 14.3321 27.3642 12.0974 27.3537ZM21.3 29.5408C17.4667 27.4918 17.4321 24.1765 21.2309 22.1332C25.0297 20.0899 31.2229 20.0957 35.0562 22.139C38.8895 24.188 38.9183 27.5033 35.1195 29.5466C31.3207 31.5899 25.1333 31.5899 21.3 29.5408Z" fill="white"/>
</mask>
<g mask="url(#mask0_4435_132898)">
<path fill-rule="evenodd" clip-rule="evenodd" d="M22.9344 17.101C22.9288 18.2994 24.7358 19.2794 26.9705 19.2899C29.2052 19.3003 31.0213 18.3373 31.0269 17.1389C31.0325 15.9405 29.2255 14.9605 26.9908 14.95C24.7561 14.9396 22.94 15.9026 22.9344 17.101ZM12.7236 19.7775C12.718 20.9759 14.525 21.9559 16.7597 21.9663C18.9944 21.9768 20.8106 21.0138 20.8162 19.8154C20.8218 18.617 19.0148 17.637 16.7801 17.6265C14.5454 17.6161 12.7292 18.5791 12.7236 19.7775ZM12.0974 27.3537C9.86271 27.3433 8.05567 26.3633 8.06129 25.1649C8.0669 23.9665 9.88303 23.0034 12.1177 23.0139C14.3524 23.0244 16.1595 24.0044 16.1539 25.2028C16.1482 26.4012 14.3321 27.3642 12.0974 27.3537ZM21.3 29.5408C17.4667 27.4918 17.4321 24.1765 21.2309 22.1332C25.0297 20.0899 31.2229 20.0957 35.0562 22.139C38.8895 24.188 38.9183 27.5033 35.1195 29.5466C31.3207 31.5899 25.1333 31.5899 21.3 29.5408Z" fill="#CFD5DF"/>
<path fill-rule="evenodd" clip-rule="evenodd" d="M23.5094 18.2509C23.5038 19.4493 25.3108 20.4293 27.5455 20.4398C29.7802 20.4502 31.5963 19.4872 31.6019 18.2888C31.6076 17.0904 29.8005 16.1104 27.5658 16.0999C25.3311 16.0895 23.515 17.0525 23.5094 18.2509ZM13.2986 20.9274C13.293 22.1258 15.1 23.1058 17.3348 23.1162C19.5695 23.1267 21.3856 22.1637 21.3912 20.9653C21.3968 19.7669 19.5898 18.7869 17.3551 18.7764C15.1204 18.766 13.3042 19.729 13.2986 20.9274ZM12.6724 28.5036C10.4377 28.4932 8.63069 27.5132 8.6363 26.3148C8.64191 25.1164 10.458 24.1534 12.6927 24.1638C14.9275 24.1743 16.7345 25.1543 16.7289 26.3527C16.7233 27.5511 14.9071 28.5141 12.6724 28.5036ZM21.875 30.6907C18.0417 28.6417 18.0071 25.3264 21.8059 23.2831C25.6047 21.2398 31.7979 21.2456 35.6312 23.2889C39.4645 25.3379 39.4933 28.6532 35.6945 30.6965C31.8957 32.7398 25.7083 32.7398 21.875 30.6907Z" fill="#EDF0F5"/>
</g>
<g style="mix-blend-mode:multiply">
<path fill-rule="evenodd" clip-rule="evenodd" d="M22.9345 17.101C22.9289 18.2994 24.736 19.2794 26.9707 19.2899C29.2054 19.3003 31.0215 18.3373 31.0271 17.1389C31.0327 15.9405 29.2257 14.9605 26.991 14.95C24.7563 14.9396 22.9402 15.9026 22.9345 17.101ZM12.7238 19.7775C12.7182 20.9759 14.5252 21.9559 16.7599 21.9663C18.9946 21.9768 20.8108 21.0138 20.8164 19.8154C20.822 18.617 19.015 17.637 16.7803 17.6265C14.5455 17.6161 12.7294 18.5791 12.7238 19.7775ZM12.0976 27.3537C9.86289 27.3433 8.05585 26.3633 8.06147 25.1649C8.06708 23.9665 9.88322 23.0034 12.1179 23.0139C14.3526 23.0244 16.1597 24.0044 16.154 25.2028C16.1484 26.4012 14.3323 27.3642 12.0976 27.3537ZM21.3002 29.5408C17.4669 27.4918 17.4323 24.1765 21.2311 22.1332C25.0299 20.0899 31.2231 20.0957 35.0564 22.139C38.8897 24.188 38.9185 27.5033 35.1197 29.5466C31.3209 31.5899 25.1335 31.5899 21.3002 29.5408Z" fill="#87BBF5"/>
</g>
</svg>
