<svg width="46" height="46" viewBox="0 0 46 46" fill="none" xmlns="http://www.w3.org/2000/svg">
<mask id="mask0_4435_132632" style="mask-type:alpha" maskUnits="userSpaceOnUse" x="8" y="14" width="29" height="19">
<path fill-rule="evenodd" clip-rule="evenodd" d="M29.2899 23.8872C33.1232 21.8381 33.1578 18.5228 29.359 16.4795C25.5602 14.4363 19.367 14.442 15.5337 16.4853C11.7004 18.5343 11.6716 21.8497 15.4704 23.8929C19.2692 25.9362 25.4566 25.9362 29.2899 23.8872ZM16.1427 27.5471C16.1484 28.7455 14.3413 29.7255 12.1066 29.7359C9.87192 29.7464 8.05578 28.7834 8.05017 27.585C8.04456 26.3866 9.85159 25.4066 12.0863 25.3961C14.321 25.3856 16.1371 26.3486 16.1427 27.5471ZM26.4926 29.8471C26.4982 31.0455 24.6912 32.0255 22.4565 32.0359C20.2218 32.0464 18.4057 31.0834 18.4001 29.885C18.3944 28.6866 20.2015 27.7066 22.4362 27.6961C24.6709 27.6856 26.487 28.6486 26.4926 29.8471ZM32.8065 29.7359C35.0412 29.7255 36.8482 28.7455 36.8426 27.5471C36.837 26.3486 35.0209 25.3856 32.7862 25.3961C30.5515 25.4066 28.7444 26.3866 28.7501 27.585C28.7557 28.7834 30.5718 29.7464 32.8065 29.7359Z" fill="#CFD5DF"/>
</mask>
<g mask="url(#mask0_4435_132632)">
<path fill-rule="evenodd" clip-rule="evenodd" d="M29.2899 23.8872C33.1232 21.8381 33.1578 18.5228 29.359 16.4795C25.5602 14.4363 19.367 14.442 15.5337 16.4853C11.7004 18.5343 11.6716 21.8497 15.4704 23.8929C19.2692 25.9362 25.4566 25.9362 29.2899 23.8872ZM16.1427 27.5471C16.1484 28.7455 14.3413 29.7255 12.1066 29.7359C9.87192 29.7464 8.05578 28.7834 8.05017 27.585C8.04456 26.3866 9.85159 25.4066 12.0863 25.3961C14.321 25.3856 16.1371 26.3486 16.1427 27.5471ZM26.4926 29.8471C26.4982 31.0455 24.6912 32.0255 22.4565 32.0359C20.2218 32.0464 18.4057 31.0834 18.4001 29.885C18.3944 28.6866 20.2015 27.7066 22.4362 27.6961C24.6709 27.6856 26.487 28.6486 26.4926 29.8471ZM32.8065 29.7359C35.0412 29.7255 36.8482 28.7455 36.8426 27.5471C36.837 26.3486 35.0209 25.3856 32.7862 25.3961C30.5515 25.4066 28.7444 26.3866 28.7501 27.585C28.7557 28.7834 30.5718 29.7464 32.8065 29.7359Z" fill="#E8EBF0"/>
<path fill-rule="evenodd" clip-rule="evenodd" d="M29.2899 25.0371C33.1232 22.988 33.1578 19.6727 29.359 17.6294C25.5602 15.5862 19.367 15.5919 15.5337 17.6352C11.7004 19.6842 11.6716 22.9996 15.4704 25.0428C19.2692 27.0861 25.4566 27.0861 29.2899 25.0371ZM16.1427 28.697C16.1484 29.8954 14.3413 30.8754 12.1066 30.8858C9.87192 30.8963 8.05578 29.9333 8.05017 28.7349C8.04456 27.5365 9.85159 26.5565 12.0863 26.546C14.321 26.5355 16.1371 27.4985 16.1427 28.697ZM26.4926 30.997C26.4982 32.1954 24.6912 33.1754 22.4565 33.1858C20.2218 33.1963 18.4057 32.2333 18.4001 31.0349C18.3944 29.8365 20.2015 28.8565 22.4362 28.846C24.6709 28.8355 26.487 29.7985 26.4926 30.997ZM32.8065 30.8858C35.0412 30.8754 36.8482 29.8954 36.8426 28.697C36.837 27.4985 35.0209 26.5355 32.7862 26.546C30.5515 26.5565 28.7444 27.5365 28.7501 28.7349C28.7557 29.9333 30.5718 30.8963 32.8065 30.8858Z" fill="#F8F9FB"/>
</g>
</svg>
