<svg width="24" height="24" viewBox="0 0 24 24" fill="none" xmlns="http://www.w3.org/2000/svg">
<path d="M19.36 13.1162C19.0905 14.889 18.19 16.5048 16.8241 17.6666C15.4582 18.8283 13.7187 19.4578 11.9257 19.4392C10.1326 19.4207 8.40658 18.7553 7.065 17.5656C5.72341 16.3759 4.85652 14.7417 4.62377 12.9637C4.39101 11.1858 4.80806 9.38355 5.79818 7.88856C6.78831 6.39357 8.28494 5.30636 10.0128 4.82689C11.7406 4.34742 13.5835 4.50794 15.2024 5.27893C16.8213 6.04992 18.1075 7.37953 18.8242 9.02319" stroke="black" stroke-width="1.5" stroke-linecap="round" stroke-linejoin="round"/>
<path d="M15.7209 9.4326H18.9954C19.1076 9.43299 19.2159 9.39109 19.2986 9.31524C19.3814 9.23939 19.4325 9.13516 19.4419 9.0233V5.71167" stroke="black" stroke-width="1.5" stroke-linecap="round" stroke-linejoin="round"/>
</svg>
