<svg width="32" height="32" viewBox="0 0 32 32" fill="none" xmlns="http://www.w3.org/2000/svg">
<rect opacity="0.01" width="32" height="32" fill="#F800FF"/>
<circle cx="16" cy="16" r="16" fill="#FFEB00"/>
<mask id="mask0_7043_33184" style="mask-type:alpha" maskUnits="userSpaceOnUse" x="4" y="13" width="8" height="7">
<path fill-rule="evenodd" clip-rule="evenodd" d="M4 13H11.3315V19.7705H4V13Z" fill="white"/>
</mask>
<g mask="url(#mask0_7043_33184)">
<path fill-rule="evenodd" clip-rule="evenodd" d="M7.66568 13C5.64126 13 4 14.296 4 15.8957C4 16.9233 4.67976 17.8254 5.70075 18.3402L5.35535 19.6297C5.34198 19.6693 5.35301 19.7112 5.38175 19.7397C5.40147 19.7597 5.42787 19.7706 5.45645 19.7706C5.4785 19.7706 5.50039 19.7619 5.52028 19.7465L7.00546 18.7431C7.22119 18.7738 7.44126 18.7914 7.66568 18.7914C9.68993 18.7914 11.3315 17.4953 11.3315 15.8957C11.3315 14.296 9.68993 13 7.66568 13Z" fill="black"/>
</g>
<path fill-rule="evenodd" clip-rule="evenodd" d="M14.4204 14.3878V17.3702C14.4934 17.3794 14.6757 17.3976 14.849 17.3976C15.7976 17.3976 16.1626 16.7317 16.1626 15.6829C16.1626 14.7618 15.9163 14.2054 15.1592 14.2054C14.9129 14.2054 14.6393 14.2784 14.4204 14.3878ZM14.4205 18.3005V20.17H13.0889V13.275H14.0283L14.1924 13.7126C14.4753 13.43 14.9039 13.1289 15.597 13.1289C16.9013 13.1289 17.5215 14.1049 17.5123 15.6827C17.5123 17.3336 16.5547 18.3916 15.1866 18.3916C14.9221 18.3916 14.7214 18.3735 14.4205 18.3005Z" fill="black"/>
<path fill-rule="evenodd" clip-rule="evenodd" d="M21.1689 16.9782V16.0661H20.5578C19.8737 16.0661 19.5271 16.3124 19.5271 16.8049C19.5271 17.1788 19.7186 17.3613 20.1108 17.3613C20.4758 17.3613 20.9408 17.1788 21.1689 16.9782ZM20.4118 15.2177H21.169V15.0534C21.169 14.5061 20.8588 14.2508 20.3208 14.2508C19.9104 14.2508 19.3813 14.3695 18.9526 14.5792L18.5879 13.6853C19.0622 13.357 19.7919 13.1289 20.4394 13.1289C21.7161 13.1289 22.4094 13.804 22.4094 15.09V18.2549H21.4701L21.3331 17.8353C20.795 18.2275 20.3024 18.3916 19.8557 18.3916C18.8797 18.3916 18.3323 17.8079 18.3323 16.8228C18.3323 15.7739 19.0622 15.2177 20.4118 15.2177Z" fill="black"/>
<mask id="mask1_7043_33184" style="mask-type:alpha" maskUnits="userSpaceOnUse" x="23" y="13" width="5" height="8">
<path fill-rule="evenodd" clip-rule="evenodd" d="M23.1206 13.083H28.0001V20.3886H23.1206V13.083Z" fill="white"/>
</mask>
<g mask="url(#mask1_7043_33184)">
<path fill-rule="evenodd" clip-rule="evenodd" d="M26.4406 17.7436C25.9753 18.984 25.4191 19.887 24.6071 20.3886L23.7863 19.6315C24.2606 19.2211 24.5981 18.8199 24.89 18.2817L23.1206 13.457L24.4432 13.1012L25.574 17.014L26.6959 13.083L28.0001 13.4478L26.4406 17.7436Z" fill="black"/>
</g>
</svg>
