<svg width="32" height="32" viewBox="0 0 32 32" fill="none" xmlns="http://www.w3.org/2000/svg">
<rect opacity="0.01" width="32" height="32" fill="#F800FF"/>
<circle cx="16" cy="16" r="16" fill="#005CA9"/>
<mask id="mask0_4878_25229" style="mask-type:alpha" maskUnits="userSpaceOnUse" x="17" y="11" width="11" height="10">
<path fill-rule="evenodd" clip-rule="evenodd" d="M17.0283 11.5996H28.0001V20.2406H17.0283V11.5996Z" fill="white"/>
</mask>
<g mask="url(#mask0_4878_25229)">
<path fill-rule="evenodd" clip-rule="evenodd" d="M27.3159 11.5996H25.7378V14.9518H19.2857V11.5996H17.7069C17.3305 11.5996 17.0283 11.904 17.0283 12.2803V19.5606C17.0283 19.9356 17.3305 20.2406 17.7069 20.2406H19.2857V16.6347H25.7378V20.2406H27.3159C27.6936 20.2406 28.0001 19.9356 28.0001 19.5606V12.2803C28.0001 11.904 27.6936 11.5996 27.3159 11.5996Z" fill="#FEFEFE"/>
</g>
<mask id="mask1_4878_25229" style="mask-type:alpha" maskUnits="userSpaceOnUse" x="4" y="11" width="12" height="10">
<path fill-rule="evenodd" clip-rule="evenodd" d="M4 11.5996H15.2075V20.2406H4V11.5996Z" fill="white"/>
</mask>
<g mask="url(#mask1_4878_25229)">
<path fill-rule="evenodd" clip-rule="evenodd" d="M14.5273 11.5996H12.9499V17.9669L7.97754 12.9318C7.18706 12.1599 6.64321 11.5996 5.38444 11.5996H3.99951V19.5606C3.99951 19.9356 4.30458 20.2406 4.68164 20.2406H6.25902V13.8427L11.185 18.8436C11.9926 19.6319 12.7111 20.2406 13.8815 20.2406H15.2073V12.2803C15.2073 11.904 14.9022 11.5996 14.5273 11.5996Z" fill="#FEFEFE"/>
</g>
</svg>
