<svg width="48" height="48" viewBox="0 0 48 48" fill="none" xmlns="http://www.w3.org/2000/svg">
<rect width="48" height="48" rx="12" fill="#0480E9"/>
<path fill-rule="evenodd" clip-rule="evenodd" d="M35.466 18.776C33.6617 20.0951 31.838 19.5515 31.104 16.9609C30.7354 15.6706 29.8229 15.0114 28.8893 15.3782C27.9591 15.744 28.5094 17.4446 29.2172 19.021C30.6327 22.6305 27.1157 22.5103 26.707 22.4635C24.8388 22.0706 24.4594 20.3779 24.4594 20.3779C24.3048 19.7819 24.2693 19.03 24.3929 18.0705C24.6485 16.0629 25.1888 15.1192 25.8022 13.5653C26.6348 11.4747 24.6152 10.2522 24.9488 9.4829C25.4055 8.44156 26.8481 9.76512 28.4552 9.86275C29.8402 9.93953 30.6735 9.87009 31.7508 10.0135C33.1817 10.2037 34.8927 10.6891 35.6542 11.5842C36.3524 12.4021 35.2856 13.4005 34.0013 12.7746C33.0644 12.318 31.8819 12.5991 32.5745 13.5766C33.4104 14.5068 33.8096 14.5316 34.6596 14.7557C37.0025 15.3726 37.0484 17.6139 35.466 18.776ZM31.9757 38.8202C30.2964 39.9823 28.436 40.528 25.9964 40.6591C25.7751 40.6896 25.3779 40.5626 25.3575 40.1743C25.3416 39.7588 25.9491 39.6537 25.9491 39.6537C31.3875 38.5831 29.7984 35.016 27.8739 33.1963C27.066 32.4304 19.4924 25.9 19.4924 25.9C12.2742 19.6835 12.8516 14.8313 12.8516 14.8313C13.1999 8.86036 18.4289 7.37932 22.3846 7.72079C22.8485 7.7603 23.1048 8.04422 23.0206 8.42971C22.9337 8.84964 22.3224 8.88067 22.3224 8.88067C21.0636 8.95574 19.9392 9.08388 19.0814 9.66014C15.8945 11.8044 16.8355 15.4511 21.0862 19.5103C21.6197 20.0229 22.188 20.5603 22.7705 21.106C22.7705 21.106 23.6252 21.8589 25.3241 23.4748C28.5922 26.4866 30.3833 28.1114 30.3833 28.1114C36.144 32.909 34.1775 37.294 31.9757 38.8202ZM19.8552 39.5889C17.8232 39.3897 15.3972 38.7492 13.284 36.922C11.3423 35.2413 10.1372 32.9306 9.55296 30.9043C8.95521 28.8261 8.70347 26.3961 9.69182 26.5876C9.99492 26.6486 10.5204 27.9835 11.0916 28.9552C11.6804 29.9589 12.163 30.5143 12.6111 30.8517C12.8166 31.0053 13.5092 29.4638 14.5161 28.5873C15.1032 28.1035 15.7455 27.9372 15.8477 29.3808C15.9741 31.1532 15.6563 33.2584 16.1711 33.2584C16.6554 33.2584 17.7459 32.8944 20.1403 32.6918C21.0384 32.615 21.5508 32.7842 20.6935 33.9962C20.2656 34.5979 19.6911 35.4511 18.3346 36.4248C20.3695 38.3308 22.8123 38.1021 22.8552 38.91C22.8874 39.4917 21.4719 39.7464 19.8552 39.5889Z" fill="white"/>
</svg>
