<svg width="32" height="32" viewBox="0 0 32 32" fill="none" xmlns="http://www.w3.org/2000/svg">
<rect opacity="0.01" width="32" height="32" fill="#F800FF"/>
<path fill-rule="evenodd" clip-rule="evenodd" d="M23.6439 12.5171C22.441 13.3965 21.2251 13.0341 20.7359 11.307C20.4901 10.4468 19.8818 10.0073 19.2594 10.2519C18.6392 10.4957 19.0061 11.6294 19.4779 12.6804C20.4216 15.0867 18.077 15.0066 17.8045 14.9754C16.5591 14.7135 16.3061 13.585 16.3061 13.585C16.2031 13.1877 16.1794 12.6864 16.2618 12.0467C16.4322 10.7083 16.7923 10.0792 17.2013 9.04329C17.7563 7.64956 16.4099 6.83453 16.6323 6.32167C16.9368 5.62744 17.8986 6.50981 18.9699 6.5749C19.8933 6.62608 20.4488 6.5798 21.1671 6.67538C22.121 6.80218 23.2616 7.12578 23.7693 7.72255C24.2348 8.26778 23.5236 8.93341 22.6674 8.51612C22.0427 8.21172 21.2544 8.39911 21.7162 9.05082C22.2735 9.67092 22.5396 9.68748 23.1063 9.83686C24.6682 10.2481 24.6988 11.7423 23.6439 12.5171ZM21.317 25.8799C20.1975 26.6546 18.9571 27.0184 17.3307 27.1058C17.1832 27.1261 16.9184 27.0415 16.9048 26.7826C16.8943 26.5056 17.2992 26.4355 17.2992 26.4355C20.9248 25.7218 19.8655 23.3437 18.5824 22.1306C18.0439 21.62 12.9947 17.2664 12.9947 17.2664C8.18262 13.1221 8.56757 9.88729 8.56757 9.88729C8.79974 5.90664 12.2858 4.91928 14.9229 5.14693C15.2322 5.17327 15.4031 5.36255 15.3469 5.61954C15.289 5.89949 14.8815 5.92018 14.8815 5.92018C14.0423 5.97023 13.2927 6.05565 12.7208 6.43983C10.5962 7.8693 11.2235 10.3004 14.0573 13.0066C14.413 13.3483 14.7919 13.7066 15.1802 14.0704C15.1802 14.0704 15.7499 14.5723 16.8826 15.6496C19.0613 17.6575 20.2554 18.7407 20.2554 18.7407C24.0959 21.9391 22.7848 24.8624 21.317 25.8799ZM13.2367 26.3924C11.882 26.2596 10.2647 25.8325 8.85581 24.6144C7.56134 23.4939 6.75795 21.9535 6.36848 20.6026C5.96998 19.2171 5.80216 17.5971 6.46105 17.7248C6.66312 17.7655 7.01345 18.6554 7.39427 19.3032C7.78675 19.9723 8.10848 20.3426 8.40726 20.5675C8.54424 20.6699 9.00595 19.6423 9.67726 19.0579C10.0686 18.7354 10.4968 18.6245 10.565 19.5869C10.6492 20.7685 10.4374 22.172 10.7806 22.172C11.1034 22.172 11.8304 21.9293 13.4267 21.7943C14.0255 21.7431 14.3671 21.8559 13.7955 22.6639C13.5103 23.065 13.1272 23.6338 12.2229 24.2829C13.5795 25.5536 15.208 25.4012 15.2367 25.9397C15.2581 26.3276 14.3144 26.4973 13.2367 26.3924ZM0.0169477 16.7231C0.415444 25.5509 7.89512 32.382 16.7223 31.9834C25.5536 31.5858 32.382 24.105 31.9834 15.2775C31.5853 6.44885 24.1045 -0.383973 15.2773 0.0167635C6.4475 0.41486 -0.386061 7.89489 0.0169477 16.7231Z" fill="#0480E9"/>
</svg>
