<svg width="32" height="32" viewBox="0 0 32 32" fill="none" xmlns="http://www.w3.org/2000/svg">
<rect opacity="0.01" width="32" height="32" fill="#F800FF"/>
<circle cx="16" cy="16" r="16" fill="#60584C"/>
<path fill-rule="evenodd" clip-rule="evenodd" d="M27.6124 16.2594C27.6124 16.259 27.4047 16.1269 27.4047 16.1269C26.6968 15.4205 25.7113 15.1145 24.3935 15.1915C23.2962 15.2585 22.4261 15.6938 21.7616 16.0979C21.7616 16.0876 21.7608 16.0776 21.7608 16.0679C21.7608 15.7241 21.7994 15.3518 21.8382 14.9895C21.8762 14.6217 21.9158 14.2475 21.9158 13.8935C21.9158 13.5322 21.8752 13.1894 21.7506 12.8962C21.7194 12.821 21.65 12.7764 21.5624 12.7764C21.2081 12.7842 20.5157 13.0269 20.3479 13.1741C20.3479 13.1751 20.2566 13.3739 20.2566 13.3739C20.251 13.7666 20.1643 14.8626 20.0767 14.9959C20.0803 14.9909 20.0304 15.128 20.0304 15.128C19.881 16.6932 19.878 18.0697 20.0157 19.2513C20.0314 19.3696 20.2594 19.5467 20.4347 19.6114C20.6275 19.6824 21.2301 19.521 21.5781 19.3903C21.5734 19.3917 21.7081 19.3696 21.7081 19.3696C21.8181 19.3577 21.8826 19.2652 21.878 19.1398C21.8762 19.1371 21.8863 18.7998 21.8863 18.7998C22.1374 17.7798 23.1522 16.5626 24.3539 16.3798C25.0332 16.2722 25.5692 16.4467 25.9928 16.9082C26.0501 16.9912 26.1737 17.7255 25.7262 18.5685C25.3931 19.1928 24.7266 19.7194 23.8501 20.0479C23.0203 20.3636 22.1078 20.4905 20.9802 20.4523C20.9329 20.4217 19.9245 19.7383 19.9245 19.7383C19.0302 19.1108 17.9191 18.3289 16.9122 17.9475C16.7351 17.8791 16.4185 17.6161 16.2275 17.4583L16.1233 17.373C15.5427 16.9074 14.4372 16.1699 13.5496 15.5792C13.5496 15.5792 13.1491 15.3101 13.0715 15.2585C13.0723 15.2253 13.0723 15.1579 13.0723 15.1579C13.0982 15.1298 13.6565 14.7952 13.6565 14.7952C14.4372 14.3384 14.7981 14.1146 14.8747 13.9986C14.8588 14.0173 14.978 13.9375 14.978 13.9375C14.9852 13.9341 16.914 12.8419 16.914 12.8419C18.7725 11.8211 20.8776 10.662 21.9832 9.51718C21.985 9.51577 22.0376 9.34185 22.0376 9.34185L22.0616 9.18623C22.1356 8.94134 22.139 8.75375 22.0773 8.536C22.0616 8.47387 22.0043 8.40169 21.9279 8.38842C21.064 8.30217 19.9512 8.8199 18.9369 9.77092C18.7082 9.98505 18.5162 10.0906 18.3131 10.2006L18.1581 10.2872C17.0405 10.9228 14.523 12.4856 13.2044 13.3287C13.291 11.9112 13.553 9.89517 13.8761 8.2145L13.8401 8.01364C13.8365 8.00681 13.7036 7.7595 13.7036 7.7595L13.6012 7.57754L13.5715 7.5699C13.3087 7.437 13.0934 7.49089 12.9358 7.53009L12.6726 7.62741L12.321 7.75488C12.252 7.76875 12.2032 7.81158 12.1762 7.87853C11.547 9.39996 11.0219 11.903 10.8972 13.9047C9.63948 13.1045 8.47664 12.5291 7.90628 12.2512L7.8906 12.2424L7.82325 12.2277C7.61758 12.2013 7.36748 12.0505 7.12744 11.9046C7.1017 11.8895 6.64855 11.5945 6.64855 11.5945L5.91776 11.1263C5.92318 11.1309 5.72475 11.0824 5.72475 11.0824C5.41093 11.1363 4.8084 11.5415 4.62947 11.8179C4.60615 11.8543 4.5963 11.8937 4.5963 11.9351C4.5963 11.9932 4.61459 12.052 4.62947 12.1087L4.66184 12.2572L4.69581 12.3467C5.04663 12.7058 5.93062 13.3042 6.79712 13.7704L7.80214 14.3028L9.34033 15.1431C9.34033 15.1501 9.60249 15.3518 9.60249 15.3518L9.78322 15.4555C9.78322 15.4555 9.80474 15.468 9.8166 15.4758C9.40687 15.7505 7.01847 17.3447 7.01847 17.3447L5.54763 18.3198C5.40831 18.4143 4.8279 18.6747 4.69943 18.726C4.38118 18.8561 4.13932 19.0553 4.03961 19.2716L4 19.3567L4.03961 19.413L4.15239 19.4982C4.14676 19.4982 4.30277 19.5966 4.30277 19.5966L4.46501 19.7077C4.46883 19.7092 4.61841 19.7323 4.61841 19.7323C4.87675 19.7425 5.25954 19.5948 5.97586 19.2809C6.63367 18.9898 8.42035 17.9115 9.18452 17.4514L9.51021 17.2562C9.64491 17.2673 9.79247 17.1533 9.92536 17.0535C10.0788 16.9313 10.4117 16.7264 10.6147 16.6367C10.6212 16.6349 10.7368 16.5704 10.8463 16.5095C10.8455 16.5433 10.8447 16.5967 10.8447 16.5967C10.8789 18.9341 11.0126 20.6326 11.2681 21.9421L11.272 21.9647L11.2969 22.0173C11.4223 22.2019 11.5655 22.7558 11.6925 23.244L11.9834 24.2194C11.9899 24.231 12.0655 24.3108 12.0655 24.3108C12.2315 24.4238 12.7384 24.6181 13.0759 24.578L13.16 24.5678L13.2134 24.4492C13.242 24.3034 13.2522 24.1598 13.2522 24.0022C13.2522 23.8241 13.2394 23.6278 13.2237 23.387L13.2006 23.0353C13.0934 21.4041 12.9865 19.0489 12.9865 17.4826V17.3582C13.2643 17.5317 14.476 18.2957 14.476 18.2957C16.5395 19.6346 19.6559 21.6566 21.5393 22.1909C21.637 22.2208 21.7405 22.1979 21.8123 22.1285C21.8151 22.1249 22.1022 21.9427 22.1022 21.9427L22.1567 21.9204C22.2644 21.8688 22.3366 21.687 22.3495 21.4896C23.9369 21.4097 26.1506 20.7983 27.3356 19.3086C27.7941 18.731 28 18.0241 28 17.4191C28 16.9225 27.8625 16.4948 27.6124 16.2594Z" fill="#FFBC00"/>
</svg>
