<svg width="32" height="32" viewBox="0 0 32 32" fill="none" xmlns="http://www.w3.org/2000/svg">
<rect opacity="0.01" width="32" height="32" fill="#F800FF"/>
<circle cx="16" cy="16" r="16" fill="#043B73"/>
<mask id="mask0_4878_25236" style="mask-type:alpha" maskUnits="userSpaceOnUse" x="26" y="10" width="4" height="4">
<path fill-rule="evenodd" clip-rule="evenodd" d="M26.8384 10.3447H29.9031V13.7753H26.8384V10.3447Z" fill="white"/>
</mask>
<g mask="url(#mask0_4878_25236)">
<path fill-rule="evenodd" clip-rule="evenodd" d="M29.9031 10.3447C29.4522 12.2133 27.8318 13.2314 26.8797 13.7754L26.8384 13.7204C27.23 13.403 28.5696 12.4139 28.9984 10.7755L29.9031 10.3447Z" fill="#F16322"/>
</g>
<path fill-rule="evenodd" clip-rule="evenodd" d="M6.37666 13.9336C6.35201 14.104 6.00615 16.5172 5.97412 16.7421H6.74758C6.772 16.5712 7.11786 14.159 7.15012 13.9336H6.37666Z" fill="white"/>
<path fill-rule="evenodd" clip-rule="evenodd" d="M12.7072 13.9336C12.6821 14.104 12.3367 16.5172 12.3042 16.7421H14.1176C14.1355 16.619 14.181 16.2933 14.204 16.1361H13.1058L13.1797 15.6165H14.1766C14.1948 15.4962 14.2366 15.2049 14.2584 15.0515H13.261L13.3344 14.5391H14.404C14.4219 14.4161 14.4688 14.0907 14.4913 13.9336H12.7072Z" fill="white"/>
<mask id="mask1_4878_25236" style="mask-type:alpha" maskUnits="userSpaceOnUse" x="2" y="13" width="4" height="4">
<path fill-rule="evenodd" clip-rule="evenodd" d="M2.28564 13.9336H5.76335V16.7421H2.28564V13.9336Z" fill="white"/>
</mask>
<g mask="url(#mask1_4878_25236)">
<path fill-rule="evenodd" clip-rule="evenodd" d="M4.09184 15.5424C4.09184 15.5424 4.73924 14.0628 4.79006 13.9336H5.76336C5.76383 14.13 5.63302 16.5428 5.6356 16.7421H4.93456L5.05067 14.7759C5.05067 14.7759 4.26187 16.6167 4.20941 16.7421H3.65656L3.40755 14.7759C3.38922 14.8647 3.1265 16.1782 2.9834 16.7421H2.28564C2.35878 16.4915 2.89235 14.0782 2.93392 13.9336H3.87186L4.09184 15.5424Z" fill="white"/>
</g>
<path fill-rule="evenodd" clip-rule="evenodd" d="M10.685 15.5942L11.1282 14.552L11.2729 15.5942H10.685ZM11.3461 16.173C11.3461 16.173 11.3961 16.6311 11.4144 16.7421H12.1563C12.1147 16.5105 11.7101 14.0979 11.6808 13.9336H10.7415C10.6874 14.051 9.61612 16.4656 9.48877 16.7421H10.2419C10.2818 16.6476 10.4732 16.1735 10.4732 16.1735L11.3461 16.173Z" fill="white"/>
<path fill-rule="evenodd" clip-rule="evenodd" d="M8.22863 14.4603H8.40094C8.51922 14.4603 8.65067 14.4736 8.73287 14.5685C8.79072 14.6349 8.81145 14.7293 8.79423 14.8486C8.79423 14.8486 8.77029 15.0639 8.62883 15.132C8.62883 15.132 8.53198 15.1954 8.37103 15.1995H8.02118L8.68088 16.7421H9.43186L8.86414 15.5589C9.2079 15.4947 9.47642 15.3933 9.54474 14.8597C9.55312 14.7927 9.55979 14.7288 9.55979 14.6688C9.55979 14.4718 9.50756 14.312 9.40463 14.1934C9.21838 13.9786 8.89805 13.9336 8.66255 13.9336H7.60189C7.57684 14.104 7.23144 16.5173 7.19824 16.7421H7.90297C7.92668 16.5846 8.22863 14.4603 8.22863 14.4603Z" fill="white"/>
<path fill-rule="evenodd" clip-rule="evenodd" d="M22.3995 15.2516C22.3916 15.253 22.3831 15.2539 22.3738 15.2562C22.3831 15.2539 22.3916 15.253 22.3995 15.2516Z" fill="#1F3263"/>
<path fill-rule="evenodd" clip-rule="evenodd" d="M23.4121 15.0519C23.4265 15.048 23.4401 15.0442 23.4538 15.0418C23.4398 15.0442 23.4252 15.048 23.4114 15.0519H23.4121Z" fill="#1F3263"/>
<path fill-rule="evenodd" clip-rule="evenodd" d="M22.1789 15.2885C22.1627 15.2913 22.1468 15.2936 22.1306 15.2955C22.1468 15.2936 22.1627 15.2913 22.1789 15.2885Z" fill="#1F3263"/>
<path fill-rule="evenodd" clip-rule="evenodd" d="M23.7105 14.9801C23.6571 14.9939 23.6032 15.0069 23.5483 15.0198C23.6032 15.0069 23.6571 14.9939 23.7105 14.9801Z" fill="#1F3263"/>
<path fill-rule="evenodd" clip-rule="evenodd" d="M21.9061 15.3303C21.9113 15.3298 21.9158 15.3284 21.9212 15.3279C21.9158 15.3284 21.9113 15.3298 21.9059 15.3303H21.9061Z" fill="#1F3263"/>
<path fill-rule="evenodd" clip-rule="evenodd" d="M24.0805 14.8855C24.0476 14.8951 24.0132 14.904 23.979 14.9133C24.0132 14.904 24.0476 14.8951 24.0805 14.8855Z" fill="#1F3263"/>
<path fill-rule="evenodd" clip-rule="evenodd" d="M24.9351 14.6318H24.9339C24.8566 14.6575 24.7776 14.6826 24.6958 14.7082C24.7776 14.6826 24.8575 14.6575 24.9351 14.6318Z" fill="#1F3263"/>
<path fill-rule="evenodd" clip-rule="evenodd" d="M24.6463 14.723C24.6135 14.7339 24.5803 14.7437 24.5464 14.7535C24.5803 14.7437 24.6135 14.7339 24.6463 14.723Z" fill="#1F3263"/>
<path fill-rule="evenodd" clip-rule="evenodd" d="M24.4924 14.7705C24.3809 14.8032 24.2667 14.8357 24.1475 14.8683C24.2667 14.8357 24.3809 14.8032 24.4924 14.7705Z" fill="#1F3263"/>
<path fill-rule="evenodd" clip-rule="evenodd" d="M23.9047 14.9321C23.8713 14.9406 23.8371 14.9492 23.8032 14.9585C23.8371 14.9492 23.8713 14.9406 23.9047 14.9321Z" fill="#1F3263"/>
<path fill-rule="evenodd" clip-rule="evenodd" d="M20.4918 15.4866C20.4848 15.4875 20.4783 15.4875 20.4711 15.488C20.4783 15.4875 20.4848 15.4875 20.4918 15.4866Z" fill="#1F3263"/>
<path fill-rule="evenodd" clip-rule="evenodd" d="M20.0495 15.5177C20.0439 15.5182 20.0392 15.5189 20.0335 15.5194C20.0392 15.5189 20.0439 15.5182 20.0495 15.5177Z" fill="#1F3263"/>
<path fill-rule="evenodd" clip-rule="evenodd" d="M20.2725 15.5042C20.2664 15.5046 20.2596 15.5051 20.2539 15.5056C20.2596 15.5051 20.2664 15.5046 20.2725 15.5042Z" fill="#1F3263"/>
<path fill-rule="evenodd" clip-rule="evenodd" d="M21.5175 15.039C21.5126 15.0369 21.3129 14.9367 21.3129 14.9367L21.3103 14.9354L21.3076 14.9341C21.2416 14.8961 21.0871 14.8067 21.0871 14.6559C21.0878 14.5829 21.1159 14.5196 21.1686 14.4759C21.2316 14.423 21.3301 14.4022 21.4356 14.4223C21.5682 14.4432 21.7205 14.5289 21.8883 14.6723C21.9681 14.5196 22.1198 14.2268 22.1751 14.1231C21.9829 13.9642 21.7965 13.879 21.5191 13.8298C21.1756 13.78 20.8446 13.8527 20.6121 14.029C20.4165 14.1793 20.2948 14.3982 20.2623 14.6641C20.257 14.7088 20.2544 14.7531 20.2544 14.7948C20.2544 14.9413 20.2853 15.0675 20.3471 15.1738C20.7649 15.1645 21.2051 15.1432 21.6487 15.1071C21.6083 15.0835 21.5647 15.0603 21.5175 15.039Z" fill="white"/>
<path fill-rule="evenodd" clip-rule="evenodd" d="M24.6476 13.9346C24.6306 14.0516 24.5762 14.4215 24.5503 14.6023C25.0959 14.4495 25.7551 14.2305 26.3664 13.9346H24.6476Z" fill="white"/>
<path fill-rule="evenodd" clip-rule="evenodd" d="M24.9343 14.6319H24.9356C24.8579 14.6576 24.778 14.6827 24.6963 14.7083C24.6795 14.7135 24.6631 14.7186 24.6464 14.7233C24.6135 14.7342 24.5804 14.744 24.5464 14.7538C24.529 14.7593 24.511 14.7642 24.4928 14.7699C24.3813 14.8026 24.2671 14.835 24.1479 14.8677C24.1258 14.874 24.1033 14.8797 24.081 14.8852C24.048 14.8948 24.0136 14.9037 23.9794 14.913C23.9551 14.9188 23.9295 14.9257 23.9051 14.9315C23.8717 14.9399 23.8376 14.9485 23.8036 14.9578C23.7727 14.965 23.7418 14.9726 23.7109 14.9797C23.6575 14.9935 23.6036 15.0065 23.5488 15.0194C23.517 15.0265 23.4868 15.0345 23.4541 15.0413C23.4403 15.0438 23.4269 15.0475 23.4125 15.0515H23.412C23.0939 15.1229 22.7569 15.1908 22.3997 15.2518C22.3918 15.2532 22.3833 15.2541 22.3739 15.2564C22.3103 15.2671 22.2448 15.2778 22.1793 15.288C22.163 15.2908 22.1472 15.2931 22.131 15.295C22.0613 15.3062 21.9916 15.3175 21.9212 15.3275C21.9158 15.328 21.9113 15.3293 21.9061 15.3298H21.9059C21.5217 15.3856 21.1177 15.4334 20.6931 15.4711H20.6874C20.6228 15.4771 20.5575 15.4817 20.492 15.4868C20.485 15.4878 20.4785 15.4878 20.4713 15.4882C20.4056 15.4943 20.339 15.4989 20.2728 15.5036C20.2667 15.5041 20.2599 15.5045 20.2541 15.505C20.1861 15.5092 20.1183 15.5133 20.0497 15.5171C20.0441 15.5175 20.0395 15.5182 20.0338 15.5187C19.9637 15.5226 19.8944 15.5259 19.8235 15.5296H19.8156C19.4584 15.547 19.089 15.5558 18.7079 15.5558V15.5565C18.6974 15.5565 18.6872 15.5558 18.6768 15.5558C18.5929 15.5558 18.5083 15.5546 18.4236 15.5542C18.4054 15.5538 18.3878 15.5538 18.3692 15.5538C18.0628 15.55 17.7483 15.5389 17.4271 15.5221H17.4203V15.5214C16.9328 15.4957 16.4285 15.4543 15.9087 15.3958L16.507 14.8329C16.507 14.8329 16.8558 14.9373 17.3369 15.0235C17.2452 14.4806 17.1651 14.0035 17.1525 13.9336H16.2134C16.1588 14.051 15.0878 16.4656 14.9609 16.7421H15.7145C15.7549 16.6476 16.0074 16.0438 16.0074 16.0438L16.7925 16.0427C16.7925 16.0427 16.8684 16.6311 16.8856 16.7421H17.628C17.6117 16.652 17.5397 16.2278 17.4568 15.7354C17.9859 15.7651 18.5167 15.7712 19.0103 15.7635C19.0356 15.8055 19.0488 15.8499 19.0488 15.8982C19.0488 15.9156 19.0475 15.9319 19.044 15.9498C19.0335 16.0137 18.9999 16.0654 18.9487 16.1015C18.8465 16.173 18.7002 16.1577 18.5989 16.1391C18.359 16.0975 18.169 15.9156 18.0154 15.7661C17.9184 15.9231 17.7174 16.2506 17.6512 16.3579C17.9346 16.6155 18.2405 16.7732 18.5643 16.8174C18.8909 16.8673 19.2152 16.7937 19.456 16.6166C19.6653 16.4617 19.7975 16.2357 19.8384 15.9635C19.8518 15.8848 19.8569 15.8097 19.8533 15.7394C20.3826 15.7168 20.8227 15.6836 21.1048 15.6588C21.1975 15.7273 21.2455 15.8069 21.2455 15.8982C21.2455 15.9156 21.2437 15.9319 21.2409 15.9498C21.2295 16.0137 21.1968 16.0654 21.1457 16.1015C21.0437 16.173 20.8966 16.1577 20.796 16.1391C20.5557 16.0975 20.3647 15.9156 20.2128 15.7661C20.1157 15.9231 19.9141 16.2506 19.8479 16.3579C20.1311 16.6155 20.4369 16.7732 20.7603 16.8174C21.0876 16.8673 21.4119 16.7937 21.6516 16.6166C21.8622 16.4617 21.9946 16.2357 22.0352 15.9635C22.0604 15.8116 22.055 15.674 22.0188 15.5519C22.1389 15.5342 22.2536 15.5171 22.3642 15.4989C22.2801 16.088 22.2009 16.6399 22.1861 16.7421H23.9997C24.0171 16.619 24.0636 16.2933 24.0856 16.1361H22.9876L23.0619 15.6165H24.0587C24.074 15.5092 24.1098 15.2638 24.1328 15.1036C24.2687 15.0602 24.3362 15.0345 24.3362 15.0345C24.3362 15.0345 24.674 14.9333 25.1102 14.7721C25.047 15.2118 24.855 16.5558 24.8282 16.7421H25.6134C25.637 16.5755 25.9162 14.6319 25.9162 14.6319H26.4841C26.5016 14.5114 26.5557 14.1259 26.5803 13.9508C26.2865 14.1144 25.729 14.3718 24.9343 14.6319Z" fill="white"/>
<path fill-rule="evenodd" clip-rule="evenodd" d="M19.5593 15.1801C19.4913 15.1273 19.4118 15.0796 19.321 15.0391C19.317 15.037 19.1173 14.9367 19.1173 14.9367L19.1138 14.9354L19.1108 14.9341C19.0448 14.8961 18.8908 14.8067 18.8908 14.6559C18.8915 14.5829 18.9198 14.5196 18.9719 14.4759C19.036 14.4231 19.1338 14.4022 19.239 14.4224C19.3719 14.4432 19.5245 14.5289 19.692 14.6723C19.7714 14.5196 19.924 14.2268 19.9778 14.1231C19.7858 13.9642 19.6002 13.8789 19.3221 13.8298C18.9791 13.78 18.6479 13.8527 18.4161 14.029C18.2195 14.1793 18.0983 14.3982 18.066 14.6642C18.0604 14.7088 18.0581 14.7531 18.0581 14.7948C18.0581 14.9189 18.0802 15.0282 18.1243 15.1237C18.1404 15.125 18.1568 15.1264 18.1726 15.1273C18.5238 15.1545 19.0058 15.1758 19.5593 15.1801Z" fill="white"/>
<path fill-rule="evenodd" clip-rule="evenodd" d="M23.2161 14.5391H24.2862C24.3034 14.416 24.3508 14.0907 24.3731 13.9336H22.5889C22.5782 14.006 22.5099 14.4837 22.4321 15.0272C22.6786 14.9963 22.9227 14.9605 23.162 14.918L23.2161 14.5391Z" fill="white"/>
<path fill-rule="evenodd" clip-rule="evenodd" d="M12.2285 17.585L11.837 19.8041H11.4504L11.842 17.585H12.2285ZM10.4857 17.938L10.256 19.2367H10.7993L11.0274 17.938H10.4857ZM11.4664 17.6316L11.1283 19.5487H10.1373C10.0302 19.5487 9.9543 19.5263 9.91062 19.4818C9.866 19.4385 9.85096 19.3746 9.866 19.2904L10.158 17.6316H11.4664Z" fill="white"/>
<path fill-rule="evenodd" clip-rule="evenodd" d="M13.6826 17.633L13.5019 18.6622H12.9972L12.8904 19.2641H13.5739L13.871 17.585H14.2571L14.1017 18.4672H14.3886L14.5432 17.585H14.9295L14.5388 19.8041H14.1548L14.3393 18.7533H14.0524L13.8678 19.8058H13.4794L13.5253 19.547H12.7913C12.6822 19.547 12.6037 19.5263 12.5549 19.485C12.5056 19.4404 12.4875 19.3763 12.5029 19.2931L12.6571 18.4193H13.1579L13.2455 17.912H12.7468L12.7958 17.633H13.6826Z" fill="white"/>
<path fill-rule="evenodd" clip-rule="evenodd" d="M17.5938 17.585L17.2032 19.8036H16.828L17.2183 17.585H17.5938ZM15.6871 18.0408C15.6258 18.1808 15.5749 18.3655 15.5349 18.5936C15.4922 18.8349 15.4767 19.0268 15.4878 19.1706C15.499 19.3238 15.5405 19.4007 15.614 19.4007C15.6829 19.4007 15.7507 19.3238 15.8178 19.1706C15.8799 19.0268 15.9319 18.8349 15.9742 18.5936C16.0148 18.3655 16.0292 18.1808 16.0169 18.0408C16.0048 17.8888 15.963 17.8129 15.8938 17.8129C15.8207 17.8129 15.7524 17.8888 15.6871 18.0408ZM16.186 18.7503L16.2415 18.4635H16.4959L16.6533 17.584H17.0262L16.6346 19.8023H16.2601L16.4452 18.7503H16.186ZM16.3284 18.6293C16.2715 18.9241 16.1791 19.1636 16.051 19.3466C15.914 19.5429 15.7547 19.6411 15.573 19.6411C15.3863 19.6411 15.2597 19.5384 15.1923 19.3336C15.1308 19.1441 15.1259 18.8971 15.18 18.5931C15.2313 18.3004 15.3214 18.0598 15.4492 17.8735C15.5897 17.6728 15.7524 17.5713 15.937 17.5713C16.0971 17.5713 16.2137 17.6482 16.2871 17.8024C16.3554 17.9455 16.38 18.1374 16.3596 18.3785C16.3596 18.3785 16.3572 18.4491 16.3284 18.6293Z" fill="white"/>
<path fill-rule="evenodd" clip-rule="evenodd" d="M19.4543 19.381C19.5963 19.4888 19.7755 19.5589 19.9914 19.5912L19.7922 19.8115C19.605 19.7791 19.4383 19.7229 19.2915 19.6427C19.1424 19.5589 19.0392 19.4643 18.9826 19.3582C18.8924 19.4643 18.7529 19.5601 18.565 19.6449C18.3768 19.7312 18.1754 19.7893 17.9617 19.822L17.8544 19.6042C18.0778 19.5751 18.2864 19.5043 18.4797 19.3917C18.7038 19.2583 18.8318 19.1045 18.8623 18.9304H19.2478C19.2169 19.1045 19.2864 19.2551 19.4543 19.381ZM20.2581 17.585L20.036 18.8509H19.6543L19.8774 17.585H20.2581ZM19.6898 17.5859L19.4664 18.8509H19.0857L19.1951 18.2307H18.9196L18.9635 17.9808H19.2397L19.3085 17.5859H19.6898ZM18.7712 17.6031C18.7215 17.8865 18.7159 18.1109 18.7549 18.2744C18.7907 18.4333 18.8725 18.5559 19.0018 18.6437L18.7726 18.8049C18.689 18.7487 18.6148 18.6744 18.5519 18.5817C18.5159 18.5308 18.4785 18.463 18.4367 18.3798C18.3794 18.45 18.3178 18.5155 18.2509 18.5791C18.1553 18.6716 18.0539 18.7487 17.9494 18.81L17.7808 18.6465C17.9387 18.549 18.0606 18.4309 18.1476 18.2925C18.2555 18.1253 18.3341 17.8953 18.3864 17.6031H18.7712Z" fill="white"/>
<path fill-rule="evenodd" clip-rule="evenodd" d="M22.4329 19.0729C22.584 19.1593 22.6479 19.2667 22.6258 19.3949C22.6026 19.5213 22.5014 19.6285 22.319 19.7152C22.1162 19.8139 21.8556 19.8636 21.5386 19.8636C21.2196 19.8636 20.9755 19.8139 20.8057 19.7152C20.6527 19.6285 20.5873 19.5213 20.6094 19.3949C20.6319 19.2685 20.7349 19.1615 20.9181 19.0729C21.1228 18.9736 21.3852 18.9238 21.7039 18.9238C22.0217 18.9238 22.2644 18.9736 22.4329 19.0729ZM21.1845 19.2411C21.0726 19.2822 21.0104 19.3338 20.9989 19.3949C20.9892 19.4527 21.0331 19.5034 21.1311 19.5461C21.2391 19.5921 21.3903 19.6156 21.5825 19.6156C21.7727 19.6156 21.9306 19.5921 22.0549 19.5461C22.1673 19.505 22.2305 19.4546 22.2403 19.3949C22.2513 19.3338 22.208 19.2822 22.1083 19.2411C22.0022 19.1954 21.8531 19.1719 21.6611 19.1719C21.4686 19.1719 21.3097 19.1954 21.1845 19.2411ZM21.9567 17.585H22.3403L22.2475 18.1083H22.4491L22.5404 17.585H22.922L22.7001 18.8427H22.319L22.4031 18.3668H22.2022L22.1183 18.8427H21.735L21.7413 18.8082L21.9567 17.585ZM21.4357 17.603L21.3889 17.872C21.3607 18.0291 21.3729 18.1754 21.4261 18.3101C21.4791 18.4416 21.5683 18.5494 21.6935 18.633L21.4686 18.7923C21.3799 18.732 21.3016 18.6614 21.2317 18.5791C21.1732 18.5099 21.1302 18.4444 21.102 18.3845C21.0503 18.4513 20.9901 18.5155 20.9195 18.5791C20.8254 18.6614 20.7244 18.7329 20.6166 18.7942L20.4473 18.633C20.5962 18.5443 20.7158 18.4416 20.8057 18.3259C20.9063 18.1961 20.9721 18.0453 21.0024 17.8753L21.0498 17.603H21.4357Z" fill="white"/>
<path fill-rule="evenodd" clip-rule="evenodd" d="M25.0715 19.0664C25.2225 19.1552 25.2861 19.2642 25.2629 19.3944C25.2387 19.5203 25.1367 19.6281 24.9546 19.7141C24.7514 19.814 24.4896 19.8631 24.1691 19.8631C23.8495 19.8631 23.6051 19.814 23.4376 19.7141C23.2883 19.6281 23.2249 19.5203 23.2462 19.3944C23.2697 19.2642 23.3712 19.1552 23.5515 19.0664C23.7567 18.9671 24.0169 18.9183 24.3345 18.9183C24.6578 18.9183 24.9031 18.9671 25.0715 19.0664ZM23.816 19.2351C23.7078 19.2778 23.6488 19.3303 23.6373 19.3917C23.6269 19.452 23.6685 19.5015 23.7614 19.5431C23.8659 19.5905 24.016 19.6144 24.2125 19.6144C24.4117 19.6144 24.5728 19.5905 24.6961 19.5431C24.8053 19.5015 24.865 19.452 24.8761 19.3917C24.8866 19.3303 24.8443 19.2778 24.7505 19.2351C24.6436 19.1896 24.4908 19.1663 24.2915 19.1663C24.0952 19.1663 23.9365 19.1896 23.816 19.2351ZM25.0288 18.3394L25.0824 18.0332H24.7149L24.6611 18.3394H25.0288ZM23.8202 17.8795L23.7126 18.4858H24.2516L24.3588 17.8795H23.8202ZM24.7865 17.6328L24.7593 17.7882H25.1261L25.1614 17.585H25.5477L25.3256 18.8432H24.94L24.986 18.5822H24.6183L24.5904 18.7432H23.6041C23.4971 18.7432 23.4206 18.7211 23.3742 18.6772C23.3303 18.633 23.3154 18.5696 23.3296 18.4876L23.4805 17.6328H24.7865Z" fill="white"/>
</svg>
