<svg width="48" height="48" viewBox="0 0 48 48" fill="none" xmlns="http://www.w3.org/2000/svg">
<rect width="48" height="48" rx="12" fill="#60584C"/>
<circle cx="24" cy="24" r="24" fill="#60584C"/>
<path fill-rule="evenodd" clip-rule="evenodd" d="M41.4186 24.3895C41.4186 24.3889 41.1071 24.1908 41.1071 24.1908C40.0453 23.1313 38.567 22.6723 36.5902 22.7878C34.9443 22.8882 33.6391 23.5411 32.6424 24.1473C32.6424 24.132 32.6412 24.1169 32.6412 24.1024C32.6412 23.5867 32.6991 23.0281 32.7573 22.4847C32.8143 21.9331 32.8737 21.3718 32.8737 20.8407C32.8737 20.2987 32.8128 19.7845 32.6258 19.3448C32.5791 19.232 32.475 19.1651 32.3436 19.1651C31.8122 19.1768 30.7736 19.5408 30.5218 19.7616C30.5218 19.7631 30.3849 20.0614 30.3849 20.0614C30.3765 20.6504 30.2465 22.2944 30.115 22.4943C30.1204 22.4868 30.0456 22.6925 30.0456 22.6925C29.8216 25.0404 29.8171 27.105 30.0236 28.8775C30.0471 29.0548 30.3891 29.3205 30.6521 29.4177C30.9413 29.5241 31.8451 29.2819 32.3671 29.0859C32.3602 29.088 32.5622 29.0548 32.5622 29.0548C32.7272 29.037 32.824 28.8983 32.817 28.7101C32.8143 28.7062 32.8294 28.2001 32.8294 28.2001C33.206 26.6702 34.7283 24.8443 36.5308 24.5702C37.5498 24.4088 38.3538 24.6706 38.9892 25.3628C39.0751 25.4873 39.2606 26.5887 38.5893 27.8533C38.0896 28.7897 37.0899 29.5796 35.7751 30.0724C34.5305 30.5459 33.1617 30.7362 31.4702 30.6789C31.3994 30.6331 29.8867 29.608 29.8867 29.608C28.5453 28.6667 26.8786 27.4938 25.3684 26.9217C25.1027 26.8191 24.6277 26.4247 24.3412 26.1879L24.185 26.06C23.3141 25.3615 21.6558 24.2553 20.3244 23.3692C20.3244 23.3692 19.7236 22.9657 19.6072 22.8882C19.6085 22.8384 19.6085 22.7374 19.6085 22.7374C19.6474 22.6952 20.4848 22.1933 20.4848 22.1933C21.6558 21.5081 22.1971 21.1724 22.312 20.9984C22.2882 21.0265 22.467 20.9067 22.467 20.9067C22.4778 20.9016 25.3711 19.2634 25.3711 19.2634C28.1587 17.7322 31.3164 15.9935 32.9747 14.2763C32.9775 14.2741 33.0565 14.0133 33.0565 14.0133L33.0924 13.7798C33.2033 13.4125 33.2085 13.1311 33.1159 12.8045C33.0924 12.7113 33.0064 12.603 32.8918 12.5831C31.596 12.4537 29.9268 13.2303 28.4054 14.6569C28.0622 14.9781 27.7742 15.1364 27.4697 15.3014L27.2372 15.4314C25.5608 16.3847 21.7845 18.729 19.8066 19.9935C19.9366 17.8673 20.3295 14.8432 20.8141 12.3222L20.7601 12.021C20.7547 12.0107 20.5554 11.6397 20.5554 11.6397L20.4019 11.3668L20.3572 11.3553C19.9631 11.156 19.6401 11.2368 19.4037 11.2956L19.0089 11.4416L18.4815 11.6328C18.3781 11.6536 18.3048 11.7179 18.2644 11.8183C17.3205 14.1004 16.5328 17.8549 16.3458 20.8576C14.4592 19.6572 12.715 18.7941 11.8594 18.3773L11.8359 18.364L11.7349 18.342C11.4264 18.3025 11.0512 18.0763 10.6912 17.8574C10.6526 17.8347 9.97283 17.3923 9.97283 17.3923L8.87663 16.6899C8.88478 16.6968 8.58713 16.6241 8.58713 16.6241C8.11639 16.705 7.2126 17.3127 6.9442 17.7274C6.90922 17.782 6.89444 17.8411 6.89444 17.9032C6.89444 17.9904 6.92189 18.0784 6.9442 18.1635L6.99275 18.3863L7.04372 18.5206C7.56995 19.0592 8.89593 19.9567 10.1957 20.6561L11.7032 21.4547L14.0105 22.7151C14.0105 22.7256 14.4037 23.0281 14.4037 23.0281L14.6748 23.1838C14.6748 23.1838 14.7071 23.2025 14.7249 23.2142C14.1103 23.6262 10.5277 26.0175 10.5277 26.0175L8.32145 27.4802C8.11247 27.622 7.24185 28.0125 7.04915 28.0894C6.57177 28.2846 6.20898 28.5835 6.05941 28.908L6 29.0355L6.05941 29.12L6.22859 29.2479C6.22014 29.2479 6.45416 29.3953 6.45416 29.3953L6.69752 29.5621C6.70325 29.5642 6.92762 29.5989 6.92762 29.5989C7.31513 29.6143 7.88931 29.3926 8.96379 28.9218C9.95051 28.4851 12.6305 26.8677 13.7768 26.1777L14.2653 25.8848C14.4674 25.9014 14.6887 25.7304 14.888 25.5808C15.1181 25.3974 15.6175 25.0901 15.9221 24.9556C15.9318 24.9529 16.1052 24.8561 16.2695 24.7647C16.2683 24.8154 16.2671 24.8956 16.2671 24.8956C16.3184 28.4016 16.5189 30.9494 16.9022 32.9137L16.9079 32.9475L16.9453 33.0265C17.1335 33.3034 17.3482 34.1342 17.5388 34.8665L17.9752 36.3295C17.9848 36.347 18.0982 36.4667 18.0982 36.4667C18.3473 36.6362 19.1076 36.9276 19.6139 36.8676L19.7399 36.8522L19.8202 36.6742C19.863 36.4556 19.8784 36.2403 19.8784 36.0038C19.8784 35.7366 19.8591 35.4422 19.8355 35.0809L19.8008 34.5535C19.6401 32.1066 19.4797 28.5738 19.4797 26.2244V26.0377C19.8964 26.298 21.714 27.444 21.714 27.444C24.8093 29.4523 29.4838 32.4854 32.3089 33.2868C32.4554 33.3317 32.6108 33.2973 32.7184 33.1933C32.7226 33.1878 33.1533 32.9146 33.1533 32.9146L33.235 32.8811C33.3966 32.8036 33.5049 32.531 33.5242 32.2348C35.9054 32.1151 39.2259 31.1979 41.0033 28.9635C41.6912 28.097 42 27.0366 42 26.1291C42 25.3842 41.7937 24.7427 41.4186 24.3895Z" fill="#FFBC00"/>
</svg>
