<svg width="48" height="48" viewBox="0 0 48 48" fill="none" xmlns="http://www.w3.org/2000/svg">
<rect width="48" height="48" rx="12" fill="#043B73"/>
<circle cx="24" cy="24" r="24" fill="#043B73"/>
<mask id="mask0_7095_33222" style="mask-type:alpha" maskUnits="userSpaceOnUse" x="40" y="15" width="5" height="6">
<path fill-rule="evenodd" clip-rule="evenodd" d="M40.2578 15.5166H44.8549V20.6625H40.2578V15.5166Z" fill="white"/>
</mask>
<g mask="url(#mask0_7095_33222)">
<path fill-rule="evenodd" clip-rule="evenodd" d="M44.8549 15.5166C44.1786 18.3195 41.748 19.8466 40.3198 20.6626L40.2578 20.5802C40.8453 20.1041 42.8546 18.6203 43.4978 16.1627L44.8549 15.5166Z" fill="#F16322"/>
</g>
<path fill-rule="evenodd" clip-rule="evenodd" d="M9.56524 20.9004C9.52826 21.156 9.00947 24.7758 8.96143 25.1132H10.1216C10.1582 24.8567 10.677 21.2385 10.7254 20.9004H9.56524Z" fill="white"/>
<path fill-rule="evenodd" clip-rule="evenodd" d="M19.0611 20.9004C19.0234 21.156 18.5053 24.7758 18.4565 25.1132H21.1766C21.2035 24.9285 21.2717 24.44 21.3063 24.2041H19.659L19.7697 23.4247H21.2652C21.2924 23.2442 21.3551 22.8073 21.3879 22.5772H19.8917L20.0018 21.8087H21.6063C21.6332 21.6241 21.7034 21.1361 21.7372 20.9004H19.0611Z" fill="white"/>
<mask id="mask1_7095_33222" style="mask-type:alpha" maskUnits="userSpaceOnUse" x="3" y="20" width="6" height="6">
<path fill-rule="evenodd" clip-rule="evenodd" d="M3.42871 20.9004H8.64527V25.1132H3.42871V20.9004Z" fill="white"/>
</mask>
<g mask="url(#mask1_7095_33222)">
<path fill-rule="evenodd" clip-rule="evenodd" d="M6.138 23.3136C6.138 23.3136 7.1091 21.0941 7.18533 20.9004H8.64528C8.64598 21.1951 8.44978 24.8142 8.45364 25.1132H7.40209L7.57625 22.1638C7.57625 22.1638 6.39305 24.9251 6.31435 25.1132H5.48509L5.11156 22.1638C5.08407 22.2971 4.68999 24.2672 4.47534 25.1132H3.42871C3.53841 24.7372 4.33877 21.1173 4.40113 20.9004H5.80803L6.138 23.3136Z" fill="white"/>
</g>
<path fill-rule="evenodd" clip-rule="evenodd" d="M16.0278 23.3913L16.6926 21.828L16.9097 23.3913H16.0278ZM17.0194 24.2595C17.0194 24.2595 17.0944 24.9466 17.1219 25.1131H18.2347C18.1724 24.7657 17.5654 21.1468 17.5215 20.9004H16.1125C16.0313 21.0765 14.4244 24.6985 14.2334 25.1131H15.363C15.4229 24.9713 15.71 24.2602 15.71 24.2602L17.0194 24.2595Z" fill="white"/>
<path fill-rule="evenodd" clip-rule="evenodd" d="M12.3429 21.6905H12.6014C12.7788 21.6905 12.976 21.7103 13.0993 21.8527C13.1861 21.9523 13.2172 22.094 13.1914 22.2729C13.1914 22.2729 13.1554 22.5959 12.9432 22.6979C12.9432 22.6979 12.798 22.7931 12.5565 22.7993H12.0318L13.0213 25.1132H14.1478L13.2962 23.3384C13.8118 23.2421 14.2146 23.0899 14.3171 22.2896C14.3297 22.1891 14.3397 22.0933 14.3397 22.0032C14.3397 21.7077 14.2613 21.468 14.1069 21.2902C13.8276 20.9678 13.3471 20.9004 12.9938 20.9004H11.4028C11.3653 21.1561 10.8472 24.7759 10.7974 25.1132H11.8544C11.89 24.8769 12.3429 21.6905 12.3429 21.6905Z" fill="white"/>
<path fill-rule="evenodd" clip-rule="evenodd" d="M33.5993 22.8774C33.5875 22.8795 33.5746 22.8809 33.5608 22.8843C33.5746 22.8809 33.5875 22.8795 33.5993 22.8774Z" fill="#1F3263"/>
<path fill-rule="evenodd" clip-rule="evenodd" d="M35.1187 22.5769C35.1403 22.571 35.1606 22.5654 35.1811 22.5618C35.1602 22.5654 35.1383 22.571 35.1176 22.5769H35.1187Z" fill="#1F3263"/>
<path fill-rule="evenodd" clip-rule="evenodd" d="M33.2687 22.9322C33.2442 22.9365 33.2204 22.9399 33.1961 22.9427C33.2204 22.9399 33.2442 22.9365 33.2687 22.9322Z" fill="#1F3263"/>
<path fill-rule="evenodd" clip-rule="evenodd" d="M35.5664 22.4692C35.4863 22.4899 35.4055 22.5094 35.3232 22.5288C35.4055 22.5094 35.4863 22.4899 35.5664 22.4692Z" fill="#1F3263"/>
<path fill-rule="evenodd" clip-rule="evenodd" d="M32.8589 22.9949C32.8667 22.9942 32.8735 22.9921 32.8816 22.9914C32.8735 22.9921 32.8667 22.9942 32.8586 22.9949H32.8589Z" fill="#1F3263"/>
<path fill-rule="evenodd" clip-rule="evenodd" d="M36.1215 22.3278C36.0721 22.3421 36.0205 22.3555 35.9692 22.3694C36.0205 22.3555 36.0721 22.3421 36.1215 22.3278Z" fill="#1F3263"/>
<path fill-rule="evenodd" clip-rule="evenodd" d="M37.4034 21.9473H37.4015C37.2856 21.9857 37.1671 22.0234 37.0444 22.0619C37.1671 22.0234 37.287 21.9857 37.4034 21.9473Z" fill="#1F3263"/>
<path fill-rule="evenodd" clip-rule="evenodd" d="M36.9693 22.0846C36.92 22.1008 36.8703 22.1156 36.8193 22.1302C36.8703 22.1156 36.92 22.1008 36.9693 22.0846Z" fill="#1F3263"/>
<path fill-rule="evenodd" clip-rule="evenodd" d="M36.7391 22.1543C36.5719 22.2033 36.4005 22.252 36.2217 22.301C36.4005 22.252 36.5719 22.2033 36.7391 22.1543Z" fill="#1F3263"/>
<path fill-rule="evenodd" clip-rule="evenodd" d="M35.8578 22.3972C35.8077 22.4099 35.7564 22.4228 35.7056 22.4367C35.7564 22.4228 35.8077 22.4099 35.8578 22.3972Z" fill="#1F3263"/>
<path fill-rule="evenodd" clip-rule="evenodd" d="M26.1302 23.2827H26.1403C26.1364 23.2827 26.1347 23.2827 26.1302 23.2817V23.2827Z" fill="#1F3263"/>
<path fill-rule="evenodd" clip-rule="evenodd" d="M28.0619 23.3345V23.3334H28.0152C28.0308 23.3334 28.0461 23.3345 28.0619 23.3345Z" fill="#1F3263"/>
<path fill-rule="evenodd" clip-rule="evenodd" d="M30.7376 23.2304C30.7272 23.2318 30.7175 23.2318 30.7066 23.2325C30.7175 23.2318 30.7272 23.2318 30.7376 23.2304Z" fill="#1F3263"/>
<path fill-rule="evenodd" clip-rule="evenodd" d="M30.0745 23.2751C30.066 23.2758 30.0591 23.2769 30.0505 23.2776C30.0591 23.2769 30.066 23.2758 30.0745 23.2751Z" fill="#1F3263"/>
<path fill-rule="evenodd" clip-rule="evenodd" d="M30.409 23.2548C30.3998 23.2555 30.3897 23.2562 30.381 23.2569C30.3897 23.2562 30.3998 23.2555 30.409 23.2548Z" fill="#1F3263"/>
<path fill-rule="evenodd" clip-rule="evenodd" d="M32.277 22.5576C32.2696 22.5544 31.9701 22.4041 31.9701 22.4041L31.9662 22.4021L31.9621 22.4001C31.8631 22.3432 31.6313 22.209 31.6313 21.9829C31.6324 21.8733 31.6746 21.7784 31.7537 21.7129C31.8481 21.6336 31.9959 21.6023 32.1541 21.6325C32.353 21.6638 32.5815 21.7924 32.8331 22.0074C32.9528 21.7784 33.1805 21.3392 33.2633 21.1836C32.9752 20.9453 32.6954 20.8175 32.2794 20.7437C31.7641 20.6691 31.2676 20.778 30.9189 21.0425C30.6254 21.2679 30.4429 21.5963 30.3942 21.9952C30.3862 22.0622 30.3823 22.1287 30.3823 22.1913C30.3823 22.4109 30.4286 22.6003 30.5214 22.7597C31.1481 22.7458 31.8084 22.7138 32.4738 22.6597C32.4132 22.6243 32.3477 22.5895 32.277 22.5576Z" fill="white"/>
<path fill-rule="evenodd" clip-rule="evenodd" d="M36.9717 20.9004C36.9462 21.0759 36.8646 21.6308 36.8257 21.902C37.6441 21.6728 38.6329 21.3443 39.5499 20.9004H36.9717Z" fill="white"/>
<path fill-rule="evenodd" clip-rule="evenodd" d="M37.4015 21.9479H37.4033C37.2869 21.9864 37.167 22.024 37.0444 22.0625C37.0193 22.0702 36.9946 22.0779 36.9696 22.085C36.9203 22.1012 36.8706 22.116 36.8196 22.1307C36.7936 22.139 36.7664 22.1463 36.7392 22.1548C36.572 22.2038 36.4006 22.2526 36.2218 22.3016C36.1887 22.311 36.155 22.3195 36.1215 22.3278C36.072 22.3422 36.0204 22.3556 35.9691 22.3695C35.9326 22.3782 35.8943 22.3885 35.8577 22.3972C35.8076 22.4099 35.7563 22.4228 35.7054 22.4367C35.6591 22.4476 35.6127 22.4589 35.5664 22.4695C35.4863 22.4902 35.4055 22.5097 35.3233 22.5291C35.2755 22.5397 35.2302 22.5517 35.1811 22.562C35.1605 22.5657 35.1403 22.5712 35.1187 22.5772H35.118C34.6409 22.6843 34.1354 22.7862 33.5996 22.8776C33.5877 22.8797 33.5749 22.8812 33.5609 22.8847C33.4654 22.9007 33.3672 22.9167 33.269 22.932C33.2446 22.9362 33.2208 22.9396 33.1964 22.9425C33.092 22.9592 32.9874 22.9763 32.8818 22.9912C32.8738 22.992 32.8669 22.994 32.8592 22.9947H32.8588C32.2826 23.0784 31.6766 23.1501 31.0397 23.2066H31.0311C30.9342 23.2157 30.8363 23.2226 30.738 23.2303C30.7275 23.2317 30.7178 23.2317 30.707 23.2324C30.6083 23.2414 30.5085 23.2484 30.4092 23.2554C30.4 23.2561 30.3899 23.2567 30.3811 23.2575C30.2791 23.2637 30.1774 23.27 30.0746 23.2756C30.0662 23.2763 30.0593 23.2773 30.0506 23.278C29.9456 23.2839 29.8415 23.2888 29.7353 23.2944H29.7234C29.1876 23.3205 28.6336 23.3337 28.0618 23.3337V23.3348C28.0461 23.3348 28.0308 23.3337 28.0152 23.3337C27.8893 23.3337 27.7625 23.332 27.6354 23.3313C27.6081 23.3307 27.5817 23.3307 27.5537 23.3307C27.0942 23.325 26.6225 23.3083 26.1406 23.2832H26.1305V23.2822C25.3992 23.2435 24.6428 23.1814 23.8631 23.0937L24.7605 22.2493C24.7605 22.2493 25.2838 22.4059 26.0054 22.5353C25.8678 21.721 25.7477 21.0053 25.7288 20.9004H24.3201C24.2383 21.0765 22.6316 24.6985 22.4414 25.1132H23.5717C23.6323 24.9713 24.011 24.0658 24.011 24.0658L25.1887 24.064C25.1887 24.064 25.3026 24.9466 25.3284 25.1132H26.442C26.4176 24.9779 26.3096 24.3417 26.1852 23.6031C26.9789 23.6477 27.7751 23.6568 28.5154 23.6452C28.5535 23.7083 28.5732 23.7749 28.5732 23.8473C28.5732 23.8734 28.5712 23.8978 28.5659 23.9246C28.5503 24.0205 28.4998 24.0982 28.423 24.1522C28.2698 24.2595 28.0503 24.2365 27.8984 24.2087C27.5384 24.1463 27.2534 23.8734 27.0232 23.6491C26.8775 23.8846 26.5761 24.3759 26.4768 24.5369C26.9019 24.9232 27.3608 25.1598 27.8465 25.226C28.3364 25.301 28.8227 25.1905 29.1841 24.925C29.498 24.6926 29.6963 24.3536 29.7576 23.9453C29.7777 23.8271 29.7854 23.7145 29.7799 23.6091C30.5739 23.5752 31.2341 23.5254 31.6572 23.4881C31.7962 23.5909 31.8682 23.7104 31.8682 23.8473C31.8682 23.8734 31.8655 23.8978 31.8614 23.9246C31.8442 24.0205 31.7952 24.0982 31.7185 24.1522C31.5655 24.2595 31.345 24.2365 31.1941 24.2087C30.8335 24.1463 30.547 23.8734 30.3192 23.6491C30.1736 23.8846 29.8712 24.3759 29.7719 24.5369C30.1966 24.9232 30.6554 25.1598 31.1404 25.226C31.6314 25.301 32.1178 25.1905 32.4774 24.925C32.7933 24.6926 32.992 24.3536 33.0528 23.9453C33.0906 23.7174 33.0825 23.511 33.0282 23.3278C33.2083 23.3013 33.3804 23.2756 33.5462 23.2484C33.4201 24.132 33.3013 24.9598 33.2791 25.1132H35.9995C36.0256 24.9285 36.0953 24.44 36.1284 24.2041H34.4814L34.5929 23.4247H36.088C36.1111 23.2637 36.1647 22.8957 36.1992 22.6554C36.403 22.5904 36.5043 22.5517 36.5043 22.5517C36.5043 22.5517 37.011 22.3999 37.6653 22.1582C37.5706 22.8177 37.2825 24.8337 37.2424 25.1132H38.42C38.4555 24.8633 38.8744 21.9479 38.8744 21.9479H39.7262C39.7524 21.7671 39.8335 21.1889 39.8704 20.9262C39.4298 21.1716 38.5935 21.5577 37.4015 21.9479Z" fill="white"/>
<path fill-rule="evenodd" clip-rule="evenodd" d="M29.3392 22.7691C29.2371 22.6899 29.1179 22.6184 28.9817 22.5576C28.9758 22.5545 28.6762 22.4041 28.6762 22.4041L28.6709 22.4021L28.6664 22.4002C28.5675 22.3432 28.3365 22.209 28.3365 21.9829C28.3375 21.8734 28.38 21.7784 28.458 21.7129C28.5542 21.6336 28.7009 21.6023 28.8587 21.6326C29.0581 21.6638 29.2869 21.7923 29.5382 22.0075C29.6573 21.7784 29.8863 21.3392 29.967 21.1837C29.6789 20.9453 29.4005 20.8174 28.9834 20.7437C28.4688 20.669 27.9721 20.7781 27.6244 21.0425C27.3295 21.268 27.1477 21.5963 27.0993 21.9953C27.0908 22.0622 27.0874 22.1287 27.0874 22.1912C27.0874 22.3773 27.1205 22.5413 27.1866 22.6846C27.2108 22.6866 27.2355 22.6886 27.2591 22.6899C27.7859 22.7307 28.509 22.7627 29.3392 22.7691Z" fill="white"/>
<path fill-rule="evenodd" clip-rule="evenodd" d="M34.8244 21.8087H36.4295C36.4554 21.624 36.5264 21.1361 36.5599 20.9004H33.8836C33.8676 21.0089 33.7652 21.7256 33.6484 22.5407C34.0182 22.4945 34.3843 22.4407 34.7432 22.377L34.8244 21.8087Z" fill="white"/>
<path fill-rule="evenodd" clip-rule="evenodd" d="M18.3433 26.376L17.7559 29.7047H17.1761L17.7635 26.376H18.3433ZM15.7291 26.9056L15.3845 28.8536H16.1995L16.5416 26.9056H15.7291ZM17.2002 26.446L16.6929 29.3215H15.2065C15.0458 29.3215 14.9319 29.2881 14.8664 29.2212C14.7995 29.1563 14.7769 29.0605 14.7995 28.9341L15.2375 26.446H17.2002Z" fill="white"/>
<path fill-rule="evenodd" clip-rule="evenodd" d="M20.5242 26.4481L20.2531 27.9919H19.496L19.3358 28.8947H20.3612L20.8068 26.376H21.3858L21.1527 27.6993H21.5831L21.815 26.376H22.3945L21.8085 29.7047H21.2325L21.5092 28.1285H21.0789L20.8019 29.7072H20.2193L20.2883 29.319H19.1873C19.0236 29.319 18.9058 29.2881 18.8326 29.2261C18.7587 29.1591 18.7315 29.063 18.7545 28.9382L18.9859 27.6275H19.7371L19.8684 26.8665H19.1204L19.1939 26.4481H20.5242Z" fill="white"/>
<path fill-rule="evenodd" clip-rule="evenodd" d="M26.3907 26.378L25.8048 29.7058H25.242L25.8274 26.378H26.3907ZM23.5307 27.0616C23.4387 27.2717 23.3624 27.5487 23.3024 27.8909C23.2383 28.2529 23.215 28.5406 23.2317 28.7563C23.2485 28.9863 23.3108 29.1016 23.421 29.1016C23.5243 29.1016 23.626 28.9863 23.7268 28.7563C23.8199 28.5406 23.8979 28.2529 23.9613 27.8909C24.0222 27.5487 24.0438 27.2717 24.0254 27.0616C24.0072 26.8337 23.9445 26.7198 23.8408 26.7198C23.731 26.7198 23.6286 26.8337 23.5307 27.0616ZM24.279 28.126L24.3623 27.6957H24.7438L24.98 26.3766H25.5393L24.9519 29.704H24.3902L24.6678 28.126H24.279ZM24.4926 27.9445C24.4073 28.3866 24.2686 28.7459 24.0765 29.0204C23.8711 29.3148 23.632 29.4622 23.3596 29.4622C23.0795 29.4622 22.8896 29.3081 22.7884 29.0008C22.6962 28.7166 22.6889 28.3462 22.77 27.8901C22.847 27.4511 22.9822 27.0902 23.1738 26.8107C23.3846 26.5097 23.6286 26.3574 23.9055 26.3574C24.1456 26.3574 24.3205 26.4727 24.4306 26.7041C24.533 26.9187 24.57 27.2065 24.5393 27.5682C24.5393 27.5682 24.5358 27.6741 24.4926 27.9445Z" fill="white"/>
<path fill-rule="evenodd" clip-rule="evenodd" d="M29.1817 29.07C29.3946 29.2317 29.6636 29.3369 29.9873 29.3853L29.6886 29.7159C29.4078 29.6672 29.1578 29.5829 28.9375 29.4627C28.7138 29.3369 28.559 29.195 28.4741 29.0358C28.3389 29.195 28.1296 29.3386 27.8477 29.4658C27.5655 29.5954 27.2633 29.6825 26.9429 29.7316L26.7818 29.4049C27.1169 29.3612 27.4299 29.2549 27.7198 29.0861C28.056 28.886 28.248 28.6553 28.2936 28.3941H28.872C28.8256 28.6553 28.9299 28.8812 29.1817 29.07ZM30.3873 26.376L30.0542 28.2749H29.4818L29.8163 26.376H30.3873ZM29.535 26.3774L29.1998 28.2749H28.6288L28.7928 27.3445H28.3796L28.4455 26.9697H28.8598L28.963 26.3774H29.535ZM28.157 26.4032C28.0825 26.8283 28.0742 27.1648 28.1327 27.4101C28.1863 27.6484 28.3089 27.8324 28.5029 27.9641L28.1591 28.2059C28.0337 28.1215 27.9225 28.0101 27.8282 27.8711C27.7741 27.7947 27.718 27.693 27.6553 27.5682C27.5693 27.6735 27.4769 27.7717 27.3765 27.8672C27.2331 28.0059 27.0811 28.1215 26.9243 28.2136L26.6714 27.9683C26.9083 27.822 27.0912 27.6449 27.2216 27.4373C27.3835 27.1864 27.5014 26.8415 27.5798 26.4032H28.157Z" fill="white"/>
<path fill-rule="evenodd" clip-rule="evenodd" d="M33.6498 28.6079C33.8765 28.7376 33.9724 28.8985 33.9392 29.0909C33.9044 29.2804 33.7525 29.4413 33.479 29.5714C33.1748 29.7194 32.7839 29.7939 32.3084 29.7939C31.8299 29.7939 31.4637 29.7194 31.209 29.5714C30.9795 29.4413 30.8815 29.2804 30.9146 29.0909C30.9484 28.9014 31.1028 28.7407 31.3777 28.6079C31.6846 28.4589 32.0783 28.3842 32.5564 28.3842C33.033 28.3842 33.3971 28.4589 33.6498 28.6079ZM31.7773 28.8602C31.6094 28.9218 31.516 28.9992 31.4989 29.0909C31.4843 29.1776 31.5502 29.2536 31.6972 29.3177C31.8592 29.3867 32.086 29.4219 32.3742 29.4219C32.6595 29.4219 32.8964 29.3867 33.0828 29.3177C33.2515 29.256 33.3462 29.1805 33.3609 29.0909C33.3775 28.9992 33.3124 28.9218 33.1629 28.8602C33.0038 28.7916 32.7801 28.7563 32.4922 28.7563C32.2033 28.7563 31.9651 28.7916 31.7773 28.8602ZM32.9355 26.376H33.511L33.3717 27.161H33.6741L33.811 26.376H34.3835L34.0507 28.2626H33.479L33.6052 27.5487H33.3038L33.178 28.2626H32.603L32.6124 28.2108L32.9355 26.376ZM32.154 26.4031L32.0839 26.8066C32.0415 27.0421 32.0598 27.2616 32.1397 27.4637C32.2192 27.661 32.3529 27.8226 32.5407 27.948L32.2034 28.1871C32.0704 28.0965 31.953 27.9906 31.848 27.8672C31.7603 27.7634 31.6958 27.6651 31.6536 27.5752C31.5759 27.6755 31.4856 27.7717 31.3798 27.8672C31.2387 27.9906 31.0871 28.0978 30.9254 28.1898L30.6714 27.948C30.8947 27.8149 31.0742 27.661 31.209 27.4874C31.3599 27.2926 31.4586 27.0666 31.5042 26.8115L31.5752 26.4031H32.154Z" fill="white"/>
<path fill-rule="evenodd" clip-rule="evenodd" d="M37.6073 28.5982C37.8337 28.7313 37.9291 28.8948 37.8944 29.0902C37.858 29.279 37.7051 29.4407 37.432 29.5696C37.1271 29.7195 36.7344 29.7932 36.2537 29.7932C35.7742 29.7932 35.4076 29.7195 35.1564 29.5696C34.9324 29.4407 34.8373 29.279 34.8693 29.0902C34.9046 28.8948 35.0568 28.7313 35.3272 28.5982C35.6351 28.4491 36.0253 28.376 36.5017 28.376C36.9867 28.376 37.3546 28.4491 37.6073 28.5982ZM35.724 28.8512C35.5617 28.9152 35.4732 28.994 35.456 29.0861C35.4404 29.1766 35.5028 29.2508 35.6421 29.3132C35.7989 29.3842 36.024 29.4202 36.3187 29.4202C36.6176 29.4202 36.8591 29.3842 37.0441 29.3132C37.2079 29.2508 37.2975 29.1766 37.3142 29.0861C37.3299 28.994 37.2664 28.9152 37.1258 28.8512C36.9653 28.783 36.7362 28.748 36.4372 28.748C36.1428 28.748 35.9048 28.783 35.724 28.8512ZM37.5431 27.5076L37.6236 27.0484H37.0724L36.9916 27.5076H37.5431ZM35.7303 26.8178L35.569 27.7272H36.3773L36.5382 26.8178H35.7303ZM37.1797 26.4477L37.139 26.6808H37.6891L37.7421 26.376H38.3216L37.9884 28.2634H37.41L37.4789 27.8718H36.9275L36.8856 28.1133H35.4062C35.2456 28.1133 35.131 28.0802 35.0613 28.0143C34.9955 27.9481 34.9731 27.853 34.9944 27.7299L35.2208 26.4477H37.1797Z" fill="white"/>
</svg>
