<svg width="24" height="24" viewBox="0 0 24 24" fill="none" xmlns="http://www.w3.org/2000/svg">
<circle cx="12" cy="12" r="12" fill="#545045"/>
<mask id="mask0_820_11316" style="mask-type:alpha" maskUnits="userSpaceOnUse" x="3" y="6" width="18" height="12">
<path fill-rule="evenodd" clip-rule="evenodd" d="M3.6001 6H20.4V17.9676H3.6001V6Z" fill="white"/>
</mask>
<g mask="url(#mask0_820_11316)">
<path fill-rule="evenodd" clip-rule="evenodd" d="M20.1292 12.1413L19.9829 12.0496C19.488 11.5547 18.7985 11.3398 17.8759 11.3937C17.1073 11.4413 16.4983 11.7458 16.0328 12.0286C16.0328 12.0216 16.0321 12.0146 16.0321 12.0076C16.0321 11.7668 16.0601 11.5064 16.0874 11.2523C16.114 10.9947 16.1413 10.7329 16.1413 10.4851C16.1413 10.2324 16.1126 9.99295 16.0258 9.78785C16.0034 9.73465 15.9551 9.70385 15.8935 9.70385C15.6457 9.70875 15.1606 9.87885 15.0437 9.98245L14.9807 10.1218C14.9758 10.3969 14.9156 11.1641 14.854 11.2565C14.8568 11.2537 14.8218 11.3503 14.8218 11.3503C14.7175 12.4451 14.7147 13.4083 14.8113 14.235C14.8225 14.3183 14.9814 14.4429 15.1039 14.4877C15.2397 14.5374 15.6611 14.4247 15.9047 14.333C15.9012 14.3337 15.9964 14.3183 15.9964 14.3183C16.0727 14.3099 16.1182 14.2455 16.1147 14.1573C16.114 14.1559 16.1203 13.92 16.1203 13.92C16.296 13.206 17.0072 12.3534 17.8472 12.226C18.3239 12.1504 18.6984 12.2722 18.9952 12.5949C19.0358 12.6537 19.1219 13.1675 18.8083 13.7583C18.5752 14.1951 18.1083 14.5633 17.4951 14.7929C16.9148 15.0141 16.275 15.103 15.4861 15.0757C15.4532 15.0547 14.7476 14.5766 14.7476 14.5766C14.1211 14.137 13.3441 13.5903 12.6392 13.3229C12.5146 13.2753 12.2934 13.0905 12.159 12.9806L12.0869 12.9211C11.6802 12.5942 10.906 12.079 10.2851 11.6653C10.2851 11.6653 10.0044 11.477 9.9498 11.4413C9.9512 11.4175 9.9512 11.3706 9.9512 11.3706C9.9687 11.3503 10.3593 11.1172 10.3593 11.1172C10.906 10.7966 11.1587 10.6398 11.2126 10.5593C11.2007 10.5726 11.2847 10.5166 11.2847 10.5166C11.2896 10.5138 12.6406 9.74935 12.6406 9.74935C13.9405 9.03535 15.4147 8.22335 16.1889 7.42255C16.1889 7.42115 16.2267 7.29935 16.2267 7.29935L16.2428 7.19085C16.2939 7.01935 16.2974 6.88845 16.2547 6.73515C16.2428 6.69175 16.2036 6.64205 16.149 6.63225C15.5449 6.57135 14.7658 6.93395 14.056 7.60035C13.8957 7.75085 13.7606 7.82365 13.6192 7.90135L13.5114 7.96155C12.7288 8.40605 10.9655 9.50085 10.0436 10.0896C10.1038 9.09765 10.2872 7.68715 10.5133 6.51045L10.4881 6.36975C10.486 6.36485 10.3929 6.19195 10.3929 6.19195L10.3208 6.06455L10.2998 6.05895C10.1164 5.96655 9.9652 6.00365 9.8553 6.03095L9.6719 6.09955L9.4255 6.18915C9.3772 6.19825 9.3422 6.22835 9.3233 6.27595C8.883 7.34065 8.5155 9.09205 8.428 10.4935C7.5474 9.93345 6.734 9.53025 6.335 9.33565L6.3238 9.32935L6.2762 9.31955C6.1327 9.30135 5.9577 9.19495 5.7897 9.09345C5.7715 9.08225 5.4544 8.87575 5.4544 8.87575L4.9427 8.54885C4.9469 8.55165 4.8076 8.51805 4.8076 8.51805C4.5878 8.55585 4.1657 8.83865 4.0418 9.03185C4.0243 9.05845 4.0173 9.08575 4.0173 9.11445C4.0173 9.15505 4.0306 9.19635 4.0418 9.23625L4.0635 9.34055L4.0873 9.40285C4.3337 9.65415 4.9518 10.0728 5.5587 10.3997L6.2615 10.7721L7.3388 11.3601C7.3388 11.365 7.5222 11.5064 7.5222 11.5064L7.6489 11.5792C7.6489 11.5792 7.6629 11.5876 7.672 11.5932C7.385 11.785 5.7134 12.9008 5.7134 12.9008L4.6837 13.5833C4.5864 13.6498 4.1797 13.8318 4.0901 13.8682C3.8675 13.9592 3.6981 14.0985 3.6281 14.2504L3.6001 14.3092L3.6281 14.3484L3.7065 14.4079C3.703 14.4079 3.8122 14.4772 3.8122 14.4772L3.9263 14.5549C3.9284 14.5563 4.0327 14.5724 4.0327 14.5724C4.214 14.5794 4.4821 14.4758 4.9833 14.2567C5.4439 14.0523 6.6948 13.2977 7.2289 12.9764L7.4571 12.8392C7.5523 12.8469 7.6559 12.7671 7.7483 12.6971C7.8554 12.6117 8.0885 12.4689 8.2306 12.4059C8.2355 12.4038 8.316 12.3583 8.393 12.3163C8.3923 12.3401 8.3916 12.3779 8.3916 12.3779C8.4161 14.0138 8.5085 15.2024 8.6877 16.1194L8.6905 16.1348L8.708 16.1719C8.7969 16.3007 8.8963 16.6885 8.9845 17.0301L9.1889 17.7126C9.1931 17.721 9.2456 17.777 9.2456 17.777C9.3625 17.8561 9.7174 17.9919 9.9533 17.9639L10.0121 17.9569L10.0506 17.8736C10.0695 17.7714 10.0772 17.6713 10.0772 17.5614C10.0772 17.4361 10.0674 17.2989 10.0569 17.1302L10.0408 16.8845C9.9652 15.7428 9.891 14.0936 9.891 12.9974V12.9106C10.0849 13.0324 10.9333 13.5665 10.9333 13.5665C12.3781 14.5038 14.5593 15.9185 15.8774 16.293C15.946 16.314 16.0188 16.2979 16.0685 16.2503C16.0713 16.2468 16.2715 16.1194 16.2715 16.1194L16.3093 16.104C16.3849 16.0676 16.436 15.9409 16.4451 15.8016C17.556 15.7463 19.1058 15.3186 19.9353 14.2756C20.2566 13.871 20.4001 13.3761 20.4001 12.9533C20.4001 12.6054 20.3042 12.3058 20.1292 12.1413Z" fill="#FBAF17"/>
</g>
</svg>
