<svg width="24" height="24" viewBox="0 0 24 24" fill="none" xmlns="http://www.w3.org/2000/svg">
<path d="M24 12.001C24 18.6251 18.6236 24 12 24C5.37242 24 0 18.6271 0 12.001C0 5.37287 5.37242 0 12 0C18.6236 0 24 5.37287 24 12.001Z" fill="#E83E44"/>
<path d="M5.81793 9.15854C5.44018 8.93267 5.01246 8.86871 4.58275 8.93067C5.36823 8.09316 5.79594 7.18169 5.79594 6.26223C5.79594 6.17828 5.79394 6.09433 5.78395 6.00838C5.74398 5.43671 5.48015 5.00696 5.07043 4.86305C4.6627 4.70914 3.9112 4.78709 2.71999 6.00438L2.00447 6.80591C1.8066 7.04777 1.0551 8.18511 0.915196 9.37042C0.683351 11.3832 0.833251 13.3941 1.34691 15.177C1.40687 15.3849 1.59874 15.8886 2.06043 16.0745C2.55011 16.2744 3.0158 16.0325 3.42952 15.8207L3.53945 15.7667L3.96516 15.5768L4.37689 15.3949L4.87855 15.175C5.24031 15.0271 5.58009 14.8912 5.90987 14.6134C6.34957 14.2376 6.67136 13.7479 6.83725 13.1902C6.92319 12.9024 6.98315 12.5865 7.01313 12.2307C7.03911 11.9529 7.06909 11.4132 6.96316 10.9395C6.73731 9.89211 6.21766 9.3944 5.81793 9.15854ZM2.00047 10.6637C2.00047 10.6717 2.02246 10.9275 2.02246 10.9275C2.01846 10.9875 2.05044 11.0434 2.1044 11.0634C2.15237 11.0854 2.20434 11.0754 2.2523 11.0354C2.70001 10.6597 3.37755 10.3239 3.92319 10.5118C4.35091 10.6597 4.64071 11.0994 4.79061 11.823C5.10041 13.3361 4.0631 14.0657 3.41553 14.3635L3.39354 14.3735L2.5641 14.7813C2.5641 14.7813 2.51813 14.8012 2.46616 14.7773C2.4142 14.7513 2.40021 14.7173 2.36623 14.6273C1.8026 12.5446 1.60873 10.3578 1.82059 8.31703C1.84258 8.16312 1.91253 7.97723 2.03045 7.82732L2.72599 7.08375L2.80394 6.9998C3.18168 6.63202 3.53745 6.44812 3.72932 6.52808C3.88921 6.59604 3.92719 6.84989 3.92919 7.05177C3.96117 8.13714 3.35557 9.24449 2.08442 10.4398C2.08642 10.4378 1.98848 10.5177 2.00047 10.6637Z" fill="white"/>
<path d="M15.2357 2.83508C15.0019 2.03555 14.6221 1.86965 14.5122 1.83167C13.5149 1.51385 12.4796 1.44789 11.4742 1.62379C9.96524 1.90163 8.66011 2.69317 7.79469 3.85449C6.8853 5.07578 6.53353 6.59889 6.80335 8.13799C7.07717 9.68509 7.85665 10.9364 9.07184 11.7559C10.4929 12.7133 12.3856 13.0051 14.4083 12.5814C15.6035 12.3215 16.5908 11.8578 17.3543 11.1982C17.6961 10.9024 17.76 10.5246 17.76 10.2608C17.76 10.2608 17.778 10.0469 17.6121 9.37327C17.5682 9.20936 17.4962 9.16139 17.3803 9.16139C17.2964 9.16139 17.2084 9.25734 17.1924 9.27732C16.6228 9.93694 15.7534 10.3967 14.6701 10.6105C11.886 11.1462 9.74539 9.84499 9.21374 7.29648C8.98789 6.19112 9.17577 5.13374 9.75139 4.31422C10.329 3.48071 11.2784 2.92903 12.4196 2.75713C13.289 2.6312 14.1744 2.73714 14.9699 3.06895C14.9679 3.06895 15.3097 3.16889 15.2357 2.83508Z" fill="white"/>
</svg>
