<svg width="48" height="48" viewBox="0 0 48 48" fill="none" xmlns="http://www.w3.org/2000/svg">
<rect x="8.00098" width="32" height="48" rx="4" fill="#06275F"/>
<path d="M16.8679 18.9038C16.4364 19.714 16.876 21.3863 17.4204 22.1909L24.9009 33.3084H19.4354C18.6265 33.3071 17.8623 32.9374 17.3591 32.304L13.2804 26.2357C12.9059 25.6174 12.9059 24.8421 13.2804 24.2237L16.8679 18.9038Z" fill="url(#paint0_radial_6445_31414)"/>
<path d="M20.0247 24.3823C19.7408 24.859 19.7121 25.4455 19.9481 25.9476L17.4208 22.193C16.8763 21.3892 16.4368 19.7165 16.8683 18.9059L17.3176 18.2392C17.8079 17.5685 18.6032 17.1902 19.4328 17.2327H24.8081L20.0247 24.3823Z" fill="url(#paint1_radial_6445_31414)"/>
<path d="M31.1311 29.0979C31.5626 28.2878 31.123 26.6154 30.5786 25.8108L23.0981 14.6934H28.5636C29.3725 14.6946 30.1368 15.0643 30.6399 15.6977L34.7186 21.766C35.0931 22.3844 35.0931 23.1596 34.7186 23.778L31.1311 29.0979Z" fill="url(#paint2_radial_6445_31414)"/>
<path d="M27.9752 23.62C28.2591 23.1433 28.2878 22.5568 28.0518 22.0547L30.5791 25.8093C31.1236 26.6131 31.5631 28.2858 31.1316 29.0964L30.6823 29.7631C30.1919 30.4336 29.3966 30.8119 28.5671 30.7692H23.1938L27.9752 23.62Z" fill="url(#paint3_radial_6445_31414)"/>
<defs>
<radialGradient id="paint0_radial_6445_31414" cx="0" cy="0" r="1" gradientUnits="userSpaceOnUse" gradientTransform="translate(13.0021 23.0667) rotate(-90) scale(12.8489 10.616)">
<stop stop-color="#CBDEF2"/>
<stop offset="0.246" stop-color="#9CC3E6"/>
<stop offset="0.773" stop-color="#4774B0"/>
<stop offset="1" stop-color="#264374"/>
</radialGradient>
<radialGradient id="paint1_radial_6445_31414" cx="0" cy="0" r="1" gradientUnits="userSpaceOnUse" gradientTransform="translate(24.8487 17.0485) scale(9.79396 10.5228)">
<stop stop-color="#CBDEF2"/>
<stop offset="0.232" stop-color="#9CC3E6"/>
<stop offset="0.729" stop-color="#4774B0"/>
<stop offset="1" stop-color="#264374"/>
</radialGradient>
<radialGradient id="paint2_radial_6445_31414" cx="0" cy="0" r="1" gradientUnits="userSpaceOnUse" gradientTransform="translate(35.0021 24.935) rotate(90) scale(12.8489 10.616)">
<stop stop-color="#CBDEF2"/>
<stop offset="0.246" stop-color="#9CC3E6"/>
<stop offset="0.773" stop-color="#4774B0"/>
<stop offset="1" stop-color="#264374"/>
</radialGradient>
<radialGradient id="paint3_radial_6445_31414" cx="0" cy="0" r="1" gradientUnits="userSpaceOnUse" gradientTransform="translate(23.1452 30.9488) rotate(180) scale(9.79141 10.5223)">
<stop stop-color="#CBDEF2"/>
<stop offset="0.232" stop-color="#9CC3E6"/>
<stop offset="0.729" stop-color="#4774B0"/>
<stop offset="1" stop-color="#264374"/>
</radialGradient>
</defs>
</svg>
