<svg width="48" height="48" viewBox="0 0 48 48" fill="none" xmlns="http://www.w3.org/2000/svg">
<rect x="8" width="32" height="48" rx="4" fill="#0061AE"/>
<path fill-rule="evenodd" clip-rule="evenodd" d="M32.0939 25.5628C31.2094 27.7741 29.7288 28.3991 29.7288 28.3991C34.0872 23.9545 31.424 18.8326 31.424 18.8326C30.7806 17.6846 31.5994 17.1843 31.5994 17.1843C29.7272 17.6554 30.3122 19.2995 30.3122 19.2995C31.05 20.909 31.2027 22.7255 30.7441 24.4356L30.1287 24.0895L30.1383 24.0749C30.1383 24.0749 31.5998 18.2792 25.7007 16.2467L25.6499 15.1533H24.3758V22.3354L30.226 25.6912C30.1195 25.9089 30.0064 26.1143 29.8887 26.3066L24.0127 22.8826L18.1121 26.3081C17.9944 26.1158 17.8813 25.9089 17.7748 25.6928L23.7012 22.3373V15.1533H22.3671L22.3621 16.2444C16.4007 18.2769 17.8929 24.0722 17.8929 24.0722L17.8725 24.0868L17.2572 24.4329C16.7985 22.7228 16.9512 20.9063 17.689 19.2968C17.689 19.2968 18.2713 17.6554 16.3999 17.1843C16.3999 17.1843 17.2191 17.6843 16.5753 18.8326C16.5753 18.8326 13.9359 23.9545 18.2717 28.3991C18.2717 28.3991 16.7903 27.7738 15.9065 25.5628C15.5346 24.8845 14.7546 24.5392 14.0024 24.7198C14.0024 24.7198 14.5324 24.9613 14.8435 25.9385C14.8435 25.9385 16.1084 29.9886 20.9938 30.607V32.8441H23.3924V29.5475C21.6709 29.4341 20.0611 28.6552 18.9039 27.3757L19.507 27.0215C19.6193 27.1284 21.4664 28.8483 23.9862 28.8937H24.0008C24.0496 28.8937 24.0104 28.8937 24.0154 28.8937C26.5352 28.8487 28.3823 27.1284 28.4946 27.0215L29.0973 27.3757C27.9403 28.6549 26.331 29.4336 24.61 29.5471V32.8437H27.0086V30.607C31.8928 29.9889 33.1588 25.9385 33.1588 25.9385C33.47 24.9613 33.9999 24.7198 33.9999 24.7198C33.2471 24.5382 32.4661 24.8837 32.0939 25.5628ZM28.9679 23.4957L28.9633 23.4292L25.6628 21.5705L25.6447 17.597H25.6628C25.6628 17.597 29.6409 18.6862 28.9679 23.4957ZM22.338 17.597H22.356L22.338 21.5709L19.0371 23.4311L19.0325 23.4977C18.3598 18.6862 22.338 17.597 22.338 17.597ZM24.01 24.3845L27.3008 26.3209V26.3267L27.3493 26.3098C26.4225 27.1191 25.2319 27.5618 24.0015 27.5547C22.7922 27.5717 21.6221 27.1263 20.7302 26.3094L20.701 26.3263V26.3205L24.0115 24.3842L24.01 24.3845Z" fill="white"/>
</svg>
