<svg width="48" height="48" viewBox="0 0 48 48" fill="none" xmlns="http://www.w3.org/2000/svg">
<path fill-rule="evenodd" clip-rule="evenodd" d="M8 6.4C8 4.15979 8 3.03969 8.43597 2.18404C8.81947 1.43139 9.43139 0.819467 10.184 0.435974C11.0397 0 12.1598 0 14.4 0H33.6C35.8402 0 36.9603 0 37.816 0.435974C38.5686 0.819467 39.1805 1.43139 39.564 2.18404C40 3.03969 40 4.15979 40 6.4V41.6C40 43.8402 40 44.9603 39.564 45.816C39.1805 46.5686 38.5686 47.1805 37.816 47.564C36.9603 48 35.8402 48 33.6 48H14.4C12.1598 48 11.0397 48 10.184 47.564C9.43139 47.1805 8.81947 46.5686 8.43597 45.816C8 44.9603 8 43.8402 8 41.6V6.4Z" fill="#056DAE"/>
<path fill-rule="evenodd" clip-rule="evenodd" d="M31.6069 30.8402V22.5186H33.2675V30.8402H31.6069ZM29.9166 30.5848C29.4777 30.8589 28.9638 30.9923 28.4452 30.9669C27.3438 30.9438 26.6077 30.0697 26.6077 28.7912V24.0937H25.2046V22.5291H26.6077V20.8328L28.2324 19.9385V22.5291H29.9208V24.0937H28.2324V28.5088C28.2324 29.1569 28.4736 29.4471 29.0097 29.4471C29.4396 29.4202 29.8579 29.2987 30.2341 29.0914L30.332 28.9703L30.0137 30.5761L29.9166 30.5848ZM22.082 22.5186H23.753V30.8402H22.082V22.5186ZM18.214 29.3706C18.9658 29.3375 19.67 28.9975 20.1587 28.4319H20.1957L21.1335 29.6053L21.1085 29.5884C20.4383 30.4885 19.37 31.0137 18.2394 30.9991C17.1486 31.0154 16.0902 30.6329 15.2675 29.9248C14.422 29.0587 13.9661 27.8919 14.0031 26.689C13.9575 25.5003 14.4158 24.3467 15.2675 23.5063C16.0742 22.7668 17.1394 22.3651 18.2394 22.3855C19.3695 22.3715 20.4374 22.8961 21.1085 23.7949L21.1335 23.8583L20.1957 25.0144L20.1587 24.9552C19.6709 24.3879 18.9664 24.0466 18.214 24.0131C16.7355 24.0131 15.6757 25.1404 15.6757 26.6894C15.6757 28.2384 16.7355 29.3706 18.214 29.3706Z" fill="white"/>
<path fill-rule="evenodd" clip-rule="evenodd" d="M33.9287 20.5594C32.6482 18.3575 30.2745 17 27.7048 17C25.1352 17 22.7615 18.3575 21.481 20.5594L21.4072 20.6731H23.2477L23.2281 20.7081C24.3207 19.3722 25.9656 18.5959 27.7036 18.5959C29.4416 18.5959 31.0864 19.3722 32.179 20.7081L32.2003 20.6731H33.9999L33.9287 20.5594Z" fill="#E02D2C"/>
</svg>
