<svg width="48" height="48" viewBox="0 0 48 48" fill="none" xmlns="http://www.w3.org/2000/svg">
<rect x="8" width="32" height="47.9995" rx="4" fill="#007461"/>
<path fill-rule="evenodd" clip-rule="evenodd" d="M35.2205 33.0278C35.2205 39.1294 28.6241 39.3329 27.7466 39.3329C27.6839 39.3329 27.7085 39.3329 27.7085 39.3329V47.8009H25.127V19.0212H27.7089C28.3128 19.0212 34.2125 19.488 34.2125 25.0917C34.2111 27.708 32.9652 28.5906 32.9652 28.5906C32.9652 28.5906 35.2205 29.5257 35.2205 33.0278ZM28.9119 28.8251C28.9119 28.8251 31.6876 27.7102 31.6876 25.0893C31.6876 22.5209 28.9119 21.6327 27.7083 21.6327V36.7635C27.7083 36.7635 32.4466 36.5312 32.4466 32.7945C32.4447 29.9924 28.9119 28.8251 28.9119 28.8251ZM23.1081 33.9622C23.1081 37.3616 20.0802 39.3322 20.0802 39.3322H16.0424C16.0424 39.3322 20.3325 36.5301 20.3325 34.1954C20.3325 31.1601 14.7808 30.6932 14.7808 25.3228C14.7808 19.4859 20.5619 19 22.4912 19C22.8767 19 23.1081 19.0195 23.1081 19.0195V21.633C22.9507 21.5893 22.7878 21.5688 22.6245 21.5721C21.2732 21.5721 17.5568 21.9396 17.5568 25.3232C17.5564 28.8254 23.1081 29.3963 23.1081 33.9622Z" fill="white"/>
</svg>
