<svg width="24" height="24" viewBox="0 0 24 24" fill="none" xmlns="http://www.w3.org/2000/svg">
<circle cx="12" cy="12" r="12" fill="#0B4DA2"/>
<path d="M21.5887 11.029C21.3276 9.61801 16.8233 9.17781 11.5278 10.0455C9.30365 10.41 7.29565 10.9479 5.73193 11.553C5.97208 11.5579 6.15034 11.6098 6.25841 11.7115C6.34307 11.7912 6.38587 11.9008 6.38587 12.0373V12.1772H5.86678V12.0535C5.86678 11.9506 5.8012 11.8866 5.68483 11.8866C5.58723 11.8866 5.52688 11.928 5.5078 12.0097C5.50225 12.0326 5.50071 12.0717 5.50995 12.1074C5.56537 12.3213 6.33661 12.454 6.42066 12.8487C6.43174 12.8994 6.44652 13.0081 6.42312 13.1637C6.37509 13.4819 6.07799 13.6048 5.69991 13.6048C5.17221 13.6048 4.95761 13.3695 4.95761 13.0452L4.95792 12.8916H5.51457L5.51488 13.0828C5.51488 13.1904 5.598 13.2498 5.711 13.2498C5.81814 13.2498 5.88064 13.2092 5.90219 13.126C5.91235 13.0878 5.91666 13.0318 5.89849 12.9887C5.79566 12.7452 5.07553 12.6316 4.98686 12.2384C4.96716 12.15 4.96531 12.0746 4.98194 11.9796C4.99086 11.928 5.0078 11.884 5.02812 11.8437C3.29322 12.6073 2.27875 13.4474 2.41268 14.1728C2.67407 15.5838 7.17804 16.024 12.4736 15.1561C14.8015 14.7747 16.8941 14.2038 18.4868 13.5639C18.4637 13.5651 18.4415 13.5674 18.4175 13.5674C18.0551 13.5674 17.7315 13.4396 17.698 13.091C17.6921 13.0275 17.6909 13.0008 17.6906 12.9646L17.6909 12.163C17.6909 12.1285 17.6952 12.068 17.6992 12.0364C17.7423 11.6993 18.0253 11.5605 18.4175 11.5605C18.7211 11.5605 19.0933 11.6425 19.1342 12.0367C19.1398 12.0862 19.1392 12.139 19.1389 12.1564C19.1389 12.1567 19.1389 12.1567 19.1389 12.1567V12.232H18.6142V12.1193V12.119C18.6142 12.1164 18.6136 12.0743 18.6078 12.048C18.5992 12.0077 18.5628 11.9144 18.4132 11.9144C18.2657 11.9144 18.2272 12.0077 18.2177 12.048C18.2121 12.07 18.2097 12.1016 18.2097 12.1369V13.0081C18.2094 13.0382 18.2109 13.062 18.214 13.0794C18.2168 13.0933 18.2429 13.2133 18.4147 13.2133C18.5853 13.2133 18.6115 13.0933 18.6139 13.0794C18.6185 13.0559 18.6189 13.0275 18.6189 13.0081V12.738H18.4126V12.4473H19.1423V12.9643C19.1419 12.9994 19.1416 13.0258 19.1352 13.0904C19.1262 13.1817 19.0958 13.2593 19.0477 13.3254C20.7374 12.5705 21.7211 11.744 21.5887 11.029ZM7.85753 13.53L7.59183 11.8309H7.58229L7.30982 13.53H6.74978L7.12632 11.6112H8.0398L8.41418 13.53H7.85753ZM10.5506 13.53L10.5382 11.864H10.5293L10.1999 13.53H9.67433L9.34644 11.864H9.3372L9.3252 13.53H8.80426L8.84952 11.6112H9.68696L9.9308 13.0368H9.9428L10.1873 11.6112H11.0244L11.0693 13.53H10.5506ZM13.0025 13.1582C12.9465 13.53 12.5598 13.5946 12.2864 13.5946C11.8326 13.5946 11.5518 13.4121 11.5518 13.0402L11.5521 12.8887H12.102L12.1023 13.0776C12.1023 13.1802 12.1789 13.2431 12.2978 13.2431C12.4037 13.2431 12.4656 13.2031 12.4871 13.1211C12.497 13.0828 12.5013 13.0269 12.4834 12.9849C12.3821 12.7461 11.6679 12.6293 11.581 12.2421C11.561 12.1543 11.5598 12.0799 11.5761 11.9857C11.6365 11.6347 11.9945 11.5617 12.2824 11.5617C12.5401 11.5617 12.7276 11.6147 12.84 11.7205C12.9237 11.7996 12.9662 11.908 12.9662 12.0428V12.1813H12.452V12.0593C12.452 11.9547 12.3831 11.8941 12.2722 11.8941C12.174 11.8941 12.1143 11.9352 12.0952 12.0161C12.0912 12.0332 12.0872 12.0729 12.0977 12.1126C12.1528 12.3253 12.9169 12.4554 13.0007 12.8464C13.0108 12.8962 13.0259 13.0034 13.0025 13.1582ZM14.9074 12.9837C14.908 13.0197 14.9043 13.0915 14.9024 13.1101C14.871 13.4263 14.6309 13.5871 14.1903 13.5871C13.7479 13.5871 13.5077 13.4266 13.4763 13.1101C13.4742 13.0915 13.4705 13.0197 13.4714 12.984V11.6107H13.9976V13.0275C13.997 13.0591 13.9988 13.0826 14.0022 13.0988C14.0087 13.1304 14.0419 13.2327 14.1903 13.2327C14.3384 13.2327 14.3717 13.1304 14.3787 13.0991C14.3818 13.0826 14.3834 13.0576 14.3834 13.0272V11.6107H14.9077C14.9074 11.6107 14.9074 12.984 14.9074 12.9837ZM17.1743 13.5103H16.4421L15.9508 11.9903H15.9425L15.9699 13.5103H15.4597V11.6112H16.2226L16.6768 13.0713H16.6875L16.6607 11.6112H17.1746V13.5103H17.1743Z" fill="white"/>
</svg>
