<svg width="48" height="48" viewBox="0 0 48 48" fill="none" xmlns="http://www.w3.org/2000/svg">
<path fill-rule="evenodd" clip-rule="evenodd" d="M8 6.4C8 4.15979 8 3.03969 8.43597 2.18404C8.81947 1.43139 9.43139 0.819467 10.184 0.435974C11.0397 0 12.1598 0 14.4 0H33.6C35.8402 0 36.9603 0 37.816 0.435974C38.5686 0.819467 39.1805 1.43139 39.564 2.18404C40 3.03969 40 4.15979 40 6.4V41.6C40 43.8402 40 44.9603 39.564 45.816C39.1805 46.5686 38.5686 47.1805 37.816 47.564C36.9603 48 35.8402 48 33.6 48H14.4C12.1598 48 11.0397 48 10.184 47.564C9.43139 47.1805 8.81947 46.5686 8.43597 45.816C8 44.9603 8 43.8402 8 41.6V6.4Z" fill="#B93735"/>
<path d="M36.0298 22.7516H36.6999C36.7202 22.7523 36.74 22.7449 36.7549 22.731C36.7697 22.7171 36.7784 22.6978 36.779 22.6774V21.4743C36.7785 21.4538 36.77 21.4342 36.7551 21.42C36.7403 21.4058 36.7204 21.398 36.6999 21.3985H35.7589C34.6712 21.3985 34.0938 21.73 33.7644 22.4347L31.7179 27.2081C31.624 27.4837 31.3521 27.6579 31.0625 27.6279V21.4743C31.0619 21.4536 31.0531 21.434 31.0381 21.4198C31.0231 21.4056 31.003 21.3979 30.9823 21.3985H29.4791C29.4584 21.3979 29.4383 21.4056 29.4233 21.4198C29.4083 21.434 29.3995 21.4536 29.3989 21.4743V28.8489C29.3999 28.8853 29.4153 28.9197 29.4417 28.9447C29.4681 28.9697 29.5034 28.9832 29.5398 28.9822H31.2261C32.3138 28.9822 32.8111 28.6501 33.1404 27.9475L35.1598 23.2348C35.308 22.8962 35.6641 22.6984 36.0298 22.7516Z" fill="white"/>
<path fill-rule="evenodd" clip-rule="evenodd" d="M18.757 23.5268C18.7889 24.262 18.3432 24.9341 17.6535 25.1909C18.3683 25.3829 18.8665 26.0292 18.8702 26.7693C18.8702 28.2525 17.6979 28.98 16.0604 28.98H11.6792C11.6366 28.9809 11.6013 28.9473 11.6001 28.9047V23.5912C11.6013 23.5487 11.6366 23.515 11.6792 23.5159H13.2793C13.3219 23.515 13.3573 23.5487 13.3584 23.5912V24.485H15.8166C16.4851 24.485 16.9363 24.0961 16.9363 23.6183C16.9363 23.1405 16.4851 22.7516 15.8166 22.7516H11.6792C11.6369 22.7528 11.6016 22.7197 11.6001 22.6774V21.4743C11.6005 21.4537 11.6091 21.4342 11.6239 21.42C11.6388 21.4058 11.6586 21.398 11.6792 21.3985H16.1249C17.5652 21.3985 18.757 22.2018 18.757 23.5268ZM13.3586 27.6611H15.9018C16.5871 27.6611 17.0502 27.2629 17.0502 26.7721C17.0502 26.2814 16.5871 25.8827 15.9018 25.8827H13.3586V27.6611Z" fill="white"/>
<path d="M37.5865 28.8984L35.0091 25.7566C35.0065 25.7523 35.0016 25.75 34.9966 25.7506C34.9917 25.7512 34.9875 25.7545 34.9858 25.7593L34.2919 27.3751C34.2877 27.385 34.2892 27.3964 34.2957 27.4049L35.423 28.8453C35.4947 28.9401 35.6095 28.9921 35.728 28.9834H37.5437C37.5647 28.9856 37.5849 28.9746 37.5944 28.9557C37.6039 28.9368 37.6008 28.914 37.5865 28.8984Z" fill="white"/>
<path d="M21.6939 23.5181H20.188C20.1454 23.5172 20.1101 23.5508 20.1089 23.5934V28.9069C20.1093 28.9273 20.1179 28.9468 20.1328 28.961C20.1476 28.9751 20.1675 28.9827 20.188 28.9821H21.6939C21.7365 28.9831 21.7718 28.9494 21.773 28.9069V23.5934C21.7718 23.5508 21.7365 23.5172 21.6939 23.5181Z" fill="white"/>
<path d="M27.8862 21.3985H26.3835C26.363 21.3981 26.3432 21.4059 26.3285 21.4201C26.3137 21.4343 26.3053 21.4539 26.305 21.4744V27.628C26.0154 27.6583 25.7435 27.484 25.6501 27.2082L23.603 22.4348C23.2742 21.7306 22.6962 21.3985 21.6085 21.3985H20.1909C20.1704 21.3981 20.1505 21.4058 20.1356 21.4201C20.1208 21.4343 20.1122 21.4538 20.1118 21.4744V22.6775C20.1124 22.6978 20.1211 22.7171 20.1359 22.731C20.1508 22.745 20.1706 22.7524 20.1909 22.7517H21.3377C21.7027 22.6987 22.0583 22.8957 22.2071 23.2332L24.2265 27.946C24.5564 28.6502 25.0531 28.9806 26.1414 28.9806H27.8282C27.8643 28.9815 27.8993 28.9679 27.9253 28.9429C27.9514 28.9179 27.9663 28.8835 27.9669 28.8474V21.4744C27.9666 21.4535 27.9579 21.4336 27.9427 21.4193C27.9274 21.405 27.9071 21.3975 27.8862 21.3985Z" fill="white"/>
</svg>
