<svg width="48" height="48" viewBox="0 0 48 48" fill="none" xmlns="http://www.w3.org/2000/svg">
<rect x="8" width="32" height="48" rx="4" fill="#E83E44"/>
<path d="M40 24.5012C40 32.5054 33.5035 39 25.5 39C17.4917 39 11 32.5078 11 24.5012C11 16.4922 17.4917 10 25.5 10C33.5035 10 40 16.4922 40 24.5012Z" fill="#E83E44"/>
<path d="M18.0299 21.0666C17.5734 20.7936 17.0566 20.7164 16.5374 20.7912C17.4865 19.7792 18.0033 18.6779 18.0033 17.5669C18.0033 17.4654 18.0009 17.364 17.9888 17.2601C17.9405 16.5694 17.6217 16.0501 17.1267 15.8762C16.634 15.6902 15.7259 15.7844 14.2866 17.2553L13.422 18.2238C13.1829 18.5161 12.2748 19.8903 12.1058 21.3226C11.8256 23.7547 12.0067 26.1845 12.6274 28.3389C12.6999 28.5901 12.9317 29.1987 13.4896 29.4234C14.0813 29.6649 14.644 29.3726 15.1439 29.1166L15.2767 29.0514L15.7911 28.822L16.2886 28.6022L16.8948 28.3365C17.3319 28.1578 17.7425 27.9935 18.141 27.6578C18.6723 27.2037 19.0611 26.612 19.2616 25.9381C19.3654 25.5903 19.4379 25.2087 19.4741 24.7788C19.5055 24.4431 19.5417 23.791 19.4137 23.2186C19.1408 21.953 18.5129 21.3516 18.0299 21.0666ZM13.4171 22.8853C13.4171 22.8949 13.4437 23.2041 13.4437 23.2041C13.4389 23.2765 13.4775 23.3442 13.5427 23.3683C13.6007 23.3949 13.6635 23.3828 13.7214 23.3345C14.2624 22.8804 15.0811 22.4747 15.7404 22.7017C16.2572 22.8804 16.6074 23.4118 16.7886 24.2861C17.1629 26.1145 15.9095 26.996 15.127 27.3559L15.1004 27.368L14.0982 27.8607C14.0982 27.8607 14.0426 27.8848 13.9798 27.8559C13.9171 27.8245 13.9001 27.7834 13.8591 27.6747C13.178 25.158 12.9438 22.5157 13.1998 20.0497C13.2263 19.8638 13.3109 19.6392 13.4534 19.458L14.2938 18.5595L14.388 18.4581C14.8444 18.0137 15.2743 17.7915 15.5062 17.8881C15.6994 17.9702 15.7452 18.2769 15.7477 18.5209C15.7863 19.8324 15.0545 21.1704 13.5186 22.6147C13.521 22.6123 13.4026 22.7089 13.4171 22.8853Z" fill="white"/>
<path d="M29.4098 13.4262C29.1273 12.4601 28.6684 12.2596 28.5356 12.2137C27.3305 11.8297 26.0795 11.75 24.8647 11.9625C23.0413 12.2982 21.4643 13.2547 20.4186 14.658C19.3197 16.1337 18.8947 17.9741 19.2207 19.8339C19.5516 21.7033 20.4935 23.2152 21.9618 24.2055C23.6789 25.3624 25.966 25.715 28.41 25.203C29.8542 24.889 31.0472 24.3286 31.9698 23.5316C32.3828 23.1742 32.4601 22.7177 32.4601 22.3989C32.4601 22.3989 32.4818 22.1404 32.2813 21.3265C32.2282 21.1284 32.1413 21.0705 32.0012 21.0705C31.8998 21.0705 31.7935 21.1864 31.7742 21.2105C31.0859 22.0076 30.0353 22.5631 28.7264 22.8215C25.3622 23.4688 22.7757 21.8965 22.1333 18.817C21.8604 17.4814 22.0874 16.2037 22.7829 15.2135C23.4809 14.2063 24.628 13.5397 26.007 13.332C27.0576 13.1798 28.1274 13.3078 29.0886 13.7088C29.0862 13.7088 29.4992 13.8295 29.4098 13.4262Z" fill="white"/>
</svg>
