<svg width="48" height="48" viewBox="0 0 48 48" fill="none" xmlns="http://www.w3.org/2000/svg">
<path fill-rule="evenodd" clip-rule="evenodd" d="M8 6.4C8 4.15979 8 3.03969 8.43597 2.18404C8.81947 1.43139 9.43139 0.819467 10.184 0.435974C11.0397 0 12.1598 0 14.4 0H33.6C35.8402 0 36.9603 0 37.816 0.435974C38.5686 0.819467 39.1805 1.43139 39.564 2.18404C40 3.03969 40 4.15979 40 6.4V41.6C40 43.8402 40 44.9603 39.564 45.816C39.1805 46.5686 38.5686 47.1805 37.816 47.564C36.9603 48 35.8402 48 33.6 48H14.4C12.1598 48 11.0397 48 10.184 47.564C9.43139 47.1805 8.81947 46.5686 8.43597 45.816C8 44.9603 8 43.8402 8 41.6V6.4Z" fill="#3EC5F2"/>
<path fill-rule="evenodd" clip-rule="evenodd" d="M28.1558 32.5158C27.1024 32.5551 26.0618 32.274 25.1714 31.7096V27.9017C26.0052 29.0421 27.5692 29.3618 28.7837 28.6402C29.9982 27.9186 30.4651 26.392 29.8621 25.1145C29.2592 23.8369 27.7839 23.227 26.4548 23.7059C26.9817 22.8958 27.078 21.8789 26.7126 20.9843C27.1854 20.8729 27.6701 20.82 28.1558 20.8268C31.3834 20.8268 33.9999 23.4433 33.9999 26.6709C33.9999 29.8985 31.3834 32.515 28.1558 32.515V32.5158ZM26.3209 20.3044C25.5443 19.292 24.2105 18.8845 23.0007 19.2901C21.7909 19.6956 20.9721 20.8246 20.9626 22.1006C20.962 22.6577 21.12 23.2035 21.4181 23.6742C20.3946 23.3497 19.2757 23.6461 18.5471 24.4347C18.072 23.5541 17.8238 22.569 17.8249 21.5684C17.8474 18.4516 20.2066 15.8486 23.3062 15.5207C26.4058 15.1928 29.2574 17.2446 29.9315 20.2877C28.7491 19.9623 27.4999 19.968 26.3206 20.3044H26.3209ZM18.116 25.142C17.9184 25.4883 17.8174 25.8813 17.8238 26.2799C17.8323 27.38 18.4937 28.3698 19.5068 28.7987C20.5199 29.2275 21.6909 29.0134 22.4867 28.2537C22.5893 28.2758 22.6934 28.3869 22.7963 28.3126V31.708C21.9103 32.2821 20.8666 32.564 19.812 32.5141C17.1107 32.5357 14.7462 30.704 14.0921 28.083C13.4379 25.462 14.6644 22.7341 17.059 21.4839C17.059 21.5113 17.0571 21.5384 17.0571 21.5659C17.0501 22.8369 17.4189 24.0816 18.1172 25.1436L18.116 25.142Z" fill="white"/>
</svg>
