<svg width="48" height="48" viewBox="0 0 48 48" fill="none" xmlns="http://www.w3.org/2000/svg">
<path fill-rule="evenodd" clip-rule="evenodd" d="M8 6.4C8 4.15979 8 3.03969 8.43597 2.18404C8.81947 1.43139 9.43139 0.819467 10.184 0.435974C11.0397 0 12.1598 0 14.4 0H33.6C35.8402 0 36.9603 0 37.816 0.435974C38.5686 0.819467 39.1805 1.43139 39.564 2.18404C40 3.03969 40 4.15979 40 6.4V41.6C40 43.8402 40 44.9603 39.564 45.816C39.1805 46.5686 38.5686 47.1805 37.816 47.564C36.9603 48 35.8402 48 33.6 48H14.4C12.1598 48 11.0397 48 10.184 47.564C9.43139 47.1805 8.81947 46.5686 8.43597 45.816C8 44.9603 8 43.8402 8 41.6V6.4Z" fill="#0050FF"/>
<path d="M31 24.4904C31.0025 27.5422 28.9485 30.1853 26.0615 30.8454C23.1745 31.5055 20.231 30.005 18.9843 27.2377C17.9194 27.5472 16.9111 28.0356 16 28.6834C16.3617 26.6063 17.0431 24.6023 18.0184 22.7475C19.3237 20.3142 21.2899 18.2218 24.2742 18.0156C24.6453 17.99 25.0177 17.9959 25.3878 18.0332C28.5856 18.3824 31.0095 21.1709 31 24.4895V24.4904Z" fill="white"/>
</svg>
