<svg width="48" height="48" viewBox="0 0 48 48" fill="none" xmlns="http://www.w3.org/2000/svg">
<rect x="8" width="32" height="48" rx="4" fill="#F3F6FB"/>
<path d="M28.5508 36.5909L17.676 29.5108C17.676 29.5108 16.312 28.727 15.9998 27.2659C15.5612 25.2143 17.0072 23.457 17.0072 23.457L31.1212 32.6528C31.6428 32.9946 32.0078 33.5291 32.1363 34.1393C32.2648 34.7495 32.1464 35.3858 31.8069 35.9089C31.0881 37.0342 29.611 37.2814 28.5508 36.5956" fill="#38D200"/>
<path d="M18.2503 21.9392C18.2503 21.9392 16.5845 20.9337 16.5845 18.6076C16.5845 16.2815 18.2493 15.2968 18.2493 15.2968L24.1918 11.4059C24.4508 11.2302 24.7422 11.1079 25.0491 11.0462C25.3559 10.9845 25.6719 10.9846 25.9787 11.0465C26.2854 11.1084 26.5768 11.2309 26.8356 11.4068C27.0945 11.5827 27.3157 11.8084 27.4862 12.0708C27.6568 12.3332 27.7733 12.627 27.8289 12.935C27.8846 13.2429 27.8783 13.5589 27.8103 13.8644C27.7424 14.1699 27.6142 14.4587 27.4332 14.7141C27.2523 14.9694 27.0222 15.1861 26.7565 15.3515L21.7488 18.6123L30.2862 24.1728C30.2862 24.1728 31.8228 25.0538 32.1255 26.5394C32.5481 28.6146 31.121 30.3219 31.121 30.3219L18.2503 21.9392Z" fill="#0473EA"/>
<path d="M29.4405 16.1745C28.9592 16.1747 28.4898 16.3243 28.0973 16.6028L25.1958 18.4893L28.0973 20.3758C28.4913 20.6513 28.9597 20.8006 29.4405 20.804C30.0554 20.804 30.6451 20.5598 31.0799 20.125C31.5147 19.6901 31.759 19.1004 31.759 18.4855C31.759 17.8706 31.5147 17.2809 31.0799 16.8461C30.6451 16.4113 30.0554 16.167 29.4405 16.167" fill="#38D200"/>
<path d="M18.2194 36.9649C18.7008 36.9654 19.1703 36.8157 19.5626 36.5367L22.465 34.6502L19.5626 32.7637C19.1689 32.4873 18.7004 32.3376 18.2194 32.3345C17.6045 32.3345 17.0148 32.5787 16.58 33.0136C16.1452 33.4484 15.9009 34.0381 15.9009 34.653C15.9009 35.2679 16.1452 35.8576 16.58 36.2924C17.0148 36.7273 17.6045 36.9715 18.2194 36.9715" fill="#0473EA"/>
</svg>
