<svg width="48" height="48" viewBox="0 0 48 48" fill="none" xmlns="http://www.w3.org/2000/svg">
<rect x="8" width="32" height="48" rx="4" fill="#E60012"/>
<circle cx="24" cy="24" r="16" fill="#E60012"/>
<path d="M19.9984 34C19.4611 34 19.0221 33.5794 19.0006 33.0421C18.9914 32.775 19.0835 32.5201 19.2647 32.3236C19.4458 32.1271 19.6914 32.0135 19.9585 32.0013C20.508 31.9736 20.9777 32.4065 20.9992 32.9592C21.0207 33.5088 20.5909 33.9754 20.0414 34C20.026 34 20.0137 34 19.9984 34Z" fill="white"/>
<path d="M23.3294 15.775C22.7726 15.775 22.3278 15.9446 21.9669 16.2929C21.1892 17.0441 20.7817 18.5979 20.819 20.6636C20.8626 23.211 21.4847 28.2087 23.5441 30.7833C23.8769 31.1982 24.2378 31.5314 24.6111 31.7737C24.9719 32.007 25.3795 32.2341 26.0141 32.2341C26.1851 32.2341 26.3718 32.216 26.5647 32.1826C27.7437 31.907 29.2244 30.6288 30.3225 28.9265C30.4905 28.6661 30.7767 28.5116 31.094 28.5116C31.2651 28.5116 31.43 28.557 31.5762 28.6479C31.7815 28.7751 31.9246 28.969 31.9775 29.1992C32.0303 29.4293 31.9899 29.6686 31.8592 29.8655C30.4687 32.0191 28.6333 33.5305 26.9504 33.9091C26.9442 33.9122 26.9255 33.9152 26.91 33.9182C26.602 33.9727 26.2971 34 26.0078 34C24.9222 34 24.1538 33.5972 23.6094 33.2458C23.0712 32.8975 22.5642 32.434 22.11 31.8646C19.2139 28.242 19.0148 21.4481 19.0023 20.6879C18.9712 18.8796 19.2387 16.4322 20.6884 15.0298C21.3945 14.3453 22.2811 14 23.3232 14H23.4912C24.5333 14 25.423 14.3453 26.1292 15.0298C27.5788 16.4322 27.8463 18.8796 27.8152 20.6879C27.781 22.5719 27.4264 26.2187 25.423 29.4899C25.2581 29.7565 24.9595 29.92 24.6422 29.92C24.4773 29.92 24.3187 29.8776 24.1756 29.7958C23.7463 29.5475 23.6063 29.0023 23.8614 28.5813C25.2644 26.2944 25.9425 23.7743 25.9985 20.6576C26.0358 18.5888 25.6252 17.038 24.8506 16.2868C24.4898 15.9385 24.0449 15.7689 23.4912 15.7689H23.3294V15.775Z" fill="white"/>
</svg>
