<svg width="48" height="48" viewBox="0 0 48 48" fill="none" xmlns="http://www.w3.org/2000/svg">
<path fill-rule="evenodd" clip-rule="evenodd" d="M8 6.4C8 4.15979 8 3.03969 8.43597 2.18404C8.81947 1.43139 9.43139 0.819467 10.184 0.435974C11.0397 0 12.1598 0 14.4 0H33.6C35.8402 0 36.9603 0 37.816 0.435974C38.5686 0.819467 39.1805 1.43139 39.564 2.18404C40 3.03969 40 4.15979 40 6.4V41.6C40 43.8402 40 44.9603 39.564 45.816C39.1805 46.5686 38.5686 47.1805 37.816 47.564C36.9603 48 35.8402 48 33.6 48H14.4C12.1598 48 11.0397 48 10.184 47.564C9.43139 47.1805 8.81947 46.5686 8.43597 45.816C8 44.9603 8 43.8402 8 41.6V6.4Z" fill="#1FB25A"/>
<path fill-rule="evenodd" clip-rule="evenodd" d="M32.0031 26.9873C32.0031 31.8573 28.4213 35.0021 24.0023 35.0021C21.8668 35.0389 19.8082 34.2058 18.2993 32.6943C16.7904 31.1827 15.9609 29.1227 16.0014 26.9873C15.9617 24.4943 17.2845 22.1781 19.4518 20.9456L16.2329 19.788V15.8001L20.9019 17.8743L23.6022 23.0103C21.587 23.4014 20.0084 24.915 20.0084 26.9873C20.0084 29.1911 21.7949 30.9777 23.9988 30.9777C26.2026 30.9777 27.9892 29.1911 27.9892 26.9873C27.9892 24.915 26.415 23.4014 24.3943 23.0103L27.1026 17.8743L31.9806 15.8001V19.79L29.2579 20.9456C31.0044 22.4672 32.0058 24.6709 32.0031 26.9873ZM20.0141 15L24.002 17.0047L27.9915 15L24.002 22.5923L20.0141 15Z" fill="#FCC800"/>
</svg>
