<svg width="48" height="48" viewBox="0 0 48 48" fill="none" xmlns="http://www.w3.org/2000/svg">
<rect x="8" width="32" height="48" rx="4" fill="#0B4DA2"/>
<path fill-rule="evenodd" clip-rule="evenodd" d="M34.0455 24.1328C35.4472 24.4176 36.3994 25.3328 36.3994 26.4262C36.3994 28.193 34.9893 29.2066 32.5279 29.2066C31.1174 29.2066 29.9769 29.2278 29.9668 29.2278H29.8943V21.3035C29.9079 20.8979 29.879 20.492 29.808 20.0924L29.7886 20.0103H32.7158C34.6866 20.0103 35.8635 20.8471 35.8635 21.9857C35.8216 23.0336 35.0722 23.9188 34.0455 24.1328ZM31.3557 27.5889C31.3557 28.2558 31.652 28.5161 32.4108 28.5161C33.9768 28.5161 34.7379 27.8589 34.7379 26.5075C34.7379 25.2262 33.8554 24.5768 32.1107 24.5768H31.3552L31.3557 27.5889ZM32.3166 20.7275H31.3603L31.3552 23.86H31.9977C33.6735 23.86 34.4623 23.3232 34.4623 22.1716C34.4623 21.1595 33.8222 20.7275 32.3161 20.7275H32.3166ZM25.3475 29.2244C23.0905 29.2244 20.6799 28.0738 20.6799 24.8429C20.6799 21.8097 22.6539 19.999 25.9604 19.999C26.6275 20.0157 27.2913 20.0979 27.9423 20.2446L27.9926 20.2543V21.5872L27.8883 21.4229C27.1749 20.8467 26.2617 20.5777 25.3498 20.6752C23.4727 20.8169 22.1605 22.3566 22.1605 24.4211C22.1605 27.1244 23.3259 28.497 25.6221 28.497C26.0325 28.4903 26.4421 28.4581 26.8484 28.4005C26.8023 27.8605 26.7944 25.7097 26.7944 25.688C26.8125 25.3621 26.7625 25.0359 26.6477 24.7303L26.6015 24.6339H28.1011V27.7608C28.0833 28.1569 28.0873 28.5537 28.1131 28.9493L28.1186 29.0089L28.0609 29.019C27.1685 29.1997 26.257 29.2689 25.3475 29.2249V29.2244ZM15.3828 29.2292C13.9982 29.2292 12.6228 29.1766 12.609 29.1761H12.548C12.548 29.1761 12.5683 21.7951 12.6016 21.6613C12.5936 21.1402 12.5554 20.6201 12.4871 20.1035L12.3994 20.0112H15.4456C18.1226 20.0112 19.8478 21.7065 19.8478 24.3299C19.8488 27.2593 18.0206 29.2297 15.3828 29.2297V29.2292ZM14.9557 20.7715C14.568 20.7715 14.0326 20.8135 13.8544 20.8288V27.5452C13.8544 28.4636 13.9721 28.5384 15.4237 28.5384C17.4046 28.5384 18.3674 27.2373 18.3674 24.564C18.3669 21.9771 17.2823 20.772 14.9561 20.772L14.9557 20.7715Z" fill="white"/>
</svg>
