<svg width="48" height="48" viewBox="0 0 48 48" fill="none" xmlns="http://www.w3.org/2000/svg">
<path fill-rule="evenodd" clip-rule="evenodd" d="M0 6.4C0 4.15979 0 3.03969 0.435974 2.18404C0.819467 1.43139 1.43139 0.819467 2.18404 0.435974C3.03969 0 4.15979 0 6.4 0H41.6C43.8402 0 44.9603 0 45.816 0.435974C46.5686 0.819467 47.1805 1.43139 47.564 2.18404C48 3.03969 48 4.15979 48 6.4V41.6C48 43.8402 48 44.9603 47.564 45.816C47.1805 46.5686 46.5686 47.1805 45.816 47.564C44.9603 48 43.8402 48 41.6 48H6.4C4.15979 48 3.03969 48 2.18404 47.564C1.43139 47.1805 0.819467 46.5686 0.435974 45.816C0 44.9603 0 43.8402 0 41.6V6.4Z" fill="white"/>
<path fill-rule="evenodd" clip-rule="evenodd" d="M8 6.4C8 4.15979 8 3.03969 8.43597 2.18404C8.81947 1.43139 9.43139 0.819467 10.184 0.435974C11.0397 0 12.1598 0 14.4 0H33.6C35.8402 0 36.9603 0 37.816 0.435974C38.5686 0.819467 39.1805 1.43139 39.564 2.18404C40 3.03969 40 4.15979 40 6.4V41.6C40 43.8402 40 44.9603 39.564 45.816C39.1805 46.5686 38.5686 47.1805 37.816 47.564C36.9603 48 35.8402 48 33.6 48H14.4C12.1598 48 11.0397 48 10.184 47.564C9.43139 47.1805 8.81947 46.5686 8.43597 45.816C8 44.9603 8 43.8402 8 41.6V6.4Z" fill="#545045"/>
<path fill-rule="evenodd" clip-rule="evenodd" d="M33.6683 25.3951C33.6683 25.3915 33.4952 25.2516 33.4952 25.2516C32.8218 24.6228 31.9006 24.3313 30.988 24.4584C30.2069 24.5242 29.4559 24.7902 28.8075 25.2307C28.8075 25.2221 28.853 25.2134 28.853 25.2053C28.8385 24.8996 28.8402 24.5935 28.8579 24.2881C28.8897 23.9755 29.0101 23.6571 29.0101 23.3559C28.991 23.061 28.9138 22.7728 28.783 22.5078C28.7577 22.444 28.6949 22.403 28.6263 22.4056C28.272 22.4584 27.9297 22.5729 27.6151 22.744L27.5387 22.9139C27.5352 23.3776 27.485 23.8398 27.3888 24.2935C27.392 24.2894 27.3502 24.4057 27.3502 24.4057C27.2266 25.5713 27.2225 26.7464 27.3379 27.9127C27.3511 28.0131 27.541 28.1639 27.6868 28.2189C28.0149 28.2285 28.3409 28.1642 28.6408 28.0308C28.6372 28.0308 28.7494 28.0131 28.7494 28.0131C28.7941 28.0062 28.8343 27.9817 28.8608 27.945C28.8874 27.9083 28.8981 27.8625 28.8907 27.8178C28.8907 27.8155 28.8975 27.5284 28.8975 27.5284C29.1069 26.6612 29.9518 25.6259 30.9667 25.4705C31.4653 25.3612 31.9838 25.5336 32.3177 25.9198C32.427 26.4015 32.3475 26.9068 32.0956 27.3317C31.743 27.9253 31.1884 28.3721 30.5333 28.59C29.769 28.8691 28.9549 28.9862 28.1429 28.9339C28.1039 28.908 27.2639 28.3779 27.2639 28.3779C26.5106 27.7314 25.6652 27.2009 24.7554 26.8038C24.5498 26.6877 24.3585 26.5481 24.1853 26.3877L24.0985 26.315C23.6152 25.9189 22.6944 25.292 21.9553 24.7896L21.5569 24.517C21.5569 24.4889 21.5569 24.4316 21.5569 24.4316C21.5787 24.4075 22.0434 24.1232 22.0434 24.1232C22.4081 23.94 22.7488 23.7125 23.0578 23.4458C23.0761 23.4504 23.0956 23.4474 23.1118 23.4376C23.1279 23.4278 23.1396 23.412 23.1441 23.3936C23.15 23.3909 24.7563 22.4619 24.7563 22.4619C26.304 21.5938 28.0575 20.608 28.9779 19.634L29.0233 19.485L29.1446 19.3528C29.1046 19.1443 29.1078 18.9849 29.056 18.8C29.1446 18.7468 28.9951 18.686 28.9315 18.6741C27.9873 18.7554 27.1035 19.1727 26.4408 19.8503C26.25 20.032 26.0901 20.1228 25.9892 20.2137L25.7921 20.2873C24.8612 20.8279 22.7648 22.1571 21.6663 22.8739C21.7386 21.7782 22.0397 20.0547 22.226 18.5242L22.196 18.3534C22.1928 18.4089 22.1383 18.1372 22.1383 18.1372L21.997 18.0845L21.9725 18.0182C21.8197 17.9061 21.621 17.8776 21.4428 17.9423L21.2239 18.025L20.9313 18.1331C20.8751 18.144 20.829 18.1843 20.8105 18.2385C20.2528 19.8984 19.8952 21.619 19.7452 23.3636C18.9425 22.847 18.1109 22.3768 17.2544 21.9554L17.2412 21.9476L17.1849 21.9354C17.0137 21.9272 16.8606 21.7846 16.6057 21.6628C16.5839 21.6496 16.2696 21.3989 16.2696 21.3989L15.5981 21.0005C15.6268 21.0046 15.4373 20.9632 15.4373 20.9632C15.0843 21.0672 14.7768 21.2877 14.5651 21.5888C14.5231 21.6034 14.4956 21.6438 14.4974 21.6883C14.4968 21.7451 14.5216 21.7993 14.5651 21.8359L14.5519 21.9622L14.5806 22.0562C15.1524 22.5179 15.7716 22.9178 16.4276 23.2491L17.2422 23.7034L18.4501 24.413C18.4501 24.4189 18.6681 24.5906 18.6681 24.5906L18.8189 24.6787C18.848 24.6898 18.8787 24.6956 18.9098 24.696C18.505 24.9295 16.5158 26.286 16.5158 26.286L15.2892 27.1155C15.1729 27.1959 14.6896 27.4171 14.5828 27.5243C14.3458 27.5626 14.1415 27.7121 14.0332 27.9264L14 27.9986L14.0332 28.0463L14.1267 28.119C14.1222 28.119 14.2521 28.278 14.2521 28.278L14.3884 28.297C14.3916 28.297 14.5161 28.3665 14.5161 28.3665C14.7314 28.4083 15.0503 28.2616 15.6467 27.9341C16.1946 27.6865 17.6828 26.7693 18.3188 26.3777L18.5914 26.2119C18.7224 26.1943 18.844 26.1338 18.9371 26.0398C19.116 25.9026 19.3084 25.7839 19.5113 25.6854C19.5167 25.6854 19.613 25.6291 19.7043 25.5773C19.7043 25.6059 19.7043 25.6513 19.7043 25.6513C19.6938 27.174 19.8119 28.6949 20.0573 30.1977L20.0605 30.2168L20.0814 30.2622C20.1859 30.4789 20.3049 30.89 20.5061 31.3071L20.6533 32.1366C20.6588 32.2152 20.7219 32.2142 20.7219 32.2142C20.9753 32.3678 21.267 32.4465 21.5632 32.4414L21.6332 32.4328L21.6786 32.3319C21.7016 32.2065 21.7124 32.0792 21.7109 31.9517C21.7109 31.7999 21.6999 31.6337 21.6868 31.4284L21.6677 31.1294C21.5768 29.7421 21.5673 27.7387 21.5673 26.405V26.2991C21.7327 26.4468 22.7302 27.1932 22.7302 27.1932C24.4488 28.2353 27.0458 29.9551 28.6126 30.4094C28.6912 30.4491 28.7869 30.4267 28.8398 30.3563C28.842 30.3531 29.081 30.1982 29.081 30.1982L29.1264 30.1791C29.2501 30.0874 29.3418 29.9592 29.3885 29.8125C30.6087 29.7444 32.4526 29.2247 33.4398 28.0463C33.7917 27.5643 33.9851 26.9849 33.9931 26.3882C34.0304 26.0265 33.9133 25.6659 33.6705 25.3951" fill="#FEA400"/>
</svg>
