<svg width="48" height="48" viewBox="0 0 48 48" fill="none" xmlns="http://www.w3.org/2000/svg">
<rect x="8" width="32" height="48" rx="4" fill="#0B4DA2"/>
<path d="M39.457 21.8381C39.048 19.6279 31.9924 18.9383 23.6974 20.2975C20.2135 20.8685 17.0681 21.711 14.6187 22.6589C14.9949 22.6666 15.2741 22.7479 15.4434 22.9072C15.576 23.032 15.643 23.2036 15.643 23.4174V23.6367H14.8299V23.4429C14.8299 23.2817 14.7272 23.1814 14.5449 23.1814C14.392 23.1814 14.2975 23.2463 14.2676 23.3743C14.2589 23.4102 14.2565 23.4714 14.271 23.5273C14.3578 23.8623 15.5659 24.0702 15.6975 24.6885C15.7149 24.7679 15.738 24.9382 15.7014 25.1819C15.6262 25.6804 15.1608 25.8728 14.5685 25.8728C13.7419 25.8728 13.4058 25.5042 13.4058 24.9963L13.4063 24.7557H14.2782L14.2787 25.0553C14.2787 25.2237 14.4089 25.3167 14.5859 25.3167C14.7537 25.3167 14.8516 25.2532 14.8854 25.1229C14.9013 25.063 14.9081 24.9754 14.8796 24.9077C14.7185 24.5264 13.5905 24.3485 13.4516 23.7325C13.4207 23.594 13.4179 23.476 13.4439 23.3271C13.4579 23.2463 13.4844 23.1773 13.5162 23.1142C10.7987 24.3103 9.20958 25.6263 9.41936 26.7626C9.82881 28.9728 16.8839 29.6624 25.1789 28.3028C28.8254 27.7054 32.1034 26.8111 34.5981 25.8088C34.562 25.8106 34.5272 25.8143 34.4896 25.8143C33.922 25.8143 33.4151 25.6141 33.3626 25.068C33.3534 24.9686 33.3515 24.9268 33.351 24.8701L33.3515 23.6144C33.3515 23.5604 33.3582 23.4655 33.3645 23.4161C33.432 22.8881 33.8752 22.6707 34.4896 22.6707C34.9651 22.6707 35.5482 22.7992 35.6123 23.4165C35.621 23.4941 35.6201 23.5768 35.6196 23.604C35.6196 23.6045 35.6196 23.6045 35.6196 23.6045V23.7225H34.7978V23.5459V23.5454C34.7978 23.5414 34.7968 23.4755 34.7877 23.4342C34.7742 23.3711 34.7173 23.225 34.4829 23.225C34.2519 23.225 34.1916 23.3711 34.1766 23.4342C34.168 23.4687 34.1641 23.5182 34.1641 23.5736V24.9382C34.1636 24.9854 34.166 25.0226 34.1708 25.0498C34.1752 25.0716 34.2162 25.2595 34.4853 25.2595C34.7525 25.2595 34.7935 25.0716 34.7973 25.0498C34.8045 25.0131 34.805 24.9686 34.805 24.9382V24.5151H34.4819V24.0598H35.6249V24.8696C35.6244 24.9245 35.6239 24.9658 35.6138 25.0671C35.5998 25.2101 35.5521 25.3317 35.4768 25.4352C38.1235 24.2527 39.6644 22.958 39.457 21.8381ZM17.9483 25.7557L17.5321 23.0942H17.5171L17.0903 25.7557H16.2131L16.8029 22.7501H18.2338L18.8202 25.7557H17.9483ZM22.1667 25.7557L22.1474 23.146H22.1334L21.6174 25.7557H20.7942L20.2805 23.146H20.2661L20.2473 25.7557H19.4313L19.5022 22.7501H20.8139L21.1959 24.9831H21.2147L21.5976 22.7501H22.9089L22.9793 25.7557H22.1667ZM26.0075 25.1733C25.9197 25.7557 25.314 25.8569 24.8857 25.8569C24.1749 25.8569 23.735 25.571 23.735 24.9885L23.7355 24.7511H24.5968L24.5973 25.0471C24.5973 25.2078 24.7174 25.3063 24.9036 25.3063C25.0695 25.3063 25.1664 25.2437 25.2002 25.1152C25.2156 25.0553 25.2223 24.9677 25.1944 24.9018C25.0357 24.5278 23.9168 24.3448 23.7808 23.7384C23.7495 23.6008 23.7476 23.4842 23.7731 23.3366C23.8677 22.7869 24.4285 22.6725 24.8795 22.6725C25.2831 22.6725 25.5768 22.7556 25.7528 22.9213C25.884 23.0452 25.9506 23.215 25.9506 23.4261V23.643H25.1452V23.4519C25.1452 23.2881 25.0372 23.1932 24.8635 23.1932C24.7097 23.1932 24.6161 23.2576 24.5862 23.3843C24.58 23.4111 24.5737 23.4733 24.5901 23.5355C24.6764 23.8687 25.8734 24.0725 26.0046 24.6848C26.0205 24.7629 26.0441 24.9309 26.0075 25.1733ZM28.9913 24.9C28.9922 24.9563 28.9865 25.0689 28.9836 25.0979C28.9344 25.5932 28.5582 25.8451 27.8681 25.8451C27.1751 25.8451 26.7989 25.5937 26.7497 25.0979C26.7463 25.0689 26.7405 24.9563 26.742 24.9005V22.7492H27.5662V24.9686C27.5652 25.018 27.5681 25.0548 27.5734 25.0802C27.5835 25.1297 27.6356 25.29 27.8681 25.29C28.1 25.29 28.1521 25.1297 28.1632 25.0807C28.168 25.0548 28.1705 25.0158 28.1705 24.9681V22.7492H28.9918C28.9913 22.7492 28.9913 24.9005 28.9913 24.9ZM32.5422 25.7248H31.3954L30.6257 23.3439H30.6127L30.6556 25.7248H29.8565V22.7501H31.0515L31.7629 25.0371H31.7798L31.7378 22.7501H32.5427V25.7248H32.5422Z" fill="white"/>
</svg>
