<svg width="48" height="48" viewBox="0 0 48 48" fill="none" xmlns="http://www.w3.org/2000/svg">
<rect x="8" width="32" height="48" rx="4" fill="#055198"/>
<rect x="12" y="12" width="24" height="24" rx="6" fill="white"/>
<mask id="mask0_6445_31301" style="mask-type:alpha" maskUnits="userSpaceOnUse" x="12" y="12" width="24" height="24">
<rect x="12" y="12" width="24" height="24" rx="6" fill="white"/>
</mask>
<g mask="url(#mask0_6445_31301)">
<path d="M23.9998 23.9867C23.3234 23.1862 22.4969 22.5257 21.5669 22.0425V25.9415C22.4983 25.4559 23.325 24.7916 23.9998 23.9867Z" fill="#E43D30"/>
<path d="M11.9997 36H22.0741C23.306 35.2324 24.3092 34.1482 24.9792 32.8607C25.6492 31.5731 25.9612 30.1293 25.8829 28.6799C25.8017 27.3615 25.3946 26.0839 24.6983 24.9615C23.7382 26.0356 22.5378 26.8674 21.1949 27.3891L20.9293 27.4927L20.422 27.6653V20.2948L21.2003 20.5949C22.5424 21.1167 23.7426 21.9475 24.7036 23.0199C25.4 21.8975 25.807 20.6199 25.8882 19.3015C25.9673 17.8584 25.6591 16.4205 24.9954 15.1367C24.3318 13.8529 23.337 12.7699 22.1139 12H11.9971L11.9997 36ZM16.515 19.8539H17.7155V28.1195H16.515V19.8539Z" fill="#148FCA"/>
<path d="M31.3649 19.83L28.2334 23.9761L31.3171 28.1248L32.8151 28.1222L29.7367 23.9841L32.8788 19.8247L31.3649 19.83Z" fill="white"/>
<path d="M36.0002 12H24.0135C25.0269 12.9296 25.8227 14.0716 26.3438 15.3443C26.8649 16.617 27.0986 17.9891 27.0281 19.3625C26.9398 20.8752 26.4741 22.3417 25.6735 23.6282L25.4504 23.9867L25.6735 24.3453C26.4744 25.6306 26.9402 27.0963 27.0281 28.6082C27.0976 29.9896 26.8596 31.3691 26.3314 32.6473C25.8032 33.9256 24.9979 35.0707 23.9736 36H35.9922L36.0002 12ZM32.8129 28.1222H31.3123L28.2233 23.9788L31.3574 19.83H32.8687L29.7293 23.9894L32.8129 28.1222Z" fill="#055198"/>
</g>
</svg>
