<svg width="48" height="48" viewBox="0 0 48 48" fill="none" xmlns="http://www.w3.org/2000/svg">
<path fill-rule="evenodd" clip-rule="evenodd" d="M8 6.4C8 4.15979 8 3.03969 8.43597 2.18404C8.81947 1.43139 9.43139 0.819467 10.184 0.435974C11.0397 0 12.1598 0 14.4 0H33.6C35.8402 0 36.9603 0 37.816 0.435974C38.5686 0.819467 39.1805 1.43139 39.564 2.18404C40 3.03969 40 4.15979 40 6.4V41.6C40 43.8402 40 44.9603 39.564 45.816C39.1805 46.5686 38.5686 47.1805 37.816 47.564C36.9603 48 35.8402 48 33.6 48H14.4C12.1598 48 11.0397 48 10.184 47.564C9.43139 47.1805 8.81947 46.5686 8.43597 45.816C8 44.9603 8 43.8402 8 41.6V6.4Z" fill="#03B89F"/>
<path fill-rule="evenodd" clip-rule="evenodd" d="M34.6257 20.0079C33.7439 20.6038 32.8101 21.1188 31.8356 21.5468C28.833 22.7119 25.4845 23.0996 22.2902 23.5634C20.416 23.8274 18.5365 23.9278 16.6763 24.0456C15.9556 24.0226 15.2571 23.7909 14.6655 23.3788C14.0463 23.0344 13.5247 22.5385 13.1494 21.9376C12.9702 21.4195 12.8873 20.6379 13.3287 20.2225C13.7406 19.95 14.2555 19.8838 14.7229 20.0433C15.2573 20.034 15.791 20.0868 16.3133 20.2006C17.1616 20.3314 18.0162 20.4977 18.861 20.6182C23.7928 21.3164 29.0728 20.9853 33.845 19.2353C34.0561 19.1456 34.3102 19.0717 34.5011 19.0018C34.6258 18.9908 34.7495 19.0312 34.8437 19.1136C34.9378 19.196 34.9943 19.3133 34.9999 19.4383C34.9683 19.6752 34.8306 19.8848 34.6257 20.0079ZM23.4173 19.6681C22.4091 19.6763 21.5851 18.8658 21.5768 17.8576V17.8159C21.5757 17.4992 21.6785 17.1908 21.8694 16.938C22.0295 16.6338 22.2826 16.3887 22.5918 16.2385C22.971 16.0691 23.3836 15.9881 23.7986 16.0014C24.1715 16.0014 24.8657 16.0081 24.8415 16.5414C24.824 16.9349 25.0015 17.0953 25.1592 17.4247C25.2161 17.5625 25.2496 17.7088 25.2582 17.8576C25.2542 18.3418 25.058 18.8046 24.7127 19.1442C24.3675 19.4837 23.9015 19.6722 23.4173 19.6681ZM20.0449 26.2677C20.5516 25.3558 21.4076 24.6894 22.4159 24.4217C23.4242 24.1541 24.498 24.3083 25.3903 24.8489C26.1865 25.3216 26.7981 26.0511 27.1246 26.9176C27.261 27.1543 27.3488 27.4159 27.3827 27.687C27.5025 28.4732 27.4747 29.2749 27.3007 30.051C27.1963 30.5912 27.0544 31.1236 26.8759 31.6441C26.4655 33.0776 25.7052 34.3866 24.6634 35.4533C24.5123 35.665 24.2445 35.7588 23.9943 35.6877C23.9299 35.6638 23.8738 35.6216 23.833 35.5662C23.7434 35.4318 23.8155 35.2615 23.8841 35.1253C23.9116 34.9467 23.9514 34.7703 24.0033 34.5973C24.5636 32.8705 24.8371 31.0636 24.8131 29.2483C24.8022 28.838 24.7164 28.4331 24.5599 28.0536C24.386 27.6704 24.0406 27.3926 23.6291 27.3047C23.382 27.2606 23.128 27.327 22.934 27.4862C22.8332 27.4634 22.7373 27.5857 22.6562 27.6028C22.5484 27.7489 22.4512 27.9025 22.3653 28.0626C22.2046 28.5866 22.1911 29.1447 22.3264 29.6759C22.4447 30.1058 22.289 30.5644 21.9333 30.8334C21.6143 31.0219 21.226 31.0516 20.882 30.9141C20.5466 30.7825 20.269 30.5358 20.0991 30.2181C19.4784 29.2833 19.5667 27.9048 19.7953 26.8808C19.8607 26.6715 19.9427 26.5066 20.0426 26.27L20.0449 26.2677Z" fill="white"/>
</svg>
