<svg width="24" height="24" viewBox="0 0 24 24" fill="none" xmlns="http://www.w3.org/2000/svg">
<circle cx="12" cy="12" r="12" fill="#E60012"/>
<path d="M9.02134 19.3741C8.62256 19.3741 8.29669 19.0619 8.28074 18.6631C8.2739 18.4648 8.34227 18.2757 8.47671 18.1298C8.61116 17.984 8.79346 17.8997 8.99172 17.8906C9.39962 17.8701 9.74827 18.1914 9.76422 18.6016C9.78017 19.0095 9.46114 19.3558 9.05324 19.3741C9.04185 19.3741 9.03273 19.3741 9.02134 19.3741Z" fill="white"/>
<path d="M11.7242 5.67032C11.3163 5.67032 10.9904 5.79793 10.7261 6.05999C10.1564 6.62512 9.85789 7.79413 9.88523 9.34825C9.91714 11.2647 10.3729 15.0247 11.8814 16.9616C12.1253 17.2738 12.3896 17.5245 12.6631 17.7068C12.9274 17.8822 13.2259 18.0532 13.6908 18.0532C13.8161 18.0532 13.9528 18.0395 14.0941 18.0144C14.9578 17.807 16.0425 16.8454 16.8469 15.5647C16.9699 15.3688 17.1796 15.2525 17.412 15.2525C17.5373 15.2525 17.6581 15.2867 17.7652 15.3551C17.9156 15.4508 18.0204 15.5966 18.0592 15.7698C18.0979 15.943 18.0683 16.123 17.9726 16.2712C16.954 17.8914 15.6095 19.0285 14.3767 19.3133C14.3721 19.3156 14.3585 19.3179 14.3471 19.3201C14.1215 19.3612 13.8981 19.3817 13.6862 19.3817C12.8909 19.3817 12.3281 19.0786 11.9293 18.8143C11.5351 18.5522 11.1636 18.2036 10.8309 17.7751C8.70939 15.0497 8.56355 9.93845 8.55443 9.36648C8.53164 8.00606 8.72762 6.16481 9.78953 5.10974C10.3068 4.59474 10.9563 4.33496 11.7196 4.33496H11.8427C12.6061 4.33496 13.2578 4.59474 13.7751 5.10974C14.837 6.16481 15.033 8.00606 15.0102 9.36648C14.9851 10.7839 14.7253 13.5275 13.2578 15.9886C13.137 16.1891 12.9183 16.3122 12.6858 16.3122C12.5651 16.3122 12.4489 16.2803 12.344 16.2187C12.0296 16.0319 11.927 15.6217 12.1139 15.305C13.1416 13.5845 13.6384 11.6885 13.6794 9.3437C13.7067 7.7873 13.4059 6.62057 12.8385 6.05543C12.5742 5.79337 12.2483 5.66576 11.8427 5.66576H11.7242V5.67032Z" fill="white"/>
</svg>
