<svg width="48" height="48" viewBox="0 0 48 48" fill="none" xmlns="http://www.w3.org/2000/svg">
<rect x="8" width="32" height="48" rx="4" fill="#006ABD"/>
<mask id="mask0_6445_31378" style="mask-type:alpha" maskUnits="userSpaceOnUse" x="8" y="0" width="32" height="48">
<rect x="8" width="32" height="48" rx="4" fill="white"/>
</mask>
<g mask="url(#mask0_6445_31378)">
<rect x="10.0005" y="10" width="27.9981" height="27.9999" fill="#006ABD"/>
<path d="M24.0506 14.8265C17.7379 14.7868 12.0954 18.757 10.0005 24.7125V33.8174C10.1251 34.1793 10.2525 34.5405 10.4058 34.8926C12.6533 32.4811 17.9149 30.7801 24.0506 30.7801C30.1864 30.7801 35.4466 32.4811 37.6997 34.8926C37.8138 34.6336 37.9013 34.3655 37.9986 34.1009V24.4262C35.8186 18.6207 30.2515 14.7892 24.0506 14.8265Z" fill="#006CBE"/>
<path d="M24.0478 14.9462C17.7245 14.9007 12.0749 18.8891 10.0005 24.863V33.7096C10.1335 34.1023 10.2756 34.4929 10.4429 34.8737C12.6827 32.4811 17.9324 30.7941 24.0485 30.7941C30.1647 30.7941 35.4158 32.4818 37.6626 34.8737C37.7907 34.5832 37.8922 34.2843 37.9993 33.9868V24.5907C35.8415 18.7602 30.2644 14.9048 24.0478 14.9462Z" fill="#006DBF"/>
<path d="M24.0471 15.0761C17.4676 15.0761 11.8932 19.2726 10.0005 25.0217V33.6169C10.1405 34.0369 10.2938 34.4506 10.473 34.8559C12.7086 32.4836 17.9429 30.8106 24.0464 30.8106C30.15 30.8106 35.3857 32.4836 37.6255 34.8559C37.7676 34.536 37.8824 34.2077 37.9986 33.8794V24.7543C35.8612 18.9034 30.2757 15.0287 24.0471 15.0761Z" fill="#006FC0"/>
<path d="M24.0443 15.1973C17.441 15.1973 11.8554 19.4203 10.0005 25.1806V33.5134C10.1465 33.9631 10.3159 34.405 10.508 34.8371C12.7345 32.4851 17.9569 30.8261 24.0443 30.8261C30.1318 30.8261 35.3535 32.4851 37.5884 34.8371C37.7445 34.4871 37.8747 34.1287 37.9993 33.7682V24.916C36.0573 19.2929 30.5455 15.1973 24.0443 15.1973Z" fill="#0071C2"/>
<path d="M24.0443 15.3228C17.4116 15.3228 11.8106 19.5871 10.0005 25.3677V33.3862C10.1528 33.8743 10.3327 34.3534 10.5395 34.8212C12.7639 32.4881 17.9716 30.8424 24.0436 30.8424C30.1157 30.8424 35.3234 32.4874 37.5527 34.8212C37.7221 34.4439 37.8677 34.0575 37.9986 33.6662V25.0737C36.0916 19.4429 30.5648 15.3228 24.0443 15.3228Z" fill="#0073C3"/>
<path d="M24.0443 15.4468C17.3843 15.4468 11.7658 19.7518 10.0005 25.5505V33.2526C10.1586 33.7806 10.3496 34.2982 10.5723 34.8024C12.787 32.4889 17.9848 30.8565 24.0408 30.8565C30.0968 30.8565 35.2912 32.4889 37.5149 34.8024C37.6975 34.3958 37.8592 33.9802 37.9993 33.5571V25.2362C36.1308 19.595 30.5851 15.4468 24.0443 15.4468Z" fill="#0075C4"/>
<path d="M24.0404 15.5679C17.3475 15.5679 11.7177 19.9156 10.0015 25.7311V33.121C10.1648 33.6875 10.3667 34.2423 10.6055 34.7814C12.8188 32.4896 17.9998 30.8719 24.0397 30.8719C30.0796 30.8719 35.2607 32.4896 37.4788 34.7842C37.6781 34.3439 37.8519 33.8926 37.9996 33.4325V25.4175C36.1755 19.7553 30.6137 15.5679 24.0404 15.5679Z" fill="#0076C6"/>
<path d="M24.0355 15.6934C17.3111 15.6934 11.6681 20.0774 10.0015 25.9112V32.9959C10.1694 33.6005 10.3814 34.1919 10.636 34.7655C12.845 32.4905 18.0121 30.8875 24.038 30.8875C30.0576 30.8875 35.2309 32.4919 37.4421 34.7655C37.6581 34.2862 37.844 33.7938 37.9985 33.2913V25.6137C36.2248 19.9283 30.6469 15.6934 24.0355 15.6934Z" fill="#0078C7"/>
<path d="M24.0366 15.8198C17.2793 15.8198 11.6146 20.2501 10.0005 26.1056V32.8605C10.1742 33.5066 10.3989 34.1379 10.6724 34.7484C12.8731 32.493 18.0275 30.9034 24.0359 30.9034C30.0443 30.9034 35.2002 32.493 37.405 34.7484C37.6399 34.2288 37.8386 33.6937 38 33.1468V25.813C36.2778 20.1017 30.682 15.8198 24.0366 15.8198Z" fill="#007AC8"/>
<path d="M24.0341 15.9438C17.2445 15.9438 11.5637 20.4133 10 26.2849V32.734C10.1774 33.4178 10.413 34.0853 10.7042 34.729C12.8992 32.4925 18.0397 30.9175 24.0327 30.9175C30.0257 30.9175 35.1661 32.4925 37.3668 34.729C37.6205 34.1686 37.8318 33.5899 37.9988 32.9979V26.0147C36.3347 20.2761 30.7186 15.9438 24.0341 15.9438Z" fill="#007CC9"/>
<path d="M24.0341 16.0713C17.2186 16.0713 11.5154 20.5744 10 26.455V32.6213C10.1814 33.3392 10.4274 34.0393 10.735 34.7129C12.9279 32.4967 18.0551 30.935 24.0341 30.935C30.0131 30.935 35.1388 32.4967 37.3332 34.715C37.605 34.1185 37.828 33.5009 38.0002 32.8684V26.2051C36.3872 20.447 30.7519 16.0713 24.0341 16.0713Z" fill="#007ECB"/>
<path d="M24.0296 16.1924C17.1813 16.1924 11.4585 20.7403 10.0005 26.6391V32.4883C10.1852 33.2465 10.443 33.985 10.7704 34.6933C12.955 32.4981 18.0688 30.9483 24.0303 30.9483C29.9918 30.9483 35.1057 32.4967 37.2924 34.6933C37.5848 34.0564 37.8211 33.3952 37.9986 32.7172V26.4039C36.4472 20.6192 30.787 16.1924 24.0296 16.1924Z" fill="#0080CC"/>
<path d="M24.031 16.3164C17.1456 16.3164 11.3969 20.9098 10.0005 26.8297V32.3533C10.1879 33.1532 10.4577 33.9316 10.8054 34.6759C12.9816 32.4996 18.0821 30.9659 24.0275 30.9659C29.9729 30.9659 35.0742 32.4989 37.2567 34.6759C37.5681 34.0055 37.816 33.3073 37.9972 32.5906V26.5861C36.5018 20.7859 30.8209 16.3164 24.031 16.3164Z" fill="#0082CD"/>
<path d="M24.0268 16.4419C17.1113 16.4419 11.3409 21.0738 10.0005 27.0041V32.2331C10.1913 33.0696 10.4729 33.8827 10.8404 34.6579C13.0103 32.5012 18.0975 30.9829 24.0268 30.9829C29.9561 30.9829 35.0441 32.5026 37.221 34.66C37.5537 33.9504 37.8141 33.2091 37.9983 32.4473V26.7843C36.5648 20.9604 30.8563 16.4419 24.0268 16.4419Z" fill="#0084CE"/>
<path d="M24.0268 16.5679C17.0504 16.5679 11.2506 21.2837 10.0005 27.2596V32.0469C10.1874 32.9431 10.4801 33.814 10.8726 34.6411C13.0376 32.5033 18.1101 30.9969 24.0247 30.9969C29.9337 30.9969 35.014 32.5019 37.1839 34.6411C37.5378 33.8993 37.811 33.1215 37.9986 32.3213V26.9663C36.6228 21.1262 30.8906 16.5679 24.0268 16.5679Z" fill="#0086CF"/>
<path d="M24.0233 16.6899C16.9888 16.6899 11.1589 21.4849 10.0005 27.5049V31.8526C10.1818 32.811 10.4855 33.7422 10.9041 34.6232C13.0649 32.5043 18.1255 31.0119 24.0233 31.0119C29.9212 31.0119 34.9818 32.5043 37.1454 34.6232C37.5234 33.838 37.8097 33.012 37.9986 32.1613V27.1913C36.7005 21.3183 30.935 16.6899 24.0233 16.6899Z" fill="#0088D1"/>
<path d="M24.024 16.813C16.9258 16.813 11.0553 21.6997 10.0005 27.7679V31.6424C10.1742 32.6688 10.4904 33.6659 10.9398 34.6048C13.0922 32.5048 18.1388 31.0271 24.0212 31.0271C29.9037 31.0271 34.9503 32.5062 37.1104 34.6048C37.5168 33.7599 37.8153 32.8671 37.9986 31.9476V27.4599C36.8006 21.5331 31.0015 16.813 24.024 16.813Z" fill="#008AD2"/>
<path d="M24.0205 16.9385C16.8593 16.9385 10.9538 21.9085 10.0005 28.0194V31.4494C10.166 32.5372 10.493 33.5942 10.9706 34.5854C13.1195 32.5057 18.1528 31.0413 24.0198 31.0413C29.8806 31.0413 34.9209 32.5057 37.074 34.5854C37.5122 33.677 37.8238 32.7127 38 31.7196V27.7394C36.9105 21.7566 31.0729 16.9385 24.0205 16.9385Z" fill="#008DD3"/>
<path d="M24.0177 17.0625C16.7956 17.0625 10.8502 22.1137 10.0005 28.2624V31.2584C10.1567 32.4089 10.496 33.5269 11.0056 34.5701C13.1475 32.5093 18.1668 31.0589 24.0177 31.0589C29.8624 31.0589 34.8894 32.5093 37.0369 34.5701C37.5076 33.6024 37.8317 32.57 37.9986 31.5069V28.0125C37.0225 21.9775 31.1415 17.0625 24.0177 17.0625Z" fill="#008FD4"/>
<path d="M24.017 17.187C16.7312 17.187 10.7375 22.3257 10.0005 28.5144V31.0616C10.145 32.2755 10.4961 33.4557 11.0385 34.5511C13.1734 32.5099 18.1808 31.0735 24.0156 31.0735C29.8442 31.0735 34.8572 32.5085 36.997 34.5511C37.5035 33.5235 37.8417 32.4212 37.9986 31.2863V28.2813C37.1394 22.1976 31.2108 17.187 24.017 17.187Z" fill="#0091D5"/>
<path d="M24.0156 17.312C16.5289 17.312 10.4268 22.7398 10.0005 29.1175V30.53C10.0893 31.9222 10.4533 33.2828 11.0714 34.5333C13.2014 32.5131 18.1948 31.0893 24.0135 31.0893C29.8232 31.0893 34.8278 32.5131 36.9627 34.5333C37.5031 33.4521 37.8535 32.2859 37.9986 31.0858V28.5424C37.2563 22.4143 31.2773 17.312 24.0156 17.312Z" fill="#0093D7"/>
<path d="M24.0121 17.4351C16.3127 17.4351 10.0684 23.175 10.0005 29.7445V29.958C10.0161 31.5414 10.3931 33.1003 11.1029 34.5157C13.2294 32.5144 18.2074 31.1053 24.0121 31.1053C29.8092 31.1053 34.7963 32.5144 36.9242 34.5157C37.5504 33.2615 37.9157 31.8933 37.9983 30.4938V29.1989C37.6007 22.8593 31.4978 17.4351 24.0121 17.4351Z" fill="#0096D8"/>
<path d="M24.0101 31.1203C29.7903 31.1203 34.7648 32.5161 36.8892 34.497C37.6165 33.0655 37.9965 31.4828 37.9986 29.8771C37.9986 23.3251 31.7341 17.5571 24.0129 17.5571C16.2917 17.5571 10.0327 23.3251 10.0327 29.8771C10.034 31.4826 10.4131 33.0652 11.1393 34.497C13.2567 32.5147 18.2229 31.1203 24.0101 31.1203Z" fill="#0098D9"/>
<path d="M24.0079 31.1357C29.772 31.1357 34.7332 32.5168 36.8492 34.4796C37.5742 33.0643 37.9537 31.4974 37.9565 29.9072C37.9565 23.4189 31.7087 17.6846 24.0086 17.6846C16.3084 17.6846 10.0669 23.4203 10.0669 29.9072C10.0683 31.4971 10.4464 33.064 11.17 34.4796C13.2832 32.5168 18.236 31.1357 24.0079 31.1357Z" fill="#009ADA"/>
<path d="M24.0072 31.1517C29.7552 31.1517 34.7032 32.5188 36.8163 34.462C37.5387 33.0625 37.9171 31.5108 37.9201 29.9358C37.9201 23.512 31.6906 17.8091 24.01 17.8091C16.3294 17.8091 10.0991 23.5141 10.0991 29.9344C10.1013 31.5091 10.4785 33.0607 11.1994 34.4606C13.3105 32.5188 18.2508 31.1517 24.0072 31.1517Z" fill="#009DDB"/>
<path d="M24.0045 31.1665C29.7357 31.1665 34.671 32.5196 36.7751 34.4432C37.4951 33.0595 37.8727 31.5232 37.8761 29.9632C37.8761 23.6038 31.6633 17.9331 24.0045 17.9331C16.3456 17.9331 10.1377 23.6031 10.1377 29.9632C10.1399 31.5229 10.5162 33.0592 11.2352 34.4432C13.3386 32.5196 18.2648 31.1665 24.0045 31.1665Z" fill="#009FDD"/>
<path d="M24.0025 31.1832C29.7183 31.1832 34.6418 32.5223 36.7416 34.4263C37.4597 33.058 37.8365 31.5364 37.8399 29.9911C37.8399 23.6967 31.6453 18.0562 24.0053 18.0562C16.3653 18.0562 10.1777 23.6946 10.1777 29.9911C10.1807 31.535 10.5557 33.0554 11.2711 34.4235C13.366 32.5223 18.2783 31.1832 24.0025 31.1832Z" fill="#00A2DE"/>
<path d="M24.002 31.1976C29.7017 31.1976 34.6104 32.5227 36.7033 34.4078C37.4187 33.0547 37.7944 31.548 37.798 30.0174C37.798 23.7874 31.6203 18.1812 24.002 18.1812C16.3837 18.1812 10.2129 23.7874 10.2129 30.0174C10.2155 31.5476 10.5897 33.0542 11.3034 34.4078C13.3935 32.5234 18.2931 31.1976 24.002 31.1976Z" fill="#00A4DF"/>
<path d="M23.9996 31.2126C29.6832 31.2126 34.5787 32.5244 36.6687 34.3892C37.382 33.052 37.7571 31.5606 37.7614 30.045C37.7614 23.8788 31.6018 18.3047 24.0031 18.3047C16.4044 18.3047 10.249 23.8795 10.249 30.045C10.2519 31.5602 10.6256 33.0517 11.3375 34.3892C13.4233 32.5258 18.3062 31.2126 23.9996 31.2126Z" fill="#00A7E0"/>
<path d="M23.997 31.2294C29.6666 31.2294 34.5473 32.5272 36.6276 34.3717C37.3387 33.0504 37.7131 31.5742 37.7174 30.0737C37.7174 23.9718 31.5732 18.4307 23.9984 18.4307C16.4235 18.4307 10.2842 23.9718 10.2842 30.0737C10.2869 31.5738 10.6595 33.0501 11.3691 34.3717C13.448 32.5272 18.3203 31.2294 23.997 31.2294Z" fill="#00A9E1"/>
<path d="M23.9957 31.2455C29.6471 31.2455 34.5167 32.5293 36.5949 34.3549C37.3019 33.0485 37.674 31.5872 37.6777 30.1017C37.6777 24.0642 31.551 18.5518 23.9957 18.5518C16.4404 18.5518 10.3193 24.0614 10.3193 30.1017C10.3228 31.5869 10.6946 33.048 11.4015 34.3542C13.4754 32.5286 18.3338 31.2455 23.9957 31.2455Z" fill="#10ACE3"/>
<path d="M23.9959 31.2798C29.6396 31.2798 34.5029 32.5559 36.5747 34.3689C37.2818 33.0728 37.6546 31.6209 37.6596 30.1444C37.6596 24.1461 31.5407 18.668 23.9966 18.668C16.4525 18.668 10.3384 24.1454 10.3384 30.1444C10.342 31.6205 10.7135 33.0724 11.4191 34.3689C13.4896 32.5559 18.3416 31.2798 23.9959 31.2798Z" fill="#23AEE4"/>
<path d="M23.9953 31.3153C29.6327 31.3153 34.4876 32.583 36.5567 34.3848C37.2633 33.0974 37.6363 31.6535 37.6416 30.1848C37.6416 24.2258 31.5303 18.7798 23.9967 18.7798C16.4631 18.7798 10.3574 24.2265 10.3574 30.1848C10.3604 31.653 10.7312 33.0969 11.436 34.3848C13.5044 32.5823 18.3509 31.3153 23.9953 31.3153Z" fill="#31B1E5"/>
<path d="M23.9964 31.351C29.6254 31.351 34.4747 32.611 36.5409 34.3995C37.2449 33.1223 37.6168 31.6887 37.6223 30.2303C37.6223 24.3112 31.5195 18.896 23.9971 18.896C16.4747 18.896 10.376 24.3119 10.376 30.2303C10.3794 31.6885 10.7499 33.1223 11.4532 34.3995C13.5174 32.6075 18.3582 31.351 23.9964 31.351Z" fill="#3CB4E6"/>
<path d="M23.9961 31.3874C29.6188 31.3874 34.4604 32.6376 36.5252 34.4156C37.228 33.1481 37.5995 31.7237 37.6053 30.2744C37.6053 24.3944 31.5108 19.0107 23.9982 19.0107C16.4856 19.0107 10.396 24.3951 10.396 30.2744C10.3997 31.7233 10.7695 33.1478 11.4711 34.4156C13.5325 32.6365 18.3657 31.3874 23.9961 31.3874Z" fill="#46B6E7"/>
<path d="M23.9959 31.4221C29.6102 31.4221 34.4455 32.6639 36.5061 34.4321C37.208 33.1742 37.5791 31.7587 37.5848 30.3182C37.5848 24.4775 31.4952 19.126 23.9966 19.126C16.498 19.126 10.4126 24.4782 10.4126 30.3182C10.4166 31.7583 10.786 33.1738 11.4863 34.4321C13.5456 32.6646 18.3739 31.4221 23.9959 31.4221Z" fill="#4FB9E8"/>
<path d="M23.9961 31.4576C29.6041 31.4576 34.4317 32.691 36.4903 34.4452C37.1902 33.197 37.5609 31.7911 37.5675 30.36C37.5675 24.5578 31.4891 19.2378 23.9975 19.2378C16.5059 19.2378 10.4331 24.5578 10.4331 30.36C10.4367 31.7908 10.8055 33.197 11.5047 34.4452C13.5605 32.69 18.3825 31.4576 23.9961 31.4576Z" fill="#58BCE9"/>
<path d="M23.9959 31.494C29.5955 31.494 34.4168 32.719 36.4719 34.462C37.171 33.2226 37.5411 31.8247 37.5466 30.4016C37.5466 24.6386 31.4766 19.3501 23.9962 19.3501C16.5158 19.3501 10.4497 24.6403 10.4497 30.4016C10.4534 31.8242 10.8219 33.2221 11.5199 34.4616C13.5743 32.719 18.3893 31.494 23.9959 31.494Z" fill="#60BFEA"/>
<path d="M23.9949 31.5291C29.5882 31.5291 34.4018 32.7457 36.454 34.4768C37.151 33.2476 37.5208 31.86 37.5277 30.4469C37.5277 24.7231 31.4654 19.4668 23.9956 19.4668C16.5257 19.4668 10.4683 24.7245 10.4683 30.4469C10.4723 31.8597 10.8402 33.2476 11.5364 34.4768C13.5883 32.7478 18.3977 31.5291 23.9949 31.5291Z" fill="#68C1EB"/>
<path d="M23.9969 31.5662C29.5825 31.5662 34.3884 32.7751 36.4378 34.4936C37.1337 33.2739 37.503 31.8952 37.5102 30.491C37.5102 24.807 31.4556 19.5815 23.9969 19.5815C16.5382 19.5815 10.4878 24.8091 10.4878 30.491C10.4921 31.8949 10.8596 33.2738 11.5545 34.4936C13.6033 32.7737 18.4046 31.5662 23.9969 31.5662Z" fill="#70C4EC"/>
<path d="M23.9997 31.6C29.5776 31.6 34.3772 32.7991 36.4238 34.505C37.1181 33.2952 37.4869 31.926 37.4941 30.5311C37.4941 24.8864 31.4486 19.6924 23.9997 19.6924C16.5508 19.6924 10.5088 24.8878 10.5088 30.5311C10.5134 31.9256 10.8802 33.295 11.5734 34.505C13.6166 32.7991 18.4151 31.6 23.9997 31.6Z" fill="#78C7ED"/>
<path d="M23.9947 31.6357C29.5656 31.6357 34.3582 32.8257 36.4006 34.5225C37.094 33.3223 37.4626 31.9621 37.4702 30.5759C37.4702 24.9704 31.4331 19.8086 23.9961 19.8086C16.5591 19.8086 10.522 24.9732 10.522 30.5759C10.5267 31.9616 10.8932 33.322 11.5852 34.5225C13.6305 32.8271 18.4213 31.6357 23.9947 31.6357Z" fill="#80CAEE"/>
<path d="M23.9961 31.6717C29.5608 31.6717 34.3449 32.8547 36.3853 34.5375C37.0778 33.3467 37.4461 31.9951 37.4534 30.6175C37.4534 25.0526 31.4233 19.9209 23.9961 19.9209C16.5689 19.9209 10.542 25.0519 10.542 30.6168C10.5466 31.994 10.9127 33.3457 11.6038 34.5368C13.6442 32.8547 18.4291 31.6717 23.9961 31.6717Z" fill="#87CDEF"/>
<path d="M23.9976 31.7069C29.5539 31.7069 34.3317 32.8808 36.3693 34.5524C37.0597 33.3715 37.4273 32.0297 37.4353 30.6618C37.4353 25.1318 31.4157 20.0352 23.9962 20.0352C16.5767 20.0352 10.5571 25.1367 10.5571 30.6618C10.5617 32.0291 10.9265 33.371 11.6148 34.5524C13.6586 32.8808 18.4372 31.7069 23.9976 31.7069Z" fill="#8ED0F0"/>
<path d="M23.9965 31.7403C29.545 31.7403 34.3173 32.9065 36.3507 34.5655C37.0395 33.3942 37.4067 32.0617 37.4153 30.7029C37.4153 25.2142 31.402 20.147 23.9958 20.147C16.5896 20.147 10.5791 25.2177 10.5791 30.7029C10.5841 32.0614 10.9493 33.3942 11.6374 34.5655C13.6736 32.9093 18.4452 31.7403 23.9965 31.7403Z" fill="#95D2F1"/>
<path d="M23.9969 31.7767C29.5377 31.7767 34.3023 32.9352 36.3335 34.5823C37.0213 33.4208 37.3884 32.0976 37.3975 30.7477C37.3975 25.299 31.3919 20.2632 23.9969 20.2632C16.6019 20.2632 10.5977 25.3032 10.5977 30.7477C10.6041 32.0971 10.9698 33.4205 11.6574 34.5816C13.6872 32.9352 18.4525 31.7767 23.9969 31.7767Z" fill="#9CD5F2"/>
<path d="M23.999 31.8138C29.5328 31.8138 34.2883 32.9632 36.3181 34.5991C37.0045 33.4468 37.371 32.1323 37.3799 30.7911C37.3799 25.3815 31.3828 20.3779 23.9983 20.3779C16.6137 20.3779 10.6187 25.3829 10.6187 30.7911C10.6238 32.1318 10.988 33.4468 11.6735 34.5991C13.7019 32.9632 18.4609 31.8138 23.999 31.8138Z" fill="#A3D8F3"/>
<path d="M23.9967 31.8496C29.5263 31.8496 34.2734 32.9906 36.2997 34.6146C36.9849 33.4722 37.3509 32.1668 37.3595 30.8346C37.3595 25.4643 31.3707 20.4922 23.9967 20.4922C16.6227 20.4922 10.6353 25.4671 10.6353 30.8346C10.6395 32.1661 11.0021 33.4718 11.6852 34.6146C13.715 32.9906 18.4684 31.8496 23.9967 31.8496Z" fill="#AADBF4"/>
<path d="M23.9975 31.885C29.5173 31.885 34.2602 33.0183 36.2838 34.6297C36.9668 33.497 37.3321 32.2011 37.3414 30.8784C37.3414 25.5472 31.3617 20.606 23.9975 20.606C16.6333 20.606 10.6543 25.5507 10.6543 30.8784C10.6591 32.2007 11.0219 33.497 11.7042 34.6297C13.7281 33.0176 18.477 31.885 23.9975 31.885Z" fill="#B0DEF5"/>
<path d="M23.9974 31.9204C29.5088 31.9204 34.2454 33.0446 36.2654 34.6448C36.9471 33.5217 37.3123 32.2352 37.3224 30.9215C37.3224 25.6288 31.3497 20.7197 23.9974 20.7197C16.6451 20.7197 10.6724 25.6323 10.6724 30.9215C10.6782 32.2348 11.0411 33.5219 11.7223 34.6448C13.7431 33.046 18.4845 31.9204 23.9974 31.9204Z" fill="#B7E0F6"/>
<path d="M23.9984 31.9555C29.5035 31.9555 34.2317 33.0755 36.2475 34.6603C36.9279 33.5468 37.2925 32.2692 37.3024 30.9643C37.3024 25.7144 31.3388 20.834 23.9963 20.834C16.6538 20.834 10.6895 25.7158 10.6895 30.9643C10.6958 32.269 11.0589 33.5471 11.7394 34.6603C13.758 33.072 18.4946 31.9555 23.9984 31.9555Z" fill="#BDE3F7"/>
<path d="M23.9974 31.9906C29.4949 31.9906 34.2168 33.098 36.2312 34.6737C36.9103 33.5703 37.2746 32.3021 37.2846 31.0064C37.2846 25.7915 31.3288 20.9468 23.9974 20.9468C16.6661 20.9468 10.7109 25.7971 10.7109 31.0064C10.7165 32.3017 11.0785 33.5705 11.7574 34.6737C13.7718 33.098 18.5007 31.9906 23.9974 31.9906Z" fill="#C3E6F8"/>
<path d="M23.9979 32.027C29.4883 32.027 34.2025 33.126 36.2149 34.6905C36.8917 33.5962 37.2549 32.3371 37.2648 31.0505C37.2648 25.8761 31.3152 21.0615 23.9958 21.0615C16.6764 21.0615 10.7261 25.8803 10.7261 31.0505C10.732 32.3369 11.0934 33.5966 11.7704 34.6905C13.7856 33.127 18.5082 32.027 23.9979 32.027Z" fill="#CAE8F9"/>
<path d="M23.9974 32.0628C29.4801 32.0628 34.188 33.1534 36.1969 34.7053C36.873 33.6211 37.2363 32.3711 37.2468 31.0933C37.2468 25.9582 31.307 21.1758 23.9967 21.1758C16.6759 21.1758 10.7466 25.9631 10.7466 31.0933C10.7524 32.3707 11.1132 33.6213 11.7888 34.7053C13.7998 33.1527 18.5161 32.0628 23.9974 32.0628Z" fill="#D0EBF9"/>
<path d="M23.9986 32.0972C29.4743 32.0972 34.1752 33.1794 36.1812 34.7194C36.8562 33.645 37.2196 32.4042 37.2312 31.1354C37.2312 26.0402 31.2998 21.2886 24.0021 21.2886C16.6911 21.2886 10.7729 26.0444 10.7729 31.1354C10.7793 32.4037 11.1397 33.645 11.8138 34.7194C13.8142 33.1801 18.5249 32.0972 23.9986 32.0972Z" fill="#D6EEFA"/>
<path d="M24.001 32.1336C29.4697 32.1336 34.1629 33.2074 36.1661 34.7362C36.8403 33.6717 37.204 32.4401 37.2161 31.1802C37.2161 26.1227 31.2931 21.4033 24.0031 21.4033C16.7018 21.4033 10.79 26.1283 10.79 31.1802C10.7963 32.4394 11.1562 33.6716 11.8288 34.7362C13.8278 33.2081 18.5322 32.1336 24.001 32.1336Z" fill="#DCF0FB"/>
<path d="M23.9968 32.1687C29.4565 32.1687 34.1462 33.2341 36.1445 34.751C36.8163 33.696 37.1789 32.4737 37.191 31.223C37.191 26.2062 31.2764 21.5176 23.9968 21.5176C16.7054 21.5176 10.8027 26.2076 10.8027 31.223C10.8095 32.4732 11.1691 33.6961 11.8401 34.751C13.8419 33.2348 18.5372 32.1687 23.9968 32.1687Z" fill="#E2F3FC"/>
<path d="M23.9986 32.2058C29.4519 32.2058 34.1311 33.2628 36.1295 34.7678C36.7991 33.7223 37.1611 32.5094 37.1738 31.2678C37.1738 26.2902 31.2662 21.6338 23.9986 21.6338C16.7191 21.6338 10.8213 26.2951 10.8213 31.2678C10.8282 32.5091 11.1875 33.7228 11.8572 34.7678C13.8563 33.2628 18.5481 32.2058 23.9986 32.2058Z" fill="#E8F5FD"/>
<path d="M23.999 32.2395C29.4447 32.2395 34.1176 33.2895 36.1124 34.7819C36.7808 33.7459 37.1421 32.5419 37.1547 31.3092C37.1547 26.37 31.2555 21.7451 23.9955 21.7451C16.7237 21.7451 10.8364 26.3756 10.8364 31.3092C10.843 32.5416 11.2017 33.7465 11.8703 34.7819C13.8707 33.2888 18.5562 32.2395 23.999 32.2395Z" fill="#EEF8FD"/>
<path d="M23.9986 32.2753C29.4379 32.2753 34.1031 33.3155 36.0945 34.7952C36.7621 33.7694 37.1234 32.5745 37.136 31.3506C37.136 26.4506 31.2452 21.8579 23.9986 21.8579C16.7366 21.8579 10.8584 26.4569 10.8584 31.3506C10.8654 32.574 11.2237 33.7697 11.8908 34.7952C13.8843 33.3155 18.5642 32.2753 23.9986 32.2753Z" fill="#F4FAFE"/>
<path d="M23.9988 32.311C29.4304 32.311 34.0886 33.3435 36.0778 34.8121C36.7433 33.7957 37.104 32.6101 37.1173 31.3954C37.1173 26.5353 31.2377 21.9741 23.9988 21.9741C16.7472 21.9741 10.8774 26.5423 10.8774 31.3954C10.8844 32.6098 11.2422 33.7963 11.9078 34.8121C13.8991 33.3435 18.572 32.311 23.9988 32.311Z" fill="#FAFDFE"/>
<path d="M23.9984 32.3475C29.4231 32.3475 34.0777 33.3709 36.0607 34.8283C36.7245 33.8214 37.0849 32.6449 37.0987 31.4389C37.0987 26.6181 31.224 22.0884 23.9984 22.0884C16.756 22.0884 10.896 26.6244 10.896 31.4389C10.903 32.6445 11.2602 33.8221 11.9242 34.8283C13.9121 33.3709 18.5794 32.3475 23.9984 32.3475Z" fill="white"/>
<path d="M37.9981 30.095C28.9618 26.767 19.0353 26.7685 10 30.0992V38.0008H37.9981V30.095Z" fill="#006ABD"/>
</g>
</svg>
