<svg width="48" height="48" viewBox="0 0 48 48" fill="none" xmlns="http://www.w3.org/2000/svg">
<rect x="8" width="32" height="48" rx="4" fill="#0046FF"/>
<path d="M24 10C16.267 10 10 16.267 10 24C10 31.733 16.267 38 24 38C31.733 38 38 31.733 38 24C38 16.267 31.7304 10 24 10ZM24.2937 35.4345C22.6198 35.671 19.8931 35.2447 18.0449 34.0776C16.4281 33.0561 15.4612 31.7772 14.8374 30.4801C14.2005 29.1545 13.8964 27.5455 14.5774 27.6261C14.8971 27.6625 15.1701 28.2681 15.7861 29.0531C16.2072 29.5912 16.5945 30.0434 16.8856 30.1058C17.0156 30.1344 17.1248 30.0746 17.2183 29.8979C17.3925 29.5652 17.6264 28.9335 18.0475 28.4215C18.388 28.029 18.7961 27.847 19.0327 28.8036C19.147 29.2818 19.238 29.7705 19.2926 30.1994C19.368 30.805 19.407 31.1664 19.6175 31.2703C19.8177 31.3691 20.1608 31.2417 20.7118 31.0364C21.1069 30.8882 21.6164 30.7011 22.2584 30.5165C22.8511 30.3476 23.2254 30.4359 22.8459 31.3535C22.6665 31.7876 22.4846 32.1515 21.8452 33.0743C21.7334 33.2354 21.7542 33.3966 21.8945 33.5369C22.1077 33.7501 22.5938 34.0074 23.1318 34.2414C23.5581 34.4259 24.0676 34.5871 24.4055 34.6833C24.9332 34.834 24.8292 35.3669 24.2989 35.4397L24.2937 35.4345ZM31.4783 32.4244C30.9558 33.2718 29.8641 34.1894 28.5384 34.8002C28.3383 34.8912 28.1225 34.8626 28.068 34.6988C28.0212 34.5559 28.1329 34.3947 28.2655 34.2388C29.9915 31.9981 28.71 29.9473 25.9235 28.3539C23.8648 27.1764 22.5548 26.5006 21.0368 25.6064C16.5867 22.9863 15.7263 20.7014 15.5522 19.3524C15.1129 15.9395 17.9358 13.3843 20.8366 12.7683C20.925 12.7501 21.1563 12.7137 21.2317 12.9061C21.3071 13.0984 21.1355 13.2388 21.0342 13.3012C19.7371 14.016 18.4608 15.5314 18.6012 17.2157C18.6792 18.1567 19.0821 19.511 21.6294 21.3253C23.1656 22.4222 25.0501 23.3216 28.8452 25.596C32.8559 28.0004 32.3984 30.9324 31.4809 32.427L31.4783 32.4244ZM32.1047 19.6201C31.1898 20.7404 30.2722 20.3245 29.5678 18.7468C29.1285 17.7616 28.5488 17.5251 28.1407 17.7824C27.6962 18.0631 27.873 18.739 28.3695 19.5162C28.6944 20.0256 28.5488 20.6235 28.2109 20.977C27.8548 21.3487 27.2726 21.4968 26.6383 21.3565C25.5102 21.1069 24.4003 19.5967 25.2113 16.2956C25.5388 14.9621 24.8994 14.3929 24.4939 13.8808C24.2911 13.6235 24.2651 13.4701 24.3405 13.3661C24.4211 13.2544 24.6082 13.2466 24.941 13.3167C25.375 13.4077 26.0197 13.6313 26.5447 13.7118C26.8931 13.7664 27.2882 13.782 27.7014 13.7664C28.827 13.7222 29.6561 13.8964 30.5061 14.3175C31.9462 15.0297 32.0943 16.2592 31.2937 16.1604C31.0156 16.1266 30.6595 15.9161 30.3632 15.7731C30.1656 15.6769 29.9941 15.6457 29.8693 15.7367C29.7523 15.8225 29.7003 16.0019 29.7835 16.1786C29.9629 16.5555 30.5685 16.7505 31.3873 16.9766C32.8221 17.3717 32.8533 18.7026 32.1021 19.6227L32.1047 19.6201Z" fill="#0046FF"/>
<path d="M24.2909 35.4333C22.6169 35.6699 19.8902 35.2436 18.0421 34.0765C16.4253 33.0549 15.4584 31.7761 14.8345 30.479C14.1977 29.1534 13.8936 27.5444 14.5746 27.6249C14.8943 27.6613 15.1672 28.267 15.7833 29.052C16.2044 29.59 16.5917 30.0423 16.8828 30.1047C17.0128 30.1333 17.1219 30.0735 17.2155 29.8968C17.3897 29.564 17.6236 28.9324 18.0447 28.4203C18.3852 28.0278 18.7933 27.8459 19.0299 28.8024C19.1442 29.2807 19.2352 29.7694 19.2898 30.1983C19.3652 30.8039 19.4042 31.1652 19.6147 31.2692C19.8149 31.368 20.158 31.2406 20.709 31.0353C21.1041 30.8871 21.6136 30.7 22.2556 30.5154C22.8483 30.3464 23.2226 30.4348 22.8431 31.3524C22.6637 31.7865 22.4818 32.1504 21.8423 33.0731C21.7306 33.2343 21.7514 33.3955 21.8917 33.5358C22.1049 33.749 22.5909 34.0063 23.129 34.2402C23.5553 34.4248 24.0648 34.586 24.4027 34.6821C24.9303 34.8329 24.8264 35.3658 24.2961 35.4385L24.2909 35.4333ZM31.4755 32.4233C30.953 33.2707 29.8613 34.1883 28.5356 34.7991C28.3355 34.8901 28.1197 34.8615 28.0651 34.6977C28.0183 34.5548 28.1301 34.3936 28.2627 34.2376C29.9886 31.997 28.7072 29.9461 25.9207 28.3528C23.862 27.1753 22.5519 26.4994 21.0339 25.6053C16.5839 22.9851 15.7235 20.7003 15.5493 19.3513C15.1101 15.9383 17.9329 13.3832 20.8338 12.7672C20.9222 12.749 21.1535 12.7126 21.2289 12.9049C21.3043 13.0973 21.1327 13.2376 21.0313 13.3C19.7343 14.0148 18.458 15.5303 18.5984 17.2146C18.6763 18.1556 19.0792 19.5098 21.6266 21.3242C23.1628 22.4211 25.0473 23.3204 28.8423 25.5949C32.8531 27.9992 32.3956 30.9313 31.4781 32.4259L31.4755 32.4233ZM32.1019 19.619C31.1869 20.7393 30.2694 20.3234 29.5649 18.7456C29.1257 17.7605 28.546 17.5239 28.1379 17.7813C27.6934 18.062 27.8702 18.7378 28.3667 19.515C28.6916 20.0245 28.546 20.6223 28.2081 20.9759C27.852 21.3476 27.2697 21.4957 26.6355 21.3554C25.5074 21.1058 24.3975 19.5956 25.2085 16.2945C25.536 14.961 24.8965 14.3917 24.491 13.8797C24.2883 13.6223 24.2623 13.469 24.3377 13.365C24.4183 13.2532 24.6054 13.2454 24.9381 13.3156C25.3722 13.4066 26.0169 13.6301 26.5419 13.7107C26.8902 13.7653 27.2853 13.7809 27.6986 13.7653C28.8241 13.7211 29.6533 13.8953 30.5033 14.3164C31.9433 15.0286 32.0915 16.2581 31.2909 16.1593C31.0128 16.1255 30.6567 15.915 30.3629 15.772C30.1654 15.6758 29.9938 15.6446 29.8691 15.7356C29.7521 15.8214 29.7001 16.0007 29.7833 16.1775C29.9626 16.5544 30.5683 16.7493 31.3871 16.9755C32.8219 17.3706 32.8531 18.7014 32.1019 19.6216V19.619Z" fill="white"/>
</svg>
