<svg width="48" height="48" viewBox="0 0 48 48" fill="none" xmlns="http://www.w3.org/2000/svg">
<rect x="8" width="32" height="48" rx="4" fill="#0480E9"/>
<path fill-rule="evenodd" clip-rule="evenodd" d="M30.9083 21.0561C29.925 21.7758 28.9312 21.4792 28.5313 20.0657C28.3305 19.3616 27.8331 19.0019 27.3243 19.2021C26.8174 19.4017 27.1173 20.3296 27.5031 21.1898C28.2745 23.1592 26.3579 23.0936 26.1352 23.0681C25.1171 22.8537 24.9104 21.9301 24.9104 21.9301C24.8261 21.6049 24.8068 21.1947 24.8741 20.6711C25.0134 19.5757 25.3078 19.0608 25.6422 18.2129C26.0958 17.0722 24.9953 16.4051 25.1771 15.9854C25.4259 15.4172 26.2121 16.1393 27.0878 16.1926C27.8426 16.2345 28.2966 16.1966 28.8838 16.2748C29.6635 16.3786 30.5958 16.6435 31.0108 17.1319C31.3913 17.5782 30.8099 18.123 30.1102 17.7814C29.5996 17.5323 28.9552 17.6857 29.3326 18.2191C29.7881 18.7266 30.0056 18.7402 30.4688 18.8624C31.7456 19.199 31.7705 20.422 30.9083 21.0561ZM29.0054 31.9943C28.0904 32.6284 27.0766 32.9262 25.7472 32.9976C25.6266 33.0143 25.4101 32.945 25.399 32.7331C25.3904 32.5064 25.7213 32.4491 25.7213 32.4491C28.6849 31.8649 27.8191 29.9185 26.7702 28.9256C26.3301 28.5077 22.2029 24.9445 22.2029 24.9445C18.2695 21.5525 18.5841 18.9049 18.5841 18.9049C18.7739 15.6469 21.6234 14.8388 23.7789 15.0251C24.0318 15.0467 24.1714 15.2016 24.1256 15.4119C24.0782 15.641 23.7451 15.658 23.7451 15.658C23.0592 15.6989 22.4465 15.7688 21.9789 16.0833C20.2423 17.2533 20.7551 19.2431 23.0715 21.458C23.3622 21.7376 23.6719 22.0308 23.9893 22.3286C23.9893 22.3286 24.455 22.7394 25.3808 23.6212C27.1618 25.2645 28.1377 26.1511 28.1377 26.1511C31.277 28.7689 30.2053 31.1615 29.0054 31.9943ZM22.4008 32.4124C21.2934 32.3037 19.9714 31.9541 18.8198 30.9572C17.7617 30.0401 17.105 28.7793 16.7867 27.6737C16.461 26.5397 16.3238 25.2139 16.8624 25.3183C17.0275 25.3516 17.3139 26.0799 17.6252 26.6102C17.946 27.1578 18.209 27.4608 18.4532 27.645C18.5652 27.7288 18.9426 26.8877 19.4913 26.4094C19.8112 26.1455 20.1612 26.0547 20.2169 26.8424C20.2858 27.8095 20.1126 28.9582 20.3931 28.9582C20.6571 28.9582 21.2513 28.7596 22.5561 28.649C23.0455 28.6071 23.3247 28.6995 22.8575 29.3607C22.6244 29.689 22.3113 30.1547 21.5721 30.6859C22.681 31.7259 24.0122 31.6012 24.0356 32.0419C24.0531 32.3594 23.2817 32.4983 22.4008 32.4124Z" fill="white"/>
</svg>
