<svg width="48" height="48" viewBox="0 0 48 48" fill="none" xmlns="http://www.w3.org/2000/svg">
<path fill-rule="evenodd" clip-rule="evenodd" d="M8 6.4C8 4.15979 8 3.03969 8.43597 2.18404C8.81947 1.43139 9.43139 0.819467 10.184 0.435974C11.0397 0 12.1598 0 14.4 0H33.6C35.8402 0 36.9603 0 37.816 0.435974C38.5686 0.819467 39.1805 1.43139 39.564 2.18404C40 3.03969 40 4.15979 40 6.4V41.6C40 43.8402 40 44.9603 39.564 45.816C39.1805 46.5686 38.5686 47.1805 37.816 47.564C36.9603 48 35.8402 48 33.6 48H14.4C12.1598 48 11.0397 48 10.184 47.564C9.43139 47.1805 8.81947 46.5686 8.43597 45.816C8 44.9603 8 43.8402 8 41.6V6.4Z" fill="#FAE100"/>
<path fill-rule="evenodd" clip-rule="evenodd" d="M28.2865 23.9998C29.4773 23.2194 30 21.9671 30 20.4443C30.0019 19.2651 29.5511 18.1337 28.7471 17.2998C27.9431 16.4659 26.852 15.9983 25.7148 16.0001H18.2546C18.1172 15.9969 18.0034 16.1097 18 16.2521V31.7467C18.0013 31.8154 18.0289 31.8806 18.0767 31.9281C18.1244 31.9756 18.1884 32.0014 18.2546 31.9999L25.7148 31.9995C26.8521 32.0015 27.9433 31.5338 28.7473 30.6998C29.5514 29.8658 30.0021 28.7342 30 27.5549C30 26.0321 29.4769 24.779 28.2865 23.9998ZM24.1204 27.7323H23.1353V20.4418H24.12L24.1204 27.7323Z" fill="#1E1E1E"/>
</svg>
