<svg width="49" height="48" viewBox="0 0 49 48" fill="none" xmlns="http://www.w3.org/2000/svg">
<rect x="8.99805" width="32" height="48" rx="4" fill="#F3F6FB"/>
<path fill-rule="evenodd" clip-rule="evenodd" d="M37.8418 29.6666C37.4845 29.1475 37.0679 28.672 36.6004 28.2495C35.9329 27.6902 35.2993 27.0916 34.7029 26.4569C34.3368 26.0696 33.9905 25.664 33.6656 25.2416C33.2379 24.842 32.4725 24.0664 32.4396 24.0664H30.584V26.7086C31.0458 27.1963 32.2172 28.2008 32.729 28.756C33.8631 29.7722 35.1976 30.8799 36.1577 31.3376C37.039 31.7575 37.6125 31.3726 37.7767 31.1035C38.05 30.6694 38.0747 30.1236 37.8418 29.6666Z" fill="#B1CD65"/>
<path fill-rule="evenodd" clip-rule="evenodd" d="M32.919 24.5072C32.9154 24.4913 32.9947 24.4734 32.9386 24.4564C32.8854 24.4368 32.8384 24.4034 32.8024 24.3596C31.8939 23.9039 30.8834 23.256 30.309 23.9836C29.809 24.4629 29.8066 25.6453 30.535 26.562C30.702 26.7993 30.8937 27.0183 31.1069 27.2152C31.6024 26.8697 32.052 26.5339 32.415 26.2396C33.0678 25.7083 33.0719 25.2136 32.919 24.5072Z" fill="#6DAE5A"/>
<path fill-rule="evenodd" clip-rule="evenodd" d="M32.8026 24.3601C31.8941 23.9044 30.8836 23.2564 30.3092 23.9841C29.9866 24.311 29.8876 24.7976 30.0568 25.2246L30.1381 25.875C30.2335 26.1244 30.368 26.3569 30.5365 26.564C30.7035 26.8014 30.8952 27.0203 31.1084 27.2172C30.682 27.5473 30.5852 27.6156 30.5852 27.6156L28.7296 28.5184C27.7333 29.1188 26.9915 29.6281 26.2009 29.837C24.9904 30.1565 24.0298 29.2358 23.64 28.4379C23.5278 28.2087 23.4453 27.1156 23.8839 26.7498C24.5296 26.3519 25.2225 26.0362 25.9464 25.81L29.6564 24.0686C30.035 23.7691 30.4672 23.5445 30.9299 23.4068C31.7545 23.2991 32.558 23.7198 32.9392 24.4588C32.8856 24.4387 32.8385 24.4046 32.8026 24.3601Z" fill="#B1CD65"/>
<path fill-rule="evenodd" clip-rule="evenodd" d="M29.5971 27.129C29.3317 26.5339 28.5846 25.7526 27.9549 24.8994C27.4331 25.1494 26.9259 25.429 26.4359 25.7368C26.1205 25.875 25.7449 26.0071 25.4307 26.1172C25.9262 26.7417 26.4935 27.3058 27.1208 27.7977C27.6469 28.2835 28.3424 28.5439 29.0581 28.5228C29.2448 28.4335 29.423 28.3272 29.5902 28.2054C29.7804 27.8724 29.783 27.4644 29.5971 27.129Z" fill="#6FA03B"/>
<path fill-rule="evenodd" clip-rule="evenodd" d="M27.955 24.8991L27.9452 24.8857C27.5469 24.3446 27.3034 23.7881 26.9233 23.1906C26.4355 22.4284 25.8177 21.4395 25.3238 20.5594C25.2795 20.5489 25.2376 20.4115 25.197 20.3403C24.76 21.4159 24.2369 22.4545 23.6328 23.4459C23.7412 23.6329 23.8856 23.7966 24.0576 23.9276C24.4289 24.6573 24.8575 25.3565 25.3392 26.0185C25.3653 26.0523 25.3917 26.1677 25.4311 26.1165C25.7441 26.0067 26.1221 25.8726 26.4363 25.736C26.9262 25.4284 27.4333 25.149 27.955 24.8991Z" fill="#BAC447"/>
<path fill-rule="evenodd" clip-rule="evenodd" d="M25.1965 20.3416C25.4353 19.7734 25.6055 19.1787 25.7033 18.5702C25.7773 17.9458 25.4944 16.6796 24.6631 16.1601C23.8047 15.6751 22.7305 15.8047 22.012 16.48C21.2027 17.2523 20.4414 18.8738 19.5825 20.1835C18.4237 21.9868 17.1048 23.6819 15.6416 25.2483C13.1669 27.9848 12.8121 27.3986 12.2861 28.2563C11.6983 29.0827 12.0828 30.19 12.6243 30.8111C13.5185 31.8383 14.6872 32.3691 15.855 32.0187C16.7704 31.7435 17.6496 30.9379 18.55 30.0705C19.6907 29.0094 20.7168 27.8316 21.6117 26.5564C22.245 25.6438 22.9697 24.5646 23.6327 23.4451C24.363 22.5299 24.8955 21.4732 25.1965 20.3416Z" fill="#48AFA9"/>
<path fill-rule="evenodd" clip-rule="evenodd" d="M24.4095 19.1563C23.8332 18.4881 22.8515 18.3491 22.1124 18.8311C21.7022 19.2218 21.567 19.8208 21.7697 20.3498C22.3095 21.4282 22.9324 22.463 23.6327 23.4448C24.2368 22.4534 24.7599 21.4148 25.1968 20.3392C24.9852 19.9134 24.7206 19.5159 24.4095 19.1563Z" fill="#128E94"/>
</svg>
