<svg width="49" height="48" viewBox="0 0 49 48" fill="none" xmlns="http://www.w3.org/2000/svg">
<g clip-path="url(#clip0_10128_21780)">
<path d="M10.6667 17.3154C10.6667 15.5731 11.5812 13.9797 13.0306 13.1965L22.7363 8.49217C23.9507 7.83594 25.3827 7.83594 26.5971 8.49217L36.3028 13.1965C37.7522 13.9797 38.6667 15.5731 38.6667 17.3154V23.5571C38.6667 31.6352 32.2774 38.5532 24.8726 39.9803C24.7364 40.0066 24.597 40.0066 24.4608 39.9803C17.0559 38.5532 10.6667 31.6352 10.6667 23.5571V17.3154Z" stroke="#121619" stroke-width="2" stroke-linecap="round" stroke-linejoin="round"/>
<path fill-rule="evenodd" clip-rule="evenodd" d="M25.6653 24.7926C26.549 24.4071 27.1667 23.5257 27.1667 22.5C27.1667 21.1193 26.0474 20 24.6667 20C23.286 20 22.1667 21.1193 22.1667 22.5C22.1667 23.5257 22.7844 24.4071 23.6681 24.7926C23.6672 24.8102 23.6667 24.8279 23.6667 24.8457L23.6667 28.8457C23.6667 29.398 24.1144 29.8457 24.6667 29.8457C25.219 29.8457 25.6667 29.398 25.6667 28.8457L25.6667 24.8457C25.6667 24.8279 25.6662 24.8102 25.6653 24.7926Z" fill="#121619"/>
</g>
<defs>
<clipPath id="clip0_10128_21780">
<rect width="48" height="48" fill="white" transform="translate(0.666687)"/>
</clipPath>
</defs>
</svg>
