<svg width="24" height="24" viewBox="0 0 24 24" fill="none" xmlns="http://www.w3.org/2000/svg">
<path fill-rule="evenodd" clip-rule="evenodd" d="M11.9971 3C12.3628 3 12.6592 3.32896 12.6592 3.73476V4.7376C15.8303 5.084 18.1389 7.92601 18.1456 11.3575L18.1528 11.1735V14.3773L18.8448 16.0412C19.2268 16.6091 18.8592 17.417 18.2249 17.417L5.77633 17.409C5.1348 17.409 4.77439 16.6011 5.15642 16.0332L5.86282 14.3773V11.1735L5.87003 11.3575C5.87003 7.93112 8.17128 5.09247 11.335 4.73916V3.73476C11.335 3.32896 11.6315 3 11.9971 3ZM9.54624 18.2803C9.54624 19.7841 10.6419 21 11.997 21C13.3522 21 14.4478 19.7841 14.4478 18.2803H9.54624Z" fill="#0471E9"/>
</svg>
