<svg width="32" height="32" viewBox="0 0 32 32" fill="none" xmlns="http://www.w3.org/2000/svg">
<g clip-path="url(#clip0_9048_80591)">
<path d="M19.8992 15.559L19.8299 16.1305C19.5829 16.0317 19.3295 15.9807 19.0699 15.9807C18.9125 15.9807 18.7756 16.0178 18.6576 16.0934C18.5396 16.1691 18.4814 16.2912 18.4814 16.4626C18.4814 16.5924 18.5254 16.6789 18.6136 16.7236C18.7017 16.7684 18.9015 16.8519 19.2131 16.9708C19.5247 17.0897 19.7544 17.2226 19.9007 17.3631C20.0471 17.5052 20.1195 17.7076 20.1195 17.9702C20.1195 18.2111 20.0565 18.4104 19.9322 18.5679C19.8079 18.7255 19.6395 18.8398 19.4287 18.9108C19.2178 18.9819 18.9802 19.0174 18.7159 19.0174C18.5317 19.0174 18.3885 19.0081 18.2847 18.9912C18.1808 18.9742 18.0062 18.9386 17.7575 18.883L17.8268 18.2544C18.1085 18.398 18.3917 18.4691 18.6718 18.4691C18.837 18.4691 18.9896 18.4305 19.1281 18.3532C19.2666 18.276 19.3358 18.1648 19.3358 18.0227C19.3358 17.8806 19.2823 17.7755 19.1753 17.7168C19.0683 17.6581 18.8685 17.5716 18.5742 17.4589C18.28 17.3461 18.0612 17.221 17.9165 17.0835C17.7701 16.9461 17.6978 16.7484 17.6978 16.4889C17.6978 16.2448 17.7575 16.044 17.8787 15.8849C17.9999 15.7258 18.1588 15.6115 18.3571 15.5389C18.5553 15.4663 18.7709 15.4323 19.0022 15.4323C19.3295 15.4323 19.6269 15.474 19.896 15.5559L19.8992 15.559Z" fill="white"/>
<path d="M20.7505 15.9359V15.3011H21.468V15.9359H20.7505ZM20.7505 18.9618V16.4039H21.468V18.9618H20.7505Z" fill="white"/>
<path d="M24.0706 16.4039H24.7551V18.7131C24.7551 19.1132 24.6449 19.4391 24.4262 19.6893C24.2075 19.9396 23.8314 20.0647 23.2995 20.0647C22.9597 20.0647 22.6418 20.0075 22.3475 19.8917L22.4058 19.3248C22.5222 19.3835 22.6591 19.4345 22.8165 19.4793C22.9738 19.5241 23.1044 19.5472 23.2083 19.5472C23.4522 19.5472 23.6347 19.4993 23.7574 19.402C23.8786 19.3047 23.9573 19.1889 23.9888 19.0499C24.0202 18.9108 24.0375 18.7471 24.0375 18.5525H24.0265C23.9557 18.6683 23.844 18.7657 23.6914 18.8429C23.5387 18.9217 23.3656 18.9603 23.1721 18.9603C22.9785 18.9603 22.8054 18.9263 22.6607 18.8583C22.5175 18.7904 22.3995 18.6961 22.3082 18.5757C22.2169 18.4552 22.1508 18.3177 22.1084 18.1632C22.0659 18.0088 22.0454 17.8435 22.0454 17.6674C22.0454 17.4496 22.0879 17.238 22.1713 17.0357C22.2547 16.8333 22.3853 16.6665 22.5615 16.5352C22.7378 16.4055 22.9549 16.3406 23.213 16.3406C23.5922 16.3406 23.8739 16.4765 24.0596 16.7484H24.0706V16.4008V16.4039ZM23.4065 18.4459C23.619 18.4459 23.7779 18.3718 23.8818 18.225C23.9856 18.0767 24.0375 17.8883 24.0375 17.6566C24.0375 17.5052 24.0155 17.3693 23.973 17.2488C23.9305 17.1299 23.8629 17.0341 23.7732 16.9646C23.6835 16.8951 23.5718 16.8596 23.438 16.8596C23.2146 16.8596 23.0509 16.9384 22.9486 17.0959C22.8464 17.2535 22.796 17.445 22.796 17.6705C22.796 17.8667 22.8495 18.0443 22.9581 18.205C23.0667 18.3656 23.2161 18.4459 23.4065 18.4459Z" fill="white"/>
<path d="M25.4932 18.9618V16.4039H26.1745V16.7515H26.1855C26.3948 16.4796 26.6969 16.3437 27.0903 16.3437C27.2996 16.3437 27.4759 16.3869 27.6159 16.4719C27.756 16.5568 27.8598 16.6758 27.9275 16.8271C27.9936 16.9785 28.0282 17.1515 28.0282 17.3492V18.9634H27.3106V17.5979C27.3106 17.3724 27.2839 17.1948 27.2304 17.0619C27.1769 16.9291 27.0478 16.8627 26.8464 16.8627C26.6875 16.8627 26.56 16.9075 26.4656 16.9971C26.3712 17.0866 26.3051 17.1963 26.2689 17.3261C26.2327 17.4558 26.2139 17.584 26.2139 17.7122V18.9634H25.4963L25.4932 18.9618Z" fill="white"/>
<path d="M8.95354 13.5556V10.4169H7.86621V9.82845H10.8041V10.4169H9.71515V13.5556H8.95354Z" fill="white"/>
<path d="M11.2227 13.5556V9.82845H12.1636C12.4217 9.82845 12.6389 9.83617 12.8151 9.85316C12.9913 9.86861 13.1581 9.90877 13.3155 9.9721C13.4729 10.0354 13.5987 10.1374 13.6932 10.2764C13.7876 10.4154 13.8348 10.6023 13.8348 10.8371C13.8348 10.9838 13.8033 11.1182 13.7404 11.2418C13.6774 11.3653 13.5861 11.4673 13.4666 11.5492C13.347 11.631 13.2085 11.682 13.0511 11.7036V11.7144C13.2085 11.7268 13.3422 11.855 13.454 12.099L14.0629 13.5556H13.2148L12.7585 12.3925C12.7207 12.2983 12.6814 12.2226 12.6404 12.167C12.5995 12.1114 12.5476 12.0712 12.4831 12.0465C12.4201 12.0218 12.3352 12.0095 12.2282 12.0095H11.9843V13.5572H11.2227V13.5556ZM11.9843 10.4169V11.421H12.2345C12.4752 11.421 12.6703 11.387 12.8183 11.3175C12.9662 11.2495 13.0401 11.1105 13.0401 10.902C13.0401 10.6934 12.9677 10.5699 12.823 10.5096C12.6782 10.4494 12.4815 10.4169 12.2345 10.4169H11.9843Z" fill="white"/>
<path d="M14.5854 12.2118V9.82999H15.3471V11.9816C15.3471 12.6829 15.6098 13.0335 16.1354 13.0335C16.661 13.0335 16.9238 12.6829 16.9238 11.9816V9.82999H17.6854V12.2118C17.6854 13.1509 17.1692 13.6205 16.1354 13.6205C15.1016 13.6205 14.5854 13.1509 14.5854 12.2118Z" fill="white"/>
<path d="M20.6497 9.89795L20.5789 10.5127C20.3271 10.4061 20.0691 10.3521 19.8063 10.3521C19.6474 10.3521 19.5073 10.3922 19.3877 10.4741C19.2681 10.5544 19.2083 10.6873 19.2083 10.8711C19.2083 11.0101 19.254 11.1043 19.3421 11.1522C19.4318 11.2001 19.6348 11.2897 19.9526 11.4179C20.2689 11.5476 20.5018 11.6882 20.6497 11.8395C20.7976 11.9909 20.8716 12.2087 20.8716 12.4929C20.8716 12.7524 20.8086 12.9656 20.6812 13.1355C20.5537 13.3054 20.3838 13.4274 20.1698 13.5047C19.9558 13.5803 19.715 13.619 19.4459 13.619C19.2587 13.619 19.1123 13.6097 19.0069 13.5911C18.9015 13.5726 18.7237 13.534 18.4719 13.4753L18.5427 12.8003C18.8291 12.9548 19.1155 13.0305 19.4019 13.0305C19.5703 13.0305 19.7245 12.9887 19.8661 12.9053C20.0061 12.8219 20.0769 12.703 20.0769 12.5501C20.0769 12.3972 20.0219 12.2859 19.9133 12.2211C19.8047 12.1577 19.6001 12.0651 19.3027 11.943C19.0053 11.821 18.7819 11.6866 18.634 11.5383C18.4861 11.3901 18.4121 11.1769 18.4121 10.8989C18.4121 10.6363 18.4735 10.42 18.5962 10.2486C18.719 10.0787 18.881 9.95356 19.0824 9.87787C19.2839 9.80064 19.5026 9.76202 19.7386 9.76202C20.0706 9.76202 20.3728 9.80682 20.6466 9.89486L20.6497 9.89795Z" fill="white"/>
<path d="M22.2533 13.5556V10.4169H21.166V9.82845H24.1039V10.4169H23.015V13.5556H22.2533Z" fill="white"/>
<path d="M26.4752 20.196C24.7694 24.2367 20.7096 27.0865 15.9842 27.0865C11.2588 27.0865 6.9724 24.0745 5.35635 19.8531H8.02355C8.07233 20.2238 8.16831 20.5914 8.31623 20.9513C8.53967 21.4919 8.84809 21.9677 9.24306 22.3754C9.6632 22.8079 10.1321 23.1338 10.6514 23.3501C11.1691 23.5663 11.7403 23.6745 12.3666 23.6745C13.295 23.6745 14.1085 23.4304 14.8088 22.9423C15.509 22.4542 16.0534 21.7499 16.4437 20.8277H14.7285C14.483 21.2602 14.1526 21.5954 13.7403 21.8317C13.328 22.0681 12.8701 22.187 12.3666 22.187C11.6632 22.187 11.0574 21.9723 10.5475 21.5413C10.0377 21.1104 9.71827 20.5481 9.58924 19.8531H16.7128V19.6183C16.7128 19.039 16.653 18.5247 16.5365 18.0737C16.4185 17.6226 16.236 17.2087 15.9905 16.8318C15.5751 16.2232 15.0479 15.7474 14.4091 15.4076C13.7702 15.0678 13.0794 14.8979 12.3351 14.8979C11.7088 14.8979 11.1329 15.0122 10.6042 15.2408C10.0755 15.4694 9.60183 15.8108 9.18169 16.2634C8.78672 16.6804 8.48775 17.1438 8.28476 17.652C8.17618 17.9254 8.09908 18.2096 8.04872 18.5046H4.94093C4.74266 17.6798 4.63409 16.8225 4.63409 15.939C4.63409 9.79446 9.72614 4.79606 15.9858 4.79606C20.7112 4.79606 24.771 7.64589 26.4767 11.6866H27.9858C26.2092 6.8674 21.5011 3.41516 15.9874 3.41516C8.95352 3.41516 3.23047 9.03296 3.23047 15.9374C3.23047 22.8419 8.95352 28.4597 15.9874 28.4597C21.5011 28.4597 26.2092 25.0075 27.9858 20.1882H26.4767L26.4752 20.196ZM10.6483 16.9353C11.1376 16.5507 11.7167 16.3576 12.3823 16.3576C13.0479 16.3576 13.5924 16.5445 14.0597 16.9198C14.5255 17.2952 14.8544 17.825 15.0448 18.5092H9.63645C9.82056 17.8451 10.1589 17.3199 10.6483 16.9353Z" fill="white"/>
<path d="M2.60404 9.23996C2.42151 9.40523 2.19177 9.47629 1.9636 9.45466C2.12253 9.64465 2.19964 9.88716 2.15715 10.1451L1.92898 10.1636C1.98563 9.82383 1.82985 9.52571 1.57808 9.39133L1.51356 9.35735L1.29798 9.7466L1.12646 9.65546L1.67092 8.67154L1.84244 8.76267L1.63158 9.14574L1.6961 9.17972C1.92584 9.30174 2.24684 9.27085 2.49704 9.04688L2.60562 9.23996H2.60404ZM2.17918 8.59431L1.67879 8.32863L1.79523 8.11856L3.16423 8.84762L3.04779 9.05769L2.35542 8.68853L2.17131 9.02217L1.99507 8.92794L2.17918 8.59431ZM3.48209 8.95729L3.65676 9.04997L2.97226 10.2888L2.38689 9.97674L2.50333 9.76668L2.91403 9.98601L3.48209 8.95729Z" fill="white"/>
<path d="M3.01318 7.43584C3.27911 7.62892 3.70712 7.68298 4.0234 7.51616L4.09736 7.73395C3.86447 7.85598 3.56707 7.86215 3.29327 7.78183C3.4758 8.03052 3.56864 8.32709 3.51986 8.59122L3.28068 8.58813C3.34835 8.24059 3.15322 7.83281 2.86841 7.62737L2.70318 7.50844L2.42624 7.87606L2.26416 7.75866L2.95338 6.8427L3.11546 6.96009L2.84795 7.3169L3.01318 7.43738V7.43584ZM4.08792 6.70523L3.88965 6.96782L4.7677 7.6042L4.62293 7.79574L2.90775 6.55231L3.05252 6.36078L3.72915 6.85042L3.92742 6.58784L4.08949 6.70523H4.08792Z" fill="white"/>
<path d="M4.37104 5.68269C4.65428 5.95454 5.07285 6.07811 5.4096 5.953L5.44893 6.18778C5.19402 6.27428 4.90763 6.23566 4.63855 6.10437C4.78804 6.37777 4.84311 6.67125 4.76286 6.92765L4.51738 6.90294C4.63383 6.55694 4.48434 6.13063 4.19952 5.85568L3.94775 5.61472L4.11927 5.44172L4.37104 5.68269ZM4.69048 4.61844L6.21998 6.08583L6.04846 6.25883L5.16255 5.40929L4.84469 5.72902L4.70306 5.5931L5.02092 5.27336L4.51896 4.79298L4.69048 4.61998V4.61844Z" fill="white"/>
<path d="M6.62144 4.48559L5.84095 5.07873L5.25244 4.33268L6.03293 3.73954L6.13678 3.87083L6.48769 3.60361L6.28627 3.34875L6.47825 3.20201L7.24772 4.17667L7.05575 4.32341L6.86849 4.08554L6.51759 4.35276L6.62144 4.48405V4.48559ZM5.96527 4.03302L5.56086 4.3404L5.91176 4.78525L6.31617 4.47787L5.96527 4.03302ZM6.25952 4.02684L6.39642 4.20138L6.74733 3.93416L6.61043 3.75962L6.25952 4.02684ZM7.54198 4.53657C7.69933 4.73582 7.57502 5.01849 7.22254 5.28571C6.87164 5.55293 6.56322 5.59927 6.40586 5.40001C6.24851 5.20076 6.37282 4.91809 6.72215 4.65241C7.07463 4.38365 7.38305 4.33731 7.54198 4.53657ZM7.35 4.68331C7.26503 4.57518 7.07935 4.61998 6.84017 4.80224C6.60099 4.98451 6.51287 5.14824 6.59784 5.25636C6.68438 5.36603 6.86849 5.32278 7.10767 5.14206C7.34685 4.96134 7.43655 4.79452 7.35 4.68485V4.68331Z" fill="white"/>
<path d="M8.0485 3.63296C7.76998 3.79051 7.44582 3.71791 7.29161 3.45533C7.1374 3.18965 7.23969 2.88073 7.51821 2.72472C7.79673 2.56717 8.11773 2.63822 8.27352 2.9039C8.42773 3.16803 8.32859 3.47695 8.05007 3.63296H8.0485ZM7.94464 3.45378C8.10672 3.36265 8.16494 3.18347 8.06895 3.0182C7.97139 2.85138 7.78571 2.81122 7.62364 2.90235C7.45998 2.99503 7.40176 3.17112 7.49932 3.33794C7.59531 3.50321 7.78099 3.54492 7.94464 3.45378ZM9.43953 3.62369L9.53866 3.79206L8.27666 4.50258L7.92891 3.9079L8.14134 3.78742L8.38996 4.21374L9.43795 3.62369H9.43953ZM9.21451 3.35956L9.00365 3.4785L8.23418 2.15939L8.44504 2.04045L9.21608 3.35956H9.21451Z" fill="white"/>
<path d="M9.27769 2.40653C9.63017 2.22581 9.82372 1.9694 9.77966 1.7825L9.20373 2.00956L9.13135 1.83193L10.5916 1.25578L10.664 1.43496L10.0834 1.66356C10.1841 1.82884 10.5035 1.8829 10.8859 1.77478L10.878 1.97712C10.5129 2.07907 10.1856 2.04509 9.99996 1.88599C9.97478 2.1285 9.76077 2.37409 9.42875 2.54709L9.27769 2.40653ZM11.0873 2.00802L11.1597 2.18565L9.37053 2.89L9.29815 2.71082L11.0873 2.00647V2.00802ZM11.1471 2.76797C11.2399 2.99349 11.0354 3.22364 10.6105 3.39046C10.1872 3.55727 9.87722 3.52947 9.78438 3.30396C9.69154 3.07844 9.89767 2.8452 10.3194 2.67838C10.7443 2.51156 11.0542 2.54091 11.1455 2.76643L11.1471 2.76797ZM10.9189 2.85756C10.8701 2.73708 10.6797 2.74017 10.3902 2.85293C10.1007 2.96723 9.96376 3.09234 10.0141 3.21282C10.0629 3.33176 10.2502 3.33021 10.5397 3.21591C10.8292 3.10161 10.9677 2.97495 10.9189 2.85756Z" fill="white"/>
<path d="M12.7914 0.566879L13.0652 1.65584L12.8291 1.71299L12.7206 1.28204L12.3382 1.37472C12.3539 1.61414 12.1824 1.81957 11.9086 1.88599C11.597 1.96168 11.3185 1.82112 11.2477 1.53999C11.1769 1.26042 11.3579 1.01019 11.6694 0.9345C11.9417 0.868081 12.1887 0.968482 12.291 1.18473L12.6734 1.09205L12.5553 0.62403L12.7914 0.566879ZM12.099 1.33301C12.055 1.16002 11.8944 1.08124 11.7166 1.12449C11.5325 1.16928 11.4302 1.30984 11.4743 1.48439C11.5168 1.65584 11.6773 1.73771 11.8598 1.69446C12.0376 1.65121 12.1431 1.50447 12.099 1.33301ZM12.8543 1.80876L13.0872 1.75161L13.2933 2.5718L11.9495 2.89617L11.7434 2.07598L11.9763 2.01883L12.0345 2.24743L12.9125 2.03582L12.8543 1.80721V1.80876ZM12.9566 2.21808L12.0786 2.4297L12.1352 2.65521L13.0133 2.4436L12.9566 2.21808Z" fill="white"/>
<path d="M15.3863 1.64967L14.5382 1.73616L14.6121 2.43742L14.3698 2.46214L14.2959 1.76088L13.4619 1.84583L13.4414 1.6543L15.3643 1.45968L15.3848 1.65121L15.3863 1.64967ZM15.0999 1.22644L13.6507 1.37318L13.5641 0.549892L15.0134 0.403152L15.0999 1.22644ZM14.7931 0.616311L13.8238 0.715167L13.871 1.15847L14.8403 1.05962L14.7931 0.616311Z" fill="white"/>
<path d="M17.9135 1.40407L17.9009 1.59869L17.0763 1.55081L17.0527 1.94623L16.8057 1.93233L16.8293 1.53691L15.9717 1.48593L15.9843 1.29131L17.9135 1.40561V1.40407ZM16.417 2.13468L17.6507 2.20727L17.6381 2.4019L16.1589 2.31385L16.1967 1.696L16.4422 1.7099L16.4154 2.13313L16.417 2.13468ZM16.2282 0.735246C16.2439 0.474204 16.5508 0.327465 17.0087 0.353723C17.4634 0.379982 17.753 0.562248 17.7356 0.823289C17.7199 1.08433 17.4099 1.23107 16.9552 1.20481C16.4988 1.17855 16.2109 0.996288 16.2282 0.735246ZM16.4847 0.750692C16.4752 0.898976 16.6656 0.996287 16.9677 1.01328C17.2667 1.03027 17.4681 0.957672 17.476 0.809388C17.4839 0.661104 17.295 0.563792 16.9961 0.546802C16.6939 0.528266 16.4941 0.602408 16.4847 0.750692Z" fill="white"/>
<path d="M19.139 1.54618C19.021 1.63113 18.8589 1.66357 18.6906 1.62959C18.3774 1.5678 18.1855 1.31757 18.2453 1.02873C18.3051 0.738337 18.5804 0.579241 18.8936 0.641026C19.0651 0.675007 19.1973 0.767685 19.2744 0.888166L19.7795 0.988566L19.8377 0.704355L20.0769 0.752239L19.8283 1.96323L19.5907 1.91689L19.6457 1.64658L19.1406 1.54618H19.139ZM19.7449 2.40808C19.6929 2.65985 19.3924 2.75407 18.9565 2.66912C18.5206 2.58262 18.283 2.38182 18.3349 2.13004C18.3869 1.87982 18.6843 1.78559 19.1202 1.87209C19.5545 1.95859 19.7952 2.15939 19.7449 2.40962V2.40808ZM18.7315 1.43187C18.9124 1.4674 19.0698 1.37627 19.1076 1.19864C19.1438 1.01946 19.0336 0.874264 18.8542 0.838738C18.6685 0.801667 18.5112 0.894344 18.4734 1.07352C18.4372 1.25115 18.5474 1.3948 18.7331 1.43187H18.7315ZM19.5088 2.36019C19.5372 2.22427 19.3814 2.11305 19.0824 2.05436C18.7866 1.99566 18.5962 2.03891 18.5694 2.17484C18.5411 2.3154 18.6984 2.42507 18.9943 2.48376C19.2932 2.54246 19.4789 2.5023 19.5088 2.36019ZM19.3436 1.10132C19.3468 1.14612 19.3436 1.194 19.3342 1.24343C19.3231 1.29286 19.3074 1.33765 19.2854 1.37781L19.6835 1.45659L19.7401 1.1801L19.3436 1.10132Z" fill="white"/>
<path d="M21.5936 1.46276C21.3828 2.04972 20.9626 2.46523 20.1554 2.55481L20.0972 2.33393C20.714 2.26751 21.0885 2.00647 21.2915 1.56625L20.5755 1.31757L20.6416 1.13376L21.5936 1.46431V1.46276ZM22.2608 1.45967L21.5511 3.43216L21.3214 3.35338L22.0311 1.3809L22.2608 1.45967Z" fill="white"/>
<path d="M22.3162 3.52483L23.4162 4.08399L23.3249 4.25698L22.0078 3.58816L22.2879 3.05681L22.5035 3.16648L22.3147 3.52483H22.3162ZM23.9811 3.47386L23.8914 3.64531L23.1581 3.27306L22.974 3.62214L22.7584 3.51248L22.9425 3.16339L22.1746 2.77414L22.2643 2.60269L23.9811 3.4754V3.47386ZM22.5051 2.36636C22.8827 2.50692 23.2195 2.4575 23.3359 2.27678L22.7852 1.9972L22.8748 1.82574L24.2722 2.53627L24.1825 2.70773L23.627 2.42506C23.5436 2.62277 23.7025 2.92243 24.0346 3.14331L23.8662 3.27151C23.5593 3.06299 23.3815 2.78496 23.3878 2.527C23.1785 2.68147 22.8465 2.70155 22.4988 2.57643L22.5066 2.36636H22.5051Z" fill="white"/>
<path d="M24.4153 4.72502L25.4066 5.45562L25.2871 5.61163L24.1006 4.73892L24.4657 4.26008L24.6608 4.40374L24.4137 4.72656L24.4153 4.72502ZM26.066 4.94435L25.9479 5.09882L25.2871 4.61226L25.0463 4.92736L24.8512 4.78371L25.0919 4.46861L24.3996 3.96043L24.5176 3.80597L26.0644 4.94435H26.066ZM24.7961 3.61289C25.1454 3.81214 25.4853 3.81832 25.6317 3.65923L25.1344 3.29315L25.2524 3.13869L26.5129 4.06546L26.3948 4.21992L25.8944 3.85076C25.7796 4.03303 25.885 4.35431 26.1761 4.62616L25.9889 4.72502C25.7198 4.47015 25.5923 4.16586 25.6411 3.91254C25.4082 4.03148 25.0778 3.99595 24.7552 3.81678L24.7977 3.6098L24.7961 3.61289Z" fill="white"/>
<path d="M27.3909 6.62644L26.7898 6.04103L26.2595 6.5662L26.0864 6.39784L26.6167 5.87267L26.0234 5.29498L26.1635 5.1575L27.5309 6.48897L27.3909 6.62644ZM27.5466 6.22639C27.3358 5.94217 27.2555 5.61626 27.3295 5.34904C27.0573 5.42781 26.7237 5.34595 26.4326 5.14206L26.5034 4.93971C26.8543 5.19766 27.2634 5.23319 27.4617 5.03702L27.5419 4.95825L27.7245 5.13588L27.6442 5.21466C27.4491 5.40773 27.49 5.81552 27.7512 6.15379L27.5466 6.22484V6.22639Z" fill="white"/>
<path d="M28.2046 8.48309L28.0472 8.60048L27.166 7.46673L27.7215 7.05122L27.871 7.24276L27.4729 7.54087L28.2061 8.48309H28.2046ZM28.0142 7.13154C27.819 6.88132 27.8489 6.55694 28.0944 6.37159C28.3415 6.18623 28.6672 6.24493 28.8623 6.49516C29.0574 6.74539 29.0275 7.06667 28.7805 7.25203C28.535 7.43584 28.2093 7.38023 28.0142 7.13V7.13154ZM28.181 7.00643C28.2943 7.15163 28.4831 7.18561 28.6373 7.06976C28.7931 6.95391 28.8088 6.76701 28.6955 6.62182C28.5806 6.47508 28.395 6.4411 28.2392 6.55849C28.085 6.67434 28.0661 6.85969 28.181 7.00643ZM28.4406 8.22977L28.2927 8.03978L29.5232 7.11764L29.6711 7.30763L28.4406 8.22977Z" fill="white"/>
<path d="M29.35 10.1034C29.1281 10.227 28.8637 10.0648 28.6466 9.6848C28.4279 9.30328 28.4216 8.99744 28.645 8.87541C28.8653 8.75339 29.1313 8.91403 29.35 9.29555C29.5687 9.67553 29.5703 9.98137 29.35 10.1034ZM29.2304 9.89487C29.3516 9.82845 29.3311 9.64155 29.1848 9.38514C29.0353 9.1241 28.8842 9.01443 28.763 9.08085C28.6419 9.14881 28.6608 9.33108 28.8102 9.59212C28.9582 9.84853 29.1092 9.96129 29.2304 9.89332V9.89487ZM29.501 9.311C29.457 9.07004 29.5199 8.84298 29.6537 8.66689C29.4035 8.69933 29.1517 8.636 28.9487 8.46454L29.0557 8.26374C29.3201 8.48926 29.6615 8.51552 29.9165 8.37496L29.9432 8.35951L29.7213 7.9749L29.8913 7.88068L30.4515 8.85533L30.2815 8.94956L30.0628 8.56958L30.0376 8.58348C29.8047 8.71168 29.6647 8.99435 29.7245 9.32027L29.4995 9.30945L29.501 9.311ZM30.2642 9.311L30.73 9.05305L30.8496 9.26157L29.7434 9.87324L29.6238 9.66626L30.0896 9.40831L29.9039 9.08548L30.077 8.98972L30.2626 9.31254L30.2642 9.311Z" fill="white"/>
<path d="M1.47296 19.8345C1.92143 19.711 2.32584 19.7326 2.72867 19.8453L2.70349 20.0261C2.32112 19.9241 1.91199 19.9396 1.53119 20.0446C1.14881 20.1496 0.790038 20.3443 0.519384 20.6254L0.401367 20.4848C0.687756 20.1821 1.0182 19.9596 1.47139 19.8345H1.47296Z" fill="white"/>
<path d="M2.10062 22.1932L1.80165 21.4147L1.11085 21.6711L1.02588 21.4471L1.71667 21.1907L1.42242 20.423L1.60652 20.3551L2.28788 22.1268L2.10377 22.1932H2.10062ZM1.96687 20.3334C2.16042 20.6872 2.48615 20.8818 2.72218 20.8092L2.49244 20.213L2.67655 20.145L3.23044 21.5877L3.04634 21.6556L2.81817 21.0641C2.59158 21.1629 2.47828 21.5197 2.57112 21.9105L2.36183 21.8966C2.2863 21.5552 2.34767 21.2278 2.52234 21.027C2.25641 20.9899 1.99047 20.786 1.81738 20.4802L1.9653 20.3334H1.96687Z" fill="white"/>
<path d="M1.28906 22.6241C1.68088 22.6612 2.08214 22.5747 2.43934 22.4063C2.79496 22.2395 3.11282 21.9862 3.33155 21.6618L3.4716 21.7808C3.24658 22.1283 2.95547 22.4063 2.5369 22.604C2.11361 22.8033 1.7155 22.8496 1.29536 22.8064L1.29064 22.6241H1.28906Z" fill="white"/>
<path d="M2.90475 24.6043L2.7348 24.7032L1.99365 23.4752L2.57744 23.1369L2.70176 23.3439L2.28948 23.5833L2.90475 24.6043ZM3.14707 23.7193C3.09987 23.469 3.16124 23.2342 3.30601 23.0458C3.05109 23.0829 2.7946 23.0304 2.58531 22.8666L2.69074 22.6627C2.96769 22.8852 3.32489 22.8898 3.59239 22.7338L3.77493 22.6272L3.90081 22.8357L3.71828 22.9423C3.45864 23.0937 3.30758 23.3933 3.37682 23.727L3.14707 23.7177V23.7193ZM3.15966 24.385L3.03535 24.1796L4.37603 23.3995L4.50034 23.605L3.15966 24.3835V24.385Z" fill="white"/>
<path d="M3.35811 25.2083L4.08982 26.1289L3.93404 26.2494L3.05127 25.1388L3.5375 24.7665L3.68856 24.9565L3.35969 25.2083H3.35811ZM3.8349 24.9303C3.64765 24.6939 3.64293 24.4329 3.8349 24.2861C4.02531 24.141 4.28337 24.2074 4.47062 24.4422C4.65945 24.68 4.66103 24.9411 4.47062 25.0863C4.27865 25.233 4.02373 25.1681 3.8349 24.9303ZM3.98439 24.816C4.08982 24.9472 4.22357 24.989 4.329 24.9071C4.43443 24.8252 4.42656 24.6877 4.32271 24.5565C4.21885 24.4267 4.0851 24.385 3.97967 24.4669C3.87424 24.5487 3.88211 24.6862 3.98439 24.816ZM5.1803 25.5636L5.02137 25.684L4.83569 25.4508L4.27078 25.8848L4.12129 25.6964L5.38172 24.731L5.53121 24.9194L4.99462 25.3303L5.1803 25.5636ZM4.93797 24.87L4.16378 23.8969L4.31642 23.7795L4.62798 24.1718L4.81996 24.0251L4.96944 24.2135L4.77747 24.3603L5.08904 24.7526L4.9364 24.87H4.93797Z" fill="white"/>
<path d="M4.60915 26.6726L5.4809 27.5175L5.34085 27.6565L4.29443 26.6417L4.73031 26.2092L4.90498 26.3791L4.60757 26.6741L4.60915 26.6726ZM6.18743 27.1159L6.04738 27.2549L4.67681 25.925L4.81686 25.786L6.18743 27.1159ZM5.38806 25.5033C5.57689 25.3149 5.90419 25.4091 6.23149 25.7257C6.55879 26.0439 6.65793 26.3637 6.46753 26.5521C6.27712 26.7421 5.94982 26.6479 5.62252 26.3312C5.29522 26.013 5.19609 25.6933 5.38806 25.5033ZM5.56587 25.6763C5.46044 25.7813 5.53755 25.9775 5.761 26.1938C5.98287 26.4085 6.18271 26.4826 6.28971 26.3776C6.39357 26.2741 6.31646 26.0779 6.09459 25.8632C5.87114 25.647 5.6713 25.5728 5.56587 25.6763Z" fill="white"/>
<path d="M7.23378 28.7022C7.08744 28.8907 6.78689 28.8366 6.43126 28.5694C6.07249 28.3006 5.94188 28.0303 6.08823 27.8419C6.23457 27.6534 6.53354 27.709 6.89074 27.9778C7.24637 28.245 7.38012 28.5138 7.23378 28.7022ZM7.04023 28.557C7.11734 28.4582 7.02292 28.3053 6.77902 28.1215C6.53669 27.9407 6.35888 27.8867 6.2802 27.9871C6.20152 28.0875 6.30066 28.2435 6.54141 28.4257C6.78531 28.608 6.96155 28.6559 7.03866 28.557H7.04023ZM6.50522 27.5469C6.29279 27.3878 6.23142 27.1607 6.36675 26.9877C6.5005 26.8162 6.73968 26.8132 6.95211 26.9723C7.16612 27.1329 7.22591 27.3615 7.09216 27.533C6.95683 27.7059 6.71923 27.7075 6.50522 27.5469ZM6.61222 27.4094C6.72709 27.4959 6.84983 27.4943 6.91907 27.4032C6.98988 27.3136 6.95841 27.1962 6.84354 27.1113C6.72867 27.0248 6.6075 27.0279 6.53826 27.1174C6.46903 27.207 6.49735 27.3229 6.61222 27.4078V27.4094ZM7.42733 27.2163L6.5839 26.583L6.70034 26.4347L7.02922 26.6803L7.16297 26.5089L7.3518 26.651L7.21804 26.8224L7.54377 27.0665L7.42733 27.2163ZM7.1551 28.0504L6.97572 27.9145L7.72316 26.9553L7.90255 27.0896L7.58941 27.4912L7.76564 27.6241L8.10396 27.19L8.28807 27.3275L7.47139 28.3763L7.28728 28.2388L7.64448 27.7801L7.46824 27.6473L7.1551 28.0489V28.0504Z" fill="white"/>
<path d="M7.71198 28.3192L8.23755 28.6466L8.13055 28.8134L7.60498 28.486L7.71198 28.3192Z" fill="white"/>
<path d="M9.52466 30.1217L9.43339 30.2947L8.14307 29.6367L8.45463 29.0467L8.67178 29.1579L8.45148 29.5749L9.52308 30.1217H9.52466ZM9.254 29.2459C9.07934 29.0575 9.00538 28.8273 9.02584 28.5926C8.83071 28.7563 8.58366 28.8443 8.31773 28.8134L8.29728 28.5864C8.65133 28.6312 8.9566 28.4504 9.09979 28.1786L9.19735 27.9932L9.41765 28.106L9.32009 28.2914C9.18162 28.5539 9.21466 28.8876 9.45385 29.1347L9.254 29.2459ZM9.62379 29.8051L9.40821 29.6954L10.1258 28.3392L10.3413 28.4489L9.62379 29.8051Z" fill="white"/>
<path d="M10.2408 30.3998L11.3596 30.7998L11.2919 30.9821L9.94336 30.4986L10.1542 29.9302L10.3855 30.0136L10.2423 30.3998H10.2408ZM10.4957 29.9163C10.2093 29.8143 10.0645 29.595 10.1479 29.3695C10.2297 29.1471 10.4862 29.0683 10.7726 29.1702C11.0606 29.2737 11.2022 29.4946 11.1204 29.717C11.037 29.941 10.7852 30.0182 10.4957 29.9163ZM11.3989 29.2923L10.2172 28.869L10.2832 28.6899L10.76 28.8613L10.8434 28.6373L11.0716 28.7192L10.9882 28.9432L11.465 29.1146L11.3989 29.2938V29.2923ZM10.5602 29.7418C10.7207 29.7989 10.856 29.7634 10.9017 29.6398C10.9473 29.5162 10.867 29.4035 10.7065 29.3448C10.5492 29.2892 10.4123 29.3232 10.3666 29.4483C10.321 29.5734 10.4013 29.6861 10.5586 29.7418H10.5602ZM11.978 29.7541L11.9087 29.9395L11.6255 29.8375L11.38 30.5002L11.1519 30.4183L11.6995 28.9447L11.9276 29.0266L11.6947 29.6537L11.978 29.7557V29.7541Z" fill="white"/>
<path d="M11.651 30.7056L11.8524 30.5635C11.9437 30.7118 12.0884 30.8292 12.2521 30.8693C12.4567 30.9188 12.5951 30.8523 12.6297 30.7133C12.6675 30.5619 12.5652 30.4878 12.4268 30.3828L12.2175 30.2268C12.0727 30.1202 11.9232 29.9503 11.983 29.7093C12.0491 29.4483 12.3323 29.3093 12.6533 29.388C12.85 29.4359 13.0153 29.5626 13.1113 29.7217L12.9287 29.8545C12.8469 29.7371 12.7446 29.6522 12.5951 29.6151C12.4236 29.5734 12.2899 29.6274 12.2568 29.7572C12.2206 29.9008 12.3418 29.9873 12.4661 30.0754L12.6722 30.2283C12.85 30.3596 12.9633 30.5172 12.902 30.7597C12.8343 31.0253 12.5558 31.186 12.1876 31.0964C11.9563 31.0392 11.7643 30.8971 11.6494 30.7071L11.651 30.7056Z" fill="white"/>
<path d="M13.1899 29.9781L13.4574 30.0275L13.2182 31.2802L12.9507 31.2308L13.1899 29.9781ZM13.2324 29.5811C13.2497 29.4884 13.3299 29.439 13.4259 29.456C13.5219 29.473 13.5817 29.5487 13.5628 29.6414C13.5439 29.7371 13.4637 29.785 13.3661 29.768C13.2685 29.7495 13.2135 29.6769 13.2308 29.5811H13.2324Z" fill="white"/>
<path d="M13.3516 31.5521C13.3657 31.447 13.446 31.3559 13.575 31.3003V31.2895C13.5168 31.2416 13.4727 31.169 13.4869 31.0655C13.4995 30.9667 13.5844 30.891 13.6631 30.8493V30.84C13.5844 30.7628 13.5184 30.6315 13.5388 30.4801C13.5766 30.1959 13.8299 30.0569 14.0974 30.0908C14.1698 30.1001 14.2343 30.1217 14.28 30.1465L14.7363 30.2052L14.7095 30.4029L14.4641 30.372C14.5066 30.4291 14.5302 30.5187 14.5176 30.6145C14.4814 30.891 14.2469 31.0223 13.9778 30.9867C13.9196 30.979 13.8551 30.9574 13.8032 30.9249C13.756 30.9558 13.7229 30.9867 13.7151 31.0485C13.7056 31.1242 13.7497 31.1798 13.9133 31.1999L14.1494 31.2308C14.4531 31.2694 14.601 31.3822 14.5726 31.5984C14.5396 31.8425 14.2516 32.0062 13.8394 31.9537C13.5309 31.9135 13.3201 31.7729 13.35 31.5521H13.3516ZM14.3083 31.6061C14.3225 31.5011 14.2422 31.4578 14.0848 31.4378L13.8913 31.413C13.8299 31.4053 13.7733 31.3914 13.7198 31.3729C13.6348 31.4177 13.5939 31.4779 13.586 31.5428C13.5687 31.6664 13.6915 31.7575 13.9039 31.7838C14.1289 31.8131 14.2926 31.7235 14.3083 31.6061ZM14.2815 30.5743C14.3036 30.406 14.2092 30.2947 14.0738 30.2762C13.9385 30.2592 13.8173 30.3411 13.7953 30.511C13.7733 30.6809 13.8693 30.7983 14.003 30.8153C14.1368 30.8323 14.2595 30.7427 14.2831 30.5728L14.2815 30.5743Z" fill="white"/>
<path d="M14.754 30.2021L14.9758 30.2129L14.9884 30.3905H14.9947C15.1206 30.2824 15.2575 30.1943 15.4337 30.2036C15.7091 30.2175 15.8224 30.4029 15.8067 30.7272L15.7673 31.5273L15.4967 31.515L15.5345 30.7473C15.5455 30.528 15.4841 30.4368 15.3299 30.4291C15.2103 30.4229 15.1238 30.4801 15.0057 30.5882L14.9601 31.4903L14.6895 31.4779L14.7524 30.2051L14.754 30.2021Z" fill="white"/>
<path d="M16.6294 30.1078C16.6515 30.4955 16.8765 30.8647 17.2101 30.9945L17.0779 31.1937C16.8309 31.0887 16.6452 30.8693 16.5382 30.5944C16.4611 30.8956 16.3006 31.1474 16.0645 31.2833L15.9009 31.1026C16.2235 30.9249 16.4076 30.511 16.3855 30.1202L16.3667 29.7757L16.6121 29.7618L16.631 30.1063L16.6294 30.1078ZM17.5956 29.5348L17.7152 31.6293L17.4697 31.6432L17.4005 30.4291L16.9457 30.4538L16.9347 30.2592L17.3895 30.2345L17.3501 29.5471L17.5956 29.5332V29.5348Z" fill="white"/>
<path d="M17.9874 29.6537L18.0881 30.1773L18.62 30.08L18.5208 29.5564L18.76 29.5132L19.0275 30.9157L18.0204 31.101L17.7529 29.6985L17.989 29.6553L17.9874 29.6537ZM18.2187 30.8678L18.7506 30.7705L18.6546 30.2669L18.1227 30.3642L18.2187 30.8678ZM19.3296 29.2305L19.723 31.2926L19.4823 31.3374L19.0889 29.2753L19.3296 29.2305Z" fill="white"/>
<path d="M21.399 29.8669C21.0466 29.9055 20.6941 29.7896 20.4706 29.5595C20.4282 29.8746 20.2126 30.1727 19.9042 30.3442L19.7437 30.1882C20.1197 29.9874 20.3432 29.578 20.2393 29.2629L20.189 29.1131L20.4329 29.0343L20.4832 29.1841C20.5887 29.5008 21.0151 29.7047 21.4384 29.6475L21.399 29.8669ZM21.7075 30.1974L21.7688 30.3843L19.9325 30.9697L19.8711 30.7828L21.7075 30.1974Z" fill="white"/>
<path d="M21.5737 29.7201L22.1481 29.4807L22.2268 29.6614L21.6524 29.9009L21.5737 29.7201Z" fill="white"/>
<path d="M22.4439 30.0121C22.6658 29.3834 22.7933 28.9895 22.6752 28.7578C22.5934 28.5957 22.4502 28.5323 22.274 28.6173C22.1512 28.6775 22.0883 28.8042 22.0537 28.937L21.8491 28.8721C21.9105 28.6667 22.0033 28.5122 22.2063 28.4134C22.4911 28.2744 22.7665 28.3624 22.9018 28.6327C23.0403 28.9046 22.927 29.3015 22.7712 29.7912C22.8452 29.7449 22.9412 29.6892 23.0167 29.6522L23.4117 29.4591L23.5139 29.663L22.51 30.1526L22.4392 30.0136L22.4439 30.0121Z" fill="white"/>
<path d="M23.1598 28.9015C22.8687 28.4227 22.9001 28.0581 23.196 27.8851C23.4934 27.7106 23.8348 27.8589 24.1244 28.3362C24.4155 28.815 24.3919 29.1888 24.0945 29.3633C23.7986 29.5363 23.4509 29.3819 23.1598 28.9015ZM23.9009 28.4674C23.6523 28.0581 23.4572 27.9778 23.3045 28.0658C23.1519 28.1554 23.133 28.3609 23.3816 28.7702C23.6303 29.1795 23.8317 29.2707 23.9827 29.1811C24.1338 29.0915 24.1495 28.8752 23.8993 28.4659L23.9009 28.4674Z" fill="white"/>
<path d="M24.5333 28.886C24.6545 28.2311 24.7206 27.8233 24.5679 27.6117C24.4625 27.4634 24.3099 27.4217 24.1494 27.5329C24.0376 27.6102 23.9951 27.7446 23.981 27.882L23.7686 27.848C23.7969 27.6349 23.8661 27.4681 24.0502 27.3399C24.3099 27.1591 24.5947 27.2055 24.7725 27.4526C24.9503 27.7013 24.9015 28.1091 24.8244 28.6173C24.8905 28.5601 24.9771 28.4922 25.0463 28.4443L25.4066 28.194L25.5404 28.3794L24.6246 29.0142L24.5333 28.8876V28.886Z" fill="white"/>
<path d="M25.5376 28.0983L25.8303 27.8604L25.0892 26.9831L24.8484 27.1777L24.7383 27.0479C24.8453 26.9244 24.9082 26.8193 24.9444 26.7112L25.1018 26.583L26.0365 27.6905L26.2977 27.4773L26.4409 27.6473L25.6777 28.2682L25.5345 28.0983H25.5376Z" fill="white"/>
<path d="M26.0098 27.0124L26.4645 26.5954L26.6014 26.739L26.1467 27.1561L26.0098 27.0124Z" fill="white"/>
<path d="M26.9286 26.9954C26.9175 26.3297 26.9002 25.9173 26.7083 25.7396C26.5745 25.6145 26.4171 25.6022 26.2818 25.7427C26.1874 25.84 26.1732 25.9806 26.1858 26.1165L25.9702 26.1243C25.9561 25.9095 25.9891 25.7335 26.1465 25.5728C26.3652 25.3458 26.6548 25.3365 26.8766 25.545C27.1001 25.7535 27.1331 26.1644 27.1583 26.6772C27.2118 26.6093 27.2826 26.5243 27.3408 26.4641L27.6445 26.149L27.8129 26.305L27.0403 27.1035L26.9254 26.997L26.9286 26.9954Z" fill="white"/>
<path d="M27.215 25.7103C26.7744 25.3581 26.6768 25.0044 26.894 24.7433C27.1127 24.4792 27.484 24.5055 27.9246 24.8561C28.3652 25.2083 28.4738 25.5666 28.2535 25.8308C28.0364 26.0933 27.6556 26.064 27.215 25.7103ZM27.761 25.0523C27.3849 24.7511 27.174 24.7403 27.0608 24.8746C26.949 25.009 27.001 25.2098 27.3786 25.511C27.7563 25.8122 27.975 25.8308 28.0867 25.6948C28.1984 25.5605 28.1371 25.3519 27.7594 25.0507L27.761 25.0523Z" fill="white"/>
<path d="M28.4989 25.2376C28.3856 24.5812 28.3038 24.1765 28.0882 24.0282C27.9371 23.9247 27.7798 23.9355 27.668 24.0946C27.5894 24.2043 27.5972 24.3448 27.6319 24.4792L27.421 24.5178C27.3738 24.3078 27.3801 24.1286 27.5091 23.9463C27.6917 23.6899 27.9749 23.6374 28.2267 23.8104C28.48 23.9834 28.576 24.385 28.6798 24.887C28.7223 24.8113 28.779 24.7186 28.8278 24.6491L29.0795 24.2939L29.2699 24.4236L28.6295 25.3272L28.4989 25.2392V25.2376Z" fill="white"/>
<path d="M29.1723 24.1579L29.3643 23.8367L28.3619 23.259L28.2046 23.5231L28.0566 23.4381C28.1149 23.2868 28.1369 23.1678 28.1337 23.052L28.2376 22.8774L29.5027 23.6065L29.6743 23.3192L29.8678 23.4304L29.3658 24.2707L29.1723 24.1595V24.1579Z" fill="white"/>
<path d="M29.1613 22.9593C28.6499 22.7137 28.4737 22.3924 28.6263 22.0881C28.7789 21.7823 29.1471 21.7236 29.6554 21.9692C30.1668 22.2148 30.3541 22.5392 30.2014 22.845C30.0504 23.1493 29.6727 23.2049 29.1613 22.9593ZM29.5405 22.1978C29.1031 21.9877 28.8969 22.0248 28.8183 22.1808C28.7396 22.3368 28.8387 22.5206 29.2746 22.7307C29.7121 22.9408 29.9292 22.9083 30.0079 22.7523C30.085 22.5963 29.978 22.4079 29.5405 22.1978Z" fill="white"/>
<path d="M29.6602 21.9538C29.1315 21.7483 28.9301 21.4394 29.0576 21.1258C29.185 20.8092 29.5485 20.7242 30.0741 20.9281C30.6028 21.1336 30.8152 21.444 30.6878 21.7607C30.5603 22.0758 30.189 22.1592 29.6602 21.9538ZM29.9797 21.166C29.5281 20.9899 29.3235 21.0424 29.2574 21.2046C29.1913 21.3668 29.303 21.5413 29.7562 21.7174C30.2078 21.8935 30.4234 21.8456 30.4895 21.6835C30.5556 21.5213 30.4313 21.3421 29.9797 21.166Z" fill="white"/>
<path d="M30.7412 21.1228C30.4312 20.5312 30.2298 20.1697 29.9765 20.0925C29.8002 20.0384 29.6539 20.0956 29.5957 20.2794C29.5547 20.4076 29.6051 20.5389 29.6791 20.6563L29.4886 20.7567C29.3801 20.5713 29.3297 20.3983 29.3974 20.1852C29.4918 19.8871 29.7467 19.7527 30.0394 19.8423C30.3352 19.9318 30.5492 20.2856 30.8026 20.7351C30.8199 20.6501 30.8451 20.5451 30.8702 20.4647L31.0008 20.0508L31.2211 20.1172L30.8891 21.1691L30.7381 21.1228H30.7412Z" fill="white"/>
</g>
<defs>
<clipPath id="clip0_9048_80591">
<rect width="32" height="32" fill="white"/>
</clipPath>
</defs>
</svg>
