<svg width="32" height="32" viewBox="0 0 32 32" fill="none" xmlns="http://www.w3.org/2000/svg">
<rect x="5.33337" y="7.2865" width="18.6665" height="17.4221" rx="2" fill="#CAE4FF"/>
<g style="mix-blend-mode:color-burn">
<path d="M5.33325 9.28802C5.33325 8.18346 6.22868 7.28802 7.33325 7.28802H21.9998C23.1043 7.28802 23.9998 8.18346 23.9998 9.28802V11.0213H5.33325V9.28802Z" fill="#6B6B6B"/>
</g>
<path d="M9.6106 6.66669V9.19289" stroke="#0F49A4" stroke-width="2" stroke-miterlimit="10" stroke-linecap="round"/>
<path d="M19.722 6.66669V9.19289" stroke="#0F49A4" stroke-width="2" stroke-miterlimit="10" stroke-linecap="round"/>
<path d="M26.1667 21.3333C26.1667 24.0027 24.0027 26.1667 21.3333 26.1667C18.664 26.1667 16.5 24.0027 16.5 21.3333C16.5 18.664 18.664 16.5 21.3333 16.5C24.0027 16.5 26.1667 18.664 26.1667 21.3333Z" fill="url(#paint0_linear_10103_37430)" stroke="#121619" stroke-miterlimit="10"/>
<path d="M24.8889 24.8889L26.6667 26.6667" stroke="#121619" stroke-miterlimit="10" stroke-linecap="round"/>
<defs>
<linearGradient id="paint0_linear_10103_37430" x1="17.5625" y1="17.5625" x2="25.1041" y2="25.1041" gradientUnits="userSpaceOnUse">
<stop offset="0.27" stop-color="white"/>
<stop offset="1" stop-color="#D6E7FF"/>
</linearGradient>
</defs>
</svg>
