<svg width="24" height="24" viewBox="0 0 24 24" fill="none" xmlns="http://www.w3.org/2000/svg">
<path d="M11.6039 8.29488L11.9798 8.72352L12.3557 8.29488C12.4807 8.1524 12.6052 8.00469 12.7318 7.85461C13.1328 7.37917 13.5539 6.87989 14.0707 6.4476C14.7312 5.8952 15.4993 5.5 16.4697 5.5C17.7698 5.5 18.7598 5.89468 19.4266 6.58872C20.0957 7.28519 20.5 8.34623 20.5 9.79564C20.5 11.162 19.8151 12.5444 18.4913 14.1305C17.1687 15.7151 15.2693 17.433 12.9514 19.4738L12.9507 19.4744L11.9785 20.3338L11.0085 19.4829L11.0075 19.4819L11.0005 19.4758C8.6815 17.4295 6.79771 15.7673 5.48715 14.2104C4.18035 12.658 3.5 11.2745 3.5 9.79564C3.5 8.55841 3.89659 7.48406 4.57946 6.72518C5.25738 5.9718 6.24266 5.5 7.4899 5.5C8.46027 5.5 9.22841 5.8952 9.88887 6.4476C10.4057 6.87989 10.8268 7.37917 11.2278 7.85461C11.3544 8.00469 11.4789 8.1524 11.6039 8.29488Z" fill="#F3F6FB" stroke="#808892"/>
</svg>
