<svg width="24" height="25" viewBox="0 0 24 25" fill="none" xmlns="http://www.w3.org/2000/svg">
<path d="M5.5 16.5011V9.5011C5.5 8.67267 6.17157 8.0011 7 8.0011H11C11.8284 8.0011 12.5 8.67267 12.5 9.5011C12.5 10.8818 13.6193 12.0011 15 12.0011C15.8284 12.0011 16.5 12.6727 16.5 13.5011V16.5011C16.5 17.3295 15.8284 18.0011 15 18.0011H7C6.17157 18.0011 5.5 17.3295 5.5 16.5011Z" stroke="#808892"/>
<path fill-rule="evenodd" clip-rule="evenodd" d="M20 9.0011C20 11.4864 17.9853 13.5011 15.5 13.5011C13.0147 13.5011 11 11.4864 11 9.0011C11 6.51582 13.0147 4.5011 15.5 4.5011C17.9853 4.5011 20 6.51582 20 9.0011ZM13 9.0011C13 8.72496 13.2239 8.5011 13.5 8.5011H15V7.0011C15 6.72496 15.2239 6.5011 15.5 6.5011C15.7761 6.5011 16 6.72496 16 7.0011V8.5011H17.5C17.7761 8.5011 18 8.72496 18 9.0011C18 9.27724 17.7761 9.5011 17.5 9.5011H16V11.0011C16 11.2772 15.7761 11.5011 15.5 11.5011C15.2239 11.5011 15 11.2772 15 11.0011V9.5011H13.5C13.2239 9.5011 13 9.27724 13 9.0011Z" fill="#808892"/>
<rect x="7" y="11.5011" width="4" height="1" rx="0.5" fill="#808892"/>
</svg>
