<svg width="48" height="48" viewBox="0 0 48 48" fill="none" xmlns="http://www.w3.org/2000/svg">
<rect opacity="0" width="48" height="48" fill="#FF0000"/>
<rect width="48" height="48" rx="24" fill="#F8F9FC"/>
<rect x="15" y="17.4004" width="15.5997" height="15.5997" rx="2" fill="#0471E9"/>
<path d="M22.1997 14.25C21.7855 14.25 21.4497 14.5858 21.4497 15C21.4497 15.4142 21.7855 15.75 22.1997 15.75L22.1997 14.25ZM32.2495 25.7998C32.2495 26.214 32.5853 26.5498 32.9995 26.5498C33.4137 26.5498 33.7495 26.214 33.7495 25.7998H32.2495ZM22.1997 15.75H29.9995V14.25H22.1997L22.1997 15.75ZM32.2495 18V25.7998H33.7495V18H32.2495ZM29.9995 15.75C31.2422 15.75 32.2495 16.7574 32.2495 18H33.7495C33.7495 15.9289 32.0706 14.25 29.9995 14.25V15.75Z" fill="#0471E9"/>
</svg>
