<svg width="24" height="24" viewBox="0 0 24 24" fill="none" xmlns="http://www.w3.org/2000/svg">
<path d="M8.33317 13.8333C8.33317 12.8208 7.51236 12 6.49984 12C5.48732 12 4.6665 12.8208 4.6665 13.8333V15.6667C4.6665 16.6792 5.48732 17.5 6.49984 17.5C7.51236 17.5 8.33317 16.6792 8.33317 15.6667V13.8333Z" stroke="#0471E9" stroke-width="1.5" stroke-linecap="round" stroke-linejoin="round"/>
<path d="M19.3332 13.8333C19.3332 12.8208 18.5124 12 17.4998 12C16.4873 12 15.6665 12.8208 15.6665 13.8333V15.6667C15.6665 16.6792 16.4873 17.5 17.4998 17.5C18.5124 17.5 19.3332 16.6792 19.3332 15.6667V13.8333Z" stroke="#0471E9" stroke-width="1.5" stroke-linecap="round" stroke-linejoin="round"/>
<path d="M4.6665 13.8333V11.0833C4.6665 9.13841 5.43912 7.27315 6.81439 5.89788C8.18965 4.52262 10.0549 3.75 11.9998 3.75C13.9448 3.75 15.81 4.52262 17.1853 5.89788C18.5606 7.27315 19.3332 9.13841 19.3332 11.0833V13.8333" stroke="#0471E9" stroke-width="1.5" stroke-linecap="round" stroke-linejoin="round"/>
<path d="M17.5 17.5C17.5 18.2293 16.9205 18.9288 15.8891 19.4445C14.8576 19.9603 13.4587 20.25 12 20.25" stroke="#0471E9" stroke-width="1.5" stroke-linecap="round" stroke-linejoin="round"/>
</svg>
