<svg width="25" height="24" viewBox="0 0 25 24" fill="none" xmlns="http://www.w3.org/2000/svg">
<rect x="5.5" y="7.75" width="11.5" height="11.5" rx="1.25" stroke="#121619" stroke-width="1.5"/>
<path d="M10.75 4.25C10.3358 4.25 10 4.58579 10 5C10 5.41421 10.3358 5.75 10.75 5.75L10.75 4.25ZM19 14C19 14.4142 19.3358 14.75 19.75 14.75C20.1642 14.75 20.5 14.4142 20.5 14H19ZM10.75 5.75H16.75V4.25H10.75L10.75 5.75ZM19 8V14H20.5V8H19ZM16.75 5.75C17.9926 5.75 19 6.75736 19 8H20.5C20.5 5.92893 18.8211 4.25 16.75 4.25V5.75Z" fill="#121619"/>
</svg>
