<svg width="32" height="32" viewBox="0 0 32 32" fill="none" xmlns="http://www.w3.org/2000/svg">
<circle cx="16" cy="16" r="16" fill="#F3F6FB"/>
<path d="M6 9H26V20.3333C26 21.44 25.0429 22.3333 23.8571 22.3333H8.14286C6.95714 22.3333 6 21.44 6 20.3333V9Z" fill="#3B94FD"/>
<path d="M6 9H26V19.1998C26 20.3189 25.0429 21.2222 23.8571 21.2222H8.14286C6.95714 21.2222 6 20.3189 6 19.1998V9Z" fill="#AFD6FF"/>
<g style="mix-blend-mode:color-burn">
<path d="M26 10.875H6V13.375H26V10.875Z" fill="#6B6B6B"/>
</g>
<path d="M21.0003 25.6667C23.9458 25.6667 26.3337 23.2789 26.3337 20.3333C26.3337 17.3878 23.9458 15 21.0003 15C18.0548 15 15.667 17.3878 15.667 20.3333C15.667 23.2789 18.0548 25.6667 21.0003 25.6667Z" fill="#2AD47E"/>
<path d="M23.667 20.3333H18.3337" stroke="white" stroke-miterlimit="10" stroke-linecap="round"/>
<path d="M21 23.0004L21 17.667" stroke="white" stroke-miterlimit="10" stroke-linecap="round"/>
</svg>
