<svg width="30" height="31" viewBox="0 0 30 31" fill="none" xmlns="http://www.w3.org/2000/svg">
<path fill-rule="evenodd" clip-rule="evenodd" d="M24.4796 10.6821C22.9876 11.7728 21.4798 11.3233 20.8731 9.18128C20.5684 8.11446 19.8137 7.56937 19.0419 7.87272C18.2728 8.17512 18.7278 9.58123 19.313 10.8847C20.4834 13.8691 17.5756 13.7697 17.2377 13.7309C15.693 13.4061 15.3794 12.0066 15.3794 12.0066C15.2515 11.5137 15.2221 10.8921 15.3243 10.0988C15.5357 8.4388 15.9823 7.65851 16.4896 6.37374C17.1779 4.64516 15.5082 3.63434 15.784 2.99825C16.1615 2.13723 17.3548 3.23159 18.683 3.31233C19.8282 3.3758 20.517 3.31839 21.4079 3.43693C22.591 3.5942 24.0055 3.99555 24.635 4.7357C25.2128 5.41192 24.3303 6.23747 23.2686 5.71993C22.4943 5.34238 21.5162 5.57479 22.0888 6.38308C22.78 7.15216 23.1099 7.1727 23.8127 7.35797C25.7499 7.86805 25.7882 9.72123 24.4796 10.6821ZM21.5938 27.2549C20.2059 28.2158 18.6672 28.667 16.6502 28.7753C16.4673 28.8005 16.1387 28.6955 16.1219 28.3744C16.1089 28.031 16.611 27.9442 16.611 27.9442C21.1079 27.0589 19.7938 24.1095 18.2024 22.6049C17.5346 21.9716 11.2727 16.5721 11.2727 16.5721C5.30525 11.4321 5.7822 7.42007 5.7822 7.42007C6.07014 2.48307 10.3935 1.25851 13.6639 1.54085C14.0476 1.57352 14.2594 1.80826 14.1899 2.127C14.118 2.47421 13.6126 2.49988 13.6126 2.49988C12.5719 2.56194 11.6423 2.66788 10.9329 3.14436C8.29807 4.91727 9.07602 7.93249 12.5906 11.2888C13.0316 11.7126 13.5015 12.1569 13.9832 12.6081C13.9832 12.6081 14.6897 13.2307 16.0944 14.5668C18.7965 17.057 20.2777 18.4006 20.2777 18.4006C25.0402 22.3673 23.4143 25.993 21.5938 27.2549ZM11.5727 27.8899C9.89269 27.7252 7.88737 27.1955 6.13966 25.6848C4.53428 24.2951 3.53792 22.3845 3.05491 20.7091C2.56069 18.9908 2.35255 16.9817 3.16971 17.1399C3.42078 17.1903 3.85479 18.294 4.32707 19.0977C4.81382 19.9274 5.21283 20.3866 5.58337 20.6657C5.75325 20.7926 6.32586 19.5181 7.15842 18.7934C7.64423 18.3934 8.17484 18.2558 8.25931 19.4495C8.36385 20.9149 8.10111 22.6556 8.52672 22.6556C8.9276 22.6556 9.82875 22.3546 11.8084 22.1871C12.5509 22.1236 12.9746 22.2636 12.2658 23.2656C11.912 23.763 11.4369 24.4687 10.316 25.2737C11.9979 26.8497 14.0177 26.6607 14.0531 27.3285C14.0797 27.8096 12.9093 28.0201 11.5727 27.8899ZM14.3226 0.0157379C6.04461 0.389548 -0.361961 7.40234 0.0160487 15.6789C0.389392 23.9554 7.40171 30.3597 15.6773 29.9859C23.9562 29.613 30.3581 22.5997 29.9843 14.3237C29.6114 6.04617 22.5977 -0.359472 14.3226 0.0157379Z" fill="white"/>
</svg>
