<svg width="24" height="24" viewBox="0 0 24 24" fill="none" xmlns="http://www.w3.org/2000/svg">
<path d="M7 9V11" stroke="#121619" stroke-width="1.5" stroke-linecap="round" stroke-linejoin="round"/>
<path d="M17 9V11" stroke="#121619" stroke-width="1.5" stroke-linecap="round" stroke-linejoin="round"/>
<path d="M12 9V12C12 12.2652 11.8946 12.5196 11.7071 12.7071C11.5196 12.8946 11.2652 13 11 13" stroke="#121619" stroke-width="1.5" stroke-linecap="round" stroke-linejoin="round"/>
<path d="M9 15C9.80954 16.2841 10.8835 17 12 17C13.1165 17 14.1905 16.2841 15 15V15" stroke="#121619" stroke-width="1.5" stroke-linecap="round" stroke-linejoin="round"/>
<path d="M7 4H5C4.73478 4 4.48043 4.10536 4.29289 4.29289C4.10536 4.48043 4 4.73478 4 5V7" stroke="#121619" stroke-width="1.5" stroke-linecap="round" stroke-linejoin="round"/>
<path d="M17 4H19C19.2652 4 19.5196 4.10536 19.7071 4.29289C19.8946 4.48043 20 4.73478 20 5V7" stroke="#121619" stroke-width="1.5" stroke-linecap="round" stroke-linejoin="round"/>
<path d="M20 17V19C20 19.2652 19.8946 19.5196 19.7071 19.7071C19.5196 19.8946 19.2652 20 19 20H17" stroke="#121619" stroke-width="1.5" stroke-linecap="round" stroke-linejoin="round"/>
<path d="M7 20H5C4.73478 20 4.48043 19.8946 4.29289 19.7071C4.10536 19.5196 4 19.2652 4 19V17" stroke="#121619" stroke-width="1.5" stroke-linecap="round" stroke-linejoin="round"/>
</svg>
