<svg width="24" height="24" viewBox="0 0 24 24" fill="none" xmlns="http://www.w3.org/2000/svg">
<path d="M8.9314 18.0242C8.9314 19.5592 10.1725 20.8003 11.7075 20.8003C13.2426 20.8003 14.4837 19.5592 14.4837 18.0242" stroke="white" stroke-width="1.5" stroke-miterlimit="10" stroke-linejoin="bevel"/>
<path d="M11.7078 3V4.22477" stroke="white" stroke-width="1.5" stroke-miterlimit="10" stroke-linecap="round" stroke-linejoin="round"/>
<path d="M11.7158 5.21244C14.9247 5.21244 17.4396 7.66198 17.4396 10.7811C17.4396 10.8219 17.4396 10.8546 17.4477 10.8872V15.8843C17.4477 16.0639 17.4886 16.2354 17.562 16.3987L18.1908 17.7541L5.23269 17.7459L5.86957 16.4068C5.95122 16.2435 5.99204 16.0639 5.99204 15.8843V10.8872C5.99204 10.8546 5.99204 10.8137 5.99204 10.7811C5.99204 7.65382 8.50691 5.21244 11.7158 5.21244ZM11.7158 3.98767C7.74755 3.98767 4.76727 7.04143 4.76727 10.7811L4.75911 10.5933V15.8843L3.95892 17.5745C3.52617 18.1542 3.93443 18.9789 4.66113 18.9789L18.7623 18.987C19.4808 18.987 19.8973 18.1623 19.4645 17.5826L18.6807 15.8843V10.5933L18.6725 10.7811C18.6643 7.04143 15.6841 3.98767 11.7158 3.98767Z" fill="white"/>
<circle cx="18" cy="8" r="2" fill="#EB3D4F"/>
</svg>
