<svg width="25" height="24" viewBox="0 0 25 24" fill="none" xmlns="http://www.w3.org/2000/svg">
<path d="M6.05026 6.04667L8.73398 5.05303C9.09147 4.92044 9.49497 5.0425 9.72264 5.35175L11.4805 7.73836C11.7155 8.05774 11.7027 8.49529 11.4493 8.79595L10.3577 10.0864C10.109 10.3816 10.0907 10.8078 10.314 11.1272C10.7074 11.6891 11.1468 12.2234 11.6298 12.7245C12.1877 13.304 12.79 13.8262 13.4297 14.289C13.749 14.5199 14.1821 14.5039 14.48 14.252L15.7053 13.2162C16.0051 12.962 16.4421 12.9487 16.7618 13.1843L19.1488 14.943C19.4572 15.1708 19.5796 15.5736 19.447 15.9308C19.1648 16.6959 18.6911 17.9778 18.5009 18.4929C18.4217 18.7066 18.2697 18.9024 18.0525 18.9714C17.8732 19.0279 17.6233 18.9827 17.3953 18.9854C15.3115 19.0155 11.9608 17.0676 9.63141 14.6502C7.57301 12.5139 6.16137 9.89098 5.52084 7.02705C5.42806 6.61096 5.65222 6.19408 6.05026 6.04667" stroke="#121619" stroke-width="1.5"/>
</svg>
