<svg width="32" height="32" viewBox="0 0 32 32" fill="none" xmlns="http://www.w3.org/2000/svg">
<path d="M0 16C0 7.16344 7.16344 0 16 0C24.8366 0 32 7.16344 32 16C32 24.8366 24.8366 32 16 32C7.16344 32 0 24.8366 0 16Z" fill="#F4F4F4"/>
<path fill-rule="evenodd" clip-rule="evenodd" d="M8.27795 8.87218L11.4911 7.68251C11.9191 7.52377 12.4022 7.66991 12.6748 8.04016L14.7794 10.8976C15.0609 11.28 15.0455 11.8039 14.7421 12.1638L13.4352 13.7088C13.1374 14.0623 13.1154 14.5726 13.3829 14.955C13.8538 15.6278 14.3799 16.2674 14.9582 16.8674C15.6261 17.5612 16.3473 18.1864 17.1132 18.7406C17.4955 19.017 18.0141 18.9979 18.3707 18.6962L19.8377 17.4562C20.1966 17.1517 20.7199 17.1359 21.1026 17.4179L23.9606 19.5236C24.3298 19.7963 24.4763 20.2786 24.3176 20.7063C23.9797 21.6223 23.4126 23.157 23.1848 23.7738C23.0901 24.0297 22.908 24.264 22.648 24.3467C22.4333 24.4144 22.1341 24.3602 21.8611 24.3635C19.3663 24.3994 15.3545 22.0673 12.5656 19.173C10.1011 16.6153 8.41098 13.4749 7.6441 10.046C7.53301 9.54778 7.80139 9.04867 8.27795 8.87218Z" fill="#02BC41" fill-opacity="0.9"/>
</svg>
