<svg width="49" height="48" viewBox="0 0 49 48" fill="none" xmlns="http://www.w3.org/2000/svg">
<g clip-path="url(#clip0_10128_20448)">
<path d="M33.1573 13.5574C33.042 13.556 32.9285 13.5288 32.8251 13.4779C30.3545 12.139 27.5888 11.4377 24.7788 11.4377C21.9687 11.4377 19.203 12.139 16.7324 13.4779C16.6489 13.5253 16.557 13.5559 16.4617 13.5677C16.3664 13.5796 16.2697 13.5726 16.1772 13.5471C16.0846 13.5216 15.998 13.4782 15.9222 13.4192C15.8465 13.3602 15.7831 13.2869 15.7357 13.2034C15.6882 13.12 15.6577 13.028 15.6458 12.9327C15.634 12.8374 15.641 12.7408 15.6665 12.6482C15.6919 12.5557 15.7354 12.469 15.7944 12.3933C15.8533 12.3175 15.9267 12.2541 16.0101 12.2067C18.6903 10.7584 21.6889 10 24.7354 10C27.7819 10 30.7805 10.7584 33.4607 12.2067C33.6052 12.2807 33.7205 12.4012 33.7881 12.5489C33.8557 12.6965 33.8716 12.8626 33.8332 13.0203C33.7948 13.1781 33.7044 13.3183 33.5765 13.4183C33.4486 13.5184 33.2908 13.5725 33.1285 13.5718L33.1573 13.5574ZM12.4853 21.1342C12.3356 21.1353 12.1892 21.0899 12.0664 21.0042C11.9876 20.9512 11.92 20.8831 11.8675 20.8039C11.8151 20.7247 11.7787 20.6359 11.7606 20.5427C11.7425 20.4494 11.7429 20.3535 11.762 20.2604C11.781 20.1673 11.8182 20.0789 11.8714 20.0002C13.2701 18.0076 15.1315 16.3841 17.2958 15.2692C19.6093 14.1134 22.1601 13.5117 24.7462 13.5117C27.3324 13.5117 29.8832 14.1134 32.1967 15.2692C34.3529 16.377 36.2109 17.9872 37.6139 19.9641C37.7243 20.1195 37.7688 20.3122 37.7377 20.5003C37.7065 20.6884 37.6023 20.8565 37.4478 20.9681C37.369 21.0239 37.2799 21.0634 37.1856 21.0843C37.0913 21.1051 36.9938 21.1068 36.8989 21.0893C36.8039 21.0718 36.7135 21.0354 36.6328 20.9823C36.5522 20.9293 36.483 20.8606 36.4293 20.7803C35.1642 18.9896 33.4838 17.5323 31.5322 16.5332C29.4244 15.4781 27.0997 14.9288 24.7426 14.9288C22.3855 14.9288 20.0609 15.4781 17.9531 16.5332C15.9948 17.5416 14.3115 19.0116 13.0487 20.8164C12.986 20.9095 12.9024 20.9867 12.8046 21.0419C12.7068 21.0971 12.5975 21.1287 12.4853 21.1342ZM21.5212 38.5631C21.4256 38.5627 21.3311 38.5434 21.2431 38.5062C21.1551 38.469 21.0753 38.4147 21.0084 38.3464C19.8503 37.2382 18.8751 35.9535 18.1192 34.54C17.0854 32.6115 16.5608 30.4511 16.5952 28.2632C16.5952 23.9728 20.2644 20.4769 24.7788 20.4769C26.8959 20.4265 28.9465 21.218 30.4808 22.6777C32.015 24.1375 32.9074 26.1462 32.9623 28.2632C32.9623 28.4548 32.8862 28.6385 32.7508 28.774C32.6153 28.9094 32.4316 28.9855 32.24 28.9855C32.0485 28.9855 31.8647 28.9094 31.7293 28.774C31.5938 28.6385 31.5177 28.4548 31.5177 28.2632C31.4056 26.5522 30.6469 24.9479 29.3954 23.7757C28.1439 22.6035 26.4935 21.9513 24.7788 21.9513C23.0641 21.9513 21.4136 22.6035 20.1621 23.7757C18.9106 24.9479 18.1519 26.5522 18.0398 28.2632C18.0059 30.2028 18.4657 32.1191 19.376 33.8321C20.0708 35.133 20.9708 36.3135 22.0413 37.328C22.1758 37.4633 22.2513 37.6464 22.2513 37.8372C22.2513 38.028 22.1758 38.2111 22.0413 38.3464C21.9764 38.4192 21.896 38.4765 21.8059 38.514C21.7159 38.5516 21.6186 38.5683 21.5212 38.5631ZM31.8717 35.8906C30.2839 35.9277 28.7223 35.4819 27.3934 34.6122C26.3474 33.9154 25.4878 32.9732 24.8898 31.8677C24.2918 30.7623 23.9734 29.5273 23.9626 28.2705C23.9626 28.0789 24.0387 27.8952 24.1741 27.7597C24.3096 27.6243 24.4933 27.5482 24.6849 27.5482C24.8764 27.5482 25.0601 27.6243 25.1956 27.7597C25.331 27.8952 25.4071 28.0789 25.4071 28.2705C25.4161 29.1065 25.5928 29.9323 25.9268 30.6989C26.2608 31.4654 26.7452 32.1571 27.3514 32.733C27.9576 33.3089 28.6733 33.7573 29.4559 34.0515C30.2386 34.3458 31.0723 34.4799 31.9078 34.4461C32.4138 34.4407 32.9186 34.3948 33.4174 34.3088C33.6089 34.2753 33.806 34.3192 33.9651 34.431C34.1243 34.5427 34.2325 34.7131 34.2661 34.9047C34.2996 35.0963 34.2556 35.2933 34.1439 35.4525C34.0321 35.6116 33.8617 35.7199 33.6702 35.7534C33.0758 35.8514 32.474 35.8974 31.8717 35.8906ZM28.9825 38.8737C28.9204 38.8846 28.8568 38.8846 28.7947 38.8737C26.7538 38.3931 24.8922 37.3408 23.4281 35.8401C22.4331 34.8531 21.6442 33.6782 21.1073 32.3837C20.5704 31.0892 20.2961 29.7008 20.3005 28.2993C20.3653 27.1631 20.8623 26.0948 21.6896 25.3133C22.5169 24.5318 23.6118 24.0964 24.7499 24.0964C25.8879 24.0964 26.9828 24.5318 27.8101 25.3133C28.6374 26.0948 29.1344 27.1631 29.1992 28.2993C29.252 29.0603 29.5915 29.7728 30.1492 30.2931C30.7069 30.8135 31.4412 31.1028 32.2039 31.1028C32.9667 31.1028 33.701 30.8135 34.2587 30.2931C34.8164 29.7728 35.1559 29.0603 35.2087 28.2993C35.2087 22.8533 30.5138 18.4256 24.7426 18.4256C22.7651 18.4022 20.8209 18.9358 19.1323 19.9653C17.4437 20.9948 16.0789 22.4787 15.1939 24.2473C14.6108 25.5171 14.3219 26.9023 14.3489 28.2993C14.3454 30.0796 14.6711 31.8452 15.3095 33.5071C15.3427 33.5962 15.358 33.6911 15.3546 33.7861C15.3511 33.8812 15.329 33.9747 15.2894 34.0612C15.2498 34.1477 15.1936 34.2256 15.1239 34.2904C15.0543 34.3552 14.9725 34.4056 14.8833 34.4388C14.7942 34.472 14.6994 34.4873 14.6043 34.4839C14.5092 34.4804 14.4157 34.4583 14.3292 34.4187C14.2427 34.3792 14.1648 34.3229 14.1 34.2533C14.0352 34.1836 13.9848 34.1018 13.9516 34.0127C13.2562 32.188 12.8989 30.252 12.897 28.2993C12.8704 26.6869 13.2087 25.0894 13.8866 23.6261C14.89 21.6163 16.4375 19.9286 18.3529 18.7551C20.2683 17.5816 22.4747 16.9694 24.721 16.9882C31.2866 16.9882 36.6316 22.0443 36.6316 28.3066C36.5668 29.4428 36.0698 30.5111 35.2425 31.2926C34.4152 32.0741 33.3203 32.5095 32.1822 32.5095C31.0442 32.5095 29.9493 32.0741 29.122 31.2926C28.2947 30.5111 27.7977 29.4428 27.7329 28.3066C27.6801 27.5457 27.3406 26.8331 26.7829 26.3128C26.2253 25.7925 25.4909 25.5031 24.7282 25.5031C23.9655 25.5031 23.2311 25.7925 22.6734 26.3128C22.1158 26.8331 21.7762 27.5457 21.7235 28.3066C21.7215 29.5149 21.9593 30.7116 22.423 31.8275C22.8867 32.9433 23.5671 33.9561 24.4248 34.8072C25.7174 36.126 27.3581 37.0503 29.1558 37.4725C29.2507 37.4848 29.3422 37.5157 29.4251 37.5634C29.508 37.6111 29.5807 37.6746 29.6391 37.7504C29.6974 37.8262 29.7403 37.9127 29.7652 38.0051C29.7901 38.0974 29.7966 38.1938 29.7842 38.2887C29.7719 38.3835 29.741 38.475 29.6933 38.5579C29.6456 38.6408 29.5821 38.7135 29.5063 38.7719C29.4305 38.8302 29.344 38.8731 29.2516 38.898C29.1593 38.9229 29.0629 38.9294 28.968 38.917L28.9825 38.8737Z" fill="#121619" stroke="#121619" stroke-width="0.5"/>
</g>
<defs>
<clipPath id="clip0_10128_20448">
<rect width="48" height="48" fill="white" transform="translate(0.500031)"/>
</clipPath>
</defs>
</svg>
