<svg width="24" height="24" viewBox="0 0 24 24" fill="none" xmlns="http://www.w3.org/2000/svg">
<mask id="path-1-inside-1_3865_13295" fill="white">
<path fill-rule="evenodd" clip-rule="evenodd" d="M12.6507 3.8992L14.5264 9.12845L20.2673 9.46953C21.063 9.52631 21.2338 10.2653 20.6654 10.6633L16.2886 14.1306L17.7664 19.6441C17.9939 20.44 17.3117 20.8377 16.7433 20.44L12.1392 17.3137L7.30767 20.44C6.6255 20.8947 6.05729 20.3263 6.28461 19.7009L7.8193 14.3579L3.32881 10.7201C2.70362 10.2085 3.0447 9.52631 3.72668 9.46953L9.2972 9.29899L11.3433 3.95598C11.6276 3.16025 12.4233 3.27401 12.6507 3.8992Z"/>
</mask>
<path fill-rule="evenodd" clip-rule="evenodd" d="M12.6507 3.8992L14.5264 9.12845L20.2673 9.46953C21.063 9.52631 21.2338 10.2653 20.6654 10.6633L16.2886 14.1306L17.7664 19.6441C17.9939 20.44 17.3117 20.8377 16.7433 20.44L12.1392 17.3137L7.30767 20.44C6.6255 20.8947 6.05729 20.3263 6.28461 19.7009L7.8193 14.3579L3.32881 10.7201C2.70362 10.2085 3.0447 9.52631 3.72668 9.46953L9.2972 9.29899L11.3433 3.95598C11.6276 3.16025 12.4233 3.27401 12.6507 3.8992Z" fill="#F3F6FB"/>
<path d="M14.5264 9.12845L13.5852 9.46609L13.8081 10.0875L14.4671 10.1267L14.5264 9.12845ZM20.2673 9.46953L20.3385 8.472L20.3266 8.47129L20.2673 9.46953ZM20.6654 10.6633L20.0917 9.8442L20.0676 9.86114L20.0444 9.87948L20.6654 10.6633ZM16.2886 14.1306L15.6677 13.3467L15.1526 13.7547L15.3227 14.3894L16.2886 14.1306ZM17.7664 19.6441L16.8004 19.903L16.8026 19.911L16.8049 19.9189L17.7664 19.6441ZM16.7433 20.44L17.3166 19.6206L17.3051 19.6127L16.7433 20.44ZM12.1392 17.3137L12.701 16.4864L12.1526 16.114L11.596 16.4741L12.1392 17.3137ZM7.30767 20.44L6.76437 19.6004L6.75308 19.6079L7.30767 20.44ZM6.28461 19.7009L7.22445 20.0425L7.23623 20.0101L7.24575 19.977L6.28461 19.7009ZM7.8193 14.3579L8.78043 14.634L8.96321 13.9976L8.44877 13.5809L7.8193 14.3579ZM3.32881 10.7201L2.69549 11.494L2.69934 11.4971L3.32881 10.7201ZM3.72668 9.46953L3.69608 8.47L3.66985 8.4708L3.6437 8.47298L3.72668 9.46953ZM9.2972 9.29899L9.3278 10.2985L9.99304 10.2782L10.2311 9.65661L9.2972 9.29899ZM11.3433 3.95598L12.2772 4.31361L12.2812 4.30307L12.285 4.29243L11.3433 3.95598ZM11.7094 4.23684L13.5852 9.46609L15.4677 8.7908L13.5919 3.56156L11.7094 4.23684ZM14.4671 10.1267L20.208 10.4678L20.3266 8.47129L14.5857 8.13021L14.4671 10.1267ZM20.1961 10.467C20.245 10.4705 20.2236 10.4797 20.1709 10.4427C20.1156 10.404 20.0507 10.3299 20.0186 10.2208C19.9868 10.1129 19.9993 10.0117 20.029 9.9389C20.0583 9.86726 20.0951 9.84182 20.0917 9.8442L21.239 11.4824C21.8043 11.0866 22.1522 10.3867 21.9372 9.65613C21.7194 8.91602 21.0403 8.52215 20.3385 8.47207L20.1961 10.467ZM20.0444 9.87948L15.6677 13.3467L16.9096 14.9144L21.2863 11.4472L20.0444 9.87948ZM15.3227 14.3894L16.8004 19.903L18.7323 19.3852L17.2546 13.8717L15.3227 14.3894ZM16.8049 19.9189C16.8196 19.9705 16.8019 19.9518 16.8209 19.8855C16.8409 19.8155 16.8919 19.732 16.9799 19.6704C17.1681 19.5386 17.3174 19.6212 17.3166 19.6207L16.17 21.2594C16.7376 21.6565 17.5122 21.7391 18.1267 21.3089C18.7696 20.8589 18.9294 20.0745 18.7278 19.3693L16.8049 19.9189ZM17.3051 19.6127L12.701 16.4864L11.5775 18.141L16.1815 21.2673L17.3051 19.6127ZM11.596 16.4741L6.76442 19.6005L7.85093 21.2796L12.6825 18.1533L11.596 16.4741ZM6.75308 19.6079C6.71579 19.6328 6.73992 19.6048 6.82205 19.6043C6.90777 19.6038 7.00715 19.6348 7.08994 19.7028C7.25959 19.8422 7.23667 20.0089 7.22445 20.0425L5.34478 19.3593C5.10523 20.0183 5.25276 20.7818 5.82022 21.2481C6.42833 21.7478 7.23503 21.6902 7.86226 21.2721L6.75308 19.6079ZM7.24575 19.977L8.78043 14.634L6.85816 14.0818L5.32347 19.4248L7.24575 19.977ZM8.44877 13.5809L3.95828 9.94308L2.69934 11.4971L7.18982 15.1349L8.44877 13.5809ZM3.96212 9.94621C3.92383 9.91487 3.95562 9.92694 3.98065 10.0026C4.00746 10.0835 4.00818 10.1857 3.97161 10.2814C3.90006 10.4685 3.77114 10.4693 3.80965 10.4661L3.6437 8.47298C3.00024 8.52656 2.35979 8.89679 2.1035 9.56713C1.82362 10.2992 2.1287 11.0302 2.6955 11.494L3.96212 9.94621ZM3.75728 10.4691L9.3278 10.2985L9.26659 8.29946L3.69608 8.47L3.75728 10.4691ZM10.2311 9.65661L12.2772 4.31361L10.4095 3.59836L8.36333 8.94136L10.2311 9.65661ZM12.285 4.29243C12.304 4.23924 12.3068 4.26848 12.2478 4.31419C12.1852 4.36266 12.093 4.39713 11.9913 4.39438C11.7881 4.38888 11.7175 4.25918 11.7109 4.24092L13.5905 3.55748C13.3565 2.91403 12.7744 2.41486 12.0454 2.39511C11.2577 2.37377 10.6555 2.90882 10.4016 3.61953L12.285 4.29243Z" fill="#808892" mask="url(#path-1-inside-1_3865_13295)"/>
</svg>
