<svg width="48" height="48" viewBox="0 0 48 48" fill="none" xmlns="http://www.w3.org/2000/svg">
<circle cx="24" cy="24" r="24" fill="#F3F6FB"/>
<path d="M30.1818 19.0864H30.1553C29.9257 15.7381 27.2587 13.0908 24 13.0908C20.7413 13.0908 18.0654 15.7381 17.8447 19.0864H17.8182C14.4005 19.0864 11.6364 21.9735 11.6364 25.5431C11.6364 29.1128 14.4005 31.9999 17.8182 31.9999H30.1818C33.5995 31.9999 36.3636 29.1128 36.3636 25.5431C36.3636 21.9735 33.5995 19.0864 30.1818 19.0864Z" fill="url(#paint0_linear_7335_73876)"/>
<path d="M37.0828 24.5V27.3637C37.2572 31.3891 34.5986 35.0464 30.5455 36.3637C26.4923 35.0464 23.8338 31.3891 24.0081 27.3637V24.5L30.5455 22.4546L37.0828 24.5Z" fill="#0F49A4"/>
<path d="M30.5454 29.4545C31.3488 29.4545 32 28.8033 32 28C32 27.1966 31.3488 26.5454 30.5454 26.5454C29.7421 26.5454 29.0909 27.1966 29.0909 28C29.0909 28.8033 29.7421 29.4545 30.5454 29.4545Z" fill="white"/>
<path d="M30.5454 28V31.2727" stroke="white" stroke-width="1.5" stroke-miterlimit="10" stroke-linecap="round"/>
<defs>
<linearGradient id="paint0_linear_7335_73876" x1="16.5377" y1="17.7489" x2="32.1114" y2="32.6595" gradientUnits="userSpaceOnUse">
<stop offset="1" stop-color="#CAE4FF"/>
<stop offset="1" stop-color="#AFD6FF"/>
</linearGradient>
</defs>
</svg>
