<svg width="24" height="24" viewBox="0 0 24 24" fill="none" xmlns="http://www.w3.org/2000/svg">
<path d="M19.8758 10.4836C19.7904 10.3787 19.6713 10.3066 19.5388 10.2796L17.9512 9.96032C17.8684 9.701 17.7646 9.44887 17.6408 9.20645L18.5277 7.85833C18.6027 7.75271 18.6373 7.62368 18.6253 7.4947C18.6139 7.35994 18.554 7.2339 18.4568 7.13993L16.8426 5.49913C16.7269 5.41476 16.5866 5.37109 16.4435 5.37496C16.3307 5.38128 16.2212 5.41475 16.1242 5.47253L14.776 6.35944C14.5316 6.24002 14.2798 6.13633 14.0222 6.04902L13.7029 4.46144C13.6807 4.33168 13.6112 4.21477 13.5078 4.13328C13.4051 4.04897 13.2769 4.00206 13.1441 4.00024H10.8559C10.7261 4.00403 10.6013 4.05083 10.5011 4.13328C10.3985 4.21689 10.3267 4.33238 10.2971 4.46144L9.96896 6.00467C9.7125 6.09514 9.46088 6.19875 9.21508 6.3151L7.86697 5.42818C7.77245 5.37205 7.66618 5.33865 7.55654 5.33062C7.40501 5.33727 7.26062 5.39691 7.14856 5.49913L5.53437 7.1488C5.44605 7.24789 5.39032 7.37174 5.37473 7.50357C5.3637 7.63122 5.39486 7.75896 5.46342 7.8672L6.35034 9.21532C6.23399 9.46111 6.13038 9.71274 6.03992 9.96919L4.45234 10.2885C4.32328 10.318 4.20778 10.3898 4.12418 10.4925C4.04432 10.5935 4.0006 10.7184 4.00001 10.8472V13.1266C3.9993 13.2584 4.04305 13.3865 4.12418 13.4903C4.20566 13.5936 4.32258 13.6632 4.45234 13.6854L6.03992 14.0047C6.13748 14.2619 6.23504 14.5191 6.35034 14.7585L5.46342 16.1067C5.3959 16.2186 5.36491 16.3488 5.37473 16.4792C5.38854 16.6089 5.44464 16.7304 5.53437 16.8251L7.14856 18.4393C7.202 18.4924 7.26579 18.534 7.33597 18.5615C7.40615 18.5889 7.48123 18.6017 7.55654 18.5989C7.66724 18.6069 7.77721 18.5755 7.86697 18.5102L9.21508 17.6233C9.45733 17.7499 9.70945 17.8567 9.96896 17.9426L10.306 19.5656C10.3313 19.6964 10.4039 19.8132 10.51 19.8938C10.558 19.9369 10.614 19.9701 10.6749 19.9914C10.7358 20.0127 10.8003 20.0218 10.8647 20.018H13.1441C13.2756 20.0204 13.4037 19.9763 13.5059 19.8936C13.6081 19.8109 13.6779 19.6947 13.7029 19.5656L14.0222 17.9781C14.2829 17.8954 14.5353 17.7885 14.776 17.6588L16.1242 18.5457C16.2184 18.6085 16.3303 18.6395 16.4435 18.6344C16.5175 18.6375 16.5914 18.6249 16.6602 18.5974C16.729 18.5699 16.7911 18.5281 16.8426 18.4747L18.4568 16.8605C18.5556 16.7714 18.616 16.6474 18.6253 16.5146C18.6364 16.383 18.602 16.2515 18.5277 16.1421L17.6408 14.794C17.7677 14.553 17.8716 14.3006 17.9512 14.0401L19.5388 13.7209C19.6718 13.7007 19.7922 13.631 19.8758 13.5257C19.9569 13.4219 20.0007 13.2938 20 13.1621V10.8384C19.9994 10.7096 19.9557 10.5847 19.8758 10.4836ZM12 14.5989C11.4738 14.5989 10.9593 14.4429 10.5218 14.1505C10.0842 13.8581 9.74317 13.4426 9.54178 12.9564C9.3404 12.4702 9.28771 11.9352 9.39037 11.4191C9.49304 10.9029 9.74645 10.4288 10.1186 10.0567C10.4907 9.6846 10.9648 9.43119 11.4809 9.32853C11.997 9.22586 12.532 9.27855 13.0182 9.47994C13.5044 9.68132 13.92 10.0224 14.2123 10.4599C14.5047 10.8975 14.6608 11.4119 14.6608 11.9382C14.6608 12.6438 14.3804 13.3206 13.8814 13.8196C13.3824 14.3186 12.7057 14.5989 12 14.5989Z" fill="#B9C1C9"/>
</svg>
