<svg width="32" height="33" viewBox="0 0 32 33" fill="none" xmlns="http://www.w3.org/2000/svg">
<rect y="0.707031" width="32" height="32" fill="#D8D8D8" fill-opacity="0.01"/>
<path fill-rule="evenodd" clip-rule="evenodd" d="M6 9.74609C6 9.33188 6.33579 8.99609 6.75 8.99609H25.25C25.6642 8.99609 26 9.33188 26 9.74609C26 10.1603 25.6642 10.4961 25.25 10.4961H6.75C6.33579 10.4961 6 10.1603 6 9.74609ZM6 16.748C6 16.3338 6.33579 15.998 6.75 15.998H25.25C25.6642 15.998 26 16.3338 26 16.748C26 17.1623 25.6642 17.498 25.25 17.498H6.75C6.33579 17.498 6 17.1623 6 16.748ZM6.75 23C6.33579 23 6 23.3358 6 23.75C6 24.1642 6.33579 24.5 6.75 24.5H25.25C25.6642 24.5 26 24.1642 26 23.75C26 23.3358 25.6642 23 25.25 23H6.75Z" fill="#343A3F"/>
</svg>
