<svg width="32" height="32" viewBox="0 0 32 32" fill="none" xmlns="http://www.w3.org/2000/svg">
<path d="M8.76562 19.1949V12.1374C8.76562 12.1374 9.08563 5.2246 16.2399 5.11328C18.0548 5.17518 19.7916 5.84799 21.1545 7.01711C22.5173 8.18622 23.4219 9.77935 23.7142 11.5252V18.4825C23.7142 18.4825 24.1599 24.7274 16.7542 26.0075" stroke="#0471E9" stroke-width="2" stroke-miterlimit="10" stroke-linecap="round"/>
<path d="M6.00756 11.6367H7.45661C7.57654 11.6367 7.69528 11.6609 7.80595 11.708C7.91663 11.755 8.01704 11.8239 8.10138 11.9108C8.18573 11.9976 8.25232 12.1006 8.29731 12.2138C8.3423 12.327 8.3648 12.4482 8.36349 12.5704V17.2586C8.36349 17.5035 8.26795 17.7385 8.09787 17.9117C7.9278 18.0849 7.69713 18.1822 7.45661 18.1822H6.00756C5.76613 18.1822 5.53443 18.0852 5.36279 17.9123C5.19115 17.7394 5.09342 17.5045 5.09082 17.2586V12.5704C5.09082 12.3227 5.18741 12.0853 5.35933 11.9102C5.53125 11.7351 5.76443 11.6367 6.00756 11.6367Z" fill="#0471E9"/>
<path d="M24.5464 11.6367H25.9998C26.1201 11.6367 26.2392 11.6609 26.3502 11.708C26.4612 11.755 26.5619 11.8239 26.6465 11.9108C26.7311 11.9976 26.7979 12.1006 26.843 12.2138C26.8881 12.327 26.9107 12.4482 26.9094 12.5704V17.2586C26.9094 17.3799 26.8859 17.5 26.8402 17.612C26.7944 17.7241 26.7274 17.8259 26.643 17.9117C26.5585 17.9974 26.4582 18.0655 26.3479 18.1119C26.2375 18.1583 26.1192 18.1822 25.9998 18.1822H24.5464C24.3051 18.1822 24.0738 18.0849 23.9032 17.9117C23.7326 17.7385 23.6368 17.5035 23.6368 17.2586V12.5704C23.6355 12.4482 23.658 12.327 23.7032 12.2138C23.7483 12.1006 23.8151 11.9976 23.8997 11.9108C23.9843 11.8239 24.085 11.755 24.196 11.708C24.307 11.6609 24.4261 11.6367 24.5464 11.6367Z" fill="#0471E9"/>
<path d="M16.5455 27.4544C17.4493 27.4544 18.1819 26.7217 18.1819 25.818C18.1819 24.9143 17.4493 24.1816 16.5455 24.1816C15.6418 24.1816 14.9092 24.9143 14.9092 25.818C14.9092 26.7217 15.6418 27.4544 16.5455 27.4544Z" fill="#0471E9"/>
<path d="M13.8975 17.5254C14.1401 17.9026 14.4771 18.2136 14.8769 18.4292C15.2767 18.6448 15.7262 18.7579 16.1832 18.7579C16.6402 18.7579 17.0897 18.6448 17.4895 18.4292C17.8893 18.2136 18.2263 17.9026 18.4689 17.5254" stroke="#0471E9" stroke-width="1.5" stroke-miterlimit="10" stroke-linecap="round"/>
</svg>
