<svg width="48" height="48" viewBox="0 0 48 48" fill="none" xmlns="http://www.w3.org/2000/svg">
<g clip-path="url(#clip0_1211_38155)">
<path d="M34.3508 10.3783C34.2089 10.3766 34.0691 10.3432 33.9418 10.2805C30.9011 8.63258 27.4972 7.76951 24.0387 7.76951C20.5801 7.76951 17.1762 8.63258 14.1355 10.2805C14.0327 10.3389 13.9195 10.3764 13.8023 10.3911C13.685 10.4057 13.566 10.397 13.4521 10.3657C13.3382 10.3343 13.2316 10.2808 13.1383 10.2082C13.0451 10.1357 12.9671 10.0454 12.9087 9.94269C12.8503 9.83996 12.8128 9.72673 12.7981 9.60948C12.7835 9.49223 12.7922 9.37325 12.8235 9.25933C12.8549 9.14542 12.9084 9.03879 12.981 8.94555C13.0535 8.85231 13.1438 8.77428 13.2465 8.7159C16.5452 6.93336 20.2358 6 23.9853 6C27.7348 6 31.4254 6.93336 34.7241 8.7159C34.902 8.80701 35.0439 8.95538 35.1271 9.13707C35.2103 9.31876 35.2298 9.52317 35.1826 9.71733C35.1353 9.91148 35.024 10.0841 34.8667 10.2072C34.7093 10.3303 34.515 10.3969 34.3152 10.3961L34.3508 10.3783ZM8.9083 19.7036C8.724 19.705 8.54382 19.6491 8.39269 19.5436C8.29568 19.4783 8.2125 19.3946 8.14792 19.2971C8.08333 19.1996 8.03861 19.0904 8.01631 18.9756C7.99402 18.8608 7.99458 18.7427 8.01798 18.6282C8.04138 18.5136 8.08715 18.4048 8.15267 18.3079C9.87419 15.8554 12.1651 13.8573 14.8289 12.4852C17.6763 11.0626 20.8156 10.322 23.9986 10.322C27.1816 10.322 30.321 11.0626 33.1684 12.4852C35.8222 13.8486 38.109 15.8305 39.8357 18.2635C39.9716 18.4548 40.0264 18.692 39.9881 18.9235C39.9498 19.1549 39.8215 19.3619 39.6313 19.4992C39.5344 19.5679 39.4246 19.6165 39.3086 19.6422C39.1926 19.6678 39.0726 19.6699 38.9557 19.6483C38.8389 19.6268 38.7275 19.582 38.6283 19.5167C38.529 19.4514 38.4438 19.3668 38.3778 19.268C36.8207 17.0641 34.7526 15.2705 32.3506 14.0409C29.7564 12.7423 26.8953 12.0662 23.9942 12.0662C21.0932 12.0662 18.232 12.7423 15.6378 14.0409C13.2276 15.2819 11.1559 17.0913 9.6017 19.3125C9.52448 19.4271 9.4216 19.5221 9.30123 19.59C9.18087 19.6579 9.04633 19.6968 8.9083 19.7036ZM20.0294 41.1546C19.9118 41.1541 19.7954 41.1303 19.6871 41.0845C19.5787 41.0387 19.4805 40.9719 19.3982 40.8879C17.9728 39.524 16.7726 37.9427 15.8423 36.203C14.5699 33.8295 13.9242 31.1705 13.9666 28.4778C13.9666 23.1973 18.4826 18.8947 24.0387 18.8947C26.6443 18.8326 29.1682 19.8067 31.0565 21.6033C32.9448 23.3999 34.0432 25.8723 34.1107 28.4778C34.1107 28.7136 34.0171 28.9397 33.8504 29.1064C33.6836 29.2731 33.4575 29.3668 33.2218 29.3668C32.986 29.3668 32.7599 29.2731 32.5932 29.1064C32.4264 28.9397 32.3328 28.7136 32.3328 28.4778C32.1948 26.3719 31.261 24.3974 29.7207 22.9547C28.1804 21.512 26.1491 20.7093 24.0387 20.7093C21.9283 20.7093 19.8969 21.512 18.3566 22.9547C16.8163 24.3974 15.8825 26.3719 15.7445 28.4778C15.7028 30.865 16.2687 33.2235 17.3891 35.3318C18.2443 36.933 19.3519 38.3858 20.6694 39.6345C20.835 39.801 20.9279 40.0263 20.9279 40.2612C20.9279 40.496 20.835 40.7214 20.6694 40.8879C20.5896 40.9775 20.4906 41.048 20.3798 41.0942C20.269 41.1404 20.1492 41.161 20.0294 41.1546V41.1546ZM32.7684 37.8654C30.8142 37.911 28.8923 37.3623 27.2567 36.2919C25.9693 35.4344 24.9114 34.2747 24.1753 32.9141C23.4393 31.5536 23.0475 30.0335 23.0341 28.4867C23.0341 28.2509 23.1278 28.0248 23.2945 27.8581C23.4612 27.6914 23.6873 27.5977 23.9231 27.5977C24.1589 27.5977 24.385 27.6914 24.5517 27.8581C24.7184 28.0248 24.8121 28.2509 24.8121 28.4867C24.8231 29.5157 25.0406 30.5321 25.4516 31.4755C25.8627 32.419 26.4589 33.2703 27.205 33.9791C27.9511 34.6879 28.8319 35.2397 29.7952 35.6019C30.7584 35.964 31.7846 36.1291 32.8128 36.0874C33.4357 36.0808 34.057 36.0243 34.6708 35.9185C34.9066 35.8773 35.1491 35.9314 35.345 36.0689C35.5409 36.2065 35.6741 36.4162 35.7153 36.6519C35.7566 36.8877 35.7025 37.1302 35.565 37.3261C35.4274 37.522 35.2177 37.6552 34.9819 37.6965C34.2504 37.8171 33.5097 37.8737 32.7684 37.8654V37.8654ZM29.2125 41.5369C29.136 41.5503 29.0578 41.5503 28.9814 41.5369C26.4695 40.9454 24.1783 39.6502 22.3763 37.8032C21.1517 36.5885 20.1807 35.1424 19.5199 33.5492C18.8591 31.9559 18.5216 30.2471 18.527 28.5223C18.6067 27.1239 19.2184 25.809 20.2366 24.8471C21.2548 23.8853 22.6024 23.3494 24.0031 23.3494C25.4038 23.3494 26.7514 23.8853 27.7696 24.8471C28.7878 25.809 29.3995 27.1239 29.4792 28.5223C29.5442 29.4588 29.962 30.3357 30.6484 30.9762C31.3348 31.6166 32.2386 31.9727 33.1773 31.9727C34.1161 31.9727 35.0199 31.6166 35.7062 30.9762C36.3926 30.3357 36.8105 29.4588 36.8754 28.5223C36.8754 21.8194 31.0971 16.37 23.9942 16.37C21.5603 16.3412 19.1675 16.9979 17.0892 18.265C15.011 19.5321 13.3312 21.3584 12.242 23.5351C11.5243 25.098 11.1687 26.8028 11.2019 28.5223C11.1977 30.7134 11.5985 32.8864 12.3842 34.9318C12.4251 35.0415 12.4439 35.1582 12.4397 35.2752C12.4354 35.3923 12.4082 35.5073 12.3595 35.6138C12.3107 35.7203 12.2415 35.8161 12.1558 35.8959C12.0701 35.9756 11.9694 36.0377 11.8597 36.0786C11.75 36.1194 11.6333 36.1383 11.5162 36.134C11.3992 36.1298 11.2842 36.1025 11.1777 36.0538C11.0712 36.0051 10.9753 35.9359 10.8956 35.8502C10.8159 35.7644 10.7538 35.6638 10.7129 35.5541C9.85706 33.3083 9.41726 30.9255 9.41501 28.5223C9.38225 26.5378 9.79859 24.5715 10.6329 22.7706C11.8679 20.297 13.7725 18.2199 16.1299 16.7755C18.4873 15.3312 21.2029 14.5778 23.9675 14.6009C32.0483 14.6009 38.6267 20.8237 38.6267 28.5312C38.547 29.9296 37.9353 31.2445 36.9171 32.2063C35.8989 33.1681 34.5513 33.704 33.1506 33.704C31.75 33.704 30.4024 33.1681 29.3842 32.2063C28.3659 31.2445 27.7543 29.9296 27.6746 28.5312C27.6096 27.5947 27.1917 26.7177 26.5054 26.0773C25.819 25.4369 24.9152 25.0807 23.9764 25.0807C23.0377 25.0807 22.1339 25.4369 21.4475 26.0773C20.7611 26.7177 20.3433 27.5947 20.2783 28.5312C20.2759 30.0184 20.5685 31.4913 21.1392 32.8646C21.7099 34.2379 22.5474 35.4844 23.6031 36.5319C25.1939 38.155 27.2133 39.2927 29.4258 39.8123C29.5426 39.8274 29.6552 39.8655 29.7572 39.9241C29.8593 39.9828 29.9488 40.0611 30.0206 40.1543C30.0924 40.2476 30.1452 40.3541 30.1758 40.4678C30.2065 40.5815 30.2144 40.7001 30.1993 40.8168C30.1841 40.9335 30.1461 41.0461 30.0874 41.1482C30.0287 41.2502 29.9504 41.3397 29.8572 41.4115C29.7639 41.4834 29.6574 41.5361 29.5437 41.5668C29.43 41.5974 29.3114 41.6054 29.1947 41.5902L29.2125 41.5369Z" fill="#121619" stroke="#121619" stroke-width="0.5"/>
</g>
<defs>
<clipPath id="clip0_1211_38155">
<rect width="48" height="48" fill="white"/>
</clipPath>
</defs>
</svg>
