<svg width="32" height="32" viewBox="0 0 32 32" fill="none" xmlns="http://www.w3.org/2000/svg">
<line opacity="0.1" x1="6" y1="6.99423" x2="25.729" y2="6.99423" stroke="#121619" stroke-width="2"/>
<line opacity="0.1" x1="6" y1="24.7364" x2="25.729" y2="24.7364" stroke="#121619" stroke-width="2"/>
<path opacity="0.1" d="M6.7041 25.5865L25.9995 6.29122" stroke="#121619" stroke-width="2"/>
<path d="M7.3335 9.33333C8.43807 9.33333 9.3335 8.4379 9.3335 7.33333C9.3335 6.22876 8.43807 5.33333 7.3335 5.33333C6.22893 5.33333 5.3335 6.22876 5.3335 7.33333C5.3335 8.4379 6.22893 9.33333 7.3335 9.33333Z" fill="#121619"/>
<path d="M25.3335 9.33333C26.4381 9.33333 27.3335 8.4379 27.3335 7.33333C27.3335 6.22876 26.4381 5.33333 25.3335 5.33333C24.2289 5.33333 23.3335 6.22876 23.3335 7.33333C23.3335 8.4379 24.2289 9.33333 25.3335 9.33333Z" fill="#121619"/>
<path d="M7.3335 26.6667C8.43807 26.6667 9.3335 25.7712 9.3335 24.6667C9.3335 23.5621 8.43807 22.6667 7.3335 22.6667C6.22893 22.6667 5.3335 23.5621 5.3335 24.6667C5.3335 25.7712 6.22893 26.6667 7.3335 26.6667Z" fill="#121619"/>
<path d="M25.3335 26.6667C26.4381 26.6667 27.3335 25.7712 27.3335 24.6667C27.3335 23.5621 26.4381 22.6667 25.3335 22.6667C24.2289 22.6667 23.3335 23.5621 23.3335 24.6667C23.3335 25.7712 24.2289 26.6667 25.3335 26.6667Z" fill="#121619"/>
</svg>
