<svg width="32" height="32" viewBox="0 0 32 32" fill="none" xmlns="http://www.w3.org/2000/svg">
<circle cx="16" cy="16" r="16" fill="#F3F6FB"/>
<path d="M20.7368 7H11.2632C10.5655 7 10 7.56554 10 8.26316V23.7368C10 24.4345 10.5655 25 11.2632 25H20.7368C21.4345 25 22 24.4345 22 23.7368V8.26316C22 7.56554 21.4345 7 20.7368 7Z" fill="#3B94FD"/>
<path d="M10 21H22V23.6753C22 24.4039 21.4316 25 20.7368 25H11.2632C10.5684 25 10 24.4039 10 23.6753L10 21Z" fill="#2079E2"/>
<path d="M16 24C16.5523 24 17 23.5523 17 23C17 22.4477 16.5523 22 16 22C15.4477 22 15 22.4477 15 23C15 23.5523 15.4477 24 16 24Z" fill="white"/>
</svg>
