<svg width="49" height="48" viewBox="0 0 49 48" fill="none" xmlns="http://www.w3.org/2000/svg">
<g clip-path="url(#clip0_7777_31982)">
<path d="M24.666 11C27.9797 11 30.666 13.6863 30.666 17L30.666 18.3162L30.666 19L18.666 19L18.666 18.3162L18.666 17C18.666 13.6863 21.3523 11 24.666 11Z" stroke="#121619" stroke-width="2"/>
<path d="M12.666 22C12.666 20.3431 14.0092 19 15.666 19H33.666C35.3229 19 36.666 20.3431 36.666 22V34C36.666 35.6569 35.3229 37 33.666 37H15.666C14.0092 37 12.666 35.6569 12.666 34V22Z" stroke="#121619" stroke-width="2"/>
<path d="M24.6973 30.0625C25.8191 30.0625 26.7285 29.1531 26.7285 28.0312C26.7285 26.9094 25.8191 26 24.6973 26C23.5754 26 22.666 26.9094 22.666 28.0312C22.666 29.1531 23.5754 30.0625 24.6973 30.0625Z" fill="#121619"/>
</g>
<defs>
<clipPath id="clip0_7777_31982">
<rect width="48" height="48" fill="white" transform="translate(0.666016)"/>
</clipPath>
</defs>
</svg>
