<svg width="32" height="32" viewBox="0 0 32 32" fill="none" xmlns="http://www.w3.org/2000/svg">
<circle cx="16" cy="16" r="16" fill="#F3F6FB"/>
<path fill-rule="evenodd" clip-rule="evenodd" d="M9.55026 10.0467L12.234 9.05303C12.5915 8.92044 12.995 9.0425 13.2226 9.35175L14.9805 11.7384C15.2155 12.0577 15.2027 12.4953 14.9493 12.796L13.8577 14.0864C13.609 14.3816 13.5907 14.8078 13.814 15.1272C14.2074 15.6891 14.6468 16.2234 15.1298 16.7245C15.6877 17.304 16.29 17.8262 16.9297 18.289C17.249 18.5199 17.6821 18.5039 17.98 18.252L19.2053 17.2162C19.5051 16.962 19.9421 16.9487 20.2618 17.1843L22.6488 18.943C22.9572 19.1708 23.0796 19.5736 22.947 19.9308C22.6648 20.6959 22.1911 21.9778 22.0009 22.4929C21.9217 22.7066 21.7697 22.9024 21.5525 22.9714C21.3732 23.0279 21.1233 22.9827 20.8953 22.9854C18.8115 23.0155 15.4608 21.0676 13.1314 18.6502C11.073 16.5139 9.66137 13.891 9.02084 11.0271C8.92806 10.611 9.15222 10.1941 9.55026 10.0467Z" fill="#3B94FD"/>
</svg>
