<svg width="48" height="48" viewBox="0 0 48 48" fill="none" xmlns="http://www.w3.org/2000/svg">
<g clip-path="url(#clip0_26859_317927)">
<g clip-path="url(#clip1_26859_317927)">
<g clip-path="url(#clip2_26859_317927)">
<path d="M40.5 0H7.5C3.35786 0 0 3.35786 0 7.5V40.5C0 44.6421 3.35786 48 7.5 48H40.5C44.6421 48 48 44.6421 48 40.5V7.5C48 3.35786 44.6421 0 40.5 0Z" fill="white"/>
<path d="M33.7125 9.08398V20.8927H39.2128V23.0359H30.8016V10.884C30.8016 10.2774 30.7003 9.97367 30.3572 9.59023C30.135 9.32773 30.2766 9.08492 30.5391 9.08492H33.7125V9.08398Z" fill="url(#paint0_linear_26859_317927)"/>
<path d="M9.33187 23.5784C10.4034 24.4475 12.1022 24.9734 13.275 24.9734C14.7309 24.9734 15.6 24.3462 15.6 23.1537C15.6 22.2238 15.2362 21.6369 14.0428 21.0303C12.6881 20.3431 11.5762 19.9184 10.545 19.0287C9.615 18.2197 8.9475 17.2091 8.9475 15.7334C8.9475 13.6503 10.6659 12.1953 13.5375 12.1953C15.1144 12.1953 16.4287 12.4578 17.6625 12.9838V15.1878C17.6625 15.5112 17.3587 15.6125 17.1169 15.41C16.1062 14.5606 15.075 14.1763 13.8816 14.1763C12.6281 14.1763 11.8997 14.7622 11.8997 15.7334C11.8997 16.4206 12.1622 16.9063 12.6281 17.2906C13.5178 18.0181 14.6297 18.5441 15.6009 19.0091C17.4609 19.8988 18.5531 20.93 18.5531 23.1134C18.5531 25.8425 16.2478 26.9553 13.3162 26.9553C11.1525 26.9553 8.42344 25.9241 8.76656 25.0344L9.33187 23.5784Z" fill="#011B6A"/>
<mask id="mask0_26859_317927" style="mask-type:alpha" maskUnits="userSpaceOnUse" x="16" y="14" width="16" height="16">
<path d="M24.0066 14.3125C19.9304 14.3125 16.6266 17.6172 16.6266 21.6925C16.6266 25.7688 19.9313 29.0725 24.0066 29.0725C28.0819 29.0725 31.3866 25.7678 31.3866 21.6925C31.3866 17.6172 28.0829 14.3125 24.0066 14.3125ZM24.0066 26.5825C21.3066 26.5825 19.1176 24.3934 19.1176 21.6934C19.1176 18.9934 21.3066 16.8044 24.0066 16.8044C26.7066 16.8044 28.8957 18.9934 28.8957 21.6934C28.8957 24.3934 26.7066 26.5825 24.0066 26.5825Z" fill="url(#paint1_linear_26859_317927)"/>
</mask>
<g mask="url(#mask0_26859_317927)">
<path d="M24.5626 34.8784C28.2035 34.8784 31.1551 31.9268 31.1551 28.2859C31.1551 24.6449 28.2035 21.6934 24.5626 21.6934C20.9216 21.6934 17.9701 24.6449 17.9701 28.2859C17.9701 31.9268 20.9216 34.8784 24.5626 34.8784Z" fill="url(#paint2_linear_26859_317927)"/>
<path d="M23.8988 23.2452C28.0342 23.2452 31.3866 19.8927 31.3866 15.7573C31.3866 11.6219 28.0342 8.26953 23.8988 8.26953C19.7634 8.26953 16.411 11.6219 16.411 15.7573C16.411 19.8927 19.7634 23.2452 23.8988 23.2452Z" fill="url(#paint3_linear_26859_317927)"/>
<path d="M21.5007 27.8952C25.3793 27.8952 28.5235 24.751 28.5235 20.8724C28.5235 16.9938 25.3793 13.8496 21.5007 13.8496C17.6221 13.8496 14.4779 16.9938 14.4779 20.8724C14.4779 24.751 17.6221 27.8952 21.5007 27.8952Z" fill="url(#paint4_linear_26859_317927)"/>
<path d="M29.5829 25.9216C33.8301 25.9216 37.2732 22.4786 37.2732 18.2313C37.2732 13.9841 33.8301 10.541 29.5829 10.541C25.3356 10.541 21.8925 13.9841 21.8925 18.2313C21.8925 22.4786 25.3356 25.9216 29.5829 25.9216Z" fill="url(#paint5_linear_26859_317927)"/>
</g>
<path d="M10.5103 34.3102C10.5103 34.0505 10.4953 33.909 10.3453 33.743C10.2506 33.6249 10.3134 33.5152 10.4241 33.5152H11.7862V34.5624C11.7862 35.5937 12.7941 36.2002 13.7072 36.5077L13.3687 37.1452C13.2666 37.3337 12.8812 37.2634 12.2034 36.8462C11.8172 36.6099 11.4478 36.2949 11.2031 35.9649C10.9116 36.3812 10.5487 36.728 10.1325 37.0046C9.65155 37.3196 9.03749 37.6187 8.9353 37.4218L8.57343 36.7365C9.62061 36.3268 10.5103 35.6424 10.5103 34.6421V34.3102ZM11.1712 40.704C10.2187 40.704 9.86436 40.539 9.86436 39.744V38.5234C9.86436 38.3659 9.80905 38.2477 9.69936 38.1137C9.60468 37.9955 9.66749 37.8859 9.77811 37.8859H11.1169V39.4927C11.1169 39.7759 11.2191 39.8152 11.4787 39.8152H15.6909V40.7049H11.1712V40.704ZM14.3212 38.2862V34.1921C14.3212 33.9165 14.2744 33.7749 14.1244 33.609C14.0297 33.4909 14.0925 33.3887 14.2106 33.3887H15.5569V38.2862H14.3212Z" fill="#011B6A"/>
<path d="M18.2606 33.9724C18.2606 33.6977 18.2447 33.5712 18.0956 33.3902C17.9934 33.2712 18.0562 33.1699 18.1744 33.1699H19.5206V34.0512H21.3084V34.9174H20.4816C20.7262 35.193 20.8753 35.5315 20.8753 35.9327C20.8753 36.9255 20.1431 37.6812 18.8362 37.6812C17.5369 37.6812 16.7972 36.9255 16.7972 35.9327C16.7972 35.524 16.9387 35.1855 17.175 34.9174H16.3481V34.0512H18.2616V33.9724H18.2606ZM23.2762 39.8149V40.7046H18.8747C17.9222 40.7046 17.5284 40.5002 17.5284 39.7043V38.838C17.5284 38.6805 17.4731 38.5624 17.3634 38.4293C17.2687 38.3102 17.3316 38.2005 17.4422 38.2005H18.7809V39.4924C18.7809 39.7755 18.8831 39.8149 19.1428 39.8149H23.2762ZM18.8353 36.8149C19.3781 36.8149 19.6931 36.3977 19.6931 35.8934C19.6931 35.358 19.3781 34.9484 18.8353 34.9484C18.2841 34.9484 17.9766 35.358 17.9766 35.8934C17.9766 36.3977 18.2841 36.8149 18.8353 36.8149ZM21.9459 38.3974V34.1927C21.9459 33.9171 21.9066 33.7915 21.7566 33.6096C21.6544 33.4915 21.7172 33.3893 21.8353 33.3893H23.1816V35.2474H24.0787V36.1371H23.1816V38.3965H21.9459V38.3974Z" fill="#011B6A"/>
<path d="M31.7662 36.9565V37.8152H24.2625V36.9565H31.7662ZM25.2075 38.9252C25.2075 38.7677 25.1522 38.6496 25.0425 38.5165C24.9478 38.3974 25.0106 38.2877 25.1212 38.2877H26.46V39.5871C26.46 39.7362 26.5622 39.8149 26.7047 39.8149H31.0115V40.7046H26.1525C25.5459 40.7046 25.2075 40.3427 25.2075 39.8074V38.9252ZM30.9084 34.9484C30.9084 35.9009 29.9869 36.5777 28.019 36.5777C26.0503 36.5777 25.1372 35.9009 25.1372 34.9484C25.1372 33.9799 26.0503 33.3105 28.019 33.3105C29.9869 33.3105 30.9084 33.9799 30.9084 34.9484ZM26.3653 34.9484C26.3653 35.4443 26.8219 35.7284 28.019 35.7284C29.2153 35.7284 29.6728 35.4452 29.6728 34.9484C29.6728 34.4684 29.2153 34.1534 28.019 34.1534C26.8219 34.1534 26.3653 34.4684 26.3653 34.9484Z" fill="#011B6A"/>
<path d="M33.6666 33.9639C33.6666 33.6808 33.6516 33.5467 33.5091 33.3808C33.4069 33.2552 33.4772 33.1445 33.5953 33.1445H34.8947V33.9873H36.2962V34.8536H35.7694C35.9503 35.0983 36.06 35.3889 36.06 35.7273C36.06 36.7427 35.3981 37.4205 34.2253 37.4205C33.0516 37.4205 32.3906 36.7427 32.3906 35.7273C32.3906 35.3889 32.5012 35.0973 32.6737 34.8536H32.0522V33.9873H33.6656V33.9639H33.6666ZM34.2253 36.5702C34.7372 36.5702 34.95 36.153 34.95 35.7358C34.95 35.2952 34.7381 34.878 34.2253 34.878C33.7134 34.878 33.5016 35.2952 33.5016 35.7358C33.5016 36.153 33.7134 36.5702 34.2253 36.5702ZM39.375 39.287C39.375 40.2798 38.3597 40.9408 36.5325 40.9408C34.6734 40.9408 33.69 40.2798 33.69 39.287C33.69 38.2717 34.6669 37.6333 36.5325 37.6333C38.3597 37.6333 39.375 38.2792 39.375 39.287ZM38.115 39.287C38.115 38.7827 37.7062 38.5155 36.5325 38.5155C35.3587 38.5155 34.9416 38.7827 34.9416 39.287C34.9416 39.7755 35.3587 40.0586 36.5325 40.0586C37.7062 40.0586 38.115 39.7755 38.115 39.287ZM39.375 33.3902V37.4927H38.2491V35.8155H37.7212V37.2798H36.5953V34.1692C36.5953 33.8861 36.5325 33.7914 36.4378 33.6573C36.3431 33.5233 36.4059 33.437 36.5091 33.437H37.7212V34.8864H38.2491V33.3911H39.375V33.3902Z" fill="#011B6A"/>
</g>
</g>
</g>
<defs>
<linearGradient id="paint0_linear_26859_317927" x1="35.9469" y1="14.1063" x2="23.2728" y2="35.3895" gradientUnits="userSpaceOnUse">
<stop stop-color="#44C8F5"/>
<stop offset="1" stop-color="#112369"/>
</linearGradient>
<linearGradient id="paint1_linear_26859_317927" x1="24.0067" y1="29.0568" x2="24.0067" y2="14.3365" gradientUnits="userSpaceOnUse">
<stop stop-color="#44C8F5"/>
<stop offset="1" stop-color="#112369"/>
</linearGradient>
<linearGradient id="paint2_linear_26859_317927" x1="17.6061" y1="28.2858" x2="31.1552" y2="28.2858" gradientUnits="userSpaceOnUse">
<stop stop-color="#44C8F5"/>
<stop offset="1" stop-color="#112369"/>
</linearGradient>
<linearGradient id="paint3_linear_26859_317927" x1="23.8988" y1="23.6583" x2="23.8988" y2="8.26918" gradientUnits="userSpaceOnUse">
<stop stop-color="#00C0F3"/>
<stop offset="1" stop-color="#112369"/>
</linearGradient>
<linearGradient id="paint4_linear_26859_317927" x1="21.501" y1="14.7387" x2="21.501" y2="28.5775" gradientUnits="userSpaceOnUse">
<stop stop-color="#44C8F5"/>
<stop offset="1" stop-color="#112369"/>
</linearGradient>
<linearGradient id="paint5_linear_26859_317927" x1="29.5827" y1="25.9041" x2="29.5827" y2="10.5656" gradientUnits="userSpaceOnUse">
<stop stop-color="#44C8F5"/>
<stop offset="1" stop-color="#112369"/>
</linearGradient>
<clipPath id="clip0_26859_317927">
<rect width="48" height="48" fill="white"/>
</clipPath>
<clipPath id="clip1_26859_317927">
<rect width="48" height="48" fill="white"/>
</clipPath>
<clipPath id="clip2_26859_317927">
<rect width="48" height="48" fill="white"/>
</clipPath>
</defs>
</svg>
