<svg width="24" height="24" viewBox="0 0 24 24" fill="none" xmlns="http://www.w3.org/2000/svg">
<g clip-path="url(#clip0_3676_42880)">
<path d="M6.75 3.75H4.75C4.61769 3.75055 4.48681 3.77735 4.36493 3.82885C4.24306 3.88034 4.13261 3.95551 4.04 4.05C3.85526 4.23626 3.7511 4.48766 3.75 4.75V6.75" stroke="#121619" stroke-width="1.5" stroke-linecap="round" stroke-linejoin="round"/>
<path d="M16.75 3.75H18.75C19.0152 3.75 19.2696 3.85536 19.4571 4.04289C19.6446 4.23043 19.75 4.48478 19.75 4.75V6.75" stroke="#121619" stroke-width="1.5" stroke-linecap="round" stroke-linejoin="round"/>
<path d="M19.75 16.75V18.75C19.7508 18.8816 19.7255 19.0121 19.6758 19.1339C19.626 19.2557 19.5527 19.3666 19.46 19.46C19.3666 19.5527 19.2557 19.626 19.1339 19.6758C19.0121 19.7255 18.8816 19.7508 18.75 19.75H16.75" stroke="#121619" stroke-width="1.5" stroke-linecap="round" stroke-linejoin="round"/>
<path d="M6.75 19.75H4.75C4.48478 19.75 4.23043 19.6446 4.04289 19.4571C3.85536 19.2696 3.75 19.0152 3.75 18.75V16.75" stroke="#121619" stroke-width="1.5" stroke-linecap="round" stroke-linejoin="round"/>
<path d="M11.8 12.1401C12.3009 12.1401 12.7904 11.9914 13.2067 11.713C13.6229 11.4345 13.9472 11.0388 14.1384 10.5759C14.3296 10.1131 14.3791 9.60385 14.2807 9.11281C14.1822 8.62177 13.9403 8.17099 13.5855 7.81756C13.2306 7.46413 12.7789 7.22397 12.2875 7.12748C11.796 7.03099 11.287 7.08252 10.8249 7.27555C10.3628 7.46857 9.96835 7.7944 9.69155 8.21177C9.41476 8.62914 9.26806 9.11927 9.27004 9.62008C9.27268 10.2893 9.54041 10.9303 10.0146 11.4026C10.4888 11.8749 11.1308 12.1401 11.8 12.1401V12.1401Z" stroke="#121619" stroke-width="1.5" stroke-linecap="round" stroke-linejoin="round"/>
<path d="M7.75 16.4197V15.6697C7.75 14.9536 8.03446 14.2669 8.54081 13.7605C9.04716 13.2542 9.73392 12.9697 10.45 12.9697H13.05C13.4046 12.9697 13.7557 13.0396 14.0832 13.1753C14.4108 13.3109 14.7085 13.5098 14.9592 13.7605C15.2099 14.0113 15.4088 14.3089 15.5445 14.6365C15.6802 14.9641 15.75 15.3152 15.75 15.6697V16.4197" stroke="#121619" stroke-width="1.5" stroke-linecap="round" stroke-linejoin="round"/>
</g>
<defs>
<clipPath id="clip0_3676_42880">
<rect width="17.5" height="17.5" fill="white" transform="translate(3 3)"/>
</clipPath>
</defs>
</svg>
