<svg width="56" height="56" viewBox="0 0 56 56" fill="none" xmlns="http://www.w3.org/2000/svg">
<rect width="56" height="56" rx="28" fill="#F3F6FB"/>
<rect opacity="0" x="6" y="6" width="48" height="48" fill="#FF0000"/>
<path d="M39.1429 13H14.8571C13.8315 13 13 13.8954 13 15V21C13 22.1046 13.8315 23 14.8571 23H39.1429C40.1685 23 41 22.1046 41 21V15C41 13.8954 40.1685 13 39.1429 13Z" fill="url(#paint0_linear_22143_130455)"/>
<path d="M36.4286 16H17.5714C16.7036 16 16 16.6716 16 17.5C16 18.3284 16.7036 19 17.5714 19H36.4286C37.2964 19 38 18.3284 38 17.5C38 16.6716 37.2964 16 36.4286 16Z" fill="#4399FF"/>
<path d="M18 18L36 18V36.434C36 37.2953 35.1529 38 34.1176 38H19.8824C18.8471 38 18 37.2953 18 36.434V18Z" fill="url(#paint1_linear_22143_130455)"/>
<path d="M23.5 27H22" stroke="white" stroke-width="1.4" stroke-linecap="round" stroke-linejoin="round"/>
<path d="M30.5 27H32" stroke="white" stroke-width="1.4" stroke-linecap="round" stroke-linejoin="round"/>
<path d="M23 25L25 31L27 25L29 31L31 25" stroke="white" stroke-width="1.4" stroke-linecap="round" stroke-linejoin="round"/>
<path d="M36.9974 46C41.4142 46 44.9947 42.4183 44.9947 38C44.9947 33.5817 41.4142 30 36.9974 30C32.5805 30 29 33.5817 29 38C29 42.4183 32.5805 46 36.9974 46Z" fill="white"/>
<path d="M35.2011 44.7543C34.3213 44.6629 33.2588 44.3886 32.3449 43.5886C31.4994 42.8571 30.9739 41.8514 30.7225 40.9714C30.4598 40.0686 30.3569 39.0171 30.7797 39.0971C30.9168 39.12 31.1453 39.7029 31.3852 40.1257C31.6365 40.56 31.8536 40.8 32.0478 40.9486C32.1392 41.0171 32.4363 40.3429 32.8818 39.9657C33.1332 39.7486 33.4188 39.68 33.4645 40.3086C33.5216 41.0743 33.3731 42 33.6016 42C33.8072 42 34.2871 41.84 35.3267 41.7486C35.7152 41.7143 35.9437 41.7943 35.5667 42.32C35.3839 42.5829 35.1325 42.96 34.5384 43.3829C35.4181 44.2171 36.4806 44.1143 36.5035 44.4686C36.5149 44.6743 36.115 44.7886 35.6009 44.7886C35.4753 44.7886 35.3382 44.7886 35.2011 44.7657V44.7543ZM38.1829 37.3143C37.3718 37.1429 37.2118 36.4114 37.2118 36.4114C37.1433 36.1486 37.1318 35.8286 37.189 35.4057C37.3032 34.5371 37.5317 34.1257 37.8059 33.44C38.1715 32.5257 37.2918 32 37.4289 31.6686C37.6231 31.2114 38.2515 31.7943 38.9484 31.8286C39.5539 31.8629 39.9081 31.8286 40.3765 31.8971C41.0049 31.9771 41.7475 32.1943 42.0788 32.5829C42.3873 32.9371 41.9188 33.3714 41.359 33.0971C40.9477 32.9029 40.4336 33.0171 40.7421 33.44C41.1077 33.84 41.2791 33.8514 41.6446 33.9543C42.6615 34.2286 42.6843 35.2 41.9874 35.7029C41.2105 36.2743 40.4108 36.0343 40.0909 34.9143C39.9309 34.3543 39.5311 34.0686 39.1312 34.2286C38.7313 34.3886 38.9712 35.1314 39.2797 35.8171C39.8167 37.1771 38.7313 37.3257 38.32 37.3257C38.2515 37.3257 38.2058 37.3257 38.1829 37.3257V37.3143ZM37.6003 45.0286C37.6003 44.8457 37.8516 44.8 37.8516 44.8C40.2165 44.3314 39.5311 42.7771 38.6856 41.9886C38.3315 41.6571 35.0411 38.8114 35.0411 38.8114C31.8993 36.1029 32.1506 34 32.1506 34C32.3106 31.4057 34.5727 30.7543 36.2978 30.9029C36.5035 30.9143 36.6177 31.04 36.572 31.2114C36.5378 31.3943 36.2636 31.4057 36.2636 31.4057C35.7152 31.44 35.2239 31.4971 34.8583 31.7486C33.4759 32.6857 33.8758 34.2629 35.7266 36.0343C35.9551 36.2514 36.2064 36.4914 36.4578 36.7314C36.4578 36.7314 36.8234 37.0629 37.566 37.76C38.9941 39.0743 39.771 39.7714 39.771 39.7714C42.273 41.8629 41.4161 43.7714 40.4679 44.4343C39.7367 44.9371 38.9255 45.1771 37.863 45.2343H37.8402C37.7488 45.2343 37.6003 45.1771 37.5888 45.0286H37.6003ZM36.6292 30C32.2192 30.1943 28.8032 33.9429 29.0088 38.3543C29.203 42.7657 32.9504 46.1829 37.3603 45.9886C41.7703 45.7943 45.1863 42.0457 44.9921 37.6343C44.7979 33.3371 41.2562 30 37.0062 30C36.8805 30 36.7663 30 36.6406 30" fill="#021C6A"/>
<defs>
<linearGradient id="paint0_linear_22143_130455" x1="14" y1="22.75" x2="40" y2="22.75" gradientUnits="userSpaceOnUse">
<stop stop-color="#CAE4FF"/>
<stop offset="1" stop-color="#AFD6FF"/>
</linearGradient>
<linearGradient id="paint1_linear_22143_130455" x1="18.6235" y1="29.0662" x2="35.4379" y2="28.1958" gradientUnits="userSpaceOnUse">
<stop stop-color="#2DE287"/>
<stop offset="1" stop-color="#26C674"/>
</linearGradient>
</defs>
</svg>
