<svg width="48" height="48" viewBox="0 0 48 48" fill="none" xmlns="http://www.w3.org/2000/svg">
<rect opacity="0" width="48" height="48" fill="#FF0000"/>
<rect width="48" height="48" rx="24" fill="#F3F6FB"/>
<g clip-path="url(#clip0_14079_225041)">
<path d="M23.8834 14C17.8716 14 13 17.8526 13 22.6052C13 25.6988 15.065 28.4095 18.1637 29.9264C17.9381 30.7767 17.3392 33.0064 17.2197 33.4829C17.0725 34.075 17.4368 34.0671 17.6753 33.9075C17.8625 33.7829 20.6584 31.8825 21.8646 31.0621C22.5335 31.1612 23.2088 31.2109 23.885 31.2109C29.8968 31.2109 34.7684 27.3572 34.7684 22.6052C34.7684 17.8532 29.8951 14 23.885 14" fill="#0471E9"/>
<path d="M19.5049 20.0713H16.3216C16.178 20.0713 16.0404 20.1283 15.9388 20.2298C15.8373 20.3314 15.7803 20.4691 15.7803 20.6126C15.7803 20.7562 15.8373 20.8939 15.9388 20.9954C16.0404 21.0969 16.178 21.154 16.3216 21.154H17.3564V24.9671C17.357 25.107 17.4128 25.2411 17.5118 25.3401C17.6108 25.439 17.7448 25.4949 17.8848 25.4955H18.0004C18.1402 25.4949 18.2742 25.439 18.3729 25.34C18.4717 25.241 18.5273 25.1069 18.5276 24.9671V21.154H19.5049C19.6484 21.154 19.7861 21.0969 19.8877 20.9954C19.9892 20.8939 20.0462 20.7562 20.0462 20.6126C20.0462 20.4691 19.9892 20.3314 19.8877 20.2298C19.7861 20.1283 19.6484 20.0713 19.5049 20.0713Z" fill="white"/>
<path d="M27.1546 24.4767H25.6744V20.5824C25.6768 20.5037 25.6634 20.4253 25.635 20.352C25.6066 20.2786 25.5637 20.2116 25.509 20.1551C25.4542 20.0986 25.3886 20.0537 25.3162 20.023C25.2437 19.9924 25.1658 19.9766 25.0871 19.9766C25.0084 19.9766 24.9305 19.9924 24.858 20.023C24.7856 20.0537 24.72 20.0986 24.6652 20.1551C24.6104 20.2116 24.5676 20.2786 24.5392 20.352C24.5107 20.4253 24.4974 20.5037 24.4998 20.5824V24.78C24.5004 24.8116 24.5036 24.8431 24.5094 24.8742C24.503 24.905 24.4998 24.9364 24.4998 24.9678C24.4997 25.0324 24.5124 25.0964 24.5371 25.1561C24.5618 25.2158 24.598 25.27 24.6436 25.3157C24.6893 25.3614 24.7436 25.3976 24.8033 25.4223C24.8629 25.447 24.9269 25.4596 24.9915 25.4596H27.1546C27.2821 25.4552 27.4029 25.4016 27.4915 25.3099C27.5802 25.2182 27.6297 25.0956 27.6297 24.9681C27.6297 24.8406 27.5802 24.718 27.4915 24.6263C27.4029 24.5347 27.2821 24.481 27.1546 24.4767Z" fill="white"/>
<path d="M31.8852 24.6554L30.2358 22.4889L31.7262 20.9979C31.7744 20.9498 31.8125 20.8927 31.8386 20.8298C31.8646 20.7669 31.878 20.6995 31.878 20.6314C31.878 20.5633 31.8646 20.4959 31.8386 20.433C31.8125 20.3702 31.7744 20.313 31.7262 20.2649C31.6781 20.2167 31.6209 20.1786 31.5581 20.1525C31.4952 20.1265 31.4278 20.113 31.3597 20.113C31.2916 20.113 31.2242 20.1265 31.1613 20.1525C31.0984 20.1786 31.0413 20.2167 30.9931 20.2649L29.148 22.11V20.5824C29.1505 20.5037 29.1371 20.4253 29.1087 20.352C29.0803 20.2786 29.0374 20.2116 28.9826 20.1551C28.9278 20.0986 28.8623 20.0537 28.7898 20.023C28.7173 19.9924 28.6394 19.9766 28.5607 19.9766C28.482 19.9766 28.4041 19.9924 28.3317 20.023C28.2592 20.0537 28.1936 20.0986 28.1389 20.1551C28.0841 20.2116 28.0412 20.2786 28.0128 20.352C27.9844 20.4253 27.971 20.5037 27.9734 20.5824V24.9092C27.9782 25.0618 28.0421 25.2066 28.1517 25.3129C28.2614 25.4191 28.408 25.4786 28.5607 25.4786C28.7134 25.4786 28.8601 25.4191 28.9697 25.3129C29.0794 25.2066 29.1433 25.0618 29.148 24.9092V23.5739L29.4836 23.2389L31.0439 25.2864C31.1276 25.398 31.2521 25.4718 31.3902 25.4915C31.5283 25.5112 31.6685 25.4753 31.7801 25.3916C31.8916 25.3079 31.9654 25.1834 31.9851 25.0453C32.0048 24.9072 31.9689 24.767 31.8852 24.6554Z" fill="white"/>
<path d="M24.0601 24.7961L22.4732 20.454L22.4682 20.4495C22.3667 20.185 22.0734 19.9922 21.7249 19.9922C21.3375 19.9922 21.0172 20.229 20.9535 20.5386C20.9422 20.5619 20.9322 20.5858 20.9236 20.6102L19.3661 24.7961C19.3372 24.8624 19.3223 24.934 19.3223 25.0064C19.3223 25.0787 19.3372 25.1503 19.3661 25.2167C19.395 25.283 19.4373 25.3426 19.4903 25.3919C19.5433 25.4411 19.6059 25.4789 19.6742 25.5029C19.7425 25.5268 19.815 25.5364 19.8872 25.5311C19.9593 25.5258 20.0296 25.5056 20.0936 25.4719C20.1577 25.4381 20.214 25.3916 20.2592 25.3351C20.3044 25.2786 20.3375 25.2133 20.3563 25.1435L20.6259 24.3732H22.7975L23.067 25.1435C23.1133 25.2751 23.21 25.3831 23.3359 25.4434C23.4617 25.5038 23.6064 25.5117 23.7381 25.4655C23.8698 25.4192 23.9777 25.3225 24.038 25.1966C24.0984 25.0708 24.1064 24.9261 24.0601 24.7944V24.7961ZM20.9704 23.3914L21.7001 21.3089C21.7086 21.3089 21.7154 21.3089 21.7238 21.3089L22.4524 23.3886L20.9704 23.3914Z" fill="white"/>
</g>
<defs>
<clipPath id="clip0_14079_225041">
<rect width="21.7701" height="20" fill="white" transform="translate(13 14)"/>
</clipPath>
</defs>
</svg>
