<svg width="49" height="48" viewBox="0 0 49 48" fill="none" xmlns="http://www.w3.org/2000/svg">
<rect x="0.5" width="48" height="48" rx="24" fill="#F3F6FB"/>
<path fill-rule="evenodd" clip-rule="evenodd" d="M14.6739 15C13.4733 15 12.5 15.9733 12.5 17.1739V17.8694H35.5V17.1739C35.5 15.9733 34.5267 15 33.3261 15H14.6739ZM35.5 21.1302H12.5V30.8261C12.5 32.0267 13.4733 33 14.6739 33H33.3261C34.5267 33 35.5 32.0267 35.5 30.8261V21.1302Z" fill="#0471E9"/>
<circle cx="33.5" cy="29" r="5" fill="white" stroke="#0471E9"/>
<g clip-path="url(#clip0_6987_76445)">
<path d="M35.1256 25.0342C35.1745 25.0626 35.2124 25.1067 35.233 25.1594C35.2536 25.2121 35.2558 25.2702 35.2391 25.3242L34.3386 28.2502H36.0001C36.0489 28.2502 36.0967 28.2645 36.1375 28.2913C36.1783 28.3181 36.2104 28.3563 36.2297 28.4011C36.2491 28.4459 36.2549 28.4955 36.2464 28.5435C36.238 28.5916 36.2156 28.6362 36.1821 28.6717L32.1821 32.9217C32.1434 32.9629 32.0919 32.9897 32.036 32.9978C31.9801 33.006 31.9231 32.9949 31.8742 32.9665C31.8254 32.9381 31.7876 32.894 31.7671 32.8414C31.7466 32.7887 31.7444 32.7307 31.7611 32.6767L32.6616 29.7502H31.0001C30.9513 29.7502 30.9035 29.736 30.8627 29.7091C30.8219 29.6823 30.7898 29.6442 30.7705 29.5993C30.7511 29.5545 30.7453 29.505 30.7538 29.4569C30.7622 29.4088 30.7846 29.3642 30.8181 29.3287L34.8181 25.0787C34.8568 25.0376 34.9082 25.0108 34.964 25.0026C35.0198 24.9945 35.0768 25.0054 35.1256 25.0337V25.0342Z" fill="#0471E9"/>
</g>
<defs>
<clipPath id="clip0_6987_76445">
<rect width="8" height="8" fill="white" transform="translate(29.5 25)"/>
</clipPath>
</defs>
</svg>
