<svg width="24" height="24" viewBox="0 0 24 24" fill="none" xmlns="http://www.w3.org/2000/svg">
<path d="M16 10.5742H18.6667C19.403 10.5742 20 11.1712 20 11.9076V19.5998C20 20.3362 19.403 20.9331 18.6667 20.9331H5.33333C4.59695 20.9331 4 20.3362 4 19.5998V11.9076C4 11.1712 4.59695 10.5742 5.33333 10.5742H8" stroke="#121619" stroke-width="1.5" stroke-linecap="round"/>
<path d="M12.0003 3.93359L12.5296 3.40222C12.2369 3.11072 11.7637 3.11072 11.471 3.40222L12.0003 3.93359ZM8.27101 6.58958C7.97754 6.88189 7.9766 7.35676 8.26891 7.65023C8.56123 7.94371 9.0361 7.94465 9.32957 7.65233L8.27101 6.58958ZM14.671 7.65233C14.9645 7.94465 15.4394 7.94371 15.7317 7.65023C16.024 7.35676 16.023 6.88189 15.7296 6.58958L14.671 7.65233ZM11.471 3.40222L8.27101 6.58958L9.32957 7.65233L12.5296 4.46497L11.471 3.40222ZM11.471 4.46497L14.671 7.65233L15.7296 6.58958L12.5296 3.40222L11.471 4.46497Z" fill="#121619"/>
<path d="M12 4.19922L12 16.1518" stroke="#121619" stroke-width="1.5" stroke-linecap="round"/>
</svg>
