<svg width="49" height="48" viewBox="0 0 49 48" fill="none" xmlns="http://www.w3.org/2000/svg">
<g clip-path="url(#clip0_7777_9143)">
<path d="M34.203 22.3L34.953 20.51C35.1182 20.1315 35.4039 19.8184 35.7657 19.6194C36.1275 19.4204 36.545 19.3468 36.953 19.41H37.133L38.073 19.71C38.5378 19.8694 38.9542 20.1448 39.283 20.51C39.6116 20.8738 39.8361 21.3194 39.933 21.8C40.4006 24.8331 39.7388 27.9324 38.073 30.51C36.233 33.9033 34.203 35.9366 31.983 36.61C31.5651 36.7377 31.1223 36.7618 30.693 36.68C30.2628 36.5871 29.8614 36.3915 29.523 36.11L29.353 35.94L28.643 35.23C28.3449 34.9248 28.1522 34.5324 28.093 34.11C28.0331 33.687 28.1102 33.2559 28.313 32.88L28.423 32.69L29.483 31.13C29.6801 30.8269 29.9667 30.5927 30.303 30.46C30.6219 30.3385 30.9689 30.3108 31.303 30.38L31.543 30.47L33.463 31.05C34.2636 30.4248 34.9273 29.642 35.413 28.75C35.8623 28.022 36.1773 27.2192 36.343 26.38V26.03L34.673 24.51C34.4063 24.2535 34.2159 23.9281 34.123 23.57C34.0221 23.2136 34.0221 22.8363 34.123 22.48L34.203 22.3Z" stroke="black" stroke-width="2" stroke-linecap="round" stroke-linejoin="round"/>
<path d="M23.343 34.42H13.533C12.9806 34.42 12.4337 34.311 11.9234 34.0994C11.4132 33.8877 10.9498 33.5774 10.5596 33.1863C10.1695 32.7953 9.86033 32.3311 9.64985 31.8204C9.43937 31.3096 9.3317 30.7624 9.33302 30.21V15.21C9.3317 14.6576 9.43937 14.1104 9.64985 13.5997C9.86033 13.0889 10.1695 12.6248 10.5596 12.2337C10.9498 11.8426 11.4132 11.5324 11.9234 11.3207C12.4337 11.109 12.9806 11 13.533 11H35.963C36.5163 10.9987 37.0643 11.1067 37.5757 11.3178C38.0871 11.5289 38.5517 11.839 38.9429 12.2302C39.3341 12.6213 39.6441 13.086 39.8552 13.5974C40.0663 14.1087 40.1743 14.6568 40.173 15.21V15.51" stroke="#121619" stroke-width="2" stroke-miterlimit="10" stroke-linecap="round"/>
<path d="M24.7133 26.4C25.5226 26.3775 26.305 26.105 26.9532 25.62C27.6451 25.1593 28.1818 24.5006 28.4932 23.73C28.8113 22.9649 28.8949 22.1226 28.7332 21.31C28.5725 20.5115 28.1753 19.7798 27.5932 19.21C27.0157 18.626 26.2772 18.2276 25.4721 18.0655C24.6669 17.9034 23.8318 17.985 23.0733 18.3C22.3116 18.6316 21.6597 19.1726 21.1932 19.86C20.7334 20.5529 20.493 21.3684 20.5032 22.2C20.5032 22.7524 20.6122 23.2993 20.8239 23.8095C21.0356 24.3198 21.3459 24.7832 21.7369 25.1733C22.128 25.5635 22.5922 25.8726 23.1029 26.0831C23.6136 26.2936 24.1609 26.4013 24.7133 26.4V26.4Z" stroke="#121619" stroke-width="2" stroke-linecap="round" stroke-linejoin="round"/>
<path d="M17.9531 33.43V32.15C17.9515 31.5608 18.0635 30.9768 18.2831 30.43C18.517 29.8822 18.8569 29.386 19.2831 28.97C19.6977 28.5466 20.19 28.207 20.7331 27.97C21.2787 27.7464 21.8635 27.6342 22.4531 27.64H26.6631C27.253 27.6346 27.838 27.7468 28.384 27.97C28.93 28.1932 29.426 28.5229 29.8431 28.94C30.1124 29.2213 30.3473 29.5334 30.5431 29.87" stroke="#121619" stroke-width="2" stroke-linecap="round" stroke-linejoin="round"/>
</g>
<defs>
<clipPath id="clip0_7777_9143">
<rect width="33" height="28" fill="white" transform="translate(8.33301 10)"/>
</clipPath>
</defs>
</svg>
