<svg width="24" height="24" viewBox="0 0 24 24" fill="none" xmlns="http://www.w3.org/2000/svg">
<path d="M18.334 19.4726L18.75 18.8486L18.334 19.4726ZM6.75 6H17.25V4.5H6.75V6ZM5.25 15V7.5H3.75V15H5.25ZM14.3188 16.5H6.75V18H14.3188V16.5ZM18.75 18.8486L15.9829 17.0038L15.1508 18.2519L17.9179 20.0967L18.75 18.8486ZM18.75 18.8486L17.9179 20.0967C18.9148 20.7612 20.25 20.0467 20.25 18.8486H18.75ZM18.75 17.25V18.8486H20.25V17.25H18.75ZM18.75 7.5V17.25H20.25V7.5H18.75ZM14.3188 18C14.6149 18 14.9044 18.0877 15.1508 18.2519L15.9829 17.0038C15.4901 16.6753 14.911 16.5 14.3188 16.5V18ZM3.75 15C3.75 16.6569 5.09315 18 6.75 18V16.5C5.92157 16.5 5.25 15.8284 5.25 15H3.75ZM17.25 6C18.0784 6 18.75 6.67157 18.75 7.5H20.25C20.25 5.84315 18.9069 4.5 17.25 4.5V6ZM6.75 4.5C5.09315 4.5 3.75 5.84315 3.75 7.5H5.25C5.25 6.67157 5.92157 6 6.75 6V4.5Z" fill="#121619"/>
<g clip-path="url(#clip0_3870_13171)">
<circle cx="9.22397" cy="9.97397" r="0.598974" fill="#121619" stroke="#121619" stroke-width="0.75"/>
<circle cx="14.7762" cy="9.97397" r="0.598974" fill="#121619" stroke="#121619" stroke-width="0.75"/>
<path d="M10.964 11.7858C10.6386 11.5295 10.167 11.5856 9.91076 11.911C9.6545 12.2364 9.71057 12.708 10.036 12.9642L10.964 11.7858ZM13.964 12.9642C14.2894 12.708 14.3455 12.2364 14.0892 11.911C13.833 11.5856 13.3614 11.5295 13.036 11.7858L13.964 12.9642ZM10.036 12.9642C10.6707 13.4641 12.375 14.2155 13.964 12.9642L13.036 11.7858C12.225 12.4244 11.3293 12.0734 10.964 11.7858L10.036 12.9642Z" fill="#121619"/>
</g>
<defs>
<clipPath id="clip0_3870_13171">
<rect width="7.5" height="5.25007" fill="white" transform="translate(8.25 9)"/>
</clipPath>
</defs>
</svg>
