<svg width="24" height="24" viewBox="0 0 24 24" fill="none" xmlns="http://www.w3.org/2000/svg">
<path d="M10 11C10.7956 11 11.5587 10.6839 12.1213 10.1213C12.6839 9.55871 13 8.79565 13 8C13 7.20435 12.6839 6.44129 12.1213 5.87868C11.5587 5.31607 10.7956 5 10 5C9.20435 5 8.44129 5.31607 7.87868 5.87868C7.31607 6.44129 7 7.20435 7 8C7 8.79565 7.31607 9.55871 7.87868 10.1213C8.44129 10.6839 9.20435 11 10 11Z" fill="#B9C1C9"/>
<path d="M4 18V16.6913C4 15.4471 4.46194 14.2538 5.2842 13.374C6.10647 12.4943 7.22169 12 8.38455 12H11.6155C12.7783 12 13.8935 12.4943 14.7158 13.374C15.5381 14.2538 16 15.4471 16 16.6913V18" fill="#B9C1C9"/>
<path d="M16 9H20" stroke="#B9C1C9" stroke-width="1.5" stroke-linecap="round"/>
<path d="M18 11V7" stroke="#B9C1C9" stroke-width="1.5" stroke-linecap="round"/>
</svg>
