<svg width="56" height="56" viewBox="0 0 56 56" fill="none" xmlns="http://www.w3.org/2000/svg">
<rect width="56" height="56" rx="28" fill="#F3F6FB"/>
<rect opacity="0" x="4" y="4" width="48" height="48" fill="#FF0000"/>
<path d="M43.2686 17.7289L29.2457 12.2392C28.4343 11.9203 27.5429 11.9203 26.7429 12.2392L12.72 17.7289C12.2857 17.8998 12 18.3212 12 18.7882V22C12 22.6264 12.5143 23.139 13.1429 23.139H42.8571C43.4857 23.139 44 22.6264 44 22V18.7882C44 18.3212 43.7143 17.8998 43.28 17.7289H43.2686Z" fill="#59A5FF"/>
<path d="M28 20.5665C29.7673 20.5665 31.2 19.1338 31.2 17.3665C31.2 15.5992 29.7673 14.1665 28 14.1665C26.2327 14.1665 24.8 15.5992 24.8 17.3665C24.8 19.1338 26.2327 20.5665 28 20.5665Z" fill="#1150C5"/>
<rect x="12" y="38.7002" width="32" height="4.26667" rx="1" fill="#59A5FF"/>
<rect x="17.3333" y="24.8335" width="3.2" height="11.7333" rx="1" fill="url(#paint0_linear_22143_130431)"/>
<rect x="25.8666" y="24.8335" width="4.26667" height="11.7333" rx="1" fill="url(#paint1_linear_22143_130431)"/>
<rect x="35.4667" y="24.8335" width="3.2" height="11.7333" rx="1" fill="url(#paint2_linear_22143_130431)"/>
<defs>
<linearGradient id="paint0_linear_22143_130431" x1="17.3333" y1="30.7002" x2="20.5333" y2="30.7002" gradientUnits="userSpaceOnUse">
<stop stop-color="#CAE4FF"/>
<stop offset="1" stop-color="#AFD6FF"/>
</linearGradient>
<linearGradient id="paint1_linear_22143_130431" x1="25.8666" y1="30.7002" x2="30.1333" y2="30.7002" gradientUnits="userSpaceOnUse">
<stop stop-color="#CAE4FF"/>
<stop offset="1" stop-color="#AFD6FF"/>
</linearGradient>
<linearGradient id="paint2_linear_22143_130431" x1="35.4667" y1="30.7002" x2="38.6667" y2="30.7002" gradientUnits="userSpaceOnUse">
<stop stop-color="#CAE4FF"/>
<stop offset="1" stop-color="#AFD6FF"/>
</linearGradient>
</defs>
</svg>
