<svg width="24" height="24" viewBox="0 0 24 24" fill="none" xmlns="http://www.w3.org/2000/svg">
<path d="M9.52014 4.35898C9.55061 4.25531 9.61385 4.16431 9.70037 4.09959C9.7869 4.03488 9.89206 3.99994 10.0001 4H13.9999C14.0791 4.00006 14.1571 4.01892 14.2276 4.05504C14.298 4.09116 14.3589 4.14349 14.4052 4.20774C14.4514 4.27198 14.4818 4.3463 14.4938 4.42458C14.5057 4.50285 14.4989 4.58284 14.4738 4.65796L12.694 9.99964H16.4997C16.5934 9.99958 16.6851 10.0258 16.7646 10.0753C16.844 10.1249 16.908 10.1957 16.9491 10.2798C16.9903 10.3639 17.007 10.4579 16.9974 10.551C16.9878 10.6441 16.9522 10.7327 16.8947 10.8066L9.89512 19.8061C9.82342 19.8987 9.72146 19.9632 9.60704 19.9884C9.49262 20.0135 9.37301 19.9977 9.26907 19.9436C9.16514 19.8896 9.08349 19.8007 9.03836 19.6926C8.99324 19.5845 8.98751 19.464 9.02217 19.3521L10.8231 13.4994H7.50026C7.42253 13.4995 7.34586 13.4814 7.27634 13.4466C7.20682 13.4119 7.14636 13.3614 7.09977 13.2991C7.05318 13.2369 7.02173 13.1647 7.00794 13.0882C6.99414 13.0117 6.99837 12.933 7.02029 12.8585L9.52014 4.35898Z" fill="#0471E9"/>
</svg>
