<svg width="24" height="24" viewBox="0 0 24 24" fill="none" xmlns="http://www.w3.org/2000/svg">
<path d="M13.87 9.03C13.3567 8.59667 12.7467 8.38 12.04 8.38C11.78 8.38 11.56 8.41 11.38 8.47C11.2067 8.52333 11.0633 8.6 10.95 8.7C10.8433 8.8 10.7667 8.92 10.72 9.06C10.6733 9.19333 10.65 9.33667 10.65 9.49C10.65 9.64333 10.6767 9.79333 10.73 9.94C10.79 10.08 10.8767 10.2067 10.99 10.32C11.0967 10.4333 11.2233 10.5333 11.37 10.62C11.5167 10.7067 11.6667 10.7867 11.82 10.86C11.98 10.9333 12.14 11.0033 12.3 11.07C12.46 11.13 12.6133 11.1933 12.76 11.26C13.06 11.4 13.3233 11.54 13.55 11.68C13.7833 11.82 13.98 11.98 14.14 12.16C14.3 12.34 14.42 12.5467 14.5 12.78C14.58 13.0067 14.62 13.28 14.62 13.6C14.62 14.3 14.3733 14.83 13.88 15.19C13.3867 15.55 12.69 15.73 11.79 15.73C11.59 15.73 11.38 15.7167 11.16 15.69C10.94 15.6633 10.72 15.62 10.5 15.56C10.2867 15.5067 10.08 15.44 9.88 15.36C9.68 15.28 9.5 15.1867 9.34 15.08L9.71 14.23C10.03 14.4233 10.3733 14.57 10.74 14.67C11.1133 14.77 11.46 14.82 11.78 14.82C12.02 14.82 12.24 14.7967 12.44 14.75C12.6467 14.7033 12.8233 14.6333 12.97 14.54C13.1167 14.44 13.23 14.3133 13.31 14.16C13.3967 14 13.44 13.81 13.44 13.59C13.44 13.4033 13.41 13.24 13.35 13.1C13.29 12.9533 13.2067 12.8267 13.1 12.72C13 12.6067 12.8767 12.51 12.73 12.43C12.59 12.3433 12.44 12.2633 12.28 12.19C12.0733 12.09 11.86 11.9967 11.64 11.91C11.4267 11.8167 11.2167 11.7167 11.01 11.61C10.8033 11.5033 10.61 11.39 10.43 11.27C10.25 11.1433 10.09 11 9.95 10.84C9.80333 10.6733 9.68667 10.4833 9.6 10.27C9.51333 10.05 9.47 9.79 9.47 9.49C9.47 9.19667 9.52333 8.92667 9.63 8.68C9.74333 8.43333 9.91 8.22333 10.13 8.05C10.35 7.87 10.62 7.73 10.94 7.63C11.2667 7.53 11.64 7.48 12.06 7.48C12.46 7.48 12.8167 7.51333 13.13 7.58C13.45 7.64667 13.78 7.74333 14.12 7.87V9.03H13.87Z" fill="#121619"/>
<path d="M13.87 9.03L13.741 9.18283C13.7771 9.21329 13.8228 9.23 13.87 9.23V9.03ZM11.38 8.47L11.4388 8.66121L11.4432 8.65974L11.38 8.47ZM10.95 8.7L10.8176 8.54996L10.8132 8.55409L10.95 8.7ZM10.72 9.06L10.9088 9.12608L10.9097 9.12325L10.72 9.06ZM10.73 9.94L10.5417 10.0085L10.5462 10.0188L10.73 9.94ZM10.99 10.32L11.1357 10.1829L11.1314 10.1786L10.99 10.32ZM11.37 10.62L11.4717 10.4478H11.4717L11.37 10.62ZM11.82 10.86L11.7337 11.0405L11.7367 11.0418L11.82 10.86ZM12.3 11.07L12.223 11.2547L12.2298 11.2573L12.3 11.07ZM12.76 11.26L12.8446 11.0788L12.8428 11.0779L12.76 11.26ZM13.55 11.68L13.4449 11.8502L13.4471 11.8515L13.55 11.68ZM14.14 12.16L13.9905 12.2929V12.2929L14.14 12.16ZM14.5 12.78L14.3108 12.8449L14.3114 12.8466L14.5 12.78ZM13.88 15.19L13.7621 15.0284L13.88 15.19ZM11.16 15.69L11.1359 15.8885L11.16 15.69ZM10.5 15.56L10.5526 15.367L10.5485 15.366L10.5 15.56ZM9.88 15.36L9.95428 15.1743H9.95428L9.88 15.36ZM9.34 15.08L9.15662 15.0002C9.11797 15.089 9.14849 15.1927 9.22906 15.2464L9.34 15.08ZM9.71 14.23L9.81342 14.0588C9.76407 14.029 9.70424 14.0219 9.6493 14.0394C9.59435 14.0569 9.54964 14.0973 9.52662 14.1502L9.71 14.23ZM10.74 14.67L10.6874 14.863L10.6883 14.8632L10.74 14.67ZM12.44 14.75L12.3959 14.5549L12.3946 14.5552L12.44 14.75ZM12.97 14.54L13.0774 14.7088L13.0827 14.7052L12.97 14.54ZM13.31 14.16L13.1341 14.0647L13.1327 14.0675L13.31 14.16ZM13.35 13.1L13.1649 13.1757L13.1662 13.1788L13.35 13.1ZM13.1 12.72L12.9497 12.8526L12.9586 12.8614L13.1 12.72ZM12.73 12.43L12.6246 12.6003L12.6342 12.6056L12.73 12.43ZM12.28 12.19L12.1929 12.3701L12.1967 12.3718L12.28 12.19ZM11.64 11.91L11.5598 12.0934L11.5667 12.0961L11.64 11.91ZM10.43 11.27L10.3149 11.4336L10.3191 11.4364L10.43 11.27ZM9.95 10.84L10.1005 10.7083L10.1001 10.7079L9.95 10.84ZM9.6 10.27L9.41391 10.3433L9.41471 10.3453L9.6 10.27ZM9.63 8.68L9.44822 8.59648L9.44643 8.60062L9.63 8.68ZM10.13 8.05L10.2538 8.20712L10.2566 8.20479L10.13 8.05ZM10.94 7.63L10.8815 7.43876L10.8803 7.4391L10.94 7.63ZM13.13 7.58L13.0884 7.77562L13.0892 7.7758L13.13 7.58ZM14.12 7.87H14.32C14.32 7.78647 14.2681 7.71174 14.1898 7.68258L14.12 7.87ZM14.12 9.03V9.23C14.2305 9.23 14.32 9.14046 14.32 9.03H14.12ZM13.999 8.87717C13.4476 8.4117 12.7912 8.18 12.04 8.18V8.58C12.7021 8.58 13.2657 8.78163 13.741 9.18283L13.999 8.87717ZM12.04 8.18C11.7659 8.18 11.5231 8.21147 11.3168 8.28026L11.4432 8.65974C11.5969 8.60853 11.7941 8.58 12.04 8.58V8.18ZM11.3212 8.27884C11.126 8.33889 10.9561 8.42787 10.8177 8.55003L11.0823 8.84997C11.1705 8.77213 11.2873 8.70778 11.4388 8.66116L11.3212 8.27884ZM10.8132 8.55409C10.6821 8.67704 10.5873 8.82554 10.5303 8.99675L10.9097 9.12325C10.946 9.01446 11.0046 8.92296 11.0868 8.84591L10.8132 8.55409ZM10.5312 8.99393C10.4765 9.15024 10.45 9.31609 10.45 9.49H10.85C10.85 9.35724 10.8701 9.23643 10.9088 9.12607L10.5312 8.99393ZM10.45 9.49C10.45 9.66706 10.4809 9.84017 10.542 10.0083L10.918 9.87165C10.8724 9.74649 10.85 9.6196 10.85 9.49H10.45ZM10.5462 10.0188C10.6167 10.1834 10.7182 10.3311 10.8486 10.4614L11.1314 10.1786C11.0351 10.0823 10.9633 9.97662 10.9138 9.86122L10.5462 10.0188ZM10.8444 10.4571C10.9651 10.5853 11.1069 10.6968 11.2683 10.7922L11.4717 10.4478C11.3398 10.3698 11.2282 10.2813 11.1356 10.1829L10.8444 10.4571ZM11.2683 10.7922C11.4199 10.8818 11.5751 10.9646 11.7337 11.0404L11.9063 10.6796C11.7582 10.6088 11.6134 10.5315 11.4717 10.4478L11.2683 10.7922ZM11.7367 11.0418C11.8988 11.1161 12.0609 11.187 12.2231 11.2546L12.3769 10.8854C12.2191 10.8196 12.0612 10.7506 11.9033 10.6782L11.7367 11.0418ZM12.2298 11.2573C12.3858 11.3158 12.5349 11.3774 12.6772 11.4421L12.8428 11.0779C12.6917 11.0093 12.5342 10.9442 12.3702 10.8827L12.2298 11.2573ZM12.6754 11.4412C12.97 11.5787 13.2262 11.7151 13.4449 11.8502L13.6551 11.5098C13.4205 11.3649 13.15 11.2213 12.8446 11.0788L12.6754 11.4412ZM13.4471 11.8515C13.6653 11.9824 13.8456 12.1299 13.9905 12.2929L14.2895 12.0271C14.1144 11.8301 13.9014 11.6576 13.6529 11.5085L13.4471 11.8515ZM13.9905 12.2929C14.1325 12.4526 14.2392 12.636 14.3108 12.8449L14.6892 12.7151C14.6008 12.4573 14.4675 12.2274 14.2895 12.0271L13.9905 12.2929ZM14.3114 12.8466C14.3818 13.0461 14.42 13.2956 14.42 13.6H14.82C14.82 13.2644 14.7782 12.9673 14.6886 12.7134L14.3114 12.8466ZM14.42 13.6C14.42 14.2468 14.1958 14.712 13.7621 15.0284L13.9979 15.3516C14.5509 14.948 14.82 14.3532 14.82 13.6H14.42ZM13.7621 15.0284C13.3158 15.3541 12.6668 15.53 11.79 15.53V15.93C12.7132 15.93 13.4576 15.7459 13.9979 15.3516L13.7621 15.0284ZM11.79 15.53C11.5988 15.53 11.3969 15.5173 11.1841 15.4915L11.1359 15.8885C11.3631 15.9161 11.5812 15.93 11.79 15.93V15.53ZM11.1841 15.4915C10.974 15.466 10.7635 15.4246 10.5526 15.367L10.4474 15.753C10.6765 15.8154 10.906 15.8607 11.1359 15.8885L11.1841 15.4915ZM10.5485 15.366C10.3438 15.3148 10.1457 15.2509 9.95428 15.1743L9.80572 15.5457C10.0143 15.6291 10.2296 15.6985 10.4515 15.754L10.5485 15.366ZM9.95428 15.1743C9.76562 15.0988 9.59814 15.0117 9.45094 14.9136L9.22906 15.2464C9.40186 15.3616 9.59438 15.4612 9.80572 15.5457L9.95428 15.1743ZM9.52338 15.1598L9.89338 14.3098L9.52662 14.1502L9.15662 15.0002L9.52338 15.1598ZM9.60658 14.4012C9.94268 14.6042 10.3031 14.7582 10.6874 14.863L10.7926 14.477C10.4435 14.3818 10.1173 14.2424 9.81342 14.0588L9.60658 14.4012ZM10.6883 14.8632C11.0751 14.9668 11.4394 15.02 11.78 15.02V14.62C11.4806 14.62 11.1516 14.5732 10.7917 14.4768L10.6883 14.8632ZM11.78 15.02C12.0328 15.02 12.2683 14.9954 12.4854 14.9448L12.3946 14.5552C12.2117 14.5979 12.0072 14.62 11.78 14.62V15.02ZM12.4841 14.9451C12.7084 14.8944 12.9076 14.8168 13.0774 14.7087L12.8626 14.3713C12.7391 14.4499 12.5849 14.5122 12.3959 14.5549L12.4841 14.9451ZM13.0827 14.7052C13.2558 14.5872 13.3917 14.4358 13.4873 14.2525L13.1327 14.0675C13.0683 14.1908 12.9775 14.2928 12.8573 14.3748L13.0827 14.7052ZM13.4859 14.2553C13.5914 14.0605 13.64 13.8364 13.64 13.59H13.24C13.24 13.7836 13.202 13.9395 13.1341 14.0647L13.4859 14.2553ZM13.64 13.59C13.64 13.3822 13.6066 13.1911 13.5338 13.0212L13.1662 13.1788C13.2134 13.2889 13.24 13.4245 13.24 13.59H13.64ZM13.5351 13.0243C13.4656 12.8543 13.3678 12.705 13.2414 12.5786L12.9586 12.8614C13.0455 12.9484 13.1144 13.0524 13.1649 13.1757L13.5351 13.0243ZM13.25 12.5877C13.133 12.4551 12.9907 12.3444 12.8258 12.2544L12.6342 12.6056C12.7626 12.6756 12.867 12.7582 12.95 12.8523L13.25 12.5877ZM12.8353 12.2599C12.6877 12.1686 12.5304 12.0847 12.3633 12.0082L12.1967 12.3718C12.3496 12.4419 12.4923 12.518 12.6247 12.6001L12.8353 12.2599ZM12.3671 12.01C12.1558 11.9077 11.9378 11.8124 11.7133 11.7239L11.5667 12.0961C11.7822 12.181 11.9909 12.2723 12.1929 12.37L12.3671 12.01ZM11.7202 11.7268C11.5107 11.6351 11.3046 11.537 11.1017 11.4323L10.9183 11.7877C11.1287 11.8964 11.3426 11.9982 11.5598 12.0932L11.7202 11.7268ZM11.1017 11.4323C10.9012 11.3288 10.7143 11.2192 10.5409 11.1036L10.3191 11.4364C10.5057 11.5608 10.7055 11.6779 10.9183 11.7877L11.1017 11.4323ZM10.5451 11.1064C10.3777 10.9886 10.2297 10.8559 10.1005 10.7083L9.79948 10.9717C9.95034 11.1441 10.1223 11.298 10.3149 11.4336L10.5451 11.1064ZM10.1001 10.7079C9.96885 10.5587 9.86383 10.3881 9.78529 10.1947L9.41471 10.3453C9.5095 10.5786 9.63782 10.788 9.79986 10.9721L10.1001 10.7079ZM9.78608 10.1967C9.71072 10.0054 9.67 9.77137 9.67 9.49H9.27C9.27 9.80863 9.31595 10.0946 9.41392 10.3433L9.78608 10.1967ZM9.67 9.49C9.67 9.22145 9.7187 8.97877 9.81357 8.75938L9.44643 8.60062C9.32797 8.87456 9.27 9.17188 9.27 9.49H9.67ZM9.81174 8.7635C9.91142 8.54654 10.0578 8.36148 10.2538 8.2071L10.0062 7.8929C9.76217 8.08519 9.57525 8.32013 9.44826 8.5965L9.81174 8.7635ZM10.2566 8.20479C10.4536 8.04363 10.6998 7.91461 10.9997 7.8209L10.8803 7.4391C10.5402 7.54539 10.2464 7.69637 10.0034 7.89521L10.2566 8.20479ZM10.9985 7.82124C11.3025 7.7282 11.6555 7.68 12.06 7.68V7.28C11.6245 7.28 11.2309 7.3318 10.8815 7.43876L10.9985 7.82124ZM12.06 7.68C12.4493 7.68 12.7916 7.71248 13.0884 7.77562L13.1716 7.38438C12.8417 7.31419 12.4707 7.28 12.06 7.28V7.68ZM13.0892 7.7758C13.3983 7.8402 13.7186 7.93389 14.0502 8.05742L14.1898 7.68258C13.8414 7.55277 13.5017 7.45314 13.1708 7.3842L13.0892 7.7758ZM13.92 7.87V9.03H14.32V7.87H13.92ZM14.12 8.83H13.87V9.23H14.12V8.83Z" fill="#121619"/>
<path d="M11.3594 3.68994L11.9959 3.5L12.6366 3.68994L19.5 6.14444V11.3371C19.5 11.3371 19.1287 18.2663 12 20.5C4.86725 18.2701 4.5 11.3371 4.5 11.3371V6.14444L11.3594 3.68994Z" stroke="#121619" stroke-width="1.5" stroke-linejoin="round"/>
</svg>
