<svg width="32" height="32" viewBox="0 0 32 32" fill="none" xmlns="http://www.w3.org/2000/svg">
<circle cx="15" cy="9" r="3.75" stroke="#121619" stroke-width="1.5"/>
<path d="M11.0393 25.5C8.41627 25.2445 6.66347 24.2397 5.75018 22.9787C4.83107 21.7097 5.32712 19.9535 6.43696 18.8474C8.4839 16.8075 11.5192 16 16.0967 16C17.8375 16 22.775 16.7917 24.75 19.5052" stroke="#121619" stroke-width="1.5" stroke-linecap="round" stroke-linejoin="round"/>
<path d="M21.6165 22.1719V27.9999H20.4245V24.6479C20.4245 24.5705 20.4258 24.4865 20.4285 24.3959C20.4338 24.3052 20.4418 24.2132 20.4525 24.1199L18.9045 27.1159C18.8565 27.2092 18.7911 27.2799 18.7085 27.3279C18.6285 27.3759 18.5365 27.3999 18.4325 27.3999H18.2485C18.1445 27.3999 18.0511 27.3759 17.9685 27.3279C17.8885 27.2799 17.8245 27.2092 17.7765 27.1159L16.2285 24.1119C16.2365 24.2079 16.2431 24.3025 16.2485 24.3959C16.2538 24.4865 16.2565 24.5705 16.2565 24.6479V27.9999H15.0645V22.1719H16.0965C16.1551 22.1719 16.2058 22.1732 16.2485 22.1759C16.2938 22.1785 16.3338 22.1865 16.3685 22.1999C16.4031 22.2132 16.4338 22.2345 16.4605 22.2639C16.4898 22.2905 16.5178 22.3292 16.5445 22.3799L18.0445 25.3359C18.0978 25.4372 18.1485 25.5425 18.1965 25.6519C18.2471 25.7612 18.2951 25.8732 18.3405 25.9879C18.3858 25.8705 18.4325 25.7559 18.4805 25.6439C18.5311 25.5319 18.5845 25.4252 18.6405 25.3239L20.1365 22.3799C20.1631 22.3292 20.1898 22.2905 20.2165 22.2639C20.2458 22.2345 20.2778 22.2132 20.3125 22.1999C20.3471 22.1865 20.3858 22.1785 20.4285 22.1759C20.4738 22.1732 20.5258 22.1719 20.5845 22.1719H21.6165Z" fill="#121619"/>
<path d="M25.5361 25.7839V27.9999H24.1841V25.7839L22.0721 22.1719H23.2641C23.3815 22.1719 23.4735 22.1999 23.5401 22.2559C23.6095 22.3092 23.6668 22.3785 23.7121 22.4639L24.5361 24.1599C24.6055 24.2932 24.6681 24.4185 24.7241 24.5359C24.7801 24.6505 24.8295 24.7639 24.8721 24.8759C24.9121 24.7612 24.9575 24.6465 25.0081 24.5319C25.0615 24.4145 25.1228 24.2905 25.1921 24.1599L26.0081 22.4639C26.0268 22.4292 26.0495 22.3945 26.0761 22.3599C26.1028 22.3252 26.1335 22.2945 26.1681 22.2679C26.2055 22.2385 26.2468 22.2159 26.2921 22.1999C26.3401 22.1812 26.3921 22.1719 26.4481 22.1719H27.6481L25.5361 25.7839Z" fill="#121619"/>
</svg>
