<svg width="24" height="24" viewBox="0 0 24 24" fill="none" xmlns="http://www.w3.org/2000/svg">
<path d="M8.9314 18.0244C8.9314 19.5595 10.1725 20.8006 11.7075 20.8006C13.2426 20.8006 14.4837 19.5595 14.4837 18.0244" stroke="#121619" stroke-width="1.5" stroke-miterlimit="10" stroke-linejoin="bevel"/>
<path d="M11.7078 3V4.22477" stroke="#121619" stroke-width="1.5" stroke-miterlimit="10" stroke-linecap="round" stroke-linejoin="round"/>
<path d="M5.50911 15.8839L5.50911 10.7809L5.51727 10.7807C5.51727 7.46111 8.15591 4.7373 11.7158 4.7373C15.2754 4.7373 17.9153 7.46114 17.9225 10.7823L17.9307 10.7825V15.8839V16.0486L17.9997 16.1982L18.7836 17.8966L18.8165 17.9679L18.8635 18.0309C18.8837 18.058 18.8889 18.0793 18.8901 18.0962C18.8914 18.1161 18.8873 18.1407 18.8748 18.1655C18.8624 18.1903 18.8451 18.2084 18.8282 18.2193C18.814 18.2285 18.7945 18.2366 18.7625 18.2367C18.7625 18.2367 18.7624 18.2367 18.7623 18.2367L4.66156 18.2285H4.66113C4.55747 18.2285 4.49296 18.1125 4.55994 18.0227L4.60474 17.9627L4.63679 17.895L5.43698 16.2048L5.50911 16.0525V15.8839Z" stroke="#121619" stroke-width="1.5"/>
<circle cx="18" cy="8" r="2" fill="#D61111"/>
</svg>
