<svg width="24" height="25" viewBox="0 0 24 25" fill="none" xmlns="http://www.w3.org/2000/svg">
<g clip-path="url(#clip0_9285_17618)">
<mask id="mask0_9285_17618" style="mask-type:alpha" maskUnits="userSpaceOnUse" x="3" y="6" width="15" height="14">
<path d="M12.5 10.0011L13 6.5011H4L3 9.5011V15.0011L3.75 19.5011H13.5C13.9 19.5011 16.6667 17.1678 18 16.0011L16.5 13.0011L13.5 12.0011L12.5 10.0011Z" fill="#D9D9D9"/>
</mask>
<g mask="url(#mask0_9285_17618)">
<path d="M5.21375 13.4406L5.62237 14.2456C5.34237 14.5212 5.1875 14.8213 5.1875 15.1258C5.1875 16.2511 7.31113 17.3133 10 17.3133C12.6889 17.3133 14.8125 16.2511 14.8125 15.1258C14.8125 14.8213 14.6568 14.5221 14.3776 14.2464L14.7941 13.4476C15.3585 13.9201 15.6875 14.4923 15.6875 15.1258C15.6875 16.8994 13.1097 18.1883 10 18.1883C6.89025 18.1883 4.3125 16.8994 4.3125 15.1258C4.3125 14.4888 4.645 13.9148 5.21375 13.4406V13.4406Z" fill="#808892"/>
<path d="M5.21375 10.8156L5.62237 11.6206C5.34237 11.8971 5.1875 12.1972 5.1875 12.5008C5.1875 13.6261 7.31113 14.6883 10 14.6883C12.6889 14.6883 14.8125 13.6261 14.8125 12.5008C14.8125 12.1963 14.6568 11.8971 14.3776 11.6214L14.7941 10.8226C15.3585 11.2951 15.6875 11.8673 15.6875 12.5008C15.6875 14.2744 13.1097 15.5633 10 15.5633C6.89025 15.5633 4.3125 14.2744 4.3125 12.5008C4.3125 11.8638 4.645 11.2898 5.21375 10.8156V10.8156Z" fill="#808892"/>
<path d="M10 12.9386C6.89025 12.9386 4.3125 11.6497 4.3125 9.8761C4.3125 8.10247 6.89025 6.8136 10 6.8136C13.1097 6.8136 15.6875 8.10247 15.6875 9.8761C15.6875 11.6497 13.1097 12.9386 10 12.9386ZM10 12.0636C12.6889 12.0636 14.8125 11.0013 14.8125 9.8761C14.8125 8.75085 12.6889 7.6886 10 7.6886C7.31113 7.6886 5.1875 8.75085 5.1875 9.8761C5.1875 11.0013 7.31113 12.0636 10 12.0636Z" fill="#808892"/>
</g>
</g>
<path fill-rule="evenodd" clip-rule="evenodd" d="M20.5 9.0011C20.5 11.4864 18.4853 13.5011 16 13.5011C13.5147 13.5011 11.5 11.4864 11.5 9.0011C11.5 6.51582 13.5147 4.5011 16 4.5011C18.4853 4.5011 20.5 6.51582 20.5 9.0011ZM13.5 9.0011C13.5 8.72496 13.7239 8.5011 14 8.5011H15.5V7.0011C15.5 6.72496 15.7239 6.5011 16 6.5011C16.2761 6.5011 16.5 6.72496 16.5 7.0011V8.5011H18C18.2761 8.5011 18.5 8.72496 18.5 9.0011C18.5 9.27724 18.2761 9.5011 18 9.5011H16.5V11.0011C16.5 11.2772 16.2761 11.5011 16 11.5011C15.7239 11.5011 15.5 11.2772 15.5 11.0011V9.5011H14C13.7239 9.5011 13.5 9.27724 13.5 9.0011Z" fill="#808892"/>
<defs>
<clipPath id="clip0_9285_17618">
<rect width="14" height="14" fill="white" transform="translate(3 5.5011)"/>
</clipPath>
</defs>
</svg>
