<svg width="32" height="32" viewBox="0 0 32 32" fill="none" xmlns="http://www.w3.org/2000/svg">
<path fill-rule="evenodd" clip-rule="evenodd" d="M26 10C26 8.34315 24.6569 7 23 7H9C7.34315 7 6 8.34315 6 10V20C6 21.6569 7.34315 23 9 23H19.0917C19.6839 23 20.263 23.1753 20.7558 23.5038L24.4453 25.9635C25.1099 26.4066 26 25.9302 26 25.1315V23V10Z" fill="#0471E9"/>
<g clip-path="url(#clip0_19384_108084)">
<circle cx="12.2986" cy="13.2986" r="0.798632" fill="white" stroke="white"/>
<circle cx="19.7015" cy="13.2986" r="0.798632" fill="white" stroke="white"/>
<path d="M14.6187 15.7143C14.1848 15.3727 13.556 15.4474 13.2143 15.8813C12.8727 16.3152 12.9474 16.944 13.3813 17.2857L14.6187 15.7143ZM18.6187 17.2857C19.0526 16.944 19.1273 16.3152 18.7857 15.8813C18.444 15.4474 17.8152 15.3727 17.3813 15.7143L18.6187 17.2857ZM13.3813 17.2857C14.2277 17.9521 16.4999 18.9541 18.6187 17.2857L17.3813 15.7143C16.3001 16.5658 15.1057 16.0978 14.6187 15.7143L13.3813 17.2857Z" fill="white"/>
</g>
<defs>
<clipPath id="clip0_19384_108084">
<rect width="10" height="7.00009" fill="white" transform="translate(11 12)"/>
</clipPath>
</defs>
</svg>
