<svg width="32" height="32" viewBox="0 0 32 32" fill="none" xmlns="http://www.w3.org/2000/svg">
<circle cx="16" cy="16" r="16" fill="#F3F6FB"/>
<path d="M8 11.9885C8 11.2478 8.41868 10.5687 9.08501 10.2344L15.112 7.21019C15.6705 6.92994 16.3294 6.92994 16.888 7.21019L22.915 10.2344C23.5813 10.5687 24 11.2478 24 11.9885V16.001C24 20.6963 20.6344 24.7225 16 25.5683C11.3656 24.7225 8 20.6963 8 16.001V11.9885Z" fill="#003EB3" stroke="#0471E9" stroke-width="2"/>
<path d="M13.3303 18.9056C13.9903 19.4336 15.0353 19.7636 15.7614 19.7636C16.6524 19.7636 17.1913 19.3786 17.1913 18.6416C17.1913 18.0696 16.9604 17.7066 16.2343 17.3436C15.3983 16.9146 14.7163 16.6506 14.0783 16.1116C13.5063 15.6056 13.0993 14.9896 13.0993 14.0766C13.0993 12.8006 14.1553 11.9096 15.9154 11.9096C16.8834 11.9096 17.6974 12.0636 18.4564 12.3936V13.7466C18.4564 13.9446 18.2693 14.0106 18.1154 13.8786C17.4993 13.3616 16.8613 13.1196 16.1354 13.1196C15.3544 13.1196 14.9143 13.4826 14.9143 14.0766C14.9143 14.5056 15.0683 14.8026 15.3544 15.0336C15.9043 15.4846 16.5863 15.8146 17.1913 16.1006C18.3354 16.6396 19.0064 17.2776 19.0064 18.6196C19.0064 20.2916 17.5874 20.9846 15.7834 20.9846C14.4523 20.9846 12.7693 20.3466 12.9893 19.7966L13.3303 18.9056Z" fill="white"/>
</svg>
