<svg width="33" height="32" viewBox="0 0 33 32" fill="none" xmlns="http://www.w3.org/2000/svg">
<path d="M9.26562 19.1949V12.1374C9.26562 12.1374 9.58563 5.2246 16.7399 5.11328C18.5548 5.17518 20.2916 5.84799 21.6545 7.01711C23.0173 8.18622 23.9219 9.77935 24.2142 11.5252V18.4825C24.2142 18.4825 24.6599 24.7274 17.2542 26.0075" stroke="#0471E9" stroke-width="2" stroke-miterlimit="10" stroke-linecap="round"/>
<path d="M6.50756 11.6367H7.95661C8.07654 11.6367 8.19528 11.6609 8.30595 11.708C8.41663 11.755 8.51704 11.8239 8.60138 11.9108C8.68573 11.9976 8.75232 12.1006 8.79731 12.2138C8.8423 12.327 8.8648 12.4482 8.86349 12.5704V17.2586C8.86349 17.5035 8.76795 17.7385 8.59787 17.9117C8.4278 18.0849 8.19713 18.1822 7.95661 18.1822H6.50756C6.26613 18.1822 6.03443 18.0852 5.86279 17.9123C5.69115 17.7394 5.59342 17.5045 5.59082 17.2586V12.5704C5.59082 12.3227 5.68741 12.0853 5.85933 11.9102C6.03125 11.7351 6.26443 11.6367 6.50756 11.6367V11.6367Z" fill="#0471E9"/>
<path d="M25.0461 11.6367H26.4995C26.6198 11.6367 26.7389 11.6609 26.8499 11.708C26.9609 11.755 27.0617 11.8239 27.1463 11.9108C27.2308 11.9976 27.2976 12.1006 27.3428 12.2138C27.3879 12.327 27.4105 12.4482 27.4091 12.5704V17.2586C27.4091 17.3799 27.3856 17.5 27.3399 17.612C27.2942 17.7241 27.2272 17.8259 27.1427 17.9117C27.0583 17.9974 26.958 18.0655 26.8476 18.1119C26.7373 18.1583 26.619 18.1822 26.4995 18.1822H25.0461C24.8049 18.1822 24.5735 18.0849 24.4029 17.9117C24.2324 17.7385 24.1365 17.5035 24.1365 17.2586V12.5704C24.1352 12.4482 24.1578 12.327 24.2029 12.2138C24.248 12.1006 24.3148 11.9976 24.3994 11.9108C24.484 11.8239 24.5847 11.755 24.6957 11.708C24.8068 11.6609 24.9259 11.6367 25.0461 11.6367V11.6367Z" fill="#0471E9"/>
<path d="M17.0455 27.4544C17.9493 27.4544 18.6819 26.7217 18.6819 25.818C18.6819 24.9143 17.9493 24.1816 17.0455 24.1816C16.1418 24.1816 15.4092 24.9143 15.4092 25.818C15.4092 26.7217 16.1418 27.4544 17.0455 27.4544Z" fill="#0471E9"/>
<path d="M14.3972 17.5254C14.6398 17.9026 14.9768 18.2136 15.3766 18.4292C15.7765 18.6448 16.2259 18.7579 16.6829 18.7579C17.1399 18.7579 17.5894 18.6448 17.9892 18.4292C18.389 18.2136 18.726 17.9026 18.9686 17.5254" stroke="#0471E9" stroke-width="1.5" stroke-miterlimit="10" stroke-linecap="round"/>
</svg>
