<svg width="49" height="48" viewBox="0 0 49 48" fill="none" xmlns="http://www.w3.org/2000/svg">
<rect x="0.5" width="48" height="48" rx="24" fill="#F3F6FB"/>
<g clip-path="url(#clip0_5679_103397)">
<path d="M31.6599 19.07H17.6599V15.75C17.6599 15.0207 17.9496 14.3212 18.4653 13.8055C18.9811 13.2897 19.6806 13 20.4099 13H28.9199C29.6493 13 30.3487 13.2897 30.8644 13.8055C31.3801 14.3212 31.6699 15.0207 31.6699 15.75L31.6599 19.07ZM19.1499 17.57H30.1499V15.75C30.1499 15.4185 30.0182 15.1005 29.7838 14.8661C29.5494 14.6317 29.2314 14.5 28.8999 14.5H20.3899C20.0584 14.5 19.7404 14.6317 19.506 14.8661C19.2716 15.1005 19.1399 15.4185 19.1399 15.75L19.1499 17.57Z" fill="#0471E9"/>
<path d="M33.0601 16.9102H16.26C15.5307 16.9102 14.8312 17.1999 14.3154 17.7156C13.7997 18.2314 13.51 18.9308 13.51 19.6602V27.5602C13.51 28.2895 13.7997 28.989 14.3154 29.5047C14.8312 30.0204 15.5307 30.3102 16.26 30.3102H18.41V24.3802H30.92V30.3102H33.0701C33.7994 30.3102 34.4988 30.0204 35.0145 29.5047C35.5303 28.989 35.8201 28.2895 35.8201 27.5602V19.6602C35.8201 19.2982 35.7486 18.9398 35.6097 18.6055C35.4709 18.2712 35.2674 17.9676 35.011 17.7121C34.7546 17.4566 34.4503 17.2543 34.1155 17.1166C33.7807 16.979 33.422 16.9089 33.0601 16.9102ZM31.95 21.8002C31.7522 21.8002 31.5589 21.7415 31.3944 21.6317C31.23 21.5218 31.1018 21.3656 31.0261 21.1829C30.9504 21.0001 30.9307 20.7991 30.9692 20.6051C31.0078 20.4111 31.1031 20.2329 31.2429 20.0931C31.3828 19.9532 31.5609 19.858 31.7549 19.8194C31.9489 19.7808 32.1499 19.8006 32.3326 19.8763C32.5154 19.952 32.6716 20.0802 32.7815 20.2446C32.8914 20.4091 32.95 20.6024 32.95 20.8002C32.95 21.0654 32.8446 21.3197 32.6571 21.5073C32.4696 21.6948 32.2152 21.8002 31.95 21.8002Z" fill="#0471E9"/>
<path d="M28.9099 35.5104H20.3999C19.6706 35.5104 18.971 35.2207 18.4553 34.7049C17.9396 34.1892 17.6499 33.4897 17.6499 32.7604V23.6504H31.6499V32.7604C31.6499 33.488 31.3616 34.186 30.848 34.7014C30.3345 35.2168 29.6375 35.5077 28.9099 35.5104ZM19.1499 25.1504V32.7604C19.1499 33.0919 19.2816 33.4099 19.516 33.6443C19.7504 33.8787 20.0684 34.0104 20.3999 34.0104H28.9099C29.2414 34.0104 29.5594 33.8787 29.7938 33.6443C30.0282 33.4099 30.1599 33.0919 30.1599 32.7604V25.1504H19.1499Z" fill="#0471E9"/>
<path d="M27.8699 28.7803H21.4399C21.241 28.7803 21.0502 28.7012 20.9095 28.5606C20.7689 28.4199 20.6899 28.2292 20.6899 28.0303C20.6899 27.8314 20.7689 27.6406 20.9095 27.4999C21.0502 27.3593 21.241 27.2803 21.4399 27.2803H27.8699C28.0688 27.2803 28.2596 27.3593 28.4003 27.4999C28.5409 27.6406 28.6199 27.8314 28.6199 28.0303C28.6199 28.2292 28.5409 28.4199 28.4003 28.5606C28.2596 28.7012 28.0688 28.7803 27.8699 28.7803Z" fill="#0471E9"/>
<path d="M27.8699 31.9502H21.4399C21.241 31.9502 21.0502 31.8712 20.9095 31.7305C20.7689 31.5899 20.6899 31.3991 20.6899 31.2002C20.6899 31.0013 20.7689 30.8105 20.9095 30.6699C21.0502 30.5292 21.241 30.4502 21.4399 30.4502H27.8699C28.0688 30.4502 28.2596 30.5292 28.4003 30.6699C28.5409 30.8105 28.6199 31.0013 28.6199 31.2002C28.6199 31.3991 28.5409 31.5899 28.4003 31.7305C28.2596 31.8712 28.0688 31.9502 27.8699 31.9502Z" fill="#0471E9"/>
</g>
<defs>
<clipPath id="clip0_5679_103397">
<rect width="22.31" height="22.49" fill="white" transform="translate(13.5 13)"/>
</clipPath>
</defs>
</svg>
