<svg width="49" height="48" viewBox="0 0 49 48" fill="none" xmlns="http://www.w3.org/2000/svg">
<rect x="0.5" width="48" height="48" rx="24" fill="#F3F6FB"/>
<circle cx="24.4998" cy="17.3333" r="5.33333" fill="#0471E9"/>
<path d="M13.8335 32C13.8335 27.5817 17.4152 24 21.8335 24H27.1668C31.5851 24 35.1668 27.5817 35.1668 32V34C35.1668 35.1046 34.2714 36 33.1668 36H17.8335C15.6244 36 13.8335 34.2091 13.8335 32Z" fill="#0471E9"/>
<circle cx="33.5" cy="32" r="5" fill="white" stroke="#0471E9"/>
<g clip-path="url(#clip0_6987_76448)">
<path d="M35.1256 28.0342C35.1745 28.0626 35.2124 28.1067 35.233 28.1594C35.2536 28.2121 35.2558 28.2702 35.2391 28.3242L34.3386 31.2502H36.0001C36.0489 31.2502 36.0967 31.2645 36.1375 31.2913C36.1783 31.3181 36.2104 31.3563 36.2297 31.4011C36.2491 31.4459 36.2549 31.4955 36.2464 31.5435C36.238 31.5916 36.2156 31.6362 36.1821 31.6717L32.1821 35.9217C32.1434 35.9629 32.0919 35.9897 32.036 35.9978C31.9801 36.006 31.9231 35.9949 31.8742 35.9665C31.8254 35.9381 31.7876 35.894 31.7671 35.8414C31.7466 35.7887 31.7444 35.7307 31.7611 35.6767L32.6616 32.7502H31.0001C30.9513 32.7502 30.9035 32.736 30.8627 32.7091C30.8219 32.6823 30.7898 32.6442 30.7705 32.5993C30.7511 32.5545 30.7453 32.505 30.7538 32.4569C30.7622 32.4088 30.7846 32.3642 30.8181 32.3287L34.8181 28.0787C34.8568 28.0376 34.9082 28.0108 34.964 28.0026C35.0198 27.9945 35.0768 28.0054 35.1256 28.0337V28.0342Z" fill="#0471E9"/>
</g>
<defs>
<clipPath id="clip0_6987_76448">
<rect width="8" height="8" fill="white" transform="translate(29.5 28)"/>
</clipPath>
</defs>
</svg>
