<svg width="49" height="48" viewBox="0 0 49 48" fill="none" xmlns="http://www.w3.org/2000/svg">
<g clip-path="url(#clip0_10124_20591)">
<path d="M23.3922 8C26.9983 8 29.9216 10.9233 29.9216 14.5294L29.9216 16.3924L29.9216 17.2941L16.8627 17.2941L16.8627 16.3924L16.8627 14.5294C16.8627 10.9233 19.7861 8 23.3922 8Z" stroke="#121619" stroke-width="2"/>
<path d="M9.33334 20.4117C9.33334 18.7549 10.6765 17.4117 12.3333 17.4117H34.451C36.1078 17.4117 37.451 18.7549 37.451 20.4117V35C37.451 36.6568 36.1078 38 34.451 38H12.3333C10.6765 38 9.33334 36.6568 9.33334 35V20.4117Z" stroke="#121619" stroke-width="2"/>
<path d="M23.3922 29.5883C24.4318 29.5883 25.2745 28.7455 25.2745 27.7059C25.2745 26.6663 24.4318 25.8235 23.3922 25.8235C22.3526 25.8235 21.5098 26.6663 21.5098 27.7059C21.5098 28.7455 22.3526 29.5883 23.3922 29.5883Z" fill="#121619"/>
</g>
<defs>
<clipPath id="clip0_10124_20591">
<rect width="48" height="48" fill="white" transform="translate(0.333344)"/>
</clipPath>
</defs>
</svg>
