<svg width="48" height="48" viewBox="0 0 48 48" fill="none" xmlns="http://www.w3.org/2000/svg">
<circle cx="24" cy="24" r="24" fill="#F3F6FB"/>
<path d="M30.033 13.0435H15.8261C14.7215 13.0435 13.8261 13.9389 13.8261 15.0435V32.2848C13.8261 33.3894 14.7215 34.2848 15.8261 34.2848H22.9296H30.033C31.1376 34.2848 32.033 33.3894 32.033 32.2848V15.0435C32.033 13.9389 31.1376 13.0435 30.033 13.0435Z" fill="#D7E8FB"/>
<line x1="17.6105" y1="18.3623" x2="23.6967" y2="18.3623" stroke="#59A1F1" stroke-width="1.5" stroke-linecap="round" stroke-linejoin="round"/>
<line x1="17.6105" y1="22.9141" x2="20.6623" y2="22.9141" stroke="#59A1F1" stroke-width="1.5" stroke-linecap="round" stroke-linejoin="round"/>
<path d="M35.3147 35.8014L33.5891 28.9709C33.477 28.5269 33.0776 28.2158 32.6196 28.2158H26.8944C26.4365 28.2158 26.0371 28.5269 25.9249 28.9709L24.1993 35.8014C23.9936 36.6154 24.8222 37.3052 25.5855 36.9554L29.757 35.0434L33.9285 36.9554C34.6919 37.3052 35.5204 36.6154 35.3147 35.8014Z" fill="#368DED"/>
<ellipse cx="29.7571" cy="25.6871" rx="6.06897" ry="6.06897" fill="#FEDA4A"/>
</svg>
