<svg width="24" height="24" viewBox="0 0 24 24" fill="none" xmlns="http://www.w3.org/2000/svg">
<mask id="path-1-inside-1_3266_8837" fill="white">
<path fill-rule="evenodd" clip-rule="evenodd" d="M17.5303 7.53033C17.8232 7.23744 17.8232 6.76256 17.5303 6.46967C17.2374 6.17678 16.7626 6.17678 16.4697 6.46967L12 10.9393L7.53033 6.46967C7.23744 6.17678 6.76256 6.17678 6.46967 6.46967C6.17678 6.76256 6.17678 7.23744 6.46967 7.53033L10.9393 12L6.46967 16.4697C6.17678 16.7626 6.17678 17.2374 6.46967 17.5303C6.76256 17.8232 7.23744 17.8232 7.53033 17.5303L12 13.0607L16.4697 17.5303C16.7626 17.8232 17.2374 17.8232 17.5303 17.5303C17.8232 17.2374 17.8232 16.7626 17.5303 16.4697L13.0607 12L17.5303 7.53033Z"/>
</mask>
<path d="M17.5303 6.46967L16.4697 7.53033L16.4697 7.53033L17.5303 6.46967ZM17.5303 7.53033L16.4697 6.46967L16.4697 6.46967L17.5303 7.53033ZM16.4697 6.46967L17.5303 7.53033L17.5303 7.53033L16.4697 6.46967ZM12 10.9393L10.9393 12L12 13.0607L13.0607 12L12 10.9393ZM7.53033 6.46967L6.46967 7.53033L6.46967 7.53033L7.53033 6.46967ZM6.46967 6.46967L7.53033 7.53033L7.53033 7.53033L6.46967 6.46967ZM6.46967 7.53033L7.53033 6.46967L7.53033 6.46967L6.46967 7.53033ZM10.9393 12L12 13.0607L13.0607 12L12 10.9393L10.9393 12ZM6.46967 16.4697L7.53033 17.5303L7.53033 17.5303L6.46967 16.4697ZM6.46967 17.5303L7.53033 16.4697L7.53033 16.4697L6.46967 17.5303ZM7.53033 17.5303L6.46967 16.4697L6.46967 16.4697L7.53033 17.5303ZM12 13.0607L13.0607 12L12 10.9393L10.9393 12L12 13.0607ZM16.4697 17.5303L17.5303 16.4697L17.5303 16.4697L16.4697 17.5303ZM17.5303 17.5303L16.4697 16.4697L16.4697 16.4697L17.5303 17.5303ZM17.5303 16.4697L16.4697 17.5303L16.4697 17.5303L17.5303 16.4697ZM13.0607 12L12 10.9393L10.9393 12L12 13.0607L13.0607 12ZM16.4697 7.53033C16.1768 7.23744 16.1768 6.76256 16.4697 6.46967L18.591 8.59099C19.4697 7.71231 19.4697 6.28769 18.591 5.40901L16.4697 7.53033ZM17.5303 7.53033C17.2374 7.82322 16.7626 7.82322 16.4697 7.53033L18.591 5.40901C17.7123 4.53033 16.2877 4.53033 15.409 5.40901L17.5303 7.53033ZM13.0607 12L17.5303 7.53033L15.409 5.40901L10.9393 9.87868L13.0607 12ZM6.46967 7.53033L10.9393 12L13.0607 9.87868L8.59099 5.40901L6.46967 7.53033ZM7.53033 7.53033C7.23744 7.82322 6.76256 7.82322 6.46967 7.53033L8.59099 5.40901C7.71231 4.53033 6.28769 4.53033 5.40901 5.40901L7.53033 7.53033ZM7.53033 6.46967C7.82322 6.76256 7.82322 7.23744 7.53033 7.53033L5.40901 5.40901C4.53033 6.28769 4.53033 7.71231 5.40901 8.59099L7.53033 6.46967ZM12 10.9393L7.53033 6.46967L5.40901 8.59099L9.87868 13.0607L12 10.9393ZM7.53033 17.5303L12 13.0607L9.87868 10.9393L5.40901 15.409L7.53033 17.5303ZM7.53033 16.4697C7.82322 16.7626 7.82322 17.2374 7.53033 17.5303L5.40901 15.409C4.53033 16.2877 4.53033 17.7123 5.40901 18.591L7.53033 16.4697ZM6.46967 16.4697C6.76256 16.1768 7.23744 16.1768 7.53033 16.4697L5.40901 18.591C6.28769 19.4697 7.71231 19.4697 8.59099 18.591L6.46967 16.4697ZM10.9393 12L6.46967 16.4697L8.59099 18.591L13.0607 14.1213L10.9393 12ZM17.5303 16.4697L13.0607 12L10.9393 14.1213L15.409 18.591L17.5303 16.4697ZM16.4697 16.4697C16.7626 16.1768 17.2374 16.1768 17.5303 16.4697L15.409 18.591C16.2877 19.4697 17.7123 19.4697 18.591 18.591L16.4697 16.4697ZM16.4697 17.5303C16.1768 17.2374 16.1768 16.7626 16.4697 16.4697L18.591 18.591C19.4697 17.7123 19.4697 16.2877 18.591 15.409L16.4697 17.5303ZM12 13.0607L16.4697 17.5303L18.591 15.409L14.1213 10.9393L12 13.0607ZM16.4697 6.46967L12 10.9393L14.1213 13.0607L18.591 8.59099L16.4697 6.46967Z" fill="#343A3F" mask="url(#path-1-inside-1_3266_8837)"/>
</svg>
