<svg width="48" height="48" viewBox="0 0 48 48" fill="none" xmlns="http://www.w3.org/2000/svg">
<rect opacity="0" width="48" height="48" fill="#FF0000"/>
<rect width="48" height="48" rx="24" fill="#F3F6FB"/>
<path fill-rule="evenodd" clip-rule="evenodd" d="M14.3202 16.8674L23.5702 24.7974C23.7087 24.9184 23.8863 24.985 24.0702 24.985C24.2541 24.985 24.4317 24.9184 24.5702 24.7974L33.7202 16.9574C33.8966 17.2617 33.9929 17.6058 34.0002 17.9574V29.9574C34.0002 30.4878 33.7895 30.9965 33.4144 31.3716C33.0394 31.7467 32.5306 31.9574 32.0002 31.9574H16.0002C15.4698 31.9574 14.9611 31.7467 14.586 31.3716C14.2109 30.9965 14.0002 30.4878 14.0002 29.9574V17.9574C13.9945 17.5701 14.106 17.1901 14.3202 16.8674ZM15.6202 16.0074C15.74 15.9975 15.8604 15.9975 15.9802 16.0074H31.9802C32.1421 16.007 32.3034 16.0271 32.4602 16.0674L24.0602 23.2674L15.6202 16.0074Z" fill="#0471E9"/>
</svg>
