<svg width="49" height="48" viewBox="0 0 49 48" fill="none" xmlns="http://www.w3.org/2000/svg">
<rect opacity="0" x="0.5" width="48" height="48" fill="#FF0000"/>
<rect x="0.5" width="48" height="48" rx="24" fill="#F3F6FB"/>
<path d="M34.5 17.9286C33.7645 18.2545 32.9744 18.4747 32.1438 18.5742C33.0008 18.0614 33.642 17.2543 33.9477 16.3035C33.1425 16.7817 32.2612 17.1184 31.3422 17.2988C30.7242 16.6389 29.9057 16.2016 29.0136 16.0546C28.1216 15.9076 27.206 16.0593 26.409 16.486C25.6119 16.9127 24.9781 17.5907 24.6058 18.4145C24.2336 19.2384 24.1437 20.1621 24.3503 21.0423C22.7187 20.9604 21.1226 20.5363 19.6655 19.7976C18.2085 19.0589 16.923 18.0221 15.8926 16.7544C15.5403 17.3622 15.3377 18.0669 15.3377 18.8173C15.3373 19.4929 15.5036 20.1582 15.822 20.754C16.1404 21.3499 16.6009 21.858 17.1627 22.2332C16.5112 22.2124 15.874 22.0364 15.3042 21.7197V21.7725C15.3041 22.72 15.6319 23.6384 16.2319 24.3718C16.8318 25.1052 17.6671 25.6084 18.5958 25.7961C17.9914 25.9597 17.3577 25.9838 16.7426 25.8666C17.0046 26.6819 17.5151 27.3948 18.2024 27.9056C18.8898 28.4164 19.7197 28.6995 20.5759 28.7152C19.1224 29.8562 17.3273 30.4751 15.4795 30.4724C15.1521 30.4725 14.8251 30.4534 14.5 30.4151C16.3757 31.6212 18.5591 32.2612 20.7891 32.2587C28.3378 32.2587 32.4644 26.0066 32.4644 20.5843C32.4644 20.4081 32.46 20.2302 32.4521 20.054C33.2548 19.4735 33.9476 18.7547 34.4982 17.9312L34.5 17.9286Z" fill="#0471E9"/>
</svg>
