<svg width="32" height="32" viewBox="0 0 32 32" fill="none" xmlns="http://www.w3.org/2000/svg">
<circle cx="16" cy="16" r="16" fill="#F3F6FB"/>
<g clip-path="url(#clip0_11611_27718)">
<path d="M16.0001 8C11.0294 8 7.00146 11.1854 7.00146 15.115C7.00146 17.6728 8.70887 19.9141 11.2709 21.1683C11.0844 21.8714 10.5892 23.7149 10.4904 24.1089C10.3687 24.5985 10.6699 24.5919 10.8671 24.46C11.0219 24.3569 13.3336 22.7857 14.3309 22.1073C14.884 22.1892 15.4423 22.2304 16.0015 22.2304C20.9721 22.2304 25.0001 19.044 25.0001 15.115C25.0001 11.1859 20.9707 8 16.0015 8" fill="#391B1B"/>
<path d="M12.3784 13.0196H9.74643C9.62772 13.0196 9.51387 13.0668 9.42993 13.1507C9.34599 13.2347 9.29883 13.3485 9.29883 13.4672C9.29883 13.5859 9.34599 13.6998 9.42993 13.7837C9.51387 13.8677 9.62772 13.9148 9.74643 13.9148H10.602V17.0676C10.6025 17.1833 10.6487 17.2941 10.7305 17.376C10.8123 17.4578 10.9232 17.504 11.0389 17.5045H11.1344C11.2501 17.504 11.3608 17.4578 11.4425 17.3759C11.5242 17.2941 11.5701 17.1832 11.5704 17.0676V13.9148H12.3784C12.4971 13.9148 12.611 13.8677 12.6949 13.7837C12.7788 13.6998 12.826 13.5859 12.826 13.4672C12.826 13.3485 12.7788 13.2347 12.6949 13.1507C12.611 13.0668 12.4971 13.0196 12.3784 13.0196Z" fill="#FAE300"/>
<path d="M18.7031 16.6624H17.4792V13.4425C17.4813 13.3775 17.4702 13.3127 17.4467 13.252C17.4232 13.1914 17.3877 13.136 17.3425 13.0893C17.2972 13.0426 17.243 13.0055 17.183 12.9801C17.1231 12.9547 17.0587 12.9417 16.9936 12.9417C16.9286 12.9417 16.8642 12.9547 16.8043 12.9801C16.7443 13.0055 16.6901 13.0426 16.6448 13.0893C16.5995 13.136 16.5641 13.1914 16.5406 13.252C16.5171 13.3127 16.506 13.3775 16.508 13.4425V16.9133C16.5085 16.9394 16.5112 16.9655 16.516 16.9911C16.5107 17.0166 16.5081 17.0425 16.508 17.0685C16.508 17.122 16.5185 17.1749 16.5389 17.2242C16.5593 17.2736 16.5892 17.3184 16.627 17.3562C16.6648 17.3939 16.7096 17.4239 16.759 17.4443C16.8083 17.4647 16.8612 17.4752 16.9146 17.4751H18.7031C18.8085 17.4715 18.9084 17.4272 18.9817 17.3514C19.055 17.2755 19.0959 17.1742 19.0959 17.0688C19.0959 16.9633 19.055 16.862 18.9817 16.7862C18.9084 16.7104 18.8085 16.666 18.7031 16.6624Z" fill="#FAE300"/>
<path d="M22.6145 16.8102L21.2507 15.0189L22.483 13.7862C22.5228 13.7464 22.5544 13.6991 22.5759 13.6471C22.5974 13.5951 22.6085 13.5394 22.6085 13.4831C22.6085 13.4268 22.5974 13.3711 22.5759 13.3191C22.5544 13.2671 22.5228 13.2198 22.483 13.18C22.4432 13.1402 22.396 13.1087 22.344 13.0871C22.292 13.0656 22.2362 13.0545 22.1799 13.0545C22.1237 13.0545 22.0679 13.0656 22.0159 13.0871C21.9639 13.1087 21.9167 13.1402 21.8769 13.18L20.3513 14.7056V13.4425C20.3533 13.3775 20.3423 13.3127 20.3188 13.252C20.2953 13.1914 20.2598 13.136 20.2145 13.0893C20.1692 13.0426 20.115 13.0055 20.0551 12.9801C19.9952 12.9547 19.9308 12.9417 19.8657 12.9417C19.8006 12.9417 19.7362 12.9547 19.6763 12.9801C19.6164 13.0055 19.5622 13.0426 19.5169 13.0893C19.4716 13.136 19.4362 13.1914 19.4127 13.252C19.3892 13.3127 19.3781 13.3775 19.3801 13.4425V17.0201C19.384 17.1462 19.4369 17.2659 19.5275 17.3538C19.6182 17.4417 19.7395 17.4908 19.8657 17.4908C19.992 17.4908 20.1132 17.4417 20.2039 17.3538C20.2945 17.2659 20.3474 17.1462 20.3513 17.0201V15.916L20.6287 15.639L21.9188 17.332C21.988 17.4242 22.091 17.4852 22.2052 17.5015C22.3193 17.5178 22.4353 17.4881 22.5275 17.4189C22.6198 17.3497 22.6808 17.2467 22.6971 17.1326C22.7134 17.0184 22.6837 16.9025 22.6145 16.8102Z" fill="#FAE300"/>
<path d="M16.1449 16.9263L14.8328 13.3362L14.8286 13.3325C14.7447 13.1138 14.5023 12.9543 14.2141 12.9543C13.8938 12.9543 13.629 13.1502 13.5763 13.4061C13.5669 13.4254 13.5587 13.4452 13.5516 13.4654L12.2638 16.9263C12.2399 16.9812 12.2275 17.0403 12.2275 17.1002C12.2275 17.16 12.2399 17.2192 12.2638 17.274C12.2877 17.3289 12.3227 17.3782 12.3665 17.4189C12.4103 17.4597 12.4621 17.4909 12.5186 17.5107C12.575 17.5305 12.6349 17.5385 12.6946 17.534C12.7543 17.5296 12.8124 17.513 12.8653 17.4851C12.9183 17.4572 12.9649 17.4187 13.0023 17.3719C13.0396 17.3252 13.067 17.2713 13.0825 17.2135L13.3054 16.5766H15.1009L15.3238 17.2135C15.3621 17.3224 15.442 17.4116 15.5461 17.4616C15.6501 17.5115 15.7698 17.518 15.8786 17.4798C15.9875 17.4415 16.0767 17.3615 16.1267 17.2575C16.1766 17.1534 16.1831 17.0338 16.1449 16.9249V16.9263ZM13.5903 15.7649L14.1936 14.043C14.2006 14.043 14.2062 14.043 14.2132 14.043L14.8156 15.7626L13.5903 15.7649Z" fill="#FAE300"/>
</g>
<defs>
<clipPath id="clip0_11611_27718">
<rect width="18" height="16.5364" fill="white" transform="translate(7 8)"/>
</clipPath>
</defs>
</svg>
