<svg width="24" height="24" viewBox="0 0 24 24" fill="none" xmlns="http://www.w3.org/2000/svg">
<path d="M13.9248 3.25393H13.9251C14.1864 3.25391 14.4433 3.32218 14.6701 3.45198C14.897 3.58178 15.086 3.7686 15.2184 3.99393L16.0322 5.38054L16.2495 5.75093H16.679H18.75C19.4129 5.75093 20.0487 6.01422 20.5175 6.48289C20.9863 6.95151 21.2497 7.58711 21.25 8.24993C21.25 8.25001 21.25 8.25008 21.25 8.25016V17.7499C21.25 18.0782 21.1853 18.4033 21.0597 18.7066C20.9341 19.01 20.7499 19.2856 20.5178 19.5177C20.2856 19.7498 20.01 19.934 19.7067 20.0596C19.4034 20.1853 19.0783 20.2499 18.75 20.2499H5.25C4.58696 20.2499 3.95107 19.9865 3.48223 19.5177C3.01339 19.0489 2.75 18.413 2.75 17.7499V8.24993C2.75 7.58689 3.01339 6.951 3.48223 6.48216C3.95107 6.01332 4.58696 5.74993 5.25 5.74993H7.33H7.74942L7.96901 5.39258L8.84401 3.96858L8.8442 3.96826C8.97832 3.74974 9.16622 3.56925 9.38996 3.44402C9.61358 3.31885 9.86554 3.25306 10.1218 3.25293C10.1219 3.25293 10.1219 3.25293 10.122 3.25293C10.1221 3.25293 10.1221 3.25293 10.1222 3.25293L13.9248 3.25393Z" stroke="white" stroke-width="1.5"/>
<circle cx="12" cy="13" r="3.25" stroke="white" stroke-width="1.5"/>
</svg>
