<svg width="24" height="24" viewBox="0 0 24 24" fill="none" xmlns="http://www.w3.org/2000/svg">
<g clip-path="url(#clip0_7455_44272)">
<path d="M7.9802 11.2501C8.37873 11.2456 8.77263 11.1641 9.1402 11.0101C9.52002 10.8655 9.86198 10.6364 10.1402 10.3401C10.4216 10.0536 10.6426 9.71357 10.7902 9.34009C11.011 8.795 11.07 8.19785 10.9602 7.62009C10.8465 7.03539 10.5614 6.49776 10.1411 6.07569C9.72083 5.65362 9.18441 5.36622 8.6002 5.25009C8.02244 5.1403 7.42529 5.19932 6.8802 5.42009C6.5042 5.5627 6.16318 5.78436 5.8802 6.07009C5.588 6.35381 5.35664 6.69405 5.2002 7.07009C5.05702 7.44656 4.98907 7.84746 5.0002 8.25009C5.0002 9.04574 5.31627 9.8088 5.87888 10.3714C6.44149 10.934 7.20455 11.2501 8.0002 11.2501H7.9802Z" fill="#B9C1C9"/>
<path d="M10.4998 15.2504C10.5012 14.2781 10.8566 13.3396 11.4998 12.6104L11.3298 12.5204C10.7928 12.2869 10.2152 12.1612 9.62976 12.1504H6.39976C5.81433 12.1612 5.23672 12.2869 4.69976 12.5204C4.16178 12.7509 3.67806 13.0915 3.27976 13.5204C2.44027 14.4235 1.98484 15.6176 2.00976 16.8504V18.1404H14.0098V16.8504C14.0246 16.674 14.0246 16.4967 14.0098 16.3204H10.4998V15.2504Z" fill="#B9C1C9"/>
<path d="M11.46 12.5996C10.8168 13.3288 10.4614 14.2673 10.46 15.2396V16.3196H13.92C13.8363 15.2756 13.3989 14.2913 12.68 13.5296C12.3371 13.1438 11.9228 12.828 11.46 12.5996Z" fill="#B9C1C9"/>
<path d="M21.0498 14.8104C21.0654 13.7863 20.6817 12.7964 19.9798 12.0504C19.6492 11.7059 19.2508 11.4335 18.8098 11.2504C18.3651 11.0543 17.8858 10.9489 17.3998 10.9404H14.7098C14.234 10.9531 13.7653 11.0584 13.3298 11.2504C12.8807 11.4424 12.4782 11.7289 12.1498 12.0904C12.1498 12.0904 12.0898 12.1704 12.0498 12.2104C12.527 12.4344 12.9552 12.7504 13.3098 13.1404C14.0248 13.9087 14.4614 14.8946 14.5498 15.9404H21.0898L21.0498 14.8104Z" fill="#B9C1C9"/>
<path d="M16.0704 9.99974C16.4139 10.0031 16.7545 9.93496 17.0704 9.79974C17.3806 9.6785 17.6605 9.49076 17.8904 9.24974C18.1226 9.01922 18.3069 8.74503 18.4326 8.44296C18.5584 8.1409 18.6231 7.81694 18.6231 7.48974C18.6231 7.16254 18.5584 6.83857 18.4326 6.53651C18.3069 6.23445 18.1226 5.96026 17.8904 5.72974C17.5402 5.38246 17.0954 5.14604 16.6117 5.05C16.128 4.95397 15.6266 5.00257 15.1704 5.18974C14.8649 5.30988 14.5887 5.494 14.3604 5.72974C14.1197 5.95813 13.929 6.23393 13.8004 6.53974C13.6742 6.85801 13.6097 7.19737 13.6104 7.53974C13.6104 8.1984 13.8713 8.83023 14.3361 9.29691C14.8009 9.76358 15.4317 10.0271 16.0904 10.0297L16.0704 9.99974Z" fill="#B9C1C9"/>
</g>
<defs>
<clipPath id="clip0_7455_44272">
<rect width="19.04" height="13.15" fill="white" transform="translate(2 5)"/>
</clipPath>
</defs>
</svg>
