<svg width="24" height="24" viewBox="0 0 24 24" fill="none" xmlns="http://www.w3.org/2000/svg">
<path d="M12 4.5C13.6569 4.5 15 5.84315 15 7.5L15 8.73971L15 9L9 9L9 8.73971L9 7.5C9 5.84315 10.3431 4.5 12 4.5Z" stroke="#121619" stroke-width="1.5"/>
<path d="M4.5 10.625C4.5 9.93464 5.05964 9.375 5.75 9.375H18.25C18.9404 9.375 19.5 9.93464 19.5 10.625V18.625C19.5 19.3154 18.9404 19.875 18.25 19.875H5.75C5.05964 19.875 4.5 19.3154 4.5 18.625V10.625Z" stroke="#121619" stroke-width="1.5"/>
<path d="M11.9063 15.9375C12.6829 15.9375 13.3125 15.3079 13.3125 14.5312C13.3125 13.7546 12.6829 13.125 11.9063 13.125C11.1296 13.125 10.5 13.7546 10.5 14.5312C10.5 15.3079 11.1296 15.9375 11.9063 15.9375Z" fill="#121619"/>
</svg>
