<svg width="40" height="40" viewBox="0 0 40 40" fill="none" xmlns="http://www.w3.org/2000/svg">
<path d="M23.2082 4.92318H23.2084C23.7312 4.92313 24.2448 5.05968 24.6985 5.31927C25.1522 5.57887 25.5303 5.95251 25.7951 6.40318L27.1515 8.71445L27.3689 9.08484H27.7984H31.25C32.4875 9.08484 33.6742 9.57631 34.5494 10.4512C35.4244 11.326 35.9163 12.5125 35.9167 13.7498C35.9167 13.7499 35.9167 13.75 35.9167 13.7501V29.5832C35.9167 30.196 35.796 30.8028 35.5615 31.369C35.327 31.9352 34.9832 32.4497 34.5499 32.883C34.1165 33.3163 33.6021 33.6601 33.0359 33.8946C32.4697 34.1291 31.8629 34.2498 31.25 34.2498H8.75004C7.51236 34.2498 6.32538 33.7582 5.45021 32.883C4.57504 32.0078 4.08337 30.8209 4.08337 29.5832V13.7498C4.08337 12.5122 4.57504 11.3252 5.45021 10.45C6.32538 9.57484 7.51236 9.08318 8.75004 9.08318H12.2167H12.6361L12.8557 8.72582L14.314 6.35249L14.3142 6.35218C14.5825 5.91514 14.9583 5.55415 15.4058 5.30369C15.8531 5.05329 16.3572 4.92171 16.8698 4.92151C16.8699 4.92151 16.87 4.92151 16.8701 4.92151C16.8701 4.92151 16.8702 4.92151 16.8702 4.92151L23.2082 4.92318Z" stroke="#121619" stroke-width="1.5"/>
<path d="M25.9167 21.6667C25.9167 24.9344 23.2677 27.5833 20 27.5833C16.7324 27.5833 14.0834 24.9344 14.0834 21.6667C14.0834 18.399 16.7324 15.75 20 15.75C23.2677 15.75 25.9167 18.399 25.9167 21.6667Z" stroke="#121619" stroke-width="1.5"/>
</svg>
