<svg width="49" height="48" viewBox="0 0 49 48" fill="none" xmlns="http://www.w3.org/2000/svg">
<rect x="8.83331" y="16" width="32" height="16" rx="3" stroke="#121619" stroke-width="2"/>
<path d="M14.3333 24.75L17.3333 22.75M15.8333 22V25.5V22ZM14.3333 22.75L17.3333 24.75L14.3333 22.75Z" stroke="#121619" stroke-width="1.2" stroke-linecap="round" stroke-linejoin="round"/>
<path d="M20.3333 24.75L23.3333 22.75M21.8333 22V25.5V22ZM20.3333 22.75L23.3333 24.75L20.3333 22.75Z" stroke="#121619" stroke-width="1.2" stroke-linecap="round" stroke-linejoin="round"/>
<path d="M26.3333 24.75L29.3333 22.75M27.8333 22V25.5V22ZM26.3333 22.75L29.3333 24.75L26.3333 22.75Z" stroke="#121619" stroke-width="1.2" stroke-linecap="round" stroke-linejoin="round"/>
<path d="M32.3333 24.75L35.3333 22.75M33.8333 22V25.5V22ZM32.3333 22.75L35.3333 24.75L32.3333 22.75Z" stroke="#121619" stroke-width="1.2" stroke-linecap="round" stroke-linejoin="round"/>
</svg>
