<svg width="32" height="32" viewBox="0 0 32 32" fill="none" xmlns="http://www.w3.org/2000/svg">
<path d="M9.14309 5.02857H6.40024C6.21879 5.02933 6.03929 5.06608 5.87215 5.1367C5.705 5.20733 5.55354 5.31042 5.42652 5.44C5.17316 5.69544 5.03032 6.04022 5.02881 6.4V9.14286" stroke="#121619" stroke-width="1.5" stroke-linecap="round" stroke-linejoin="round"/>
<path d="M22.8569 5.02857H25.5998C25.9635 5.02857 26.3123 5.17306 26.5695 5.43025C26.8267 5.68745 26.9712 6.03628 26.9712 6.4V9.14286" stroke="#121619" stroke-width="1.5" stroke-linecap="round" stroke-linejoin="round"/>
<path d="M26.9712 22.8571V25.6C26.9723 25.7805 26.9377 25.9594 26.8694 26.1265C26.8012 26.2936 26.7006 26.4456 26.5735 26.5737C26.4454 26.7008 26.2934 26.8014 26.1263 26.8696C25.9592 26.9379 25.7803 26.9725 25.5998 26.9714H22.8569" stroke="#121619" stroke-width="1.5" stroke-linecap="round" stroke-linejoin="round"/>
<path d="M9.14309 26.9714H6.40024C6.03651 26.9714 5.68768 26.8269 5.43049 26.5698C5.1733 26.3126 5.02881 25.9637 5.02881 25.6V22.8571" stroke="#121619" stroke-width="1.5" stroke-linecap="round" stroke-linejoin="round"/>
<path d="M16.0684 16.5349C16.7552 16.5349 17.4266 16.331 17.9975 15.9491C18.5683 15.5673 19.0131 15.0246 19.2753 14.3898C19.5375 13.755 19.6054 13.0566 19.4704 12.3832C19.3354 11.7097 19.0036 11.0915 18.5169 10.6068C18.0303 10.1221 17.4108 9.79276 16.7368 9.66044C16.0629 9.52811 15.3648 9.59878 14.731 9.8635C14.0973 10.1282 13.5563 10.5751 13.1767 11.1475C12.7971 11.7199 12.5959 12.392 12.5987 13.0789C12.6023 13.9967 12.9694 14.8757 13.6198 15.5235C14.2701 16.1712 15.1505 16.5349 16.0684 16.5349V16.5349Z" stroke="#121619" stroke-width="1.5" stroke-linecap="round" stroke-linejoin="round"/>
<path d="M10.5142 22.4046V21.376C10.5142 20.3939 10.9043 19.4521 11.5987 18.7577C12.2931 18.0633 13.235 17.6731 14.217 17.6731H17.7827C18.269 17.6731 18.7505 17.7689 19.1998 17.955C19.649 18.1411 20.0572 18.4138 20.401 18.7577C20.7449 19.1015 21.0176 19.5097 21.2037 19.959C21.3898 20.4082 21.4856 20.8897 21.4856 21.376V22.4046" stroke="#121619" stroke-width="1.5" stroke-linecap="round" stroke-linejoin="round"/>
</svg>
