<svg width="32" height="32" viewBox="0 0 32 32" fill="none" xmlns="http://www.w3.org/2000/svg">
<path d="M24.4453 25.9635L25 25.1315L24.4453 25.9635ZM20.7558 23.5038L20.2011 24.3359L20.7558 23.5038ZM9 8H23V6H9V8ZM7 20V10H5V20H7ZM19.0917 22H9V24H19.0917V22ZM25 25.1315L21.3105 22.6718L20.2011 24.3359L23.8906 26.7956L25 25.1315ZM25 25.1315H25L23.8906 26.7956C25.2197 27.6817 27 26.7289 27 25.1315H25ZM25 23V25.1315H27V23H25ZM25 10V23H27V10H25ZM19.0917 24C19.4865 24 19.8725 24.1169 20.2011 24.3359L21.3105 22.6718C20.6534 22.2338 19.8814 22 19.0917 22V24ZM5 20C5 22.2091 6.79086 24 9 24V22C7.89543 22 7 21.1046 7 20H5ZM23 8C24.1046 8 25 8.89543 25 10H27C27 7.79086 25.2091 6 23 6V8ZM9 6C6.79086 6 5 7.79086 5 10H7C7 8.89543 7.89543 8 9 8V6Z" fill="#121619"/>
<g clip-path="url(#clip0_14037_51000)">
<circle cx="12.2986" cy="13.2986" r="0.798632" fill="#121619" stroke="#121619"/>
<circle cx="19.7013" cy="13.2986" r="0.798632" fill="#121619" stroke="#121619"/>
<path d="M14.6187 15.7143C14.1848 15.3727 13.556 15.4474 13.2143 15.8813C12.8727 16.3152 12.9474 16.944 13.3813 17.2857L14.6187 15.7143ZM18.6187 17.2857C19.0526 16.944 19.1273 16.3152 18.7857 15.8813C18.444 15.4474 17.8152 15.3727 17.3813 15.7143L18.6187 17.2857ZM13.3813 17.2857C14.2277 17.9521 16.4999 18.9541 18.6187 17.2857L17.3813 15.7143C16.3001 16.5658 15.1057 16.0978 14.6187 15.7143L13.3813 17.2857Z" fill="#121619"/>
</g>
<defs>
<clipPath id="clip0_14037_51000">
<rect width="10" height="7.00009" fill="white" transform="translate(11 12)"/>
</clipPath>
</defs>
</svg>
