<svg width="49" height="48" viewBox="0 0 49 48" fill="none" xmlns="http://www.w3.org/2000/svg">
<g clip-path="url(#clip0_10128_20457)">
<path d="M13.1667 15C14.2713 15 15.1667 14.1046 15.1667 13C15.1667 11.8954 14.2713 11 13.1667 11C12.0621 11 11.1667 11.8954 11.1667 13C11.1667 14.1046 12.0621 15 13.1667 15Z" fill="#121619"/>
<line opacity="0.1" x1="12.1667" y1="13.0002" x2="35.1667" y2="13.0002" stroke="#121619" stroke-width="2"/>
<path opacity="0.1" d="M13.1667 35.0001H35.1667" stroke="#121619" stroke-width="2"/>
<path opacity="0.1" d="M14.1667 34.2931L35.4597 13.0001" stroke="#121619" stroke-width="2"/>
<path d="M24.1667 15C25.2713 15 26.1667 14.1046 26.1667 13C26.1667 11.8954 25.2713 11 24.1667 11C23.0621 11 22.1667 11.8954 22.1667 13C22.1667 14.1046 23.0621 15 24.1667 15Z" fill="#121619"/>
<path d="M35.1667 15C36.2713 15 37.1667 14.1046 37.1667 13C37.1667 11.8954 36.2713 11 35.1667 11C34.0621 11 33.1667 11.8954 33.1667 13C33.1667 14.1046 34.0621 15 35.1667 15Z" fill="#121619"/>
<path d="M24.1667 26C25.2713 26 26.1667 25.1046 26.1667 24C26.1667 22.8954 25.2713 22 24.1667 22C23.0621 22 22.1667 22.8954 22.1667 24C22.1667 25.1046 23.0621 26 24.1667 26Z" fill="#121619"/>
<path d="M13.1667 37C14.2713 37 15.1667 36.1046 15.1667 35C15.1667 33.8954 14.2713 33 13.1667 33C12.0621 33 11.1667 33.8954 11.1667 35C11.1667 36.1046 12.0621 37 13.1667 37Z" fill="#121619"/>
<path d="M24.1667 37C25.2713 37 26.1667 36.1046 26.1667 35C26.1667 33.8954 25.2713 33 24.1667 33C23.0621 33 22.1667 33.8954 22.1667 35C22.1667 36.1046 23.0621 37 24.1667 37Z" fill="#121619"/>
<path d="M35.1667 37C36.2713 37 37.1667 36.1046 37.1667 35C37.1667 33.8954 36.2713 33 35.1667 33C34.0621 33 33.1667 33.8954 33.1667 35C33.1667 36.1046 34.0621 37 35.1667 37Z" fill="#121619"/>
</g>
<defs>
<clipPath id="clip0_10128_20457">
<rect width="26" height="26" fill="white" transform="translate(11.1667 11)"/>
</clipPath>
</defs>
</svg>
