<svg width="24" height="24" viewBox="0 0 24 24" fill="none" xmlns="http://www.w3.org/2000/svg">
<circle cx="9.47742" cy="6.61341" r="6.61341" fill="#C3DDFA"/>
<path fill-rule="evenodd" clip-rule="evenodd" d="M4.90069 16.1067L4.3133 14.5411C4.0193 13.7577 4.42001 12.8757 5.2037 12.5817C5.98739 12.2877 6.86908 12.6884 7.16307 13.4721L7.77812 14.9607L7.77662 15.0674L7.79165 13.9955V4.33839C7.79165 3.50119 8.47674 2.81641 9.31363 2.81641C10.1505 2.81641 10.8353 3.50119 10.8353 4.33839V11.7595V12.1467L10.8443 12.0226V9.74936C10.8443 8.91217 11.5255 8.22738 12.3624 8.22738C13.1993 8.22738 13.8844 8.91217 13.8844 9.74936L13.888 12.0226V10.9443L13.8937 12.0226V9.74936C13.8937 8.91217 14.5785 8.22738 15.4157 8.22738C16.2526 8.22738 16.9374 8.91217 16.9374 9.74936V12.0226V12.5862L16.9419 11.8386L16.9212 10.7678C16.9112 9.93093 17.5876 9.23773 18.4245 9.2275C19.2614 9.21728 19.9546 9.89396 19.9648 10.7309L20 13.0041V14.4398V16.0084C20 20.2229 16.711 23.07 12.6913 23.07C8.67153 23.07 6.75274 20.4414 4.99869 16.3342L4.90069 16.1067Z" fill="white"/>
<path fill-rule="evenodd" clip-rule="evenodd" d="M4.90069 16.1067L4.3133 14.5411C4.0193 13.7577 4.42001 12.8757 5.2037 12.5817C5.98739 12.2877 6.86908 12.6884 7.16307 13.4721L7.77812 14.9607L7.77662 15.0674L7.79165 13.9955V4.33839C7.79165 3.50119 8.47674 2.81641 9.31363 2.81641C10.1505 2.81641 10.8353 3.50119 10.8353 4.33839V11.7595V12.1467L10.8443 12.0226V9.74936C10.8443 8.91217 11.5255 8.22738 12.3624 8.22738C13.1993 8.22738 13.8844 8.91217 13.8844 9.74936L13.888 12.0226V10.9443L13.8937 12.0226V9.74936C13.8937 8.91217 14.5785 8.22738 15.4157 8.22738C16.2526 8.22738 16.9374 8.91217 16.9374 9.74936V12.0226V12.5862L16.9419 11.8386L16.9212 10.7678C16.9112 9.93093 17.5876 9.23773 18.4245 9.2275C19.2614 9.21728 19.9546 9.89396 19.9648 10.7309L20 13.0041V14.4398V16.0084C20 20.2229 16.711 23.07 12.6913 23.07C8.67153 23.07 6.75274 20.4414 4.99869 16.3342L4.90069 16.1067Z" fill="white" stroke="#121619" stroke-width="1.44293"/>
</svg>
