<svg width="32" height="32" viewBox="0 0 32 32" fill="none" xmlns="http://www.w3.org/2000/svg">
<circle cx="16" cy="16" r="16" fill="#F3F6FB"/>
<path fill-rule="evenodd" clip-rule="evenodd" d="M8.00017 11.5659C7.99293 11.0758 8.58448 10.9754 8.95659 11.2944L15.6561 17.0379C15.7669 17.1346 15.909 17.188 16.0561 17.188C16.2032 17.188 16.3453 17.1346 16.4561 17.0379L23.1384 11.3122C23.47 11.0281 23.991 11.1293 24 11.5659V11.5659V20.8445C24 21.2688 23.8314 21.6758 23.5314 21.9758C23.2313 22.2759 22.8244 22.4444 22.4 22.4444H9.60015C9.17581 22.4444 8.76885 22.2759 8.46879 21.9758C8.16874 21.6758 8.00017 21.2688 8.00017 20.8445V11.5659V11.5659ZM9.51473 10.1939C9.43356 10.1241 9.47744 9.99713 9.58415 10.0059V10.0059H22.384V10.0059C22.5474 10.0055 22.5975 10.2001 22.4734 10.3065L16.7 15.2551C16.325 15.5765 15.7715 15.576 15.3971 15.2539L9.51473 10.1939Z" fill="#2BBFBF"/>
</svg>
