<svg width="48" height="48" viewBox="0 0 48 48" fill="none" xmlns="http://www.w3.org/2000/svg">
<path d="M10.3 10.6C11.5703 10.6 12.6 9.57025 12.6 8.3C12.6 7.02974 11.5703 6 10.3 6C9.02974 6 8 7.02974 8 8.3C8 9.57025 9.02974 10.6 10.3 10.6Z" fill="#121619"/>
<path d="M24.9001 10.6C26.1704 10.6 27.2001 9.57025 27.2001 8.3C27.2001 7.02974 26.1704 6 24.9001 6C23.6298 6 22.6001 7.02974 22.6001 8.3C22.6001 9.57025 23.6298 10.6 24.9001 10.6Z" fill="#121619"/>
<path d="M39.5002 10.6C40.7704 10.6 41.8002 9.57025 41.8002 8.3C41.8002 7.02974 40.7704 6 39.5002 6C38.2299 6 37.2002 7.02974 37.2002 8.3C37.2002 9.57025 38.2299 10.6 39.5002 10.6Z" fill="#121619"/>
<path d="M10.3 25.1996C11.5703 25.1996 12.6 24.1699 12.6 22.8996C12.6 21.6294 11.5703 20.5996 10.3 20.5996C9.02974 20.5996 8 21.6294 8 22.8996C8 24.1699 9.02974 25.1996 10.3 25.1996Z" fill="#121619"/>
<path d="M24.9001 25.1996C26.1704 25.1996 27.2001 24.1699 27.2001 22.8996C27.2001 21.6294 26.1704 20.5996 24.9001 20.5996C23.6298 20.5996 22.6001 21.6294 22.6001 22.8996C22.6001 24.1699 23.6298 25.1996 24.9001 25.1996Z" fill="#121619"/>
<path d="M39.5002 25.1996C40.7704 25.1996 41.8002 24.1699 41.8002 22.8996C41.8002 21.6294 40.7704 20.5996 39.5002 20.5996C38.2299 20.5996 37.2002 21.6294 37.2002 22.8996C37.2002 24.1699 38.2299 25.1996 39.5002 25.1996Z" fill="#121619"/>
<path d="M10.3 39.7992C11.5703 39.7992 12.6 38.7695 12.6 37.4992C12.6 36.229 11.5703 35.1992 10.3 35.1992C9.02974 35.1992 8 36.229 8 37.4992C8 38.7695 9.02974 39.7992 10.3 39.7992Z" fill="#121619"/>
<path d="M24.9001 39.7992C26.1704 39.7992 27.2001 38.7695 27.2001 37.4992C27.2001 36.229 26.1704 35.1992 24.9001 35.1992C23.6298 35.1992 22.6001 36.229 22.6001 37.4992C22.6001 38.7695 23.6298 39.7992 24.9001 39.7992Z" fill="#121619"/>
<path d="M39.5002 39.7992C40.7704 39.7992 41.8002 38.7695 41.8002 37.4992C41.8002 36.229 40.7704 35.1992 39.5002 35.1992C38.2299 35.1992 37.2002 36.229 37.2002 37.4992C37.2002 38.7695 38.2299 39.7992 39.5002 39.7992Z" fill="#121619"/>
</svg>
