<svg width="32" height="32" viewBox="0 0 32 32" fill="none" xmlns="http://www.w3.org/2000/svg">
<circle cx="16" cy="16" r="16" fill="#F3F6FB"/>
<path d="M7 10H25V20.2C25 21.196 24.1386 22 23.0714 22H8.92857C7.86143 22 7 21.196 7 20.2V10Z" fill="#3B94FD"/>
<path d="M7 10H25V19.1798C25 20.187 24.1386 21 23.0714 21H8.92857C7.86143 21 7 20.187 7 19.1798V10Z" fill="#AFD6FF"/>
<g style="mix-blend-mode:color-burn">
<path d="M25 11.6875H7V13.9375H25V11.6875Z" fill="#6B6B6B"/>
</g>
<path d="M16 16V18.7586" stroke="white" stroke-miterlimit="10" stroke-linecap="round"/>
<path d="M14.8071 16.6895L17.1933 18.0688" stroke="white" stroke-miterlimit="10" stroke-linecap="round"/>
<path d="M14.8071 18.0688L17.1933 16.6895" stroke="white" stroke-miterlimit="10" stroke-linecap="round"/>
<path d="M20.8071 16V18.7586" stroke="white" stroke-miterlimit="10" stroke-linecap="round"/>
<path d="M19.6138 16.6895L22 18.0688" stroke="white" stroke-miterlimit="10" stroke-linecap="round"/>
<path d="M19.6138 18.0688L22 16.6895" stroke="white" stroke-miterlimit="10" stroke-linecap="round"/>
<path d="M11.1929 16V18.7586" stroke="white" stroke-miterlimit="10" stroke-linecap="round"/>
<path d="M10 16.6895L12.3862 18.0688" stroke="white" stroke-miterlimit="10" stroke-linecap="round"/>
<path d="M10 18.0688L12.3862 16.6895" stroke="white" stroke-miterlimit="10" stroke-linecap="round"/>
</svg>
