<svg width="32" height="32" viewBox="0 0 32 32" fill="none" xmlns="http://www.w3.org/2000/svg">
<path d="M13.3806 10.1436H18.6194C20.4988 10.1436 21.8116 10.1455 22.8025 10.2736C23.7686 10.3984 24.2765 10.6271 24.6338 10.9705C24.9856 11.3086 25.2161 11.7809 25.3434 12.6908C25.4753 13.6337 25.4776 14.8861 25.4776 16.6956V19.2129C25.4776 21.0223 25.4753 22.2747 25.3434 23.2176C25.2161 24.1276 24.9856 24.5999 24.6338 24.9379C24.2765 25.2813 23.7686 25.5101 22.8025 25.6349C21.8116 25.7629 20.4988 25.7649 18.6194 25.7649H13.3806C11.5012 25.7649 10.1884 25.7629 9.1975 25.6349C8.23139 25.5101 7.7235 25.2813 7.36618 24.9379C7.01445 24.5999 6.78396 24.1276 6.65667 23.2176C6.52476 22.2747 6.52246 21.0223 6.52246 19.2129V16.6956C6.52246 14.8861 6.52476 13.6337 6.65667 12.6908C6.78396 11.7809 7.01445 11.3086 7.36618 10.9705C7.7235 10.6271 8.23139 10.3984 9.1975 10.2736C10.1884 10.1455 11.5012 10.1436 13.3806 10.1436Z" stroke="#121619" stroke-width="2"/>
<path d="M21.7648 9.50711L20.8054 9.78933L21.7648 9.50711ZM20.8817 10.0487C21.0376 10.5786 21.5935 10.8817 22.1233 10.7259C22.6531 10.57 22.9563 10.0141 22.8004 9.48429L20.8817 10.0487ZM6.87543 9.73744C6.44064 10.078 6.36424 10.7065 6.70479 11.1413C7.04534 11.5761 7.67388 11.6525 8.10867 11.312L6.87543 9.73744ZM14.1658 7.25386L14.4558 8.21087L14.1658 7.25386ZM17.455 6.48807L17.2975 5.50055L17.2975 5.50055L17.455 6.48807ZM20.8054 9.78933L20.8817 10.0487L22.8004 9.48429L22.7241 9.22488L20.8054 9.78933ZM7.49205 10.5247C8.10867 11.312 8.1085 11.3121 8.10834 11.3122C8.1083 11.3123 8.10815 11.3124 8.10807 11.3124C8.10791 11.3126 8.10779 11.3127 8.10771 11.3127C8.10754 11.3128 8.10753 11.3129 8.10768 11.3127C8.10797 11.3125 8.10889 11.3118 8.11043 11.3106C8.1135 11.3082 8.11904 11.304 8.12702 11.2979C8.14299 11.2858 8.16871 11.2665 8.20389 11.2406C8.27428 11.1889 8.3825 11.1111 8.52634 11.0127C8.81416 10.8159 9.24381 10.5373 9.7978 10.2202C10.9074 9.58524 12.5063 8.80173 14.4558 8.21087L13.8757 6.29684C11.7511 6.94075 10.0131 7.79266 8.8044 8.48439C8.19923 8.83072 7.72435 9.13827 7.39744 9.36181C7.23392 9.47362 7.10721 9.56456 7.01952 9.629C6.97567 9.66123 6.94156 9.68684 6.91746 9.70515C6.90541 9.7143 6.89586 9.72162 6.88884 9.72703C6.88533 9.72974 6.88246 9.73197 6.88022 9.73371C6.87911 9.73457 6.87815 9.73532 6.87735 9.73594C6.87695 9.73626 6.87659 9.73654 6.87627 9.73679C6.87611 9.73691 6.8759 9.73708 6.87582 9.73714C6.87562 9.73729 6.87543 9.73744 7.49205 10.5247ZM14.4558 8.21087C15.6578 7.84659 16.72 7.61791 17.6125 7.47559L17.2975 5.50055C16.3196 5.65649 15.1686 5.90503 13.8757 6.29684L14.4558 8.21087ZM22.7241 9.22488C22.042 6.90617 19.9205 5.08229 17.2975 5.50055L17.6125 7.47559C19.015 7.25195 20.3371 8.19744 20.8054 9.78933L22.7241 9.22488Z" fill="#121619"/>
<path d="M26.0013 15.5732H20.1228C19.0709 15.5732 18.1251 16.2136 17.7344 17.1902V17.1902C17.5382 17.6809 17.5382 18.2282 17.7344 18.7188V18.7188C18.1251 19.6954 19.0709 20.3358 20.1228 20.3358H26.0013" stroke="#121619" stroke-width="2"/>
</svg>
