<svg width="24" height="24" viewBox="0 0 24 24" fill="none" xmlns="http://www.w3.org/2000/svg">
<g clip-path="url(#clip0_4257_12151)">
<path d="M13.9444 12.364L14.4344 14.3665C14.5122 14.6819 14.1467 14.9313 13.8511 14.7626L12 13.7064L10.1411 14.7626C9.84556 14.9313 9.48 14.6819 9.55778 14.3665L10.0556 12.3713L8.42222 11.0437C8.15778 10.8309 8.29778 10.4275 8.64 10.3982L10.8022 10.2221L11.6422 8.3443C11.7744 8.04355 12.2256 8.04355 12.3578 8.3443L13.1978 10.2148L15.36 10.3908C15.7022 10.4202 15.8422 10.8236 15.5778 11.0363L13.9444 12.364ZM5.92556 6.40779C5.36556 6.64252 5 7.17066 5 7.75014V11.1977C5 15.2688 7.98667 19.0758 12 20C16.0133 19.0758 19 15.2688 19 11.1977V7.75014C19 7.17066 18.6344 6.64252 18.0744 6.40779L12.63 4.12653C12.2256 3.95782 11.7667 3.95782 11.37 4.12653L5.92556 6.40779Z" fill="#0471E9"/>
</g>
<defs>
<clipPath id="clip0_4257_12151">
<rect width="24" height="24" fill="white"/>
</clipPath>
</defs>
</svg>
