<svg width="112" height="112" viewBox="0 0 112 112" fill="none" xmlns="http://www.w3.org/2000/svg">
<g opacity="0.5" clip-path="url(#clip0_8731_224746)">
<path d="M72.2704 76.707C67.7559 80.2436 62.2216 82.2306 56.4885 82.3733C50.7555 82.5159 45.1292 80.8066 40.4444 77.4989C35.7596 74.1912 32.266 69.4613 30.4818 64.0111C28.6977 58.5608 28.7181 52.6806 30.54 47.2429" stroke="#1150C5" stroke-miterlimit="10"/>
<path d="M81.4792 63.0326C83.018 57.692 82.8497 52.0041 80.9979 46.7639C79.146 41.5236 75.7031 36.993 71.1504 33.8051C66.5977 30.6173 61.1627 28.9316 55.6051 28.9837C50.0476 29.0358 44.6451 30.823 40.153 34.0956" stroke="#1150C5" stroke-miterlimit="10"/>
<path d="M77.8101 24.3083C84.0206 28.657 88.8021 34.7496 91.55 41.8157C94.2979 48.8818 94.8887 56.6041 93.2477 64.006C91.6068 71.4079 87.8077 78.157 82.331 83.3998C76.8544 88.6426 69.946 92.1436 62.4795 93.4601C55.0131 94.7767 47.324 93.8496 40.3844 90.7961C33.4449 87.7426 27.5666 82.6999 23.493 76.3056C19.4194 69.9114 17.3334 62.4527 17.4988 54.8729C17.6642 47.2931 20.0736 39.9326 24.4222 33.7221C30.2536 25.394 39.1543 19.7236 49.1665 17.9582C59.1787 16.1928 69.4821 18.477 77.8101 24.3083ZM78.7661 22.9431C72.2856 18.4054 64.605 15.8913 56.6956 15.7187C48.7863 15.5461 41.0033 17.7228 34.3311 21.9735C27.6588 26.2242 22.3968 32.358 19.2106 39.5993C16.0243 46.8405 15.057 54.864 16.4307 62.6551C17.8045 70.4461 21.4577 77.6549 26.9285 83.3697C32.3992 89.0845 39.4417 93.0487 47.1654 94.761C54.8892 96.4733 62.9472 95.8568 70.3206 92.9895C77.6939 90.1221 84.0514 85.1327 88.5891 78.6522C94.674 69.9621 97.0575 59.2107 95.2153 48.7632C93.3732 38.3157 87.4562 29.0279 78.7661 22.9431Z" fill="#1150C5"/>
<path d="M26.049 69.5515C27.194 70.1783 28.4887 70.4798 29.7928 70.4231C29.8692 70.3139 29.9622 69.8906 29.9622 69.6872C29.9683 69.6593 29.9799 69.6328 29.9963 69.6094C30.0127 69.586 30.0336 69.566 30.0578 69.5507C30.0578 69.5507 30.0578 69.5507 30.208 69.6558C30.3581 69.761 30.4331 70.9325 30.2692 71.0212C30.1054 71.11 30.1395 71.0321 30.0194 71.0294L29.2438 70.9747C29.1404 71.2627 29.0564 71.5574 28.9925 71.8567C28.8886 72.3537 29.1248 72.3359 28.7451 73.1688C28.6999 73.3157 28.6096 73.4446 28.487 73.5374C28.4708 73.5509 28.4519 73.5608 28.4316 73.5665C28.4113 73.5722 28.39 73.5735 28.3691 73.5704C28.3482 73.5673 28.3282 73.5599 28.3104 73.5486C28.2926 73.5372 28.2775 73.5222 28.2659 73.5046C28.2205 73.344 28.2326 73.1725 28.3001 73.0199L29.0226 70.9419C27.8785 70.7777 26.7944 70.3266 25.8715 69.6307C25.8715 69.6307 25.9439 69.4982 26.049 69.5515ZM26.248 72.3765C26.3436 72.24 26.3477 72.0598 26.2603 71.6324C26.173 71.205 26.2317 71.4699 26.2645 71.4521C26.2973 71.4344 26.3464 71.5095 26.4966 71.6146C26.6474 71.8813 26.7801 72.1577 26.8938 72.4421C26.9757 72.4995 26.9033 72.6319 26.7695 72.6196L26.5688 72.7029C26.2411 72.8803 25.8615 73.1028 25.5897 73.2585C25.318 73.4141 25.4272 73.4905 25.546 73.7568L26.4087 75.2561C26.7527 75.7818 26.7363 75.4856 27.1527 76.0823C27.2769 76.3117 27.4312 76.6435 27.2018 76.7677C27.1758 76.7723 27.1493 76.7718 27.1236 76.7661C27.0979 76.7604 27.0735 76.7498 27.052 76.7347C27.0304 76.7196 27.012 76.7004 26.9979 76.6781C26.9838 76.6559 26.9742 76.6311 26.9697 76.6052L25.3794 73.7622C25.1173 73.2939 25.0791 72.9416 25.4355 72.7232L26.248 72.3765ZM32.1505 72.6641C32.2078 72.5821 32.2816 72.1862 32.2161 71.8148C32.1507 71.4434 32.2121 71.5881 32.2449 71.5704C32.2776 71.5526 32.3404 71.6373 32.4906 71.7425C32.6101 72.0152 32.6967 72.3013 32.7485 72.5945C32.8031 72.8362 32.769 72.914 32.7034 72.9495C32.6379 72.985 32.6365 73.0451 32.4699 73.0505L29.4208 74.7609C29.0756 74.9548 28.709 75.1077 28.3284 75.2168C28.1245 75.2368 28.0003 75.2108 27.9557 75.1389C27.9557 75.1389 28.0417 75.016 28.1851 74.8113L32.1505 72.6641Z" fill="#1150C5" stroke="#1150C5" stroke-width="0.3" stroke-miterlimit="10"/>
<path d="M34.7754 77.5741C35.1577 77.8418 35.1126 77.5865 35.5536 78.119C35.7993 78.2911 35.7802 78.5219 35.686 78.5983C35.5917 78.6748 35.4675 78.6488 35.3091 78.4972C34.8122 77.9865 34.3371 77.5318 33.9972 77.2327C33.9955 77.3469 33.966 77.4589 33.9111 77.559C33.9111 77.559 33.9111 77.559 33.8251 77.6819C34.3725 78.4111 34.2782 79.0979 33.8999 79.4637C33.7573 79.5821 33.5918 79.6697 33.4138 79.7213C33.2358 79.7729 33.0491 79.7873 32.8653 79.7635C32.6815 79.7398 32.5045 79.6785 32.3454 79.5834C32.1863 79.4883 32.0486 79.3615 31.9406 79.2108C31.2225 78.4639 31.3018 77.6242 31.7224 77.2269C32.143 76.8297 32.782 76.7888 33.5316 77.3746C33.5641 77.3828 33.5982 77.3819 33.6302 77.372C33.6622 77.3622 33.6909 77.3437 33.7132 77.3187C33.7754 77.2446 33.8059 77.1489 33.7978 77.0524C33.5658 76.8899 33.3064 76.7083 33.0183 76.3642C32.8818 76.2686 32.8272 76.2303 32.7589 76.1826C32.6052 75.9148 32.523 75.6119 32.5201 75.3032C32.5201 75.3032 32.5201 75.3032 32.6157 75.3701L32.7385 75.4562C32.9729 75.7762 33.2302 76.0788 33.5085 76.3615C33.8102 76.7152 34.1638 77.0238 34.7754 77.5741ZM30.9575 79.7432C31.0531 79.6067 30.9835 79.4155 30.8251 79.0605C30.6668 78.7055 30.7187 78.8639 30.761 78.8325C30.8033 78.8011 30.761 78.8325 30.9931 78.995C31.1985 79.2057 31.3866 79.4327 31.5555 79.6737C31.6784 79.7597 31.6251 79.8648 31.5732 79.9099C31.5213 79.9549 31.5063 80.0054 31.449 80.0874L30.773 80.7331C30.6583 80.8969 30.6009 80.9788 30.8453 81.211L32.1108 82.4837C32.504 82.8811 32.5027 82.5343 32.9709 83.086C33.1484 83.2102 33.4269 83.568 33.2426 83.7441C33.0582 83.9202 33.0009 83.7987 32.8425 83.6471L30.6514 81.4008C30.2582 81.0034 30.1327 80.6306 30.4208 80.3644L30.9575 79.7432ZM32.0159 77.5342C31.9248 77.6318 31.8549 77.7472 31.8106 77.8732C31.7664 77.9992 31.7486 78.1329 31.7586 78.2661C31.7686 78.3993 31.8061 78.5289 31.8687 78.6469C31.9312 78.7648 32.0176 78.8685 32.1222 78.9515C32.2023 79.0566 32.3033 79.1438 32.419 79.2076C32.5346 79.2715 32.6623 79.3105 32.7939 79.3222C32.9254 79.3339 33.058 79.3181 33.1831 79.2757C33.3082 79.2332 33.4231 79.1652 33.5204 79.0759C33.6905 78.8698 33.7784 78.6082 33.7673 78.3413C33.7562 78.0743 33.6468 77.8209 33.4602 77.6297C33.2736 77.4385 33.023 77.323 32.7564 77.3053C32.4898 77.2877 32.2261 77.3692 32.0159 77.5342ZM34.2526 76.1705C34.1298 76.0844 34.0479 75.4167 34.119 75.3444C34.19 75.272 34.119 75.3444 34.1872 75.3922L34.3374 75.4973C34.6508 75.8879 34.9916 76.2557 35.3572 76.598C35.5347 76.7223 35.5114 76.9298 35.45 76.9885C35.3885 77.0472 35.2179 77.0294 34.9871 76.8068L34.2526 76.1705ZM36.8875 78.2189C36.8875 78.2189 36.9135 77.8912 36.717 77.3874C36.6214 77.3205 36.6433 77.173 36.6761 77.1552C36.7089 77.1375 36.7716 77.2222 36.9355 77.3369C37.0993 77.4516 37.6399 78.2777 37.446 78.4675C37.2521 78.6572 37.379 78.563 37.3313 78.6313L35.4495 80.447L35.7499 80.6573C36.0775 80.8868 36.0598 80.6506 36.4734 81.164C36.61 81.2596 36.7983 81.5136 36.6468 81.672C36.6239 81.6916 36.5971 81.7062 36.5682 81.7149C36.5393 81.7236 36.5089 81.7262 36.4789 81.7225C36.449 81.7187 36.4202 81.7088 36.3943 81.6933C36.3684 81.6777 36.346 81.657 36.3286 81.6323L35.2747 80.6095C34.8106 81.1472 34.2667 81.6104 33.662 81.9828C33.494 82.0483 33.3411 82.0633 33.2961 82.0114C33.251 81.9596 33.2811 81.8585 33.5159 81.6974L36.8875 78.2189Z" fill="#1150C5" stroke="#1150C5" stroke-width="0.3" stroke-miterlimit="10"/>
<path d="M41.825 85.3183C42.2236 85.4753 42.2223 85.332 42.6059 85.5395C42.9896 85.7471 43.3227 85.9397 43.1875 86.1909C43.0523 86.4421 42.9854 86.3343 42.8393 86.2523C42.4297 85.9655 41.9246 85.6118 41.4072 85.3919C40.2583 84.7305 39.0742 84.1324 37.8601 83.6C37.6212 83.5345 37.5502 83.6068 37.4177 83.5344C37.1138 83.2656 36.8749 82.9313 36.7188 82.5567C36.7188 82.5567 36.7188 82.5567 36.8144 82.6236L36.9373 82.7097C37.2859 83.0224 37.6709 83.292 38.0841 83.5127C38.9879 84.0235 40.2317 84.6299 41.4932 85.269L41.825 85.3183ZM37.4148 84.8753C37.5009 84.7524 37.3575 84.5503 37.0545 84.2567C36.9589 84.1898 36.9179 84.1611 36.9179 84.1611C36.9179 84.1611 36.9753 84.0792 37.2047 84.1584C37.4636 84.3108 37.7101 84.4834 37.9419 84.6746C38.0648 84.7607 38.0921 84.7798 38.0292 84.8986C37.9664 85.0173 37.9528 85.0078 37.905 85.076C37.6947 85.3764 37.427 85.7587 37.3546 86.0945C37.2822 86.4304 37.33 86.3621 37.5716 86.511L39.1472 87.37C39.696 87.6323 39.5363 87.3373 40.1752 87.7034C40.3391 87.8181 40.694 88.0666 40.6066 88.2496C40.5908 88.2723 40.5704 88.2916 40.5468 88.306C40.5231 88.3205 40.4967 88.3299 40.4692 88.3336C40.4418 88.3373 40.4138 88.3353 40.3872 88.3276C40.3605 88.32 40.3357 88.3069 40.3144 88.2891L37.3927 86.6502C36.9286 86.3252 36.6692 86.1436 36.8822 85.7231L37.4148 84.8753ZM41.3818 81.0404C41.3818 81.0404 41.5047 81.1265 41.6098 80.9763C41.6378 80.9417 41.6633 80.9052 41.6863 80.8671C41.7022 80.8311 41.7249 80.7987 41.7532 80.7715C41.7532 80.7715 42.1901 81.0774 42.0891 81.2508C41.988 81.4242 41.9743 81.4146 41.9552 81.4419C42.2928 81.6296 42.5471 81.9378 42.6672 82.3049C42.7874 82.672 42.7647 83.0708 42.6035 83.4218C42.4934 83.5911 42.3499 83.736 42.1817 83.8479C42.0136 83.9597 41.8244 84.036 41.6258 84.0722C41.4271 84.1083 41.2232 84.1035 41.0264 84.0581C40.8297 84.0127 40.6443 83.9275 40.4816 83.8079C40.2891 83.7296 40.1143 83.6133 39.9676 83.466C39.8209 83.3187 39.7053 83.1434 39.6278 82.9505C39.5502 82.7576 39.5123 82.5511 39.5161 82.3433C39.52 82.1354 39.5657 81.9305 39.6504 81.7406C39.8121 81.4523 40.0666 81.227 40.3724 81.1013C40.6783 80.9757 41.0176 80.9572 41.3354 81.0486L41.3818 81.0404ZM39.9358 81.798C39.8659 81.9354 39.8252 82.0859 39.8163 82.2398C39.8074 82.3937 39.8305 82.5478 39.8841 82.6924C39.9377 82.8369 40.0206 82.9688 40.1277 83.0798C40.2348 83.1907 40.3637 83.2782 40.5063 83.3369C40.6297 83.4241 40.7699 83.4845 40.9181 83.5143C41.0662 83.544 41.2189 83.5425 41.3664 83.5097C41.5139 83.4769 41.6529 83.4137 41.7745 83.324C41.8961 83.2343 41.9976 83.1202 42.0724 82.9889C42.1413 82.8558 42.1822 82.7101 42.1927 82.5606C42.2032 82.4111 42.183 82.261 42.1334 82.1196C42.0838 81.9782 42.0059 81.8484 41.9043 81.7382C41.8028 81.628 41.6798 81.5397 41.5429 81.4788C41.4152 81.3889 41.2704 81.3263 41.1175 81.295C40.9645 81.2637 40.8067 81.2644 40.6541 81.2969C40.5014 81.3295 40.3571 81.3932 40.2302 81.4841C40.1033 81.575 39.9965 81.6912 39.9166 81.8253L39.9358 81.798Z" fill="#1150C5" stroke="#1150C5" stroke-width="0.3" stroke-miterlimit="10"/>
<path d="M47.5857 84.9369C47.9598 84.9547 47.7387 84.7185 48.4418 84.9056C48.7408 84.9726 48.8104 85.1637 48.8377 85.1828C48.8651 85.202 48.7135 85.3603 48.5114 85.3002C47.9175 85.1895 47.5174 85.0925 47.1024 85.0461C47.2252 85.1321 47.1897 85.27 47.1651 85.3341C47.1405 85.3983 47.0982 85.4297 47.0504 85.498C47.8655 85.8449 48.1303 86.3966 48.0811 86.9318C48.0225 87.0898 47.9334 87.2348 47.8188 87.3585C47.7042 87.4821 47.5664 87.5819 47.4133 87.6522C47.2601 87.7226 47.0946 87.7621 46.9261 87.7684C46.7577 87.7748 46.5896 87.7479 46.4316 87.6893C46.2594 87.6742 46.0921 87.6239 45.94 87.5416C45.788 87.4593 45.6544 87.3468 45.5475 87.2109C45.4406 87.0751 45.3626 86.9188 45.3184 86.7516C45.2742 86.5845 45.2646 86.4101 45.2903 86.2391C45.3983 85.7654 45.883 85.3927 46.705 85.4392C46.8106 85.4047 46.8488 85.35 46.8197 85.2754C46.8325 85.1797 46.8154 85.0824 46.7706 84.9968L46.006 84.8684C45.8121 84.8547 45.7739 84.9093 45.7001 84.8984C45.6264 84.8875 45.1131 84.4873 45.0721 84.4587C45.0312 84.43 45.0721 84.4587 45.0721 84.4587L45.195 84.5447L45.8517 84.74L47.3577 85.001L47.5857 84.9369ZM46.8103 84.2718C46.5656 84.1255 46.3695 83.9104 46.2465 83.6532L46.4103 83.768C46.6706 83.8599 46.9359 83.9369 47.2049 83.9988L47.665 84.0972C47.8425 84.2215 47.9654 84.3075 47.9927 84.3266C48.02 84.3457 47.8588 84.5178 47.5189 84.4221L46.8103 84.2718ZM45.6767 86.3266C45.5931 86.5151 45.5698 86.7248 45.6101 86.9271C45.6503 87.1293 45.7521 87.3142 45.9015 87.4564C46.0508 87.5985 46.2405 87.691 46.4445 87.7212C46.6485 87.7514 46.8568 87.7178 47.041 87.625C47.2251 87.5322 47.376 87.3847 47.4731 87.2028C47.5702 87.0208 47.6087 86.8133 47.5832 86.6087C47.5578 86.404 47.4697 86.2123 47.3311 86.0596C47.1924 85.907 47.01 85.8009 46.8087 85.756C46.6982 85.7263 46.583 85.7188 46.4696 85.7338C46.3562 85.7488 46.2469 85.7862 46.1481 85.8437C46.0492 85.9012 45.9627 85.9777 45.8935 86.0687C45.8243 86.1598 45.7738 86.2637 45.745 86.3744L45.6767 86.3266ZM49.2816 84.7815C49.3772 84.6449 49.1137 84.4401 48.8365 84.2257L48.6863 84.1205C48.6863 84.1205 48.7437 84.0386 48.9785 84.081C49.7568 84.4224 49.8701 84.5221 49.8114 84.6641C49.7736 84.7122 49.7385 84.7623 49.7062 84.8143L49.2799 86.6725L50.2971 86.8761L50.7739 84.8295C50.8504 84.7202 50.5432 84.4034 50.2429 84.1931C50.2052 84.1725 50.1728 84.1436 50.1479 84.1086C50.1231 84.0736 50.1066 84.0334 50.0995 83.991C50.0995 83.991 50.1569 83.9091 50.4095 83.9842C51.2601 84.3967 51.3911 84.5292 51.3652 84.6534C51.3392 84.7777 51.2887 84.7626 51.2409 84.8309L50.4499 88.0818C50.2996 88.5869 50.0907 88.8272 49.9528 88.7917C49.8149 88.7562 49.8026 88.6865 49.9078 88.3329L50.192 87.0263L49.1748 86.8227L48.9835 87.5026C48.8456 87.874 48.6203 88.0214 48.5916 88.0624C48.5629 88.1034 48.4277 87.9477 48.5124 87.6814L49.2816 84.7815ZM48.3935 88.6358C48.5369 88.6345 48.6215 88.5717 48.6325 88.498C48.6402 88.4745 48.6419 88.4495 48.6377 88.4252C48.6334 88.4009 48.6231 88.3781 48.6079 88.3587C48.5717 88.3141 48.5533 88.2577 48.5561 88.2003C48.5561 88.2003 49.0134 88.4188 49.0066 88.5158C48.9997 88.6127 48.9206 88.6386 48.8536 88.7342C49.0327 88.7678 49.2025 88.8392 49.3518 88.9436C49.5011 89.0479 49.6264 89.1829 49.7196 89.3394C49.8127 89.496 49.8714 89.6706 49.8918 89.8516C49.9122 90.0326 49.8939 90.2159 49.838 90.3892C49.7821 90.5626 49.6899 90.7221 49.5676 90.8571C49.4453 90.9921 49.2957 91.0995 49.1287 91.1722C48.9617 91.2449 48.7811 91.2812 48.5989 91.2787C48.4168 91.2761 48.2373 91.2349 48.0723 91.1577C47.8804 91.1428 47.6935 91.0886 47.5235 90.9983C47.3535 90.908 47.2039 90.7836 47.0841 90.6329C46.9643 90.4822 46.8769 90.3084 46.8273 90.1224C46.7777 89.9364 46.767 89.7421 46.7959 89.5518C46.894 89.2207 47.1153 88.9397 47.4143 88.7668C47.7133 88.5939 48.0671 88.5421 48.4031 88.6222L48.3935 88.6358ZM47.2888 89.6324C47.2646 89.7716 47.2691 89.9143 47.3022 90.0516C47.3353 90.1889 47.3962 90.318 47.4812 90.4309C47.5661 90.5438 47.6733 90.638 47.7961 90.7079C47.919 90.7777 48.0548 90.8216 48.1952 90.8368C48.3271 90.889 48.4687 90.9121 48.6103 90.9045C48.7519 90.8969 48.8902 90.8587 49.0156 90.7926C49.1411 90.7265 49.2508 90.634 49.3372 90.5216C49.4236 90.4091 49.4846 90.2793 49.5161 90.141C49.5476 90.0027 49.5488 89.8593 49.5197 89.7205C49.4905 89.5817 49.4317 89.4508 49.3473 89.3369C49.2628 89.223 49.1547 89.1287 49.0304 89.0605C48.906 88.9923 48.7684 88.9518 48.627 88.9417C48.4955 88.8935 48.3556 88.8729 48.2158 88.8812C48.0761 88.8895 47.9396 88.9267 47.8149 88.9902C47.6901 89.0538 47.5799 89.1424 47.491 89.2506C47.4021 89.3587 47.3365 89.4841 47.2983 89.6187L47.2888 89.6324Z" fill="#1150C5" stroke="#1150C5" stroke-width="0.3" stroke-miterlimit="10"/>
<path d="M64.043 23.804C63.8463 24.1729 63.5181 24.4544 63.1235 24.5927C62.729 24.731 62.2968 24.7159 61.9129 24.5505C61.6796 24.5069 61.4584 24.414 61.264 24.278C61.0696 24.142 60.9065 23.9661 60.7855 23.7619C60.6646 23.5578 60.5886 23.3302 60.5626 23.0944C60.5367 22.8586 60.5614 22.6199 60.6352 22.3944C60.796 22.0147 61.0919 21.7081 61.4657 21.5339C61.8395 21.3597 62.2646 21.3302 62.6588 21.4512C62.768 21.5277 62.9633 21.4813 63.0083 21.3297C63.0534 21.1782 63.0562 21.2615 63.0029 21.1631C62.9497 21.0648 62.921 21.1058 62.9784 21.0239C63.0357 20.942 62.9784 21.0239 62.9784 21.0239C63.0764 21.0641 63.1628 21.1284 63.2296 21.2107C63.2963 21.293 63.3414 21.3907 63.3606 21.495C63.3606 21.495 63.2841 21.6042 63.1257 21.6561C63.4824 21.8177 63.7708 22.0998 63.9403 22.4529C64.1098 22.8059 64.1495 23.2074 64.0526 23.5869L64.043 23.804ZM61.1253 22.5952C61.0685 22.7608 61.0467 22.9364 61.0613 23.1109C61.0758 23.2854 61.1263 23.455 61.2097 23.609C61.2931 23.763 61.4075 23.898 61.5457 24.0055C61.6838 24.1131 61.8428 24.1908 62.0126 24.2338C62.3258 24.3452 62.6704 24.3276 62.9707 24.1849C63.2709 24.0421 63.5022 23.786 63.6136 23.4728C63.725 23.1596 63.7074 22.8149 63.5647 22.5147C63.422 22.2144 63.1658 21.9832 62.8526 21.8718C62.6928 21.7974 62.5192 21.7573 62.343 21.7539C62.1668 21.7505 61.9918 21.7839 61.8292 21.852C61.6666 21.9201 61.52 22.0213 61.3988 22.1493C61.2776 22.2773 61.1845 22.4291 61.1253 22.5952ZM66.6539 21.8477C66.7399 21.7248 66.5201 21.4285 66.1447 21.0639C66.0355 20.9874 65.9808 20.9492 65.9672 20.9396C65.9535 20.9301 66.0246 20.8577 66.2539 20.9369C66.5634 21.103 66.8521 21.3052 67.114 21.5392C67.2233 21.6157 67.2642 21.6444 67.2014 21.7631C67.1386 21.8819 67.1249 21.8724 67.0676 21.9543L65.4175 26.5772C64.8944 28.0217 64.8029 28.1815 64.538 28.4436C64.273 28.7057 64.4328 28.5938 64.3372 28.5269C64.2417 28.4599 64.228 28.4504 64.3318 28.1568L66.6539 21.8477Z" fill="#1150C5" stroke="#1150C5" stroke-width="0.3" stroke-miterlimit="10"/>
<path d="M70.3564 25.9459C70.2336 25.8598 70.1625 25.9322 70.0806 25.8748C69.9987 25.8175 69.6137 25.2631 69.6711 25.1811C69.7285 25.0992 69.6711 25.1811 69.753 25.2385L70.5858 25.8216C70.9408 26.0702 71.2548 26.2901 71.4596 26.4334C71.6021 26.455 71.7363 26.5139 71.8487 26.6042C71.9852 26.6998 72.19 26.8432 72.2037 26.8527C72.2173 26.8623 72.0453 26.9046 71.9524 26.921C71.493 27.1656 71.0116 27.3667 70.5146 27.5215C70.5582 28.2438 70.8558 28.3708 70.849 28.6712C70.8509 28.9126 70.7897 29.1503 70.6714 29.3607C70.5758 29.4972 70.528 29.5655 70.3955 29.4931C70.3702 29.4686 70.3509 29.4386 70.3388 29.4055C70.3267 29.3724 70.3223 29.337 70.3259 29.302C70.3069 28.719 70.3861 28.2861 70.3139 27.6048C69.3912 27.8654 68.4243 27.9299 67.4752 27.7942C67.4752 27.7942 67.4752 27.7942 67.7169 27.7396C69.0361 27.6741 70.3195 27.2876 71.4555 26.6137L70.3564 25.9459ZM71.2372 25.2401C71.0993 25.0011 71.0147 24.657 71.0721 24.5751C71.1294 24.4932 71.0721 24.5751 71.0721 24.5751L71.1949 24.6611C71.5381 24.9799 71.902 25.2756 72.2844 25.5461C72.4482 25.6608 72.4728 25.8 72.425 25.8683C72.3772 25.9366 72.339 25.9912 72.1792 25.8997L71.4693 25.4026L71.2372 25.2401ZM73.7617 26.2549C73.8668 26.1047 73.7344 25.8289 73.5242 25.5189C73.314 25.2089 73.3467 25.3947 73.4232 25.2854C73.4997 25.1762 73.4232 25.2854 73.6485 25.3414C73.8801 25.5309 74.0936 25.7417 74.286 25.971C74.4498 26.0857 74.4334 26.1963 74.3856 26.2645C74.3378 26.3328 74.2805 26.4147 74.1944 26.5376L72.1391 29.6763C71.9288 29.9767 70.8868 31.4648 70.6315 31.3064C70.6315 31.3064 70.5933 31.1576 70.6848 30.9978L72.3004 28.6905L71.9727 28.4611C71.7543 28.3082 71.66 28.3846 71.5645 28.3177C71.3764 28.139 71.2478 27.9069 71.1959 27.6527C71.1959 27.6527 71.1959 27.6527 71.2915 27.7196C71.4363 27.8414 71.5917 27.9502 71.7557 28.0446L72.3564 28.4653L73.7617 26.2549ZM75.1406 26.6101C75.2171 26.5009 75.0547 26.1226 74.8267 25.7799C74.7312 25.713 74.7203 25.5833 74.7489 25.5423C74.7776 25.5014 74.7489 25.5423 74.9401 25.6761C75.2051 25.909 75.4469 26.1669 75.6623 26.4463C75.7988 26.5419 75.7824 26.6525 75.7346 26.7208C75.6868 26.789 75.639 26.8573 75.5721 26.9529L73.4348 30.2377C72.9932 31.1074 72.3972 31.8897 71.6758 32.5463C71.5994 32.6555 71.4423 32.6473 71.3877 32.6091C71.3331 32.5708 71.2922 32.5422 71.4028 32.3551L75.1406 26.6101Z" fill="#1150C5" stroke="#1150C5" stroke-width="0.3" stroke-miterlimit="10"/>
<path d="M77.7463 32.3614C77.5285 32.1739 77.3877 31.9126 77.3507 31.6276C77.3137 31.3426 77.3831 31.054 77.5458 30.8171C77.7943 30.4621 78.4197 30.4117 79.1296 30.9088C79.1543 30.9146 79.1802 30.9131 79.2042 30.9047C79.2281 30.8962 79.2491 30.8811 79.2648 30.861C79.2889 30.8457 79.3098 30.8258 79.3262 30.8023C79.3426 30.7789 79.3543 30.7525 79.3604 30.7245L78.5685 30.1701C78.4047 30.0553 78.3501 30.0171 78.2682 29.9598C78.1863 29.9024 77.8996 29.2948 77.9802 29.2088C78.0608 29.1227 77.9802 29.2088 78.0621 29.2661L78.1577 29.333C78.3845 29.6243 78.6402 29.892 78.9208 30.1319C79.4669 30.5143 80.0539 31.1288 80.2997 31.3008C80.5454 31.4729 80.5769 31.3118 80.9345 31.6436C81.0438 31.7201 81.3646 32.0465 81.2226 32.1912C81.0805 32.3359 81.127 32.3277 80.8416 32.0669L79.572 30.9744C79.5525 31.0147 79.5267 31.0516 79.4955 31.0836C79.4955 31.0836 79.4955 31.0836 79.4095 31.2065C79.9036 31.8374 79.8763 32.4286 79.5772 32.7685C79.0842 33.2982 78.3251 32.9295 78.1667 32.7779L77.8704 33.2011C78.4984 33.6409 79.4268 34.2909 80.0002 34.489L82.1811 32.1299C82.2671 32.007 82.177 31.6998 81.9559 31.2601C81.874 31.2028 81.8631 31.073 81.9054 31.0416C81.9478 31.0102 81.9054 31.0416 82.1375 31.2042C82.3696 31.3667 82.8692 32.1641 82.76 32.2911C82.6507 32.4181 82.6453 32.4549 82.6261 32.4822L80.829 34.4386L81.184 34.6871C81.4434 34.8688 81.4393 34.6421 81.8243 34.9931C81.9472 35.0791 82.2748 35.3085 82.0659 35.5488C81.857 35.7891 81.8515 35.6225 81.7246 35.5133L80.6774 34.5969C80.4066 34.9409 80.0641 35.2218 79.6738 35.4201C79.5973 35.5293 79.4266 35.5116 79.3816 35.4597C79.3365 35.4078 79.3529 35.2972 79.5728 35.1866L79.936 34.6678C78.7603 34.1324 77.6317 33.4987 76.5624 32.7736C76.4122 32.6684 76.3317 32.7544 76.2894 32.5824C76.2471 32.4103 75.6942 31.5146 75.7748 31.4286C75.8553 31.3426 75.7748 31.4286 75.8703 31.4955L75.9659 31.5624C76.1288 31.7504 76.3039 31.9274 76.4901 32.0922C76.8303 32.3797 77.1959 32.6356 77.5824 32.857L77.7463 32.3614ZM78.7685 35.5797C78.3453 35.2834 77.3309 34.3493 76.8585 33.9779C76.6128 33.8058 76.5145 33.8591 76.4012 33.7594C76.2878 33.6597 75.9207 32.9346 76.0108 32.8349C76.1009 32.7353 76.0108 32.8349 76.0927 32.8923L76.2019 32.9688L76.9883 33.7635L78.6429 35.207C78.8341 35.3408 78.8068 35.3217 79.1208 35.5416C79.4348 35.7614 79.3679 35.857 79.3201 35.9253C79.2723 35.9935 79.1521 35.9908 79.0674 36.0536C78.6908 36.4841 78.2645 36.8686 77.7975 37.199C77.5817 37.3327 77.4192 37.3614 77.351 37.3136C77.2827 37.2658 77.336 37.1607 77.4507 36.9968L78.7685 35.5797ZM77.8352 31.1012C77.6344 31.3879 77.5688 31.8302 78.0262 32.2522C78.1494 32.3219 78.2898 32.3554 78.4313 32.3487C78.5727 32.342 78.7093 32.2953 78.8253 32.2142C78.9414 32.1331 79.0321 32.0208 79.087 31.8903C79.1419 31.7598 79.1587 31.6164 79.1355 31.4767C79.1124 31.3371 79.0501 31.2068 78.956 31.101C78.8619 30.9953 78.7398 30.9183 78.6038 30.879C78.4678 30.8397 78.3234 30.8397 78.1874 30.879C78.0514 30.9183 77.9293 30.9954 77.8352 31.1012ZM79.5722 29.3469C79.8152 29.6391 80.0405 29.8986 80.42 30.2864C80.5975 30.4106 80.8842 30.6114 80.7367 30.793C80.5892 30.9746 80.2602 30.6018 79.8902 30.2003C79.7764 30.141 79.6708 30.0671 79.5762 29.9804C79.4124 29.8657 79.3374 29.3045 79.3988 29.2458C79.4603 29.1871 79.3988 29.2458 79.3988 29.2458L79.5722 29.3469Z" fill="#1150C5" stroke="#1150C5" stroke-width="0.3" stroke-miterlimit="10"/>
<path d="M85.5362 37.043C85.6591 37.1291 85.741 37.1864 85.7683 37.2055C85.8066 37.18 85.8339 37.141 85.8448 37.0963C85.8509 37.0684 85.8625 37.0419 85.879 37.0185C85.8954 36.9951 85.9162 36.9751 85.9404 36.9598C85.9404 36.9598 85.9404 36.9598 86.036 37.0267C86.1315 37.0936 86.1957 37.5251 86.0878 37.592C85.9799 37.6589 85.8843 37.592 85.7915 37.6083C86.4399 38.9779 85.6001 39.5089 85.3229 39.7014C85.1375 39.8068 84.9324 39.8729 84.7204 39.8954C84.5083 39.918 84.2939 39.8965 84.0905 39.8324C83.8872 39.7683 83.6992 39.6629 83.5384 39.5229C83.3776 39.3828 83.2475 39.2111 83.1561 39.0184C83.0153 38.8473 82.91 38.6499 82.8464 38.4376C82.7829 38.2253 82.7623 38.0025 82.7858 37.7822C82.8094 37.5619 82.8766 37.3485 82.9836 37.1545C83.0906 36.9604 83.2352 36.7897 83.409 36.6522C83.7463 36.4518 84.147 36.3867 84.5304 36.4701C84.9138 36.5536 85.2513 36.7793 85.4748 37.1017L85.5362 37.043ZM82.1019 40.03C82.1975 39.8935 82.1879 39.7037 82.0774 39.2804C82.0091 39.2326 82.0255 39.122 82.0583 39.1043C82.0911 39.0865 82.1402 39.1616 82.2904 39.2668C82.4528 39.523 82.5996 39.7889 82.7299 40.0629C82.8255 40.1298 82.7627 40.2486 82.7108 40.2936C82.6358 40.314 82.5647 40.3468 82.5005 40.3905C82.2001 40.5871 81.8246 40.8328 81.5706 41.0212C81.3166 41.2096 81.4081 41.2533 81.5596 41.5018L82.5616 42.9766C82.9384 43.4846 82.933 43.1145 83.3439 43.7481C83.4913 43.9734 83.6646 44.2779 83.4489 44.4117C83.2331 44.5455 83.2536 44.4581 83.1595 44.3311L81.3998 41.6138C81.1145 41.1495 81.0436 40.815 81.3822 40.5638L82.1019 40.03ZM83.6588 37.051C83.408 37.2574 83.2423 37.5493 83.1937 37.8706C83.1451 38.1918 83.217 38.5197 83.3955 38.7911C83.5741 39.0625 83.8466 39.2584 84.1608 39.341C84.4751 39.4236 84.8087 39.3871 85.0976 39.2385C85.2343 39.1477 85.3505 39.0296 85.439 38.8915C85.5275 38.7534 85.5864 38.5985 85.6118 38.4365C85.6372 38.2744 85.6287 38.1089 85.5868 37.9503C85.5449 37.7918 85.4704 37.6437 85.3682 37.5154C85.2965 37.368 85.1954 37.2367 85.071 37.1299C84.9466 37.023 84.8016 36.9428 84.645 36.8942C84.4884 36.8455 84.3235 36.8295 84.1605 36.8471C83.9974 36.8646 83.8397 36.9155 83.6971 36.9963L83.6588 37.051ZM87.8911 40.0144C87.9485 39.9325 87.9854 39.5311 87.9104 39.1734C87.8353 38.8156 87.8926 38.9372 87.9254 38.9194C87.9582 38.9017 88.021 38.9863 88.1712 39.0915C88.3068 39.3507 88.4078 39.6266 88.4714 39.9121C88.5397 40.1634 88.5192 40.2507 88.4536 40.2862C88.3783 40.3189 88.3049 40.3558 88.2338 40.3968L85.2433 42.3721C84.919 42.5917 84.5685 42.7701 84.2001 42.9031C84.0007 42.9263 83.8669 42.914 83.8314 42.8484C83.7959 42.7829 83.9175 42.7255 84.0609 42.5208L87.8911 40.0144Z" fill="#1150C5" stroke="#1150C5" stroke-width="0.3" stroke-miterlimit="10"/>
<path d="M28.8618 26.5967L92.5236 71.1731" stroke="#1150C5" stroke-miterlimit="10"/>
<path d="M19.3979 40.1128L83.0597 84.6892" stroke="#1150C5" stroke-miterlimit="10"/>
</g>
<defs>
<clipPath id="clip0_8731_224746">
<rect width="80" height="80" fill="white" transform="translate(46) rotate(35)"/>
</clipPath>
</defs>
</svg>
