<svg width="48" height="48" viewBox="0 0 48 48" fill="none" xmlns="http://www.w3.org/2000/svg">
<rect opacity="0" width="48" height="48" fill="#FF0000"/>
<rect width="48" height="48" rx="24" fill="#F3F6FB"/>
<path d="M28.9964 15.4999C28.9964 15.3673 28.9437 15.2402 28.85 15.1465C28.7563 15.0527 28.6291 15.0001 28.4966 15.0001H25.9974C24.7389 14.9374 23.5068 15.3753 22.5702 16.2182C21.6337 17.0611 21.0688 18.2405 20.999 19.4986V22.1977H18.4998C18.3673 22.1977 18.2401 22.2503 18.1464 22.3441C18.0527 22.4378 18 22.565 18 22.6975V25.2967C18 25.4292 18.0527 25.5564 18.1464 25.6501C18.2401 25.7438 18.3673 25.7965 18.4998 25.7965H20.999V32.4943C20.999 32.6269 21.0517 32.754 21.1454 32.8477C21.2392 32.9415 21.3663 32.9941 21.4989 32.9941H24.4979C24.6304 32.9941 24.7576 32.9415 24.8513 32.8477C24.945 32.754 24.9977 32.6269 24.9977 32.4943V25.7965H27.6168C27.728 25.7981 27.8365 25.7626 27.9252 25.6956C28.0139 25.6286 28.0778 25.534 28.1067 25.4266L28.8264 22.8275C28.8463 22.7536 28.849 22.6762 28.8343 22.6011C28.8195 22.5261 28.7877 22.4554 28.7414 22.3946C28.695 22.3338 28.6353 22.2844 28.5669 22.2502C28.4984 22.2161 28.4231 22.1981 28.3466 22.1977H24.9977V19.4986C25.0226 19.2511 25.1388 19.0218 25.3236 18.8555C25.5085 18.6891 25.7487 18.5976 25.9974 18.5989H28.4966C28.6291 18.5989 28.7563 18.5462 28.85 18.4525C28.9437 18.3587 28.9964 18.2316 28.9964 18.099V15.4999Z" fill="#0471E9"/>
</svg>
