<svg width="24" height="24" viewBox="0 0 24 24" fill="none" xmlns="http://www.w3.org/2000/svg">
<g clip-path="url(#clip0_4257_12146)">
<path d="M5.92556 6.40779C5.36556 6.64252 5 7.17066 5 7.75014V11.1977C5 15.2688 7.98667 19.0758 12 20C16.0133 19.0758 19 15.2688 19 11.1977V7.75014C19 7.17066 18.6344 6.64252 18.0744 6.40779L12.63 4.12653C12.2256 3.95782 11.7667 3.95782 11.37 4.12653L5.92556 6.40779ZM12 8.26361C12.4278 8.26361 12.7778 8.5937 12.7778 8.99713C12.7778 9.40057 12.4278 9.73066 12 9.73066C11.5722 9.73066 11.2222 9.40057 11.2222 8.99713C11.2222 8.5937 11.5722 8.26361 12 8.26361ZM12 11.1977C12.4278 11.1977 12.7778 11.5278 12.7778 11.9312V14.8653C12.7778 15.2688 12.4278 15.5989 12 15.5989C11.5722 15.5989 11.2222 15.2688 11.2222 14.8653V11.9312C11.2222 11.5278 11.5722 11.1977 12 11.1977Z" fill="#0471E9"/>
</g>
<defs>
<clipPath id="clip0_4257_12146">
<rect width="24" height="24" fill="white"/>
</clipPath>
</defs>
</svg>
