<svg width="56" height="56" viewBox="0 0 56 56" fill="none" xmlns="http://www.w3.org/2000/svg">
<circle cx="28" cy="28" r="27.25" stroke="#0471E9" stroke-width="1.5"/>
<circle cx="28" cy="28" r="24.625" stroke="#0471E9" stroke-width="0.75"/>
<path fill-rule="evenodd" clip-rule="evenodd" d="M33.9883 7.46134L34.0797 8.80505L35.3384 9.23144C35.5122 9.29277 35.5041 9.47697 35.3525 9.53638L34.1601 10.0885L34.145 11.4751C34.146 11.6761 33.9691 11.7286 33.8672 11.6007L33.0361 10.5874L31.7635 11.0318C31.583 11.0977 31.4918 10.9297 31.5816 10.7962L32.2576 9.63135L31.4837 8.50453C31.3763 8.34643 31.495 8.20646 31.6506 8.23421L32.9032 8.52992L33.6932 7.39589C33.8063 7.22576 33.9766 7.30051 33.9883 7.46134Z" fill="#0471E9"/>
<path fill-rule="evenodd" clip-rule="evenodd" d="M39.3628 10.1996L39.4404 11.339L40.5077 11.7006C40.6551 11.7526 40.6482 11.9088 40.5197 11.9592L39.5085 12.4274L39.4957 13.6032C39.4966 13.7737 39.3465 13.8182 39.2601 13.7098L38.5553 12.8505L37.4762 13.2274C37.3231 13.2832 37.2458 13.1407 37.3219 13.0276L37.8952 12.0397L37.239 11.0842C37.1479 10.9501 37.2485 10.8314 37.3804 10.855L38.4427 11.1057L39.1126 10.1441C39.2085 9.99981 39.3529 10.0632 39.3628 10.1996Z" fill="#0471E9"/>
<path fill-rule="evenodd" clip-rule="evenodd" d="M27.9333 7.10876L28.0109 8.24822L29.0782 8.6098C29.2257 8.66181 29.2188 8.81801 29.0902 8.86838L28.079 9.33656L28.0663 10.5124C28.0671 10.6829 27.9171 10.7274 27.8307 10.6189L27.1259 9.75965L26.0468 10.1365C25.8937 10.1924 25.8164 10.0499 25.8925 9.93673L26.4658 8.94892L25.8095 7.99338C25.7184 7.85931 25.8191 7.74062 25.951 7.76415L27.0132 8.01491L27.6832 7.05325C27.7791 6.90898 27.9235 6.97237 27.9333 7.10876Z" fill="#0471E9"/>
<path fill-rule="evenodd" clip-rule="evenodd" d="M24.0737 44.9711L24.1652 46.3148L25.4238 46.7412C25.5977 46.8025 25.5896 46.9867 25.438 47.0461L24.2455 47.5982L24.2305 48.9849C24.2315 49.1859 24.0545 49.2383 23.9527 49.1105L23.1215 48.0972L21.849 48.5416C21.6685 48.6075 21.5773 48.4395 21.6671 48.306L22.3431 47.1411L21.5692 46.0143C21.4618 45.8562 21.5804 45.7162 21.736 45.744L22.9887 46.0397L23.7787 44.9057C23.8918 44.7355 24.0621 44.8103 24.0737 44.9711Z" fill="#0471E9"/>
<path fill-rule="evenodd" clip-rule="evenodd" d="M18.5012 42.8011L18.5788 43.9406L19.6461 44.3022C19.7935 44.3542 19.7867 44.5104 19.6581 44.5608L18.6469 45.0289L18.6342 46.2048C18.635 46.3753 18.4849 46.4197 18.3986 46.3113L17.6937 45.452L16.6146 45.8289C16.4616 45.8848 16.3843 45.7423 16.4604 45.6291L17.0336 44.6413L16.3774 43.6858C16.2863 43.5517 16.3869 43.433 16.5189 43.4565L17.5811 43.7073L18.251 42.7456C18.3469 42.6014 18.4914 42.6648 18.5012 42.8011Z" fill="#0471E9"/>
<path fill-rule="evenodd" clip-rule="evenodd" d="M29.9307 45.8929L30.0082 47.0324L31.0755 47.394C31.223 47.446 31.2161 47.6022 31.0875 47.6526L30.0764 48.1207L30.0636 49.2966C30.0644 49.467 29.9144 49.5115 29.828 49.4031L29.1232 48.5438L28.0441 48.9207C27.891 48.9766 27.8137 48.8341 27.8898 48.7209L28.4631 47.7331L27.8068 46.7776C27.7157 46.6435 27.8164 46.5248 27.9483 46.5483L29.0105 46.7991L29.6805 45.8374C29.7764 45.6932 29.9208 45.7565 29.9307 45.8929Z" fill="#0471E9"/>
</svg>
