<svg width="57" height="56" viewBox="0 0 57 56" fill="none" xmlns="http://www.w3.org/2000/svg">
<rect x="0.5" width="56" height="56" rx="28" fill="#F3F6FB"/>
<path d="M11.5 16H43.5V34.7C43.5 36.526 41.9686 38 40.0714 38H14.9286C13.0314 38 11.5 36.526 11.5 34.7V16Z" fill="#3B94FD"/>
<path d="M11.5 16H43.5V32.6906C43.5 34.5218 41.9686 36 40.0714 36H14.9286C13.0314 36 11.5 34.5218 11.5 32.6906V16Z" fill="#AFD6FF"/>
<g style="mix-blend-mode:color-burn">
<path d="M43.5 19H11.5V23H43.5V19Z" fill="#6B6B6B"/>
</g>
<path d="M40.4974 46C44.9142 46 48.4947 42.4183 48.4947 38C48.4947 33.5817 44.9142 30 40.4974 30C36.0805 30 32.5 33.5817 32.5 38C32.5 42.4183 36.0805 46 40.4974 46Z" fill="white"/>
<path d="M38.7011 44.7543C37.8213 44.6629 36.7588 44.3886 35.8449 43.5886C34.9994 42.8571 34.4739 41.8514 34.2225 40.9714C33.9598 40.0686 33.8569 39.0171 34.2797 39.0971C34.4168 39.12 34.6453 39.7029 34.8852 40.1257C35.1365 40.56 35.3536 40.8 35.5478 40.9486C35.6392 41.0171 35.9363 40.3429 36.3818 39.9657C36.6332 39.7486 36.9188 39.68 36.9645 40.3086C37.0216 41.0743 36.8731 42 37.1016 42C37.3072 42 37.7871 41.84 38.8267 41.7486C39.2152 41.7143 39.4437 41.7943 39.0667 42.32C38.8839 42.5829 38.6325 42.96 38.0384 43.3829C38.9181 44.2171 39.9806 44.1143 40.0035 44.4686C40.0149 44.6743 39.615 44.7886 39.1009 44.7886C38.9753 44.7886 38.8382 44.7886 38.7011 44.7657V44.7543ZM41.6829 37.3143C40.8718 37.1429 40.7118 36.4114 40.7118 36.4114C40.6433 36.1486 40.6318 35.8286 40.689 35.4057C40.8032 34.5371 41.0317 34.1257 41.3059 33.44C41.6715 32.5257 40.7918 32 40.9289 31.6686C41.1231 31.2114 41.7515 31.7943 42.4484 31.8286C43.0539 31.8629 43.4081 31.8286 43.8765 31.8971C44.5049 31.9771 45.2475 32.1943 45.5788 32.5829C45.8873 32.9371 45.4188 33.3714 44.859 33.0971C44.4477 32.9029 43.9336 33.0171 44.2421 33.44C44.6077 33.84 44.7791 33.8514 45.1446 33.9543C46.1615 34.2286 46.1843 35.2 45.4874 35.7029C44.7105 36.2743 43.9108 36.0343 43.5909 34.9143C43.4309 34.3543 43.0311 34.0686 42.6312 34.2286C42.2313 34.3886 42.4712 35.1314 42.7797 35.8171C43.3167 37.1771 42.2313 37.3257 41.82 37.3257C41.7515 37.3257 41.7058 37.3257 41.6829 37.3257V37.3143ZM41.1003 45.0286C41.1003 44.8457 41.3516 44.8 41.3516 44.8C43.7165 44.3314 43.0311 42.7771 42.1856 41.9886C41.8315 41.6571 38.5411 38.8114 38.5411 38.8114C35.3993 36.1029 35.6506 34 35.6506 34C35.8106 31.4057 38.0727 30.7543 39.7978 30.9029C40.0035 30.9143 40.1177 31.04 40.072 31.2114C40.0378 31.3943 39.7636 31.4057 39.7636 31.4057C39.2152 31.44 38.7239 31.4971 38.3583 31.7486C36.9759 32.6857 37.3758 34.2629 39.2266 36.0343C39.4551 36.2514 39.7064 36.4914 39.9578 36.7314C39.9578 36.7314 40.3234 37.0629 41.066 37.76C42.4941 39.0743 43.271 39.7714 43.271 39.7714C45.773 41.8629 44.9161 43.7714 43.9679 44.4343C43.2367 44.9371 42.4255 45.1771 41.363 45.2343H41.3402C41.2488 45.2343 41.1003 45.1771 41.0888 45.0286H41.1003ZM40.1292 30C35.7192 30.1943 32.3032 33.9429 32.5088 38.3543C32.703 42.7657 36.4504 46.1829 40.8603 45.9886C45.2703 45.7943 48.6863 42.0457 48.4921 37.6343C48.2979 33.3371 44.7562 30 40.5062 30C40.3805 30 40.2663 30 40.1406 30" fill="#021C6A"/>
</svg>
