<svg width="48" height="48" viewBox="0 0 48 48" fill="none" xmlns="http://www.w3.org/2000/svg">
<rect x="6.75" y="14.75" width="34.5" height="18.5" rx="3.25" stroke="#121619" stroke-width="1.5"/>
<path d="M16.5 24.5C16.5 25.0523 16.0523 25.5 15.5 25.5C14.9477 25.5 14.5 25.0523 14.5 24.5C14.5 23.9477 14.9477 23.5 15.5 23.5C16.0523 23.5 16.5 23.9477 16.5 24.5Z" fill="#121619" stroke="#121619"/>
<path d="M22.5 24.5C22.5 25.0523 22.0523 25.5 21.5 25.5C20.9477 25.5 20.5 25.0523 20.5 24.5C20.5 23.9477 20.9477 23.5 21.5 23.5C22.0523 23.5 22.5 23.9477 22.5 24.5Z" fill="#121619" stroke="#121619"/>
<path d="M28.5 24.5C28.5 25.0523 28.0523 25.5 27.5 25.5C26.9477 25.5 26.5 25.0523 26.5 24.5C26.5 23.9477 26.9477 23.5 27.5 23.5C28.0523 23.5 28.5 23.9477 28.5 24.5Z" fill="#121619" stroke="#121619"/>
<path d="M34.5 24.5C34.5 25.0523 34.0523 25.5 33.5 25.5C32.9477 25.5 32.5 25.0523 32.5 24.5C32.5 23.9477 32.9477 23.5 33.5 23.5C34.0523 23.5 34.5 23.9477 34.5 24.5Z" fill="#121619" stroke="#121619"/>
</svg>
