<svg width="24" height="24" viewBox="0 0 24 24" fill="none" xmlns="http://www.w3.org/2000/svg">
<mask id="mask0_3769_16036" style="mask-type:alpha" maskUnits="userSpaceOnUse" x="0" y="0" width="24" height="24">
<circle cx="12" cy="12" r="12" fill="#C4C4C4"/>
</mask>
<g mask="url(#mask0_3769_16036)">
<path d="M-7 0V11.8022V25.7165H31.7155V11.822V0H-7Z" fill="white"/>
<path d="M-7 0V0.890198V1.94199H31.7155V0.893033V0H-7Z" fill="#ED210C"/>
<path d="M-7 3.94629V4.83649V5.88828H31.7155V4.83932V3.94629H-7Z" fill="#ED210C"/>
<path d="M-7 7.92676V8.81695V9.86875H31.7155V8.81979V7.92676H-7Z" fill="#ED210C"/>
<path d="M-7 11.873V12.7632V13.815H31.7155V12.7661V11.873H-7Z" fill="#ED210C"/>
<path d="M-7 15.8193V16.7095V17.7613H31.7155V16.7124V15.8193H-7Z" fill="#ED210C"/>
<path d="M-7 19.7656V20.6558V21.7076H31.7155V20.6587V19.7656H-7Z" fill="#ED210C"/>
<path d="M-7 23.7744V24.6646V25.7164H31.7155V24.6674V23.7744H-7Z" fill="#ED210C"/>
<path d="M12.5996 0H-7V11.7398H12.5996V0Z" fill="#133A91"/>
<path d="M12.5996 2.0752H-7V13.815H12.5996V2.0752Z" fill="#133A91"/>
<path d="M1.20055 0.618164L1.36559 1.1313H1.90623L1.47087 1.44599L1.63591 1.9563L1.20055 1.64161L0.765193 1.9563L0.93023 1.44599L0.494873 1.1313H1.03267L1.20055 0.618164Z" fill="white"/>
<path d="M4.47863 0.618164L4.64651 1.1313H5.1843L4.74895 1.44599L4.91683 1.9563L4.47863 1.64161L4.04327 1.9563L4.21115 1.44599L3.77295 1.1313H4.31359L4.47863 0.618164Z" fill="white"/>
<path d="M7.75939 0.618164L7.92442 1.1313H8.46506L8.02686 1.44599L8.19474 1.9563L7.75939 1.64161L7.32403 1.9563L7.48907 1.44599L7.05371 1.1313H7.5915L7.75939 0.618164Z" fill="white"/>
<path d="M11.0375 0.618164L11.2053 1.1313H11.7431L11.3078 1.44599L11.4728 1.9563L11.0375 1.64161L10.6021 1.9563L10.77 1.44599L10.3318 1.1313H10.8724L11.0375 0.618164Z" fill="white"/>
<path d="M1.20055 3.40234L1.36559 3.91265H1.90623L1.47087 4.22734L1.63591 4.74047L1.20055 4.42295L0.765193 4.74047L0.93023 4.22734L0.494873 3.91265H1.03267L1.20055 3.40234Z" fill="white"/>
<path d="M4.47863 3.40234L4.64651 3.91265H5.1843L4.74895 4.22734L4.91683 4.74047L4.47863 4.42295L4.04327 4.74047L4.21115 4.22734L3.77295 3.91265H4.31359L4.47863 3.40234Z" fill="white"/>
<path d="M7.75939 3.40234L7.92442 3.91265H8.46506L8.02686 4.22734L8.19474 4.74047L7.75939 4.42295L7.32403 4.74047L7.48907 4.22734L7.05371 3.91265H7.5915L7.75939 3.40234Z" fill="white"/>
<path d="M11.0375 3.40234L11.2053 3.91265H11.7431L11.3078 4.22734L11.4728 4.74047L11.0375 4.42295L10.6021 4.74047L10.77 4.22734L10.3318 3.91265H10.8724L11.0375 3.40234Z" fill="white"/>
<path d="M1.20055 6.18359L1.36559 6.6939H1.90623L1.47087 7.01142L1.63591 7.52173L1.20055 7.2042L0.765193 7.52173L0.93023 7.01142L0.494873 6.6939H1.03267L1.20055 6.18359Z" fill="white"/>
<path d="M4.47863 6.18359L4.64651 6.6939H5.1843L4.74895 7.01142L4.91683 7.52173L4.47863 7.2042L4.04327 7.52173L4.21115 7.01142L3.77295 6.6939H4.31359L4.47863 6.18359Z" fill="white"/>
<path d="M7.75939 6.18359L7.92442 6.6939H8.46506L8.02686 7.01142L8.19474 7.52173L7.75939 7.2042L7.32403 7.52173L7.48907 7.01142L7.05371 6.6939H7.5915L7.75939 6.18359Z" fill="white"/>
<path d="M11.0375 6.18359L11.2053 6.6939H11.7431L11.3078 7.01142L11.4728 7.52173L11.0375 7.2042L10.6021 7.52173L10.77 7.01142L10.3318 6.6939H10.8724L11.0375 6.18359Z" fill="white"/>
<path d="M1.20055 8.96484L1.36559 9.47515H1.90623L1.47087 9.79267L1.63591 10.303L1.20055 9.98829L0.765193 10.303L0.93023 9.79267L0.494873 9.47515H1.03267L1.20055 8.96484Z" fill="white"/>
<path d="M4.47863 8.96484L4.64651 9.47515H5.1843L4.74895 9.79267L4.91683 10.303L4.47863 9.98829L4.04327 10.303L4.21115 9.79267L3.77295 9.47515H4.31359L4.47863 8.96484Z" fill="white"/>
<path d="M7.75939 8.96484L7.92442 9.47515H8.46506L8.02686 9.79267L8.19474 10.303L7.75939 9.98829L7.32403 10.303L7.48907 9.79267L7.05371 9.47515H7.5915L7.75939 8.96484Z" fill="white"/>
<path d="M11.0375 8.96484L11.2053 9.47515H11.7431L11.3078 9.79267L11.4728 10.303L11.0375 9.98829L10.6021 10.303L10.77 9.79267L10.3318 9.47515H10.8724L11.0375 8.96484Z" fill="white"/>
<path d="M1.20055 11.748L1.36559 12.2584H1.90623L1.47087 12.573L1.63591 13.0862L1.20055 12.7687L0.765193 13.0862L0.93023 12.573L0.494873 12.2584H1.03267L1.20055 11.748Z" fill="white"/>
<path d="M4.47863 11.748L4.64651 12.2584H5.1843L4.74895 12.573L4.91683 13.0862L4.47863 12.7687L4.04327 13.0862L4.21115 12.573L3.77295 12.2584H4.31359L4.47863 11.748Z" fill="white"/>
<path d="M7.75939 11.748L7.92442 12.2584H8.46506L8.02686 12.573L8.19474 13.0862L7.75939 12.7687L7.32403 13.0862L7.48907 12.573L7.05371 12.2584H7.5915L7.75939 11.748Z" fill="white"/>
<path d="M11.0375 11.748L11.2053 12.2584H11.7431L11.3078 12.573L11.4728 13.0862L11.0375 12.7687L10.6021 13.0862L10.77 12.573L10.3318 12.2584H10.8724L11.0375 11.748Z" fill="white"/>
<path d="M-0.455457 2.04102L-0.287574 2.55415H0.25022L-0.185137 2.86884L-0.0200995 3.37915L-0.455457 3.06446L-0.890814 3.37915L-0.725776 2.86884L-1.16113 2.55415H-0.623339L-0.455457 2.04102Z" fill="white"/>
<path d="M2.82262 2.04102L2.9905 2.55415H3.5283L3.09294 2.86884L3.26082 3.37915L2.82262 3.06446L2.38726 3.37915L2.55515 2.86884L2.11694 2.55415H2.65758L2.82262 2.04102Z" fill="white"/>
<path d="M6.10338 2.04102L6.26842 2.55415H6.80905L6.37085 2.86884L6.53874 3.37915L6.10338 3.06446L5.66802 3.37915L5.83306 2.86884L5.39771 2.55415H5.9355L6.10338 2.04102Z" fill="white"/>
<path d="M9.38146 2.04102L9.54934 2.55415H10.0871L9.65178 2.86884L9.81966 3.37915L9.38146 3.06446L8.9461 3.37915L9.11398 2.86884L8.67578 2.55415H9.21642L9.38146 2.04102Z" fill="white"/>
<path d="M-0.455457 4.79102L-0.287574 5.30132H0.25022L-0.185137 5.61884L-0.0200995 6.12915L-0.455457 5.81446L-0.890814 6.12915L-0.725776 5.61884L-1.16113 5.30132H-0.623339L-0.455457 4.79102Z" fill="white"/>
<path d="M2.82262 4.79102L2.9905 5.30132H3.5283L3.09294 5.61884L3.26082 6.12915L2.82262 5.81446L2.38726 6.12915L2.55515 5.61884L2.11694 5.30132H2.65758L2.82262 4.79102Z" fill="white"/>
<path d="M6.10338 4.79102L6.26842 5.30132H6.80905L6.37085 5.61884L6.53874 6.12915L6.10338 5.81446L5.66802 6.12915L5.83306 5.61884L5.39771 5.30132H5.9355L6.10338 4.79102Z" fill="white"/>
<path d="M9.38146 4.79102L9.54934 5.30132H10.0871L9.65178 5.61884L9.81966 6.12915L9.38146 5.81446L8.9461 6.12915L9.11398 5.61884L8.67578 5.30132H9.21642L9.38146 4.79102Z" fill="white"/>
<path d="M-0.455457 7.54102L-0.287574 8.05132H0.25022L-0.185137 8.36884L-0.0200995 8.87915L-0.455457 8.56446L-0.890814 8.87915L-0.725776 8.36884L-1.16113 8.05132H-0.623339L-0.455457 7.54102Z" fill="white"/>
<path d="M2.82262 7.54102L2.9905 8.05132H3.5283L3.09294 8.36884L3.26082 8.87915L2.82262 8.56446L2.38726 8.87915L2.55515 8.36884L2.11694 8.05132H2.65758L2.82262 7.54102Z" fill="white"/>
<path d="M6.10338 7.54102L6.26842 8.05132H6.80905L6.37085 8.36884L6.53874 8.87915L6.10338 8.56446L5.66802 8.87915L5.83306 8.36884L5.39771 8.05132H5.9355L6.10338 7.54102Z" fill="white"/>
<path d="M9.38146 7.54102L9.54934 8.05132H10.0871L9.65178 8.36884L9.81966 8.87915L9.38146 8.56446L8.9461 8.87915L9.11398 8.36884L8.67578 8.05132H9.21642L9.38146 7.54102Z" fill="white"/>
<path d="M-0.455457 10.291L-0.287574 10.8013H0.25022L-0.185137 11.1188L-0.0200995 11.6291L-0.455457 11.3116L-0.890814 11.6291L-0.725776 11.1188L-1.16113 10.8013H-0.623339L-0.455457 10.291Z" fill="white"/>
<path d="M2.82262 10.291L2.9905 10.8013H3.5283L3.09294 11.1188L3.26082 11.6291L2.82262 11.3116L2.38726 11.6291L2.55515 11.1188L2.11694 10.8013H2.65758L2.82262 10.291Z" fill="white"/>
<path d="M6.10338 10.291L6.26842 10.8013H6.80905L6.37085 11.1188L6.53874 11.6291L6.10338 11.3116L5.66802 11.6291L5.83306 11.1188L5.39771 10.8013H5.9355L6.10338 10.291Z" fill="white"/>
<path d="M9.38146 10.291L9.54934 10.8013H10.0871L9.65178 11.1188L9.81966 11.6291L9.38146 11.3116L8.9461 11.6291L9.11398 11.1188L8.67578 10.8013H9.21642L9.38146 10.291Z" fill="white"/>
</g>
</svg>
