<svg width="24" height="24" viewBox="0 0 24 24" fill="none" xmlns="http://www.w3.org/2000/svg">
<mask id="mask0_6548_31123" style="mask-type:alpha" maskUnits="userSpaceOnUse" x="0" y="0" width="24" height="24">
<circle cx="12" cy="12" r="12" fill="white"/>
</mask>
<g mask="url(#mask0_6548_31123)">
<path d="M19.1055 7.3001L17.8233 5.42676L17.1865 5.84185L18.4687 7.71301L19.1055 7.3001Z" fill="#231815"/>
<path d="M20.5767 9.56377L19.2945 7.69043L18.6577 8.10552L19.9399 9.97886L20.5767 9.56377Z" fill="#231815"/>
<path d="M4.96219 16.8645L3.67997 14.9912L3.04321 15.4063L4.32325 17.2775L4.96219 16.8645Z" fill="#231815"/>
<path d="M6.4336 19.1263L5.15139 17.2529L4.51245 17.668L5.79467 19.5414L6.4336 19.1263Z" fill="#231815"/>
<path d="M19.3427 16.6395L20.5793 14.7357L19.9512 14.3076L18.7168 16.2114L19.3427 16.6395Z" fill="#231815"/>
<path d="M17.8193 18.8702L19.0558 16.9664L18.4278 16.5361L17.1934 18.4399L17.8193 18.8702Z" fill="#231815"/>
<path d="M20.3747 17.3282L21.6113 15.4244L20.9832 14.9941L19.7488 16.8979L20.3747 17.3282Z" fill="#231815"/>
<path d="M18.8512 19.5565L20.0878 17.6527L19.4597 17.2246L18.2253 19.1284L18.8512 19.5565Z" fill="#231815"/>
<path d="M21.3898 18.0155L22.6264 16.1117L21.9983 15.6836L20.7617 17.5874L21.3898 18.0155Z" fill="#231815"/>
<path d="M19.8663 20.246L21.1029 18.3422L20.4749 17.9141L19.2383 19.8157L19.8663 20.246Z" fill="#231815"/>
<path d="M21.1704 5.87334L19.8882 4L19.2515 4.41509L20.5315 6.28843L21.1704 5.87334Z" fill="#231815"/>
<path d="M22.6414 8.13603L21.3591 6.2627L20.7202 6.67779L22.0024 8.55112L22.6414 8.13603Z" fill="#231815"/>
<path d="M20.9789 9.27598L21.6157 8.86306L18.8926 4.69043L18.2537 5.10552L20.9789 9.27598Z" fill="#231815"/>
<path d="M2 8.19434L2.63676 8.60943L5.35549 4.43679L4.72091 4.01953L2 8.19434Z" fill="#231815"/>
<path d="M3.08667 8.91775L3.72343 9.33501L6.44216 5.16021L5.80757 4.74512L3.08667 8.91775Z" fill="#231815"/>
<path d="M4.13623 9.58767L4.77299 10.0049L7.4939 5.8323L6.85714 5.41504L4.13623 9.58767Z" fill="#231815"/>
<path d="M6.83343 18.8766L7.47236 18.4615L4.74711 14.291L4.11035 14.7061L6.83343 18.8766Z" fill="#231815"/>
<path d="M4.7514 20.2701L5.38816 19.855L2.66508 15.6846L2.02832 16.0975L4.7514 20.2701Z" fill="#231815"/>
<path d="M15.3435 11.2149C13.3463 10.5977 12.5357 11.8843 12.2597 12.1842C11.9837 12.4841 11.2078 13.5533 9.55398 13.1035C7.65456 12.5862 7.62631 10.9302 7.85015 9.80664C7.49964 10.5054 7.31731 11.2764 7.31771 12.0581C7.31662 12.0755 7.31662 12.0929 7.31771 12.1103C7.32868 13.254 7.73058 14.3596 8.45665 15.2434C9.18273 16.1273 10.1893 16.7361 11.3092 16.9688C12.4291 17.2016 13.5949 17.0443 14.613 16.523C15.6311 16.0017 16.4403 15.1478 16.9061 14.1031C16.9887 12.8535 16.6475 11.6213 15.3435 11.2149Z" fill="#133A91"/>
<path d="M17.3387 12.058C17.3383 10.9292 16.9571 9.83355 16.2569 8.94821C15.5567 8.06287 14.5782 7.43961 13.4799 7.17923C12.3815 6.91884 11.2275 7.03655 10.2043 7.51331C9.18114 7.99008 8.34871 8.79803 7.84161 9.80651C7.62429 10.9323 7.64602 12.5861 9.54544 13.1033C11.1993 13.5532 11.9686 12.484 12.2511 12.184C12.5337 11.8841 13.3464 10.5976 15.3437 11.2148C16.6476 11.6212 16.9888 12.8534 16.8997 14.103C17.1162 13.6208 17.2548 13.1074 17.3105 12.5817C17.3295 12.4078 17.3389 12.233 17.3387 12.058Z" fill="#ED210C"/>
</g>
</svg>
