<svg width="48" height="48" viewBox="0 0 48 48" fill="none" xmlns="http://www.w3.org/2000/svg">
<rect width="48" height="48" rx="24" fill="#0480E9"/>
<path fill-rule="evenodd" clip-rule="evenodd" d="M31.5839 20.5458C30.3903 21.4183 29.184 21.0587 28.6986 19.3451C28.4548 18.4916 27.8511 18.0555 27.2336 18.2982C26.6183 18.5401 26.9823 19.665 27.4505 20.7078C28.3869 23.0954 26.0605 23.0158 25.7902 22.9849C24.5545 22.725 24.3036 21.6053 24.3036 21.6053C24.2013 21.2111 24.1777 20.7138 24.2595 20.0791C24.4286 18.7511 24.7859 18.1268 25.1918 17.099C25.7424 15.7161 24.4066 14.9074 24.6273 14.3986C24.9293 13.7097 25.8839 14.5852 26.9465 14.6498C27.8627 14.7006 28.4138 14.6547 29.1265 14.7495C30.0729 14.8753 31.2045 15.1964 31.7082 15.7885C32.1704 16.3295 31.4644 16.99 30.615 16.5759C29.9956 16.2739 29.2131 16.4598 29.6712 17.1065C30.2241 17.7217 30.4881 17.7382 31.0504 17.8864C32.6001 18.2945 32.6307 19.777 31.5839 20.5458ZM29.2752 33.8042C28.1648 34.5729 26.9339 34.9339 25.3203 35.0206C25.1739 35.0407 24.9111 34.9567 24.8976 34.6998C24.8872 34.4251 25.2889 34.3556 25.2889 34.3556C28.8865 33.6474 27.8351 31.2878 26.562 30.0841C26.0278 29.5775 21.0182 25.2578 21.0182 25.2578C16.2442 21.1458 16.6257 17.9361 16.6257 17.9361C16.8561 13.9864 20.3148 13.0068 22.9312 13.2326C23.2381 13.2588 23.4076 13.4466 23.352 13.7016C23.2945 13.9793 22.8901 13.9999 22.8901 13.9999C22.0576 14.0495 21.3139 14.1343 20.7464 14.5155C18.6384 15.9338 19.2608 18.346 22.0725 21.0312C22.4253 21.3702 22.8013 21.7256 23.1866 22.0866C23.1866 22.0866 23.7518 22.5847 24.8756 23.6536C27.0373 25.6458 28.2223 26.7206 28.2223 26.7206C32.0323 29.8941 30.7316 32.7946 29.2752 33.8042ZM21.2583 34.3122C19.9142 34.1804 18.31 33.7567 16.9118 32.5481C15.6275 31.4363 14.8304 29.9078 14.4439 28.5675C14.0486 27.1928 13.882 25.5855 14.5358 25.7121C14.7366 25.7524 15.0839 26.6354 15.4617 27.2783C15.8511 27.9421 16.1703 28.3095 16.4667 28.5328C16.6026 28.6343 17.0607 27.6147 17.7268 27.0349C18.1155 26.7149 18.5399 26.6048 18.6075 27.5598C18.6912 28.7321 18.481 30.1247 18.8215 30.1247C19.1422 30.1247 19.8631 29.8839 21.4468 29.7499C22.0408 29.6991 22.3798 29.8111 21.8127 30.6127C21.5297 31.0107 21.1497 31.5752 20.2529 32.2192C21.5984 33.48 23.2143 33.3288 23.2427 33.8631C23.2639 34.248 22.3276 34.4164 21.2583 34.3122ZM23.4581 12.0125C16.8356 12.3116 11.7103 17.9219 12.0127 24.5433C12.3114 31.1646 17.9213 36.2881 24.5419 35.989C31.1652 35.6907 36.2868 30.08 35.9877 23.4591C35.6894 16.837 30.0783 11.7124 23.4581 12.0125Z" fill="white"/>
</svg>
