<svg width="48" height="48" viewBox="0 0 48 48" fill="none" xmlns="http://www.w3.org/2000/svg">
<rect x="0.5" y="0.5" width="47" height="47" rx="23.5" stroke="#EBEFF5"/>
<path d="M23.94 34.6837C30.2557 29.2702 39.1279 24.007 44.0001 22.1123C43.2482 21.6311 42.0753 20.9394 40.752 20.1875C34.4663 22.2627 27.1279 26.8642 20.5715 32.0672C21.6843 32.9093 22.8573 33.7815 23.94 34.6837Z" fill="#E31837"/>
<path d="M21.0527 19.9772C20.1203 19.5261 19.0978 19.105 18.3158 18.7441C15.0373 20.4011 11.8991 22.3222 8.93237 24.4885C9.77448 24.9396 10.6767 25.481 11.6391 26.0223C14.6467 23.7968 17.6842 21.6915 21.0527 19.9772Z" fill="#012169"/>
<path d="M26.6768 17.3911C25.5339 16.7596 21.564 15.2859 18.8272 14.6543C18.0151 14.955 16.8723 15.4062 16.0903 15.737C17.0828 16.0077 20.7821 17.0002 23.9399 18.5941C24.752 18.2032 25.8948 17.722 26.6768 17.3911Z" fill="#E31837"/>
<path d="M13.2331 17C10.0496 18.517 6.96568 20.2348 4 22.1429C4.7218 22.4737 5.4436 22.7444 6.43608 23.2256C10.8872 20.218 14.3759 18.3835 15.7594 17.782C14.7669 17.4211 13.8346 17.1805 13.2331 17Z" fill="#012169"/>
<path d="M29.3234 16.4586C30.1354 16.188 31.0678 15.9474 31.8798 15.7068C29.3029 14.6116 26.6492 13.7069 23.9399 13C23.5189 13.1203 22.2557 13.4511 21.3835 13.7218C24.097 14.4274 26.7515 15.3424 29.3234 16.4586ZM14.4963 27.7669C15.4587 28.3383 16.4813 29.1203 17.4738 29.782C24.0602 24.6692 30.5565 20.7293 37.6843 18.5038C36.6918 17.9925 35.8196 17.5414 34.7069 17C30.4362 18.0827 23.1279 21 14.4963 27.7669Z" fill="#E31837"/>
</svg>
