<svg width="48" height="48" viewBox="0 0 48 48" fill="none" xmlns="http://www.w3.org/2000/svg">
<path fill-rule="evenodd" clip-rule="evenodd" d="M0 24C0 10.7452 10.7452 0 24 0C37.2548 0 48 10.7452 48 24C48 37.2548 37.2548 48 24 48C10.7452 48 0 37.2548 0 24Z" fill="#0050FF"/>
<path fill-rule="evenodd" clip-rule="evenodd" d="M19.2812 21.6446H18.0398H18.0332V23.1482H19.2746V25.9658C19.2746 27.7892 20.093 28.4612 21.4946 28.4612C22.0683 28.4695 22.6293 28.2923 23.0942 27.956L22.3142 26.6186C22.1479 26.7796 21.9253 26.8692 21.6938 26.8682C21.2642 26.8682 20.9642 26.6186 20.9642 25.9148V23.1548H22.721V21.6446H20.9612V19.2002L19.2812 20.192V21.6446ZM26.8326 23.1673C27.8418 23.1533 28.6732 23.9562 28.6943 24.9653C28.7012 25.458 28.5111 25.9331 28.1663 26.2851C27.8215 26.6371 27.3504 26.837 26.8577 26.8403C25.8484 26.8401 25.0284 26.0255 25.0215 25.0162C25.0146 24.007 25.8234 23.1813 26.8326 23.1673ZM23.3188 24.9787C23.2973 23.5416 24.1469 22.2342 25.4689 21.67C26.7908 21.1059 28.3226 21.397 29.3454 22.4068C30.3682 23.4166 30.679 24.9445 30.1318 26.2736C29.5847 27.6026 28.2882 28.4689 26.851 28.4659C25.9169 28.4829 25.0154 28.1224 24.3506 27.4661C23.6858 26.8097 23.3138 25.913 23.3188 24.9787ZM30.7516 26.7998L30.748 26.8011L30.7504 26.7975L30.7516 26.7998ZM30.7516 26.7998L32.3992 26.1549C32.6834 26.7367 33.2888 27.0914 33.9352 27.0549C34.6264 27.0549 35.0038 26.7219 35.0038 26.3253C35.0038 25.8703 34.3773 25.7458 33.5944 25.5902L33.4294 25.5573C32.3032 25.3203 31.0492 24.9747 31.0492 23.5611C31.0492 22.4349 32.137 21.4497 33.7882 21.4611C34.934 21.3801 36.0337 21.9262 36.6616 22.8879L35.1016 23.5215C34.8307 23.0591 34.3254 22.7854 33.79 22.8111C33.118 22.8111 32.7982 23.0865 32.7982 23.4573C32.7982 23.871 33.3262 23.9849 34.2773 24.1901L34.321 24.1995C35.4346 24.4233 36.7528 24.8073 36.7528 26.2473C36.7528 27.2901 35.8252 28.4673 33.8794 28.4547C32.287 28.4613 31.2828 27.867 30.7516 26.7998ZM37.1919 26.8018L37.1954 26.8005C37.7267 27.8677 38.7308 28.462 40.3233 28.4554C42.2757 28.468 43.2033 27.2908 43.2033 26.248C43.2033 24.808 41.8851 24.424 40.7715 24.2002L40.7278 24.1908C39.7767 23.9856 39.2487 23.8717 39.2487 23.458C39.2487 23.0872 39.5685 22.8118 40.2405 22.8118C40.7763 22.7839 41.2827 23.0582 41.5521 23.5222L43.1121 22.8886C42.4803 21.9278 41.3793 21.3824 40.2321 21.4618C38.5875 21.4504 37.4931 22.4356 37.4931 23.5618C37.4931 24.9754 38.7471 25.321 39.8733 25.558L40.0382 25.591C40.8212 25.7465 41.4477 25.871 41.4477 26.326C41.4477 26.7226 41.0763 27.0556 40.3791 27.0556C39.7326 27.0921 39.1273 26.7374 38.8431 26.1556L37.1954 26.8005L37.1943 26.7982L37.1919 26.8018ZM12.1999 28.9302C14.3232 28.4598 15.8338 26.5763 15.8319 24.4016V24.401C15.8389 22.0361 14.0563 20.049 11.7045 19.8002C11.4323 19.7736 11.1584 19.7694 10.8855 19.7876C8.69069 19.9346 7.24469 21.4256 6.28469 23.1596C5.5674 24.4813 5.06627 25.9094 4.80029 27.3896C5.47034 26.9279 6.21187 26.5799 6.99509 26.3594C7.91195 28.3314 10.0767 29.4006 12.1999 28.9302Z" fill="white"/>
</svg>
