<svg width="48" height="48" viewBox="0 0 48 48" fill="none" xmlns="http://www.w3.org/2000/svg">
<mask id="mask0_4150_13171" style="mask-type:alpha" maskUnits="userSpaceOnUse" x="0" y="0" width="48" height="48">
<rect width="48" height="48" rx="24" fill="white"/>
</mask>
<g mask="url(#mask0_4150_13171)">
<path d="M23.9999 23.9734C22.647 22.3724 20.994 21.0515 19.134 20.085V27.8831C20.9968 26.9117 22.6502 25.5833 23.9999 23.9734Z" fill="#E43D30"/>
<path d="M-6.19264e-05 48H20.1487C22.6124 46.4648 24.619 44.2965 25.9589 41.7213C27.2988 39.1462 27.923 36.2585 27.7662 33.3599C27.6038 30.7231 26.7898 28.1678 25.397 25.923C23.4769 28.0711 21.076 29.7348 18.3904 30.7782L17.8592 30.9854L16.8446 31.3307V16.5896L18.401 17.1899C21.0853 18.2334 23.4857 19.895 25.4076 22.0398C26.8004 19.795 27.6145 17.2397 27.7768 14.6029C27.9351 11.7169 27.3186 8.84104 25.9914 6.27342C24.6641 3.70581 22.6744 1.53985 20.2284 0H-0.00537109L-6.19264e-05 48ZM9.03048 15.7078H11.4315V32.239H9.03048V15.7078Z" fill="#148FCA"/>
<path d="M47.9999 0H24.0265C26.0534 1.85927 27.6448 4.14317 28.6871 6.68859C29.7293 9.23402 30.1966 11.9782 30.0557 14.7251C29.8792 17.7504 28.9478 20.6834 27.3465 23.2563L26.9003 23.9734L27.3465 24.6906C28.9484 27.2612 29.8799 30.1926 30.0557 33.2165C30.1947 35.9791 29.7188 38.7382 28.6624 41.2947C27.606 43.8511 25.9954 46.1413 23.9468 48H47.984L47.9999 0ZM41.6254 32.2443H38.6241L32.4461 23.9575L38.7144 15.66H41.7369L35.4581 23.9787L41.6254 32.2443Z" fill="#055198"/>
</g>
</svg>
