<svg width="32" height="32" viewBox="0 0 32 32" fill="none" xmlns="http://www.w3.org/2000/svg">
<circle cx="15.9996" cy="16.0006" r="14.4" fill="#0480E9"/>
<path fill-rule="evenodd" clip-rule="evenodd" d="M23.644 12.516C22.441 13.3953 21.2252 13.033 20.736 11.3059C20.4903 10.4457 19.8818 10.0062 19.2594 10.2508C18.6393 10.4946 19.0062 11.6283 19.4781 12.6793C20.4218 15.0856 18.0771 15.0054 17.8047 14.9742C16.5591 14.7123 16.3063 13.5838 16.3063 13.5838C16.2031 13.1865 16.1794 12.6853 16.2618 12.0456C16.4323 10.7072 16.7924 10.0781 17.2015 9.04217C17.7565 7.64844 16.4101 6.83342 16.6325 6.32055C16.9369 5.62632 17.8987 6.50869 18.9701 6.57379C19.8935 6.62496 20.4489 6.57868 21.1673 6.67425C22.1212 6.80106 23.2617 7.12466 23.7694 7.72143C24.2348 8.26666 23.5236 8.9323 22.6676 8.515C22.0429 8.21059 21.2546 8.39798 21.7163 9.04969C22.2736 9.6698 22.5396 9.68636 23.1063 9.83574C24.6683 10.247 24.6988 11.7412 23.644 12.516M21.317 25.8798C20.1975 26.6545 18.9572 27.0184 17.3308 27.1057C17.1833 27.126 16.9184 27.0413 16.9049 26.7824C16.8943 26.5055 17.2992 26.4355 17.2992 26.4355C20.9249 25.7217 19.8656 23.3436 18.5824 22.1305C18.0439 21.6199 12.9948 17.2664 12.9948 17.2664C8.18267 13.1221 8.56763 9.88721 8.56763 9.88721C8.7998 5.90658 12.2858 4.91922 14.9229 5.14687C15.2322 5.17321 15.4031 5.36248 15.347 5.61948C15.289 5.89943 14.8815 5.92012 14.8815 5.92012C14.0424 5.97017 13.2928 6.05558 12.7208 6.43976C10.5962 7.86924 11.2235 10.3004 14.0574 13.0066C14.413 13.3482 14.792 13.7064 15.1803 14.0703C15.1803 14.0703 15.75 14.5722 16.8827 15.6495C19.0614 17.6573 20.2554 18.7406 20.2554 18.7406C24.0959 21.939 22.7849 24.8623 21.317 25.8798M13.2365 26.3924C11.8818 26.2596 10.2645 25.8325 8.85564 24.6145C7.56118 23.4939 6.75778 21.9535 6.36832 20.6026C5.96982 19.2172 5.80199 17.5973 6.46088 17.7249C6.66296 17.7655 7.01329 18.6554 7.3941 19.3033C7.78658 19.9724 8.10831 20.3426 8.40709 20.5676C8.54407 20.67 9.00578 19.6424 9.6771 19.058C10.0684 18.7355 10.4967 18.6245 10.5648 19.5871C10.6491 20.7686 10.4372 22.1721 10.7804 22.1721C11.1033 22.1721 11.8303 21.9294 13.4265 21.7943C14.0252 21.7431 14.3669 21.856 13.7953 22.6639C13.5101 23.065 13.127 23.6339 12.2228 24.283C13.5793 25.5537 15.2079 25.4013 15.2365 25.9397C15.258 26.3277 14.3142 26.4974 13.2365 26.3924M0.0169482 16.7231C0.415447 25.551 7.89511 32.3819 16.7223 31.9834C25.5536 31.5857 32.3819 24.1049 31.9834 15.2774C31.5853 6.44885 24.1045 -0.383972 15.2773 0.0167634C6.44749 0.414865 -0.386066 7.89488 0.0169482 16.7231Z" fill="white"/>
</svg>
