<svg width="48" height="48" viewBox="0 0 48 48" fill="none" xmlns="http://www.w3.org/2000/svg">
<path fill-rule="evenodd" clip-rule="evenodd" d="M0 24C0 10.7452 10.7452 0 24 0C37.2548 0 48 10.7452 48 24C48 37.2548 37.2548 48 24 48C10.7452 48 0 37.2548 0 24Z" fill="#3EC5F2"/>
<path fill-rule="evenodd" clip-rule="evenodd" d="M30.4655 37.2002C28.8324 37.2612 27.2191 36.8254 25.8389 35.9504V30.047C27.1314 31.815 29.5561 32.3107 31.4389 31.192C33.3216 30.0732 34.0455 27.7066 33.1107 25.7261C32.176 23.7456 29.8889 22.8001 27.8285 23.5424C28.6453 22.2866 28.7946 20.7101 28.2281 19.3232C28.9611 19.1505 29.7125 19.0685 30.4655 19.079C35.4692 19.079 39.5255 23.1353 39.5255 28.139C39.5255 33.1427 35.4692 37.199 30.4655 37.199V37.2002ZM27.621 18.2691C26.417 16.6996 24.3492 16.068 22.4737 16.6966C20.5982 17.3253 19.3289 19.0757 19.314 21.0537C19.3132 21.9174 19.5581 22.7636 20.0202 23.4933C18.4335 22.9902 16.699 23.4497 15.5694 24.6723C14.8329 23.3071 14.4481 21.7799 14.4498 20.2287C14.4846 15.3968 18.1421 11.3614 22.9473 10.8531C27.7526 10.3447 32.1734 13.5256 33.2184 18.2433C31.3853 17.7388 29.4488 17.7477 27.6204 18.2691H27.621ZM14.901 25.7689C14.5946 26.3056 14.4381 26.9149 14.448 27.5329C14.4612 29.2383 15.4865 30.7728 17.0571 31.4377C18.6277 32.1025 20.4431 31.7705 21.6768 30.5929C21.8358 30.6271 21.9972 30.7993 22.1568 30.6841V35.9479C20.7831 36.8379 19.1651 37.275 17.5302 37.1977C13.3424 37.2311 9.67687 34.3914 8.66276 30.3282C7.64866 26.2649 9.55001 22.0359 13.2624 20.0977C13.2624 20.1403 13.2594 20.1823 13.2594 20.2249C13.2486 22.1952 13.8203 24.1248 14.9028 25.7713L14.901 25.7689Z" fill="white"/>
</svg>
