<svg width="48" height="48" viewBox="0 0 48 48" fill="none" xmlns="http://www.w3.org/2000/svg">
<rect width="48" height="48" rx="24" fill="#0061AE"/>
<path fill-rule="evenodd" clip-rule="evenodd" d="M36.6271 26.4394C35.2471 29.8894 32.9371 30.8644 32.9371 30.8644C39.7369 23.9302 35.5819 15.9394 35.5819 15.9394C34.5781 14.1484 35.8555 13.3678 35.8555 13.3678C32.9347 14.1028 33.8473 16.6678 33.8473 16.6678C34.9984 19.1788 35.2367 22.0129 34.5211 24.6808L33.5611 24.1408L33.5761 24.118C33.5761 24.118 35.8561 15.076 26.6527 11.905L26.5735 10.1992H24.5857V21.4042L33.7129 26.6398C33.5467 26.9794 33.3703 27.2998 33.1867 27.5998L24.0193 22.258L14.8135 27.6022C14.6299 27.3022 14.4535 26.9794 14.2873 26.6422L23.5333 21.4072V10.1992H21.4519L21.4441 11.9014C12.1435 15.0724 14.4715 24.1138 14.4715 24.1138L14.4397 24.1366L13.4797 24.6766C12.764 22.0087 13.0024 19.1746 14.1535 16.6636C14.1535 16.6636 15.0619 14.1028 12.1423 13.3678C12.1423 13.3678 13.4203 14.1478 12.4159 15.9394C12.4159 15.9394 8.29806 23.9302 15.0625 30.8644C15.0625 30.8644 12.7513 29.8888 11.3725 26.4394C10.7922 25.3812 9.57536 24.8424 8.40186 25.1242C8.40186 25.1242 9.22866 25.501 9.71406 27.0256C9.71406 27.0256 11.6875 33.3442 19.3093 34.309V37.7992H23.0515V32.656C20.3657 32.4792 17.8542 31.2641 16.0489 29.2678L16.9897 28.7152C17.1649 28.882 20.0467 31.5652 23.9779 31.636H24.0007C24.0769 31.636 24.0157 31.636 24.0235 31.636C27.9547 31.5658 30.8365 28.882 31.0117 28.7152L31.9519 29.2678C30.1468 31.2635 27.6361 32.4784 24.9511 32.6554V37.7986H28.6933V34.309C36.3133 33.3448 38.2885 27.0256 38.2885 27.0256C38.7739 25.501 39.6007 25.1242 39.6007 25.1242C38.4262 24.8409 37.2076 25.3799 36.6271 26.4394ZM31.75 23.2145L31.7428 23.1107L26.5936 20.2109L26.5654 14.0117H26.5936C26.5936 14.0117 32.8 15.7109 31.75 23.2145ZM21.4064 14.0117H21.4346L21.4064 20.2115L16.2566 23.1137L16.2494 23.2175C15.2 15.7109 21.4064 14.0117 21.4064 14.0117ZM24.0149 24.6012L29.1491 27.6222V27.6312L29.2247 27.6048C27.7788 28.8674 25.9213 29.5581 24.0017 29.547C22.1151 29.5736 20.2895 28.8786 18.8981 27.6042L18.8525 27.6306V27.6216L24.0173 24.6006L24.0149 24.6012Z" fill="white"/>
</svg>
