<svg width="48" height="48" viewBox="0 0 48 48" fill="none" xmlns="http://www.w3.org/2000/svg">
<rect width="48" height="48" rx="24" fill="#FAFAFA"/>
<path fill-rule="evenodd" clip-rule="evenodd" d="M42.9567 32.3658C42.4293 31.5997 41.8144 30.8977 41.1243 30.2742C40.139 29.4485 39.2038 28.565 38.3235 27.6282C37.783 27.0565 37.272 26.4577 36.7923 25.8342C36.1611 25.2444 35.0313 24.0996 34.9827 24.0996H32.2437V27.9996C32.9253 28.7196 34.6545 30.2022 35.4099 31.0218C37.0839 32.5218 39.0537 34.1568 40.4709 34.8324C41.7717 35.4522 42.6183 34.884 42.8607 34.4868C43.264 33.8461 43.3005 33.0404 42.9567 32.3658Z" fill="#B1CD65"/>
<path fill-rule="evenodd" clip-rule="evenodd" d="M35.6907 24.7502C35.6853 24.7268 35.8023 24.7004 35.7195 24.6752C35.6411 24.6462 35.5717 24.597 35.5185 24.5324C34.1775 23.8598 32.6859 22.9034 31.8381 23.9774C31.1001 24.6848 31.0965 26.4302 32.1717 27.7832C32.4183 28.1335 32.7013 28.4567 33.0159 28.7474C33.7473 28.2374 34.4109 27.7418 34.9467 27.3074C35.9103 26.5232 35.9163 25.793 35.6907 24.7502Z" fill="#6DAE5A"/>
<path fill-rule="evenodd" clip-rule="evenodd" d="M35.5186 24.5332C34.1776 23.8606 32.686 22.9042 31.8382 23.9782C31.362 24.4608 31.2158 25.1791 31.4656 25.8094L31.5856 26.7694C31.7264 27.1375 31.9249 27.4808 32.1736 27.7864C32.4202 28.1368 32.7032 28.46 33.0178 28.7506C32.3884 29.2378 32.2456 29.3386 32.2456 29.3386L29.5066 30.6712C28.036 31.5574 26.941 32.3092 25.774 32.6176C23.9872 33.0892 22.5694 31.7302 21.994 30.5524C21.8284 30.214 21.7066 28.6006 22.354 28.0606C23.3072 27.4733 24.3299 27.0073 25.3984 26.6734L30.8746 24.103C31.4335 23.6609 32.0715 23.3294 32.7544 23.1262C33.9715 22.9672 35.1576 23.5882 35.7202 24.679C35.6412 24.6494 35.5716 24.599 35.5186 24.5332Z" fill="#B1CD65"/>
<path fill-rule="evenodd" clip-rule="evenodd" d="M30.7877 28.6201C30.3959 27.7417 29.2931 26.5885 28.3637 25.3291C27.5934 25.6981 26.8448 26.1108 26.1215 26.5651C25.6559 26.7691 25.1015 26.9641 24.6377 27.1267C25.3691 28.0485 26.2065 28.881 27.1325 29.6071C27.909 30.3243 28.9356 30.7085 29.9921 30.6775C30.2677 30.5457 30.5306 30.3888 30.7775 30.2089C31.0582 29.7174 31.0621 29.1151 30.7877 28.6201Z" fill="#6FA03B"/>
<path fill-rule="evenodd" clip-rule="evenodd" d="M28.3637 25.3286L28.3493 25.3088C27.7613 24.5102 27.4019 23.6888 26.8409 22.8068C26.1209 21.6818 25.2089 20.222 24.4799 18.923C24.4145 18.9074 24.3527 18.7046 24.2927 18.5996C23.6477 20.1873 22.8756 21.7202 21.9839 23.1836C22.1439 23.4597 22.357 23.7013 22.6109 23.8946C23.159 24.9717 23.7916 26.0038 24.5027 26.981C24.5411 27.0308 24.5801 27.2012 24.6383 27.1256C25.1003 26.9636 25.6583 26.7656 26.1221 26.564C26.8452 26.1099 27.5936 25.6975 28.3637 25.3286Z" fill="#BAC447"/>
<path fill-rule="evenodd" clip-rule="evenodd" d="M24.2916 18.6014C24.6442 17.7627 24.8954 16.8849 25.0398 15.9866C25.149 15.065 24.7314 13.196 23.5044 12.4292C22.2373 11.7133 20.6517 11.9046 19.5912 12.9014C18.3966 14.0414 17.2728 16.4348 16.005 18.368C14.2946 21.0298 12.3477 23.5319 10.188 25.844C6.53523 29.8832 6.01143 29.018 5.23503 30.284C4.36743 31.5038 4.93503 33.1382 5.73423 34.055C7.05423 35.5712 8.77923 36.3548 10.503 35.8376C11.8542 35.4314 13.152 34.2422 14.481 32.9618C16.1647 31.3957 17.6794 29.6572 19.0002 27.7748C19.935 26.4278 21.0048 24.8348 21.9834 23.1824C23.0614 21.8315 23.8474 20.2717 24.2916 18.6014Z" fill="#48AFA9"/>
<path fill-rule="evenodd" clip-rule="evenodd" d="M23.1303 16.8517C22.2797 15.8653 20.8307 15.6602 19.7397 16.3717C19.1342 16.9484 18.9347 17.8325 19.2339 18.6133C20.0307 20.2051 20.95 21.7325 21.9837 23.1817C22.8754 21.7183 23.6475 20.1853 24.2925 18.5977C23.9801 17.9691 23.5897 17.3825 23.1303 16.8517Z" fill="#128E94"/>
</svg>
