<svg width="48" height="48" viewBox="0 0 48 48" fill="none" xmlns="http://www.w3.org/2000/svg">
<path fill-rule="evenodd" clip-rule="evenodd" d="M0 24C0 10.7452 10.7452 0 24 0C37.2548 0 48 10.7452 48 24C48 37.2548 37.2548 48 24 48C10.7452 48 0 37.2548 0 24Z" fill="#B93735"/>
<path d="M36.6595 21.8973H37.4017C37.4243 21.8981 37.4462 21.8899 37.4627 21.8744C37.4791 21.859 37.4887 21.8376 37.4893 21.8151V20.4825C37.4889 20.4597 37.4794 20.4381 37.4629 20.4223C37.4465 20.4066 37.4245 20.398 37.4017 20.3985H36.3595C35.1547 20.3985 34.5151 20.7657 34.1503 21.5463L31.8835 26.8335C31.7795 27.1388 31.4783 27.3317 31.1575 27.2985V20.4825C31.1569 20.4596 31.1472 20.4378 31.1305 20.4221C31.1139 20.4063 31.0917 20.3978 31.0687 20.3985H29.4037C29.3808 20.3978 29.3586 20.4063 29.3419 20.4221C29.3253 20.4378 29.3156 20.4596 29.3149 20.4825V28.6509C29.316 28.6911 29.3331 28.7293 29.3624 28.757C29.3916 28.7847 29.4307 28.7996 29.4709 28.7985H31.3387C32.5435 28.7985 33.0943 28.4307 33.4591 27.6525L35.6959 22.4325C35.86 22.0575 36.2545 21.8384 36.6595 21.8973Z" fill="white"/>
<path fill-rule="evenodd" clip-rule="evenodd" d="M17.5273 22.7559C17.5626 23.5703 17.0691 24.3147 16.3051 24.5991C17.0968 24.8118 17.6486 25.5276 17.6527 26.3475C17.6527 27.9903 16.3543 28.7961 14.5405 28.7961H9.6877C9.64054 28.7971 9.60141 28.7598 9.6001 28.7127V22.8273C9.60141 22.7801 9.64054 22.7428 9.6877 22.7439H11.4601C11.5073 22.7428 11.5464 22.7801 11.5477 22.8273V23.8173H14.2705C15.0109 23.8173 15.5107 23.3865 15.5107 22.8573C15.5107 22.3281 15.0109 21.8973 14.2705 21.8973H9.6877C9.64086 21.8986 9.60173 21.8619 9.6001 21.8151V20.4825C9.60057 20.4597 9.61007 20.4381 9.6265 20.4223C9.64292 20.4066 9.66494 20.398 9.6877 20.3985H14.6119C16.2073 20.3985 17.5273 21.2883 17.5273 22.7559ZM11.5479 27.3351H14.3649C15.1239 27.3351 15.6369 26.8941 15.6369 26.3505C15.6369 25.8069 15.1239 25.3653 14.3649 25.3653H11.5479V27.3351Z" fill="white"/>
<path d="M38.3838 28.7055L35.529 25.2255C35.526 25.2208 35.5206 25.2182 35.5151 25.2188C35.5096 25.2195 35.505 25.2232 35.5032 25.2285L34.7346 27.0183C34.7299 27.0292 34.7315 27.0418 34.7388 27.0513L35.9874 28.6467C36.0667 28.7516 36.1939 28.8092 36.3252 28.7997H38.3364C38.3597 28.8021 38.382 28.7898 38.3926 28.7689C38.4031 28.748 38.3996 28.7227 38.3838 28.7055Z" fill="white"/>
<path d="M20.7805 22.7461H19.1125C19.0653 22.7451 19.0262 22.7824 19.0249 22.8295V28.7149C19.0254 28.7376 19.0349 28.7592 19.0513 28.7749C19.0678 28.7905 19.0898 28.799 19.1125 28.7983H20.7805C20.8277 28.7993 20.8668 28.7621 20.8681 28.7149V22.8295C20.8668 22.7824 20.8277 22.7451 20.7805 22.7461Z" fill="white"/>
<path d="M27.639 20.3985H25.9746C25.9519 20.3981 25.93 20.4067 25.9136 20.4224C25.8973 20.4382 25.8879 20.4598 25.8876 20.4825V27.2985C25.5669 27.3321 25.2656 27.139 25.1622 26.8335L22.8948 21.5463C22.5306 20.7663 21.8904 20.3985 20.6856 20.3985H19.1154C19.0927 20.3981 19.0707 20.4066 19.0542 20.4224C19.0378 20.4381 19.0283 20.4598 19.0278 20.4825V21.8151C19.0285 21.8377 19.0381 21.8591 19.0545 21.8745C19.071 21.8899 19.0929 21.8982 19.1154 21.8973H20.3856C20.79 21.8387 21.1839 22.0568 21.3486 22.4307L23.5854 27.6507C23.9508 28.4307 24.501 28.7967 25.7064 28.7967H27.5748C27.6148 28.7977 27.6535 28.7827 27.6824 28.7549C27.7112 28.7272 27.7278 28.6891 27.7284 28.6491V20.4825C27.7281 20.4594 27.7184 20.4374 27.7016 20.4215C27.6847 20.4057 27.6621 20.3974 27.639 20.3985Z" fill="white"/>
</svg>
