<svg width="48" height="48" viewBox="0 0 48 48" fill="none" xmlns="http://www.w3.org/2000/svg">
<rect x="0.5" y="0.5" width="47" height="47" rx="23.5" stroke="#EBEFF5"/>
<path d="M31.9742 22.8405C29.2756 21.0069 25.8207 21.7536 24.0041 24.5109C23.5008 25.2973 22.8095 25.9461 21.9928 26.3986C21.176 26.8511 20.2595 27.0931 19.3258 27.1029C16.4362 27.1029 14.465 25.0762 13.8794 22.9707C13.873 22.9511 13.8677 22.9311 13.8634 22.9109C13.857 22.8875 13.8517 22.8651 13.8453 22.8405C13.6332 22.1182 13.536 21.367 13.5573 20.6144C13.5573 15.5937 18.7114 10.0022 26.1289 10.0022C33.7288 10.0022 38.0755 15.7878 39.2008 19.0027C39.1784 18.943 39.1603 18.8886 39.1421 18.832C37.9176 15.244 35.4587 12.2073 32.2037 10.2634C28.9487 8.31939 25.1092 7.59445 21.3695 8.21773C17.6298 8.84101 14.2329 10.772 11.7844 13.6666C9.33582 16.5611 7.99469 20.2311 8.00002 24.0224C8.00002 31.922 13.697 38.6825 21.602 38.6825C27.9028 38.6825 32.1395 35.1497 34.0819 30.2783C35.1486 27.6117 34.3934 24.4842 31.9753 22.8405" fill="#003964"/>
<path d="M39.2967 19.3139C38.3591 16.1758 33.9816 10.002 26.1267 10.002C18.7092 10.002 13.554 15.5934 13.554 20.6141C13.5331 21.3667 13.6306 22.1179 13.8431 22.8402C13.748 22.4672 13.6989 22.0839 13.697 21.6989C13.697 16.4723 18.9332 12.8457 24.3145 12.8457C26.0471 12.8454 27.7628 13.1864 29.3636 13.8493C30.9645 14.5121 32.419 15.4838 33.6443 16.7089C34.8695 17.9339 35.8415 19.3883 36.5046 20.9891C37.1677 22.5898 37.509 24.3054 37.509 26.0381C37.5108 28.7449 36.7572 31.3985 35.3332 33.7005C33.9092 36.0024 31.8711 37.8614 29.4483 39.0684C33.3093 37.6645 36.4838 34.8317 38.3165 31.1548C40.1492 27.4779 40.5001 23.2377 39.2967 19.3096" fill="#ED193A"/>
</svg>
