<svg width="48" height="48" viewBox="0 0 48 48" fill="none" xmlns="http://www.w3.org/2000/svg">
<rect width="48" height="47.9995" rx="23.9997" fill="#007461"/>
<path fill-rule="evenodd" clip-rule="evenodd" d="M37.2004 28.9191C37.2004 36.8 28.6804 37.0628 27.547 37.0628C27.466 37.0628 27.4978 37.0628 27.4978 37.0628V48.0001H24.1636V10.8281H27.4984C28.2784 10.8281 35.8984 11.4311 35.8984 18.6688C35.8966 22.048 34.2874 23.188 34.2874 23.188C34.2874 23.188 37.2004 24.3958 37.2004 28.9191ZM29.0522 23.4909C29.0522 23.4909 32.6372 22.0509 32.6372 18.6657C32.6372 15.3484 29.0522 14.2012 27.4976 14.2012V33.7442C27.4976 33.7442 33.6176 33.4442 33.6176 28.6178C33.6152 24.9987 29.0522 23.4909 29.0522 23.4909ZM21.5559 30.126C21.5559 34.5167 17.6451 37.0619 17.6451 37.0619H12.4299C12.4299 37.0619 17.9709 33.4427 17.9709 30.4272C17.9709 26.5068 10.8003 25.9038 10.8003 18.9673C10.8003 11.4284 18.2673 10.8008 20.7591 10.8008C21.2571 10.8008 21.5559 10.826 21.5559 10.826V14.2015C21.3526 14.1451 21.1422 14.1186 20.9313 14.1229C19.1859 14.1229 14.3859 14.5975 14.3859 18.9679C14.3853 23.4912 21.5559 24.2286 21.5559 30.126Z" fill="white"/>
</svg>
