<svg width="48" height="48" viewBox="0 0 48 48" fill="none" xmlns="http://www.w3.org/2000/svg">
<rect x="0.5" y="0.5" width="47" height="47" rx="23.5" stroke="#EBEFF5"/>
<path d="M7 23.4746C8.87226 26.7183 12.1055 29.5119 15.9515 30.2603C19.7984 31.0099 23.096 29.4798 23.096 29.4798C23.1784 29.4462 23.1554 29.3695 23.0638 29.3986C23.0638 29.3986 15.7006 31.5314 10.8946 23.9712C10.7265 23.7072 10.561 23.4746 10.1551 23.4746H7Z" fill="url(#paint0_linear_4150_13429)"/>
<path d="M29.663 23.8306C29.3805 24.2437 25.6136 31.0775 17.9429 30.9044C17.8396 30.9003 17.8497 31.0044 17.9429 31.0146C29.1504 32.3592 33.4919 23.4752 33.4919 23.4752H30.4371C30.4002 23.4752 30.3565 23.4727 30.3076 23.4727C30.1302 23.4727 29.8844 23.5083 29.663 23.8306Z" fill="url(#paint1_linear_4150_13429)"/>
<path d="M26.843 24.2551C26.8431 24.3333 26.8277 24.4109 26.7978 24.4832C26.7679 24.5556 26.724 24.6213 26.6686 24.6766C26.6132 24.7319 26.5474 24.7758 26.4751 24.8056C26.4027 24.8355 26.3251 24.8507 26.2469 24.8505H25.1089V18.42C25.1089 17.3948 25.529 17 26.5235 17H30.1261C31.0898 17 31.795 17.1892 32.2365 17.5776C32.6805 17.9648 32.9024 18.5774 32.9021 19.4156V19.7114C32.9021 20.5507 32.6805 21.0929 32.2365 21.4793C31.795 21.8658 31.0898 22.0561 30.1261 22.0581H27.4539C27.4539 22.0581 27.8899 20.6753 29.451 20.6753H30.0433C30.4186 20.6753 30.6779 20.5943 30.8654 20.4353C31.0738 20.2576 31.1743 19.8696 31.1743 19.5013C31.1743 19.1143 31.0636 18.8321 30.8421 18.6546C30.6181 18.4788 30.3801 18.3874 29.9063 18.3874L29.8934 18.3854H27.728C27.044 18.3854 26.843 18.6847 26.843 19.2709V24.2551Z" fill="#191878"/>
<path d="M34.2451 23.4695C34.1667 23.4694 34.0891 23.4846 34.0167 23.5145C33.9442 23.5443 33.8784 23.5881 33.8229 23.6434C33.7674 23.6987 33.7234 23.7644 33.6933 23.8368C33.6632 23.9091 33.6477 23.9867 33.6476 24.065V24.8505H38.2346C39.1881 24.8505 39.8882 24.6615 40.3323 24.2783C40.7768 23.8983 41 23.3307 41 22.5173C41 21.7154 40.8071 21.1422 40.4212 20.7978C40.0346 20.4554 39.3862 20.2837 38.476 20.2827H36.4945C36.1461 20.2827 35.8024 20.2114 35.6286 20.0674C35.4511 19.9238 35.2683 19.6912 35.2683 19.4223C35.2683 19.0625 35.3718 18.8013 35.5783 18.6363C35.7849 18.4713 36.0062 18.3842 36.4467 18.3842H40.0237C40.1819 18.3843 40.3337 18.3216 40.4457 18.2099C40.5577 18.0982 40.6208 17.9466 40.6212 17.7884V17H36.3074C35.3427 17 34.6388 17.1944 34.1957 17.5832C33.7526 17.9711 33.5298 18.558 33.5298 19.3983C33.5298 20.183 33.7431 20.757 34.1639 21.1213C34.5847 21.4857 35.2521 21.6669 36.1634 21.6669H38.0834C38.5127 21.6669 38.8166 21.7369 38.995 21.8771C39.1728 22.0168 39.2624 22.2494 39.2624 22.5801C39.2624 22.8964 39.1669 23.1242 38.9728 23.2637C38.7787 23.4032 38.4447 23.4695 37.9699 23.4695H34.2451Z" fill="#191878"/>
<path d="M22.9885 17C22.8303 17.0004 22.6788 17.0636 22.5671 17.1757C22.4555 17.2877 22.3929 17.4395 22.393 17.5976V22.5205L19.0048 17.5556C18.7942 17.1923 18.5211 17 18.1663 17H16.3696V24.8505L17.5064 24.8495C17.6643 24.8497 17.8158 24.7871 17.9276 24.6756C18.0394 24.5641 18.1024 24.4128 18.1027 24.2549V19.1158L18.1044 19.1178L21.6599 24.2979C21.6599 24.2979 22.0041 24.8505 22.537 24.8505H24.1259V17H22.9885Z" fill="#191878"/>
<defs>
<linearGradient id="paint0_linear_4150_13429" x1="23.3102" y1="30.6889" x2="6.35937" y2="24.5193" gradientUnits="userSpaceOnUse">
<stop stop-color="#FDD000"/>
<stop offset="0.74" stop-color="#EE7700"/>
<stop offset="1" stop-color="#EE7700"/>
</linearGradient>
<linearGradient id="paint1_linear_4150_13429" x1="34.4666" y1="24.4585" x2="17.4868" y2="30.6386" gradientUnits="userSpaceOnUse">
<stop stop-color="#C4D700"/>
<stop offset="0.01" stop-color="#C4D700"/>
<stop offset="0.12" stop-color="#C4D700"/>
<stop offset="0.74" stop-color="#00A73C"/>
<stop offset="1" stop-color="#007A41"/>
</linearGradient>
</defs>
</svg>
