<svg width="32" height="32" viewBox="0 0 32 32" fill="none" xmlns="http://www.w3.org/2000/svg">
<circle cx="16" cy="16" r="16" fill="#545045"/>
<mask id="mask0_3865_13003" style="mask-type:alpha" maskUnits="userSpaceOnUse" x="4" y="8" width="24" height="16">
<path fill-rule="evenodd" clip-rule="evenodd" d="M4.80005 8H27.1999V23.9568H4.80005V8Z" fill="white"/>
</mask>
<g mask="url(#mask0_3865_13003)">
<path fill-rule="evenodd" clip-rule="evenodd" d="M26.8389 16.1883L26.6438 16.0661C25.9839 15.4062 25.0646 15.1197 23.8344 15.1915C22.8096 15.255 21.9976 15.661 21.377 16.0381C21.377 16.0287 21.376 16.0194 21.376 16.0101C21.376 15.689 21.4134 15.3418 21.4498 15.003C21.4852 14.6595 21.5217 14.3105 21.5217 13.9801C21.5217 13.6431 21.4834 13.3239 21.3676 13.0505C21.3378 12.9795 21.2734 12.9385 21.1912 12.9385C20.8608 12.945 20.214 13.1718 20.0582 13.3099L19.9742 13.4957C19.9676 13.8625 19.8874 14.8854 19.8052 15.0086C19.809 15.0049 19.7623 15.1337 19.7623 15.1337C19.6232 16.5934 19.6195 17.8777 19.7483 18.9799C19.7632 19.091 19.9751 19.2571 20.1384 19.3169C20.3195 19.3831 20.8814 19.2329 21.2062 19.1106C21.2015 19.1115 21.3284 19.091 21.3284 19.091C21.4302 19.0798 21.4908 18.9939 21.4862 18.8763C21.4852 18.8745 21.4937 18.5599 21.4937 18.5599C21.7279 17.6079 22.6762 16.4711 23.7962 16.3013C24.4318 16.2005 24.9311 16.3629 25.3268 16.7931C25.381 16.8715 25.4958 17.5566 25.0777 18.3443C24.7668 18.9267 24.1443 19.4177 23.3267 19.7238C22.553 20.0187 21.6999 20.1373 20.648 20.1009C20.6042 20.0729 19.6634 19.4354 19.6634 19.4354C18.828 18.8493 17.792 18.1203 16.8522 17.7638C16.686 17.7003 16.3911 17.4539 16.2119 17.3074L16.1158 17.2281C15.5735 16.7922 14.5412 16.1053 13.7134 15.5537C13.7134 15.5537 13.3391 15.3026 13.2663 15.255C13.2682 15.2233 13.2682 15.1607 13.2682 15.1607C13.2915 15.1337 13.8123 14.8229 13.8123 14.8229C14.5412 14.3954 14.8782 14.1863 14.95 14.079C14.9342 14.0967 15.0462 14.0221 15.0462 14.0221C15.0527 14.0183 16.854 12.9991 16.854 12.9991C18.5872 12.0471 20.5528 10.9645 21.5851 9.89674C21.5851 9.89487 21.6355 9.73247 21.6355 9.73247L21.657 9.5878C21.7251 9.35914 21.7298 9.1846 21.6728 8.9802C21.657 8.92234 21.6047 8.85607 21.5319 8.843C20.7264 8.7618 19.6876 9.24527 18.7412 10.1338C18.5275 10.3345 18.3474 10.4315 18.1588 10.5351L18.0151 10.6154C16.9716 11.2081 14.6206 12.6678 13.3914 13.4527C13.4716 12.1302 13.7162 10.2495 14.0176 8.6806L13.984 8.493C13.9812 8.48647 13.8571 8.25594 13.8571 8.25594L13.761 8.08607L13.733 8.0786C13.4884 7.9554 13.2868 8.00487 13.1403 8.04127L12.8958 8.13274L12.5672 8.2522C12.5028 8.26434 12.4562 8.30447 12.431 8.36794C11.8439 9.78754 11.3539 12.1227 11.2372 13.9913C10.0631 13.2446 8.97858 12.707 8.44658 12.4475L8.43165 12.4391L8.36818 12.4261C8.17685 12.4018 7.94352 12.2599 7.71952 12.1246C7.69525 12.1097 7.27245 11.8343 7.27245 11.8343L6.59018 11.3985C6.59578 11.4022 6.41005 11.3574 6.41005 11.3574C6.11698 11.4078 5.55418 11.7849 5.38898 12.0425C5.36565 12.0779 5.35632 12.1143 5.35632 12.1526C5.35632 12.2067 5.37405 12.2618 5.38898 12.315L5.41792 12.4541L5.44965 12.5371C5.77818 12.8722 6.60232 13.4303 7.41152 13.8662L8.34858 14.3627L9.78498 15.1467C9.78498 15.1533 10.0295 15.3418 10.0295 15.3418L10.1984 15.4389C10.1984 15.4389 10.2171 15.4501 10.2292 15.4575C9.84658 15.7133 7.61778 17.201 7.61778 17.201L6.24485 18.111C6.11512 18.1997 5.57285 18.4423 5.45338 18.4909C5.15658 18.6122 4.93072 18.7979 4.83738 19.0005L4.80005 19.0789L4.83738 19.1311L4.94192 19.2105C4.93725 19.2105 5.08285 19.3029 5.08285 19.3029L5.23498 19.4065C5.23778 19.4083 5.37685 19.4298 5.37685 19.4298C5.61858 19.4391 5.97605 19.301 6.64432 19.0089C7.25845 18.7363 8.92632 17.7302 9.63845 17.3018L9.94272 17.1189C10.0696 17.1291 10.2078 17.0227 10.331 16.9294C10.4738 16.8155 10.7846 16.6251 10.974 16.5411C10.9806 16.5383 11.0879 16.4777 11.1906 16.4217C11.1896 16.4534 11.1887 16.5038 11.1887 16.5038C11.2214 18.685 11.3446 20.2698 11.5835 21.4925L11.5872 21.513L11.6106 21.5625C11.7291 21.7342 11.8616 22.2513 11.9792 22.7067L12.2518 23.6167C12.2574 23.6279 12.3274 23.7026 12.3274 23.7026C12.4832 23.8081 12.9564 23.9891 13.271 23.9518L13.3494 23.9425L13.4007 23.8314C13.4259 23.6951 13.4362 23.5617 13.4362 23.4151C13.4362 23.2481 13.4231 23.0651 13.4091 22.8402L13.3876 22.5126C13.2868 20.9903 13.1879 18.7914 13.1879 17.3298V17.2141C13.4464 17.3765 14.5776 18.0886 14.5776 18.0886C16.504 19.3383 19.4123 21.2246 21.1698 21.7239C21.2612 21.7519 21.3583 21.7305 21.4246 21.667C21.4283 21.6623 21.6952 21.4925 21.6952 21.4925L21.7456 21.4719C21.8464 21.4234 21.9146 21.2545 21.9267 21.0687C23.4079 20.995 25.4743 20.4247 26.5803 19.0341C27.0087 18.4946 27.2 17.8347 27.2 17.271C27.2 16.8071 27.0722 16.4077 26.8389 16.1883Z" fill="#FBAF17"/>
</g>
</svg>
