<svg width="48" height="48" viewBox="0 0 48 48" fill="none" xmlns="http://www.w3.org/2000/svg">
<path fill-rule="evenodd" clip-rule="evenodd" d="M0 24C0 10.7452 10.7452 0 24 0C37.2548 0 48 10.7452 48 24C48 37.2548 37.2548 48 24 48C10.7452 48 0 37.2548 0 24Z" fill="#545045"/>
<path fill-rule="evenodd" clip-rule="evenodd" d="M37.5357 25.4827C37.5357 25.4777 37.2934 25.2818 37.2934 25.2818C36.3506 24.4014 35.061 23.9934 33.7834 24.1713C32.6898 24.2635 31.6384 24.6358 30.7307 25.2525C30.7307 25.2404 30.7943 25.2283 30.7943 25.2169C30.7741 24.7891 30.7764 24.3604 30.8012 23.9328C30.8458 23.4953 31.0143 23.0495 31.0143 22.6278C30.9875 22.2149 30.8794 21.8114 30.6963 21.4404C30.6608 21.3511 30.5729 21.2938 30.4769 21.2973C29.9809 21.3713 29.5018 21.5316 29.0612 21.7711L28.9543 22.009C28.9494 22.6582 28.8791 23.3053 28.7445 23.9405C28.7489 23.9348 28.6904 24.0976 28.6904 24.0976C28.5173 25.7293 28.5116 27.3745 28.6732 29.0074C28.6917 29.1479 28.9575 29.3591 29.1617 29.436C29.621 29.4495 30.0774 29.3595 30.4972 29.1727C30.4922 29.1727 30.6492 29.1479 30.6492 29.1479C30.7119 29.1383 30.7681 29.1039 30.8053 29.0525C30.8424 29.0011 30.8575 28.937 30.847 28.8745C30.847 28.8713 30.8566 28.4693 30.8566 28.4693C31.1498 27.2552 32.3327 25.8058 33.7535 25.5883C34.4516 25.4353 35.1775 25.6767 35.6449 26.2173C35.7979 26.8917 35.6866 27.5991 35.3339 28.194C34.8404 29.025 34.0639 29.6505 33.1468 29.9556C32.0767 30.3463 30.937 30.5103 29.8002 30.4371C29.7455 30.4008 28.5696 29.6586 28.5696 29.6586C27.515 28.7536 26.3313 28.0109 25.0576 27.4549C24.7699 27.2924 24.502 27.0969 24.2595 26.8724L24.138 26.7706C23.4613 26.216 22.1722 25.3384 21.1374 24.635L20.5797 24.2534C20.5797 24.2139 20.5797 24.1338 20.5797 24.1338C20.6102 24.1001 21.2608 23.702 21.2608 23.702C21.7714 23.4456 22.2484 23.1271 22.681 22.7537C22.7067 22.7601 22.7339 22.7559 22.7565 22.7422C22.7792 22.7285 22.7955 22.7063 22.8018 22.6806C22.8101 22.6768 25.0589 21.3762 25.0589 21.3762C27.2257 20.1608 29.6806 18.7807 30.9691 17.4171L31.0327 17.2085L31.2026 17.0235C31.1466 16.7316 31.151 16.5083 31.0785 16.2495C31.2026 16.1751 30.9933 16.0898 30.9043 16.0733C29.5823 16.1871 28.345 16.7713 27.4172 17.7199C27.15 17.9743 26.9262 18.1015 26.785 18.2287L26.509 18.3317C25.2058 19.0885 22.2707 20.9494 20.7329 21.953C20.834 20.419 21.2557 18.0061 21.5165 15.8634L21.4745 15.6243C21.47 15.7019 21.3937 15.3216 21.3937 15.3216L21.1959 15.2478L21.1616 15.1549C20.9476 14.998 20.6694 14.9582 20.42 15.0487L20.1135 15.1645L19.7039 15.3158C19.6251 15.3312 19.5606 15.3875 19.5347 15.4634C18.754 17.7873 18.2534 20.1961 18.0433 22.6386C16.9196 21.9154 15.7553 21.2571 14.5562 20.667L14.5378 20.6562L14.4589 20.6391C14.2191 20.6276 14.0048 20.4279 13.648 20.2575C13.6175 20.239 13.1774 19.888 13.1774 19.888L12.2374 19.3302C12.2775 19.3359 12.0123 19.278 12.0123 19.278C11.518 19.4236 11.0876 19.7323 10.7912 20.1538C10.7323 20.1742 10.6938 20.2308 10.6964 20.2931C10.6955 20.3727 10.7303 20.4485 10.7912 20.4998L10.7727 20.6766L10.8128 20.8082C11.6134 21.4546 12.4802 22.0144 13.3987 22.4783L14.539 23.1143L16.2301 24.1077C16.2301 24.116 16.5354 24.3564 16.5354 24.3564L16.7466 24.4798C16.7872 24.4953 16.8303 24.5034 16.8738 24.504C16.3071 24.8309 13.5221 26.7299 13.5221 26.7299L11.8049 27.8912C11.6421 28.0038 10.9654 28.3135 10.816 28.4636C10.4842 28.5173 10.1981 28.7265 10.0464 29.0265L10 29.1276L10.0464 29.1944L10.1774 29.2961C10.1711 29.2961 10.353 29.5187 10.353 29.5187L10.5438 29.5454C10.5482 29.5454 10.7225 29.6427 10.7225 29.6427C11.0239 29.7013 11.4704 29.4958 12.3055 29.0373C13.0725 28.6907 15.156 27.4066 16.0463 26.8584L16.4279 26.6263C16.6115 26.6016 16.7816 26.5168 16.9119 26.3852C17.1625 26.1932 17.4318 26.027 17.7158 25.8891C17.7234 25.8891 17.8583 25.8103 17.9861 25.7378C17.9861 25.7778 17.9861 25.8414 17.9861 25.8414C17.9713 27.9732 18.1366 30.1024 18.4803 32.2064L18.4847 32.2331L18.514 32.2967C18.6602 32.6001 18.8269 33.1756 19.1086 33.7595L19.3147 34.9208C19.3223 35.0308 19.4107 35.0296 19.4107 35.0296C19.7655 35.2445 20.1738 35.3547 20.5886 35.3475L20.6865 35.3355L20.7501 35.1943C20.7823 35.0187 20.7975 34.8404 20.7953 34.662C20.7953 34.4495 20.78 34.2168 20.7615 33.9293L20.7348 33.5108C20.6076 31.5685 20.5943 28.7638 20.5943 26.8965V26.7484C20.8258 26.9551 22.2224 28 22.2224 28C24.6284 29.4589 28.2643 31.8668 30.4578 32.5028C30.5678 32.5583 30.7018 32.5269 30.7758 32.4284C30.779 32.4239 31.1135 32.207 31.1135 32.207L31.1771 32.1803C31.3502 32.052 31.4786 31.8724 31.5441 31.6671C33.2523 31.5717 35.8338 30.8441 37.2158 29.1944C37.7085 28.5197 37.9793 27.7084 37.9905 26.873C38.0427 26.3666 37.8787 25.8618 37.5389 25.4827" fill="#FEA400"/>
</svg>
