<svg width="48" height="48" viewBox="0 0 48 48" fill="none" xmlns="http://www.w3.org/2000/svg">
<mask id="mask0_4150_13255" style="mask-type:alpha" maskUnits="userSpaceOnUse" x="0" y="0" width="48" height="48">
<rect width="48" height="48" rx="24" fill="white"/>
</mask>
<g mask="url(#mask0_4150_13255)">
<rect x="0.000976562" width="47.9964" height="47.9994" fill="#006ABD"/>
<path d="M24.0868 8.27394C13.2651 8.20594 3.5922 15.012 0.000976562 25.2213V40.8295C0.214561 41.4499 0.432944 42.0691 0.695724 42.6727C4.54864 38.5388 13.5684 35.6228 24.0868 35.6228C34.6052 35.6228 43.6225 38.5388 47.485 42.6727C47.6806 42.2287 47.8306 41.7691 47.9974 41.3155V24.7305C44.2602 14.7783 34.7168 8.21003 24.0868 8.27394Z" fill="#006CBE"/>
<path d="M24.082 8.47918C13.242 8.40116 3.55704 15.2384 0.000976562 25.4794V40.6448C0.228959 41.318 0.472541 41.9876 0.75932 42.6404C4.59903 38.5388 13.5984 35.6468 24.0832 35.6468C34.568 35.6468 43.5697 38.54 47.4214 42.6404C47.641 42.1424 47.815 41.63 47.9986 41.12V25.0126C44.2995 15.0175 34.7388 8.4082 24.082 8.47918Z" fill="#006DBF"/>
<path d="M24.0808 8.70191C12.8016 8.70191 3.24553 15.8958 0.000976562 25.7513V40.4859C0.240959 41.2059 0.503739 41.9151 0.810916 42.6099C4.64343 38.5431 13.6164 35.6752 24.0796 35.6752C34.5428 35.6752 43.5181 38.5431 47.3578 42.6099C47.6014 42.0615 47.7982 41.4987 47.9974 40.9359V25.2929C44.3333 15.2629 34.7582 8.62065 24.0808 8.70191Z" fill="#006FC0"/>
<path d="M24.076 8.90918C12.756 8.90918 3.18074 16.1487 0.000976562 26.0234V40.308C0.251291 41.079 0.541664 41.8364 0.870911 42.5772C4.68783 38.5452 13.6404 35.7012 24.076 35.7012C34.5116 35.7012 43.4629 38.5452 47.2942 42.5772C47.5618 41.9772 47.785 41.3628 47.9986 40.7448V25.5698C44.6694 15.9303 35.2207 8.90918 24.076 8.90918Z" fill="#0071C2"/>
<path d="M24.076 9.12402C12.7056 9.12402 3.10394 16.4343 0.000976562 26.3438V40.0896C0.262029 40.9265 0.570505 41.7478 0.924907 42.5496C4.73822 38.5501 13.6656 35.7289 24.0748 35.7289C34.484 35.7289 43.4113 38.5489 47.233 42.5496C47.5234 41.9028 47.773 41.2404 47.9974 40.5696V25.8398C44.7282 16.1871 35.2537 9.12402 24.076 9.12402Z" fill="#0073C3"/>
<path d="M24.076 9.33691C12.6588 9.33691 3.02715 16.7168 0.000976562 26.6575V39.8609C0.272083 40.7661 0.599497 41.6534 0.981303 42.5177C4.77782 38.5517 13.6883 35.7534 24.07 35.7534C34.4516 35.7534 43.3561 38.5517 47.1682 42.5177C47.4812 41.8207 47.7583 41.1082 47.9986 40.3829V26.1187C44.7954 16.448 35.2885 9.33691 24.076 9.33691Z" fill="#0075C4"/>
<path d="M24.0695 9.54492C12.596 9.54492 2.94511 16.998 0.00292969 26.9675V39.6357C0.283011 40.607 0.628987 41.558 1.03845 42.4821C4.83257 38.5534 13.7143 35.7802 24.0683 35.7802C34.4223 35.7802 43.3041 38.5534 47.1066 42.4869C47.4482 41.7322 47.7462 40.9585 47.9993 40.1697V26.4299C44.8724 16.7232 35.3379 9.54492 24.0695 9.54492Z" fill="#0076C6"/>
<path d="M24.0616 9.75977C12.5341 9.75977 2.8604 17.2753 0.00341797 27.2759V39.421C0.291222 40.4575 0.654773 41.4714 1.09114 42.4546C4.87805 38.5546 13.7358 35.8066 24.0658 35.8066C34.385 35.8066 43.2536 38.557 47.0441 42.4546C47.4144 41.6329 47.733 40.7888 47.998 39.9274V26.766C44.9574 17.0197 35.3954 9.75977 24.0616 9.75977Z" fill="#0078C7"/>
<path d="M24.0628 9.97656C12.4788 9.97656 2.76797 17.5713 0.000976562 27.6091V39.189C0.29876 40.2966 0.68394 41.3787 1.15289 42.4254C4.92541 38.559 13.7615 35.8338 24.0616 35.8338C34.3616 35.8338 43.2001 38.559 46.9799 42.4254C47.3824 41.5346 47.7232 40.6173 47.9998 39.6798V27.1075C45.0474 17.3169 35.4547 9.97656 24.0628 9.97656Z" fill="#007AC8"/>
<path d="M24.0582 10.1895C12.4191 10.1895 2.6806 17.8514 0 27.9168V38.9723C0.3041 40.1446 0.707943 41.2888 1.20711 42.3923C4.97003 38.5583 13.7822 35.8583 24.0558 35.8583C34.3294 35.8583 43.1416 38.5583 46.9141 42.3923C47.349 41.4316 47.7112 40.4396 47.9976 39.4247V27.4536C45.1448 17.6162 35.5173 10.1895 24.0582 10.1895Z" fill="#007CC9"/>
<path d="M24.0582 10.4072C12.3747 10.4072 2.59781 18.1267 0 28.2078V38.7785C0.311016 40.0092 0.732702 41.2093 1.25991 42.364C5.01922 38.5649 13.8086 35.8877 24.0582 35.8877C34.3078 35.8877 43.0948 38.5649 46.8565 42.3676C47.3224 41.345 47.7049 40.2864 48 39.2021V27.7794C45.2348 17.9083 35.5743 10.4072 24.0582 10.4072Z" fill="#007ECB"/>
<path d="M24.0508 10.6152C12.3109 10.6152 2.50039 18.4115 0.000976562 28.5238V38.5509C0.317574 39.8506 0.759615 41.1165 1.32088 42.3308C5.0658 38.5677 13.8323 35.9109 24.052 35.9109C34.2716 35.9109 43.0382 38.5653 46.7867 42.3308C47.288 41.239 47.6931 40.1055 47.9974 38.9433V28.1206C45.3378 18.2039 35.6347 10.6152 24.0508 10.6152Z" fill="#0080CC"/>
<path d="M24.0532 10.8281C12.2497 10.8281 2.3948 18.7024 0.000976562 28.8507V38.3198C0.322303 39.691 0.784734 41.0253 1.38087 42.3013C5.11139 38.5706 13.8551 35.9414 24.0472 35.9414C34.2392 35.9414 42.9842 38.5694 46.7255 42.3013C47.2594 41.152 47.6844 39.9552 47.995 38.7266V28.4331C45.4314 18.49 35.6929 10.8281 24.0532 10.8281Z" fill="#0082CD"/>
<path d="M24.046 11.043C12.1909 11.043 2.2988 18.9833 0.000976562 29.1495V38.1134C0.328033 39.5473 0.810865 40.9412 1.44087 42.2702C5.16059 38.573 13.8815 35.9703 24.046 35.9703C34.2104 35.9703 42.9326 38.5754 46.6643 42.2738C47.2347 41.0573 47.6811 39.7865 47.9968 38.4806V28.7727C45.5394 18.7889 35.7535 11.043 24.046 11.043Z" fill="#0084CE"/>
<path d="M24.046 11.2588C12.0865 11.2588 2.14402 19.3431 0.000976562 29.5874V37.7941C0.321335 39.3305 0.82322 40.8233 1.49606 42.2412C5.20739 38.5764 13.9031 35.9941 24.0424 35.9941C34.172 35.9941 42.881 38.574 46.6007 42.2412C47.2075 40.9695 47.6758 39.6363 47.9974 38.2645V29.0846C45.639 19.0731 35.8123 11.2588 24.046 11.2588Z" fill="#0086CF"/>
<path d="M24.04 11.4688C11.9809 11.4688 1.98683 19.6886 0.000976562 30.0085V37.4616C0.311713 39.1046 0.832341 40.7009 1.55006 42.2112C5.25418 38.5788 13.9295 36.0204 24.04 36.0204C34.1504 36.0204 42.8258 38.5788 46.5347 42.2112C47.1828 40.8653 47.6736 39.4491 47.9974 37.9908V29.4709C45.7721 19.4031 35.8885 11.4688 24.04 11.4688Z" fill="#0088D1"/>
<path d="M24.0412 11.6797C11.8729 11.6797 1.80924 20.0568 0.000976562 30.4595V37.1014C0.298825 38.8608 0.840815 40.5701 1.61126 42.1797C5.30098 38.5798 13.9523 36.0466 24.0364 36.0466C34.1204 36.0466 42.7718 38.5822 46.4747 42.1797C47.1715 40.7313 47.6831 39.2009 47.9974 37.6246V29.9315C45.9437 19.7712 36.0025 11.6797 24.0412 11.6797Z" fill="#008AD2"/>
<path d="M24.0352 11.8945C11.7589 11.8945 1.63525 20.4144 0.000976562 30.8903V36.7702C0.284756 38.635 0.845291 40.4469 1.66405 42.1462C5.34778 38.581 13.9763 36.0706 24.034 36.0706C34.0808 36.0706 42.7214 38.581 46.4123 42.1462C47.1636 40.5889 47.6978 38.9359 47.9998 37.2334V30.4103C46.1321 20.154 36.1249 11.8945 24.0352 11.8945Z" fill="#008DD3"/>
<path d="M24.0304 12.1074C11.6497 12.1074 1.45767 20.7665 0.000976562 31.3072V36.4431C0.268789 38.4153 0.850503 40.3319 1.72405 42.1202C5.39577 38.5875 14.0003 36.1011 24.0304 36.1011C34.0496 36.1011 42.6674 38.5875 46.3487 42.1202C47.1556 40.4613 47.7113 38.6916 47.9974 36.8691V30.8788C46.3241 20.5331 36.2425 12.1074 24.0304 12.1074Z" fill="#008FD4"/>
<path d="M24.0292 12.3203C11.5393 12.3203 1.26448 21.1294 0.000976562 31.7385V36.1052C0.248673 38.1861 0.85051 40.2092 1.78044 42.0871C5.44017 38.588 14.0243 36.1256 24.0268 36.1256C34.0184 36.1256 42.6122 38.5856 46.2803 42.0871C47.1486 40.3255 47.7284 38.4359 47.9974 36.4904V31.3389C46.5245 20.9098 36.3613 12.3203 24.0292 12.3203Z" fill="#0091D5"/>
<path d="M24.0268 12.5352C11.1925 12.5352 0.731722 21.8398 0.000976562 32.7729V35.1945C0.153257 37.5809 0.777246 39.9135 1.83684 42.0572C5.48817 38.594 14.0483 36.1533 24.0232 36.1533C33.9824 36.1533 42.5618 38.594 46.2215 42.0572C47.1479 40.2036 47.7486 38.2045 47.9974 36.1473V31.7871C46.7249 21.2818 36.4752 12.5352 24.0268 12.5352Z" fill="#0093D7"/>
<path d="M24.0208 12.7461C10.8218 12.7461 0.117368 22.586 0.000976562 33.8478V34.2138C0.0276664 36.9281 0.674064 39.6005 1.89083 42.0269C5.53616 38.5962 14.0699 36.1806 24.0208 36.1806C33.9584 36.1806 42.5078 38.5962 46.1555 42.0269C47.229 39.8768 47.8553 37.5314 47.9968 35.1324V32.9124C47.3152 22.0448 36.8532 12.7461 24.0208 12.7461Z" fill="#0096D8"/>
<path d="M24.0176 36.206C33.9265 36.206 42.4543 38.5988 46.096 41.9947C47.3427 39.5406 47.9943 36.8275 47.9978 34.0748C47.9978 22.843 37.2587 12.9551 24.0224 12.9551C10.7862 12.9551 0.0566406 22.843 0.0566406 34.0748C0.058824 36.8271 0.708697 39.5402 1.9537 41.9947C5.58343 38.5964 14.0968 36.206 24.0176 36.206Z" fill="#0098D9"/>
<path d="M24.0138 36.2318C33.8951 36.2318 42.4001 38.5993 46.0274 41.9641C47.2703 39.5379 47.9208 36.8518 47.9257 34.1258C47.9257 23.0031 37.2153 13.1729 24.015 13.1729C10.8148 13.1729 0.115234 23.0055 0.115234 34.1258C0.117704 36.8513 0.765751 39.5374 2.00629 41.9641C5.62882 38.5993 14.1194 36.2318 24.0138 36.2318Z" fill="#009ADA"/>
<path d="M24.0126 36.2596C33.8663 36.2596 42.3484 38.6032 45.971 41.9344C47.2094 39.5352 47.8581 36.8753 47.8632 34.1753C47.8632 23.163 37.184 13.3867 24.0174 13.3867C10.8508 13.3867 0.17041 23.1666 0.17041 34.1729C0.174159 36.8723 0.820752 39.5321 2.05667 41.932C5.6756 38.6032 14.1446 36.2596 24.0126 36.2596Z" fill="#009DDB"/>
<path d="M24.0077 36.2853C33.8326 36.2853 42.2932 38.6049 45.9001 41.9025C47.1345 39.5303 47.7817 36.8967 47.7876 34.2226C47.7876 23.3207 37.1372 13.5996 24.0077 13.5996C10.8783 13.5996 0.236328 23.3195 0.236328 34.2226C0.240057 36.8962 0.885274 39.5299 2.11779 41.9025C5.72352 38.6049 14.1685 36.2853 24.0077 36.2853Z" fill="#009FDD"/>
<path d="M24.0041 36.3139C33.8026 36.3139 42.2427 38.6094 45.8425 41.8734C47.0734 39.5277 47.7193 36.9193 47.7251 34.2703C47.7251 23.48 37.1059 13.8105 24.0089 13.8105C10.9119 13.8105 0.304688 23.4764 0.304688 34.2703C0.309765 36.9169 0.952675 39.5233 2.17895 41.8686C5.77028 38.6094 14.1912 36.3139 24.0041 36.3139Z" fill="#00A2DE"/>
<path d="M24.003 36.3381C33.7738 36.3381 42.1888 38.6097 45.7765 41.8413C47.0029 39.5217 47.647 36.9388 47.6532 34.315C47.6532 23.6351 37.0628 14.0244 24.003 14.0244C10.9432 14.0244 0.364746 23.6351 0.364746 34.315C0.369186 36.9381 1.01073 39.5209 2.23421 41.8413C5.81714 38.6109 14.2165 36.3381 24.003 36.3381Z" fill="#00A4DF"/>
<path d="M23.9995 36.3641C33.7427 36.3641 42.1349 38.6128 45.7178 41.8096C46.9405 39.5173 47.5836 36.9605 47.5909 34.3625C47.5909 23.7918 37.0317 14.2363 24.0055 14.2363C10.9793 14.2363 0.427246 23.793 0.427246 34.3625C0.432222 36.9599 1.07281 39.5167 2.29311 41.8096C5.86884 38.6152 14.2394 36.3641 23.9995 36.3641Z" fill="#00A7E0"/>
<path d="M23.9947 36.3927C33.714 36.3927 42.081 38.6174 45.6471 41.7794C46.8662 39.5144 47.5079 36.9837 47.5154 34.4115C47.5154 23.9512 36.9826 14.4521 23.9971 14.4521C11.0117 14.4521 0.487305 23.9512 0.487305 34.4115C0.491904 36.9831 1.13073 39.5138 2.34717 41.7794C5.9109 38.6174 14.2635 36.3927 23.9947 36.3927Z" fill="#00A9E1"/>
<path d="M23.9934 36.4207C33.6815 36.4207 42.0292 38.6215 45.5918 41.751C46.8038 39.5115 47.4416 37.0064 47.448 34.4599C47.448 24.11 36.9452 14.6602 23.9934 14.6602C11.0416 14.6602 0.54834 24.1052 0.54834 34.4599C0.554306 37.0059 1.19169 39.5107 2.4034 41.7498C5.95873 38.6203 14.2873 36.4207 23.9934 36.4207Z" fill="#10ACE3"/>
<path d="M23.9932 36.4795C33.6681 36.4795 42.0051 38.6671 45.5568 41.775C46.7689 39.5531 47.4081 37.0642 47.4167 34.5331C47.4167 24.2505 36.927 14.8594 23.9944 14.8594C11.0618 14.8594 0.580566 24.2493 0.580566 34.5331C0.586842 37.0635 1.22358 39.5525 2.43323 41.775C5.98256 38.6671 14.3003 36.4795 23.9932 36.4795Z" fill="#23AEE4"/>
<path d="M23.9923 36.5411C33.6564 36.5411 41.979 38.7143 45.5259 41.803C46.7373 39.596 47.3767 37.1207 47.3858 34.6031C47.3858 24.3876 36.9094 15.0518 23.9947 15.0518C11.0801 15.0518 0.613281 24.3888 0.613281 34.6031C0.618367 37.1199 1.25409 39.5953 2.46234 41.803C6.00808 38.7131 14.3163 36.5411 23.9923 36.5411Z" fill="#31B1E5"/>
<path d="M23.9936 36.6013C33.6433 36.6013 41.9562 38.7613 45.4984 41.8273C46.7052 39.6378 47.3427 37.1802 47.3522 34.6802C47.3522 24.5331 36.8902 15.25 23.9948 15.25C11.0993 15.25 0.644531 24.5343 0.644531 34.6802C0.650412 37.1798 1.28548 39.6377 2.49119 41.8273C6.02973 38.7553 14.3283 36.6013 23.9936 36.6013Z" fill="#3CB4E6"/>
<path d="M23.9935 36.6642C33.6323 36.6642 41.9321 38.8074 45.4718 41.8553C46.6766 39.6825 47.3134 37.2407 47.3233 34.7562C47.3233 24.6764 36.8757 15.4473 23.9971 15.4473C11.1184 15.4473 0.679199 24.6775 0.679199 34.7562C0.68558 37.2401 1.31956 39.6821 2.52226 41.8553C6.056 38.8056 14.3414 36.6642 23.9935 36.6642Z" fill="#46B6E7"/>
<path d="M23.9935 36.7235C33.6179 36.7235 41.9069 38.8522 45.4395 41.8834C46.6426 39.727 47.2788 37.3005 47.2885 34.8311C47.2885 24.8184 36.8493 15.6445 23.9947 15.6445C11.14 15.6445 0.708008 24.8196 0.708008 34.8311C0.714825 37.2998 1.34816 39.7263 2.54867 41.8834C6.0788 38.8534 14.3558 36.7235 23.9935 36.7235Z" fill="#4FB9E8"/>
<path d="M23.9933 36.7851C33.607 36.7851 41.8828 38.8994 45.4117 41.9066C46.6117 39.7668 47.2472 37.3568 47.2584 34.9035C47.2584 24.9568 36.8384 15.8369 23.9957 15.8369C11.1531 15.8369 0.742676 24.9568 0.742676 34.9035C0.74878 37.3562 1.38111 39.7667 2.57974 41.9066C6.10387 38.8976 14.3701 36.7851 23.9933 36.7851Z" fill="#58BCE9"/>
<path d="M23.9933 36.8463C33.5926 36.8463 41.8576 38.9462 45.3805 41.9342C46.5791 39.8095 47.2134 37.4132 47.223 34.9737C47.223 25.0942 36.8174 16.0283 23.9939 16.0283C11.1705 16.0283 0.771484 25.0972 0.771484 34.9737C0.777884 37.4124 1.40956 39.8087 2.60615 41.9336C6.12788 38.9462 14.3821 36.8463 23.9933 36.8463Z" fill="#60BFEA"/>
<path d="M23.9915 36.9067C33.58 36.9067 41.8317 38.9922 45.3499 41.9598C46.5448 39.8526 47.1786 37.4739 47.1905 35.0515C47.1905 25.2392 36.7981 16.2285 23.9927 16.2285C11.1872 16.2285 0.803223 25.2416 0.803223 35.0515C0.810188 37.4733 1.4408 39.8525 2.63429 41.9598C6.15182 38.9958 14.3964 36.9067 23.9915 36.9067Z" fill="#68C1EB"/>
<path d="M23.9947 36.9707C33.57 36.9707 41.8086 39.0431 45.3219 41.9891C46.5147 39.8981 47.1479 37.5348 47.1602 35.1275C47.1602 25.3837 36.7809 16.4258 23.9947 16.4258C11.2084 16.4258 0.836426 25.3873 0.836426 35.1275C0.843797 37.5342 1.47377 39.898 2.66509 41.9891C6.17723 39.0407 14.408 36.9707 23.9947 36.9707Z" fill="#70C4EC"/>
<path d="M23.9996 37.0292C33.5617 37.0292 41.7895 39.0847 45.298 42.0091C46.4882 39.9351 47.1204 37.588 47.1327 35.1968C47.1327 25.5201 36.7691 16.6162 23.9996 16.6162C11.2302 16.6162 0.872559 25.5225 0.872559 35.1968C0.880385 37.5873 1.50929 39.9348 2.69762 42.0091C6.20016 39.0847 14.4261 37.0292 23.9996 37.0292Z" fill="#78C7ED"/>
<path d="M23.9909 37.0894C33.541 37.0894 41.7568 39.1294 45.2581 42.0381C46.4467 39.9806 47.0787 37.6488 47.0916 35.2726C47.0916 25.6631 36.7423 16.8145 23.9933 16.8145C11.2442 16.8145 0.89502 25.6679 0.89502 35.2726C0.903143 37.648 1.53143 39.9802 2.71768 42.0381C6.22382 39.1318 14.4366 37.0894 23.9909 37.0894Z" fill="#80CAEE"/>
<path d="M23.9938 37.151C33.533 37.151 41.7344 39.179 45.2322 42.0637C46.4193 40.0223 47.0506 37.7053 47.0632 35.3438C47.0632 25.8039 36.726 17.0068 23.9938 17.0068C11.2615 17.0068 0.929688 25.8027 0.929688 35.3426C0.937558 37.7033 1.56525 40.0206 2.74995 42.0625C6.24769 39.179 14.4503 37.151 23.9938 37.151Z" fill="#87CDEF"/>
<path d="M23.9958 37.2117C33.5206 37.2117 41.7112 39.2241 45.2042 42.0896C46.3877 40.0652 47.0179 37.7651 47.0316 35.4201C47.0316 25.9402 36.7124 17.2031 23.9934 17.2031C11.2743 17.2031 0.955078 25.9486 0.955078 35.4201C0.962976 37.764 1.58833 40.0644 2.76814 42.0896C6.27188 39.2241 14.4637 37.2117 23.9958 37.2117Z" fill="#8ED0F0"/>
<path d="M23.9942 37.2687C33.5059 37.2687 41.6869 39.2679 45.1727 42.1118C46.3534 40.1039 46.983 37.8197 46.9977 35.4903C46.9977 26.0812 36.6893 17.3945 23.993 17.3945C11.2968 17.3945 0.993164 26.0872 0.993164 35.4903C1.0018 37.8191 1.62783 40.1039 2.80743 42.1118C6.29797 39.2727 14.4778 37.2687 23.9942 37.2687Z" fill="#95D2F1"/>
<path d="M23.9948 37.3321C33.4933 37.3321 41.6611 39.3181 45.1432 42.1416C46.3222 40.1505 46.9516 37.8821 46.9671 35.5681C46.9671 26.2274 36.6718 17.5947 23.9948 17.5947C11.3177 17.5947 1.0249 26.2346 1.0249 35.5681C1.03587 37.8814 1.66293 40.1499 2.84157 42.1404C6.32131 39.3181 14.4903 37.3321 23.9948 37.3321Z" fill="#9CD5F2"/>
<path d="M23.998 37.3952C33.4845 37.3952 41.6367 39.3655 45.1164 42.1699C46.293 40.1946 46.9214 37.9412 46.9367 35.642C46.9367 26.3685 36.6559 17.791 23.9968 17.791C11.3378 17.791 1.06055 26.3709 1.06055 35.642C1.06938 37.9404 1.69378 40.1945 2.86881 42.1699C6.34615 39.3655 14.5043 37.3952 23.998 37.3952Z" fill="#A3D8F3"/>
<path d="M23.9944 37.4561C33.4737 37.4561 41.6115 39.4121 45.0853 42.196C46.2599 40.2376 46.8873 37.9998 46.9019 35.7161C46.9019 26.5098 36.6355 17.9863 23.9944 17.9863C11.3534 17.9863 1.08936 26.5146 1.08936 35.7161C1.09657 37.9985 1.71829 40.2369 2.88922 42.196C6.36896 39.4121 14.5175 37.4561 23.9944 37.4561Z" fill="#AADBF4"/>
<path d="M23.996 37.517C33.4584 37.517 41.589 39.4598 45.058 42.2221C46.2289 40.2803 46.8552 38.0589 46.871 35.7914C46.871 26.6523 36.6202 18.1816 23.996 18.1816C11.3717 18.1816 1.12207 26.6583 1.12207 35.7914C1.13026 38.0582 1.75224 40.2805 2.92194 42.2221C6.39148 39.4586 14.5323 37.517 23.996 37.517Z" fill="#B0DEF5"/>
<path d="M23.9955 37.5779C33.4436 37.5779 41.5634 39.5051 45.0263 42.2483C46.195 40.3231 46.821 38.1176 46.8382 35.8655C46.8382 26.7924 36.5994 18.377 23.9955 18.377C11.3917 18.377 1.15283 26.7984 1.15283 35.8655C1.16277 38.117 1.78493 40.3233 2.9527 42.2483C6.41684 39.5075 14.545 37.5779 23.9955 37.5779Z" fill="#B7E0F6"/>
<path d="M23.9972 37.6386C33.4345 37.6386 41.5399 39.5586 44.9956 42.2753C46.162 40.3665 46.787 38.1763 46.8039 35.9394C46.8039 26.9395 36.5807 18.5732 23.9936 18.5732C11.4066 18.5732 1.18213 26.9419 1.18213 35.9394C1.19305 38.176 1.81546 40.3671 2.98199 42.2753C6.44253 39.5526 14.5623 37.6386 23.9972 37.6386Z" fill="#BDE3F7"/>
<path d="M23.9959 37.6988C33.42 37.6988 41.5146 39.5971 44.968 42.2983C46.1321 40.4067 46.7566 38.2327 46.7738 36.0116C46.7738 27.0717 36.5638 18.7666 23.9959 18.7666C11.4281 18.7666 1.21924 27.0813 1.21924 36.0116C1.22878 38.2321 1.84941 40.4072 3.0131 42.2983C6.46644 39.5971 14.573 37.6988 23.9959 37.6988Z" fill="#C3E6F8"/>
<path d="M23.9971 37.7607C33.4092 37.7607 41.4906 39.6446 44.9403 42.3266C46.1006 40.4508 46.7232 38.2923 46.7402 36.0867C46.7402 27.2164 36.541 18.9629 23.9935 18.9629C11.446 18.9629 1.24561 27.2236 1.24561 36.0867C1.25578 38.2919 1.87535 40.4514 3.03587 42.3266C6.49041 39.6464 14.5862 37.7607 23.9971 37.7607Z" fill="#CAE8F9"/>
<path d="M23.9958 37.8216C33.3947 37.8216 41.4653 39.6911 44.909 42.3515C46.068 40.4928 46.6909 38.35 46.7089 36.1596C46.7089 27.3565 36.5264 19.1582 23.9946 19.1582C11.4447 19.1582 1.28027 27.3649 1.28027 36.1596C1.29017 38.3493 1.90877 40.4932 3.06694 42.3515C6.51428 39.6899 14.5993 37.8216 23.9958 37.8216Z" fill="#D0EBF9"/>
<path d="M23.997 37.8815C33.3839 37.8815 41.4425 39.7367 44.8814 42.3767C46.0385 40.5348 46.6616 38.4078 46.6813 36.2327C46.6813 27.498 36.5133 19.3525 24.003 19.3525C11.4699 19.3525 1.32471 27.5052 1.32471 36.2327C1.33551 38.4069 1.95349 40.5349 3.10897 42.3767C6.53832 39.7379 14.6137 37.8815 23.997 37.8815Z" fill="#D6EEFA"/>
<path d="M24.0016 37.9434C33.3765 37.9434 41.4219 39.7842 44.856 42.4049C46.0118 40.5802 46.6352 38.4689 46.6559 36.309C46.6559 27.6391 36.5023 19.5488 24.0052 19.5488C11.4889 19.5488 1.35449 27.6487 1.35449 36.309C1.3652 38.4677 1.9822 40.58 3.13516 42.4049C6.5621 39.7854 14.6267 37.9434 24.0016 37.9434Z" fill="#DCF0FB"/>
<path d="M23.9948 38.0041C33.3541 38.0041 41.3935 39.8305 44.8192 42.4308C45.9709 40.6223 46.5924 38.527 46.6131 36.3829C46.6131 27.7826 36.4738 19.7451 23.9948 19.7451C11.4953 19.7451 1.37646 27.785 1.37646 36.3829C1.38808 38.5261 2.00447 40.6225 3.15473 42.4308C6.58647 39.8317 14.6355 38.0041 23.9948 38.0041Z" fill="#E2F3FC"/>
<path d="M23.9972 38.0667C33.3457 38.0667 41.3671 39.8787 44.7929 42.4587C45.9408 40.6664 46.5613 38.5871 46.5831 36.4588C46.5831 27.9257 36.4559 19.9434 23.9972 19.9434C11.5182 19.9434 1.40771 27.9341 1.40771 36.4588C1.41961 38.5865 2.03546 40.6672 3.18358 42.4587C6.61052 39.8787 14.6535 38.0667 23.9972 38.0667Z" fill="#E8F5FD"/>
<path d="M23.9984 38.1249C33.3337 38.1249 41.3443 39.9249 44.764 42.4833C45.9098 40.7075 46.5292 38.6435 46.5507 36.5302C46.5507 28.0631 36.4379 20.1348 23.9924 20.1348C11.5265 20.1348 1.43408 28.0727 1.43408 36.5302C1.4453 38.6429 2.06022 40.7084 3.20635 42.4833C6.63569 39.9237 14.6679 38.1249 23.9984 38.1249Z" fill="#EEF8FD"/>
<path d="M23.9971 38.1863C33.3216 38.1863 41.319 39.9695 44.7327 42.5062C45.8772 40.7477 46.4965 38.6992 46.5182 36.6011C46.5182 28.2012 36.4198 20.3281 23.9971 20.3281C11.548 20.3281 1.47119 28.212 1.47119 36.6011C1.48315 38.6984 2.09748 40.7481 3.24106 42.5062C6.6584 39.9695 14.681 38.1863 23.9971 38.1863Z" fill="#F4FAFE"/>
<path d="M23.9979 38.2475C33.3092 38.2475 41.2946 40.0175 44.7048 42.5351C45.8456 40.7928 46.4639 38.7604 46.4866 36.6779C46.4866 28.3464 36.4074 20.5273 23.9979 20.5273C11.5668 20.5273 1.50439 28.3584 1.50439 36.6779C1.51635 38.7598 2.12972 40.7938 3.27066 42.5351C6.68441 40.0175 14.695 38.2475 23.9979 38.2475Z" fill="#FAFDFE"/>
<path d="M23.9972 38.3096C33.2966 38.3096 41.276 40.064 44.6753 42.5624C45.8133 40.8363 46.431 38.8194 46.4548 36.7521C46.4548 28.4878 36.3839 20.7227 23.9972 20.7227C11.5818 20.7227 1.53613 28.4986 1.53613 36.7521C1.54806 38.8188 2.16046 40.8374 3.2988 42.5624C6.70654 40.064 14.7075 38.3096 23.9972 38.3096Z" fill="white"/>
<path d="M47.9969 34.4479C32.5062 28.7428 15.4895 28.7453 0.000488281 34.4551V48.0005H47.9969V34.4479Z" fill="#006ABD"/>
</g>
</svg>
