<svg width="48" height="48" viewBox="0 0 48 48" fill="none" xmlns="http://www.w3.org/2000/svg">
<path fill-rule="evenodd" clip-rule="evenodd" d="M0 24C0 10.7452 10.7452 0 24 0C37.2548 0 48 10.7452 48 24C48 37.2548 37.2548 48 24 48C10.7452 48 0 37.2548 0 24Z" fill="#FAE100"/>
<path fill-rule="evenodd" clip-rule="evenodd" d="M31.5002 23.9991C33.3524 22.8285 34.1654 20.9499 34.1654 18.6657C34.1684 16.8969 33.4672 15.1997 32.2166 13.9488C30.9659 12.6979 29.2688 11.9964 27.5 11.9991H15.896C15.6824 11.9944 15.5052 12.1635 15.5 12.3771V35.6199C15.502 35.7228 15.5449 35.8207 15.6192 35.8919C15.6935 35.9632 15.7931 36.002 15.896 35.9997L27.5 35.9991C29.269 36.002 30.9663 35.3004 32.217 34.0494C33.4676 32.7984 34.1688 31.1009 34.1654 29.3319C34.1654 27.0477 33.3518 25.1679 31.5002 23.9991ZM25.0202 29.5983H23.4878V18.6621H25.0196L25.0202 29.5983Z" fill="#1E1E1E"/>
</svg>
