<svg width="48" height="48" viewBox="0 0 48 48" fill="none" xmlns="http://www.w3.org/2000/svg">
<rect width="48" height="48" rx="24" fill="#06275F"/>
<path d="M13.8853 16.7715C13.2733 17.9205 13.8967 20.2923 14.6689 21.4335L25.2781 37.2009H17.5267C16.3795 37.1991 15.2956 36.6748 14.5819 35.7765L8.79735 27.1701C8.26612 26.2931 8.26612 25.1935 8.79735 24.3165L13.8853 16.7715Z" fill="url(#paint0_radial_4150_13262)"/>
<path d="M18.3622 24.5411C17.9595 25.2171 17.9188 26.049 18.2536 26.7611L14.6692 21.4361C13.897 20.2961 13.2736 17.9237 13.8856 16.7741L14.5228 15.8285C15.2182 14.8773 16.3461 14.3407 17.5228 14.4011H25.1464L18.3622 24.5411Z" fill="url(#paint1_radial_4150_13262)"/>
<path d="M34.1145 31.2292C34.7265 30.0802 34.1031 27.7084 33.3309 26.5672L22.7217 10.7998H30.4731C31.6203 10.8016 32.7043 11.3259 33.4179 12.2242L39.2025 20.8306C39.7337 21.7076 39.7337 22.8072 39.2025 23.6842L34.1145 31.2292Z" fill="url(#paint2_radial_4150_13262)"/>
<path d="M29.6381 23.4602C30.0408 22.7842 30.0815 21.9523 29.7467 21.2402L33.3311 26.5652C34.1033 27.7052 34.7267 30.0776 34.1147 31.2272L33.4775 32.1728C32.782 33.1238 31.6541 33.6602 30.4775 33.5996H22.8569L29.6381 23.4602Z" fill="url(#paint3_radial_4150_13262)"/>
<defs>
<radialGradient id="paint0_radial_4150_13262" cx="0" cy="0" r="1" gradientUnits="userSpaceOnUse" gradientTransform="translate(8.40266 22.6756) rotate(-90) scale(18.223 15.0563)">
<stop stop-color="#CBDEF2"/>
<stop offset="0.246" stop-color="#9CC3E6"/>
<stop offset="0.773" stop-color="#4774B0"/>
<stop offset="1" stop-color="#264374"/>
</radialGradient>
<radialGradient id="paint1_radial_4150_13262" cx="0" cy="0" r="1" gradientUnits="userSpaceOnUse" gradientTransform="translate(25.2039 14.1397) scale(13.8904 14.9241)">
<stop stop-color="#CBDEF2"/>
<stop offset="0.232" stop-color="#9CC3E6"/>
<stop offset="0.729" stop-color="#4774B0"/>
<stop offset="1" stop-color="#264374"/>
</radialGradient>
<radialGradient id="paint2_radial_4150_13262" cx="0" cy="0" r="1" gradientUnits="userSpaceOnUse" gradientTransform="translate(39.6046 25.3251) rotate(90) scale(18.223 15.0563)">
<stop stop-color="#CBDEF2"/>
<stop offset="0.246" stop-color="#9CC3E6"/>
<stop offset="0.773" stop-color="#4774B0"/>
<stop offset="1" stop-color="#264374"/>
</radialGradient>
<radialGradient id="paint3_radial_4150_13262" cx="0" cy="0" r="1" gradientUnits="userSpaceOnUse" gradientTransform="translate(22.7879 33.8544) rotate(180) scale(13.8868 14.9234)">
<stop stop-color="#CBDEF2"/>
<stop offset="0.232" stop-color="#9CC3E6"/>
<stop offset="0.729" stop-color="#4774B0"/>
<stop offset="1" stop-color="#264374"/>
</radialGradient>
</defs>
</svg>
