<svg width="32" height="32" viewBox="0 0 32 32" fill="none" xmlns="http://www.w3.org/2000/svg">
<circle cx="16" cy="16" r="15.5" fill="white" stroke="#EBEFF5"/>
<path d="M25.2736 15.6625C24.7584 11.2785 21.0342 8.04225 16.7041 8C16.672 8 16.6399 8 16.6078 8C16.274 8.0008 15.937 8.01913 15.5967 8.05819C14.369 8.20087 13.2303 8.59145 12.2256 9.17174V9.17094C12.2031 9.1837 12.1815 9.19725 12.1598 9.21C12.1405 9.22116 12.1213 9.23232 12.102 9.24428C7.11311 12.1967 5.33325 19.0104 5.33325 23.1585L9.35037 20.8549C10.7659 23.5347 13.4822 25.3003 16.5115 25.333C16.5436 25.3338 16.5757 25.333 16.6078 25.333C16.9417 25.3322 17.2787 25.3139 17.6189 25.2748C22.4048 24.7192 25.8321 20.4165 25.2736 15.6625Z" fill="#0064FF"/>
</svg>
