<svg width="48" height="48" viewBox="0 0 48 48" fill="none" xmlns="http://www.w3.org/2000/svg">
<rect width="48" height="48" rx="24" fill="#0B4DA2"/>
<path fill-rule="evenodd" clip-rule="evenodd" d="M36.5387 23.3709C38.3609 23.7411 39.5987 24.9309 39.5987 26.3523C39.5987 28.6491 37.7657 29.9667 34.5659 29.9667C32.7323 29.9667 31.2497 29.9943 31.2365 29.9943H31.1423V19.6929C31.1599 19.1656 31.1223 18.638 31.0301 18.1185L31.0049 18.0117H34.8101C37.3721 18.0117 38.9021 19.0995 38.9021 20.5797C38.8477 21.942 37.8734 23.0927 36.5387 23.3709ZM33.0431 27.8648C33.0431 28.7318 33.4283 29.0702 34.4147 29.0702C36.4505 29.0702 37.4399 28.2158 37.4399 26.459C37.4399 24.7934 36.2927 23.9492 34.0247 23.9492H33.0425L33.0431 27.8648ZM34.2923 18.9452H33.0491L33.0425 23.0174H33.8777C36.0563 23.0174 37.0817 22.3196 37.0817 20.8226C37.0817 19.5068 36.2495 18.9452 34.2917 18.9452H34.2923ZM25.2324 29.9918C22.2984 29.9918 19.1646 28.496 19.1646 24.296C19.1646 20.3528 21.7308 17.999 26.0292 17.999C26.8963 18.0207 27.7593 18.1276 28.6056 18.3182L28.671 18.3308V20.0636L28.5354 19.85C27.6079 19.101 26.4207 18.7513 25.2354 18.878C22.7952 19.0622 21.0894 21.0638 21.0894 23.7476C21.0894 27.2618 22.6044 29.0462 25.5894 29.0462C26.1228 29.0375 26.6553 28.9956 27.1836 28.9208C27.1236 28.2188 27.1134 25.4228 27.1134 25.3946C27.1368 24.9709 27.0718 24.5469 26.9226 24.1496L26.8626 24.0242H28.812V28.0892C28.7888 28.6041 28.794 29.1199 28.8276 29.6342L28.8348 29.7116L28.7598 29.7248C27.5996 29.9598 26.4147 30.0496 25.2324 29.9924V29.9918ZM12.2778 29.9988C10.4778 29.9988 8.68981 29.9304 8.67181 29.9298H8.59261C8.59261 29.9298 8.61901 20.3346 8.66221 20.1606C8.65183 19.4833 8.60215 18.8072 8.51341 18.1356L8.39941 18.0156H12.3594C15.8394 18.0156 18.0822 20.2194 18.0822 23.6298C18.0834 27.438 15.7068 29.9994 12.2778 29.9994V29.9988ZM11.7221 19.0038C11.2181 19.0038 10.5221 19.0584 10.2905 19.0782V27.8094C10.2905 29.0034 10.4435 29.1006 12.3305 29.1006C14.9057 29.1006 16.1573 27.4092 16.1573 23.934C16.1567 20.571 14.7467 19.0044 11.7227 19.0044L11.7221 19.0038Z" fill="white"/>
</svg>
