<svg width="48" height="48" viewBox="0 0 48 48" fill="none" xmlns="http://www.w3.org/2000/svg">
<path fill-rule="evenodd" clip-rule="evenodd" d="M0 24C0 10.7452 10.7452 0 24 0C37.2548 0 48 10.7452 48 24C48 37.2548 37.2548 48 24 48C10.7452 48 0 37.2548 0 24Z" fill="#3147A4"/>
<path d="M31.7773 21.6521L25.6435 15.4493C24.7753 14.5587 23.5302 14.1426 22.3009 14.3321C17.3662 15.1914 13.7724 19.4872 13.7977 24.4961C13.7508 30.0695 18.2027 34.6403 23.7754 34.7403C29.3481 34.8404 33.9611 30.4324 34.1143 24.8609C34.1192 24.7305 34.0631 24.6052 33.9625 24.5219C33.8089 24.4583 33.6413 24.4364 33.4765 24.4583H29.5477C29.3831 24.4552 29.2187 24.4736 29.0587 24.5129C28.9954 24.5463 28.9351 24.5852 28.8787 24.6293L24.0859 29.4893C24.0485 29.5271 23.9975 29.5484 23.9443 29.5484C23.8911 29.5484 23.8401 29.5271 23.8027 29.4893L18.9853 24.6053C18.9064 24.5258 18.9064 24.3975 18.9853 24.3179L23.8027 19.4351C23.8397 19.3965 23.8909 19.3747 23.9443 19.3747C23.9978 19.3747 24.0489 19.3965 24.0859 19.4351L28.5061 23.9093C28.6365 24.0267 28.7888 24.117 28.9543 24.1751C29.1547 24.2285 29.4535 24.0221 29.4535 24.0221L31.7773 21.6491" fill="white"/>
<path fill-rule="evenodd" clip-rule="evenodd" d="M34.0172 18.4687L30.7262 15.1477C27.0518 11.5561 22.8062 14.0293 22.8062 14.0293C22.8062 14.0293 24.611 13.0471 26.9174 15.5095L32.354 21.0439L33.9566 19.4371C34.0659 19.298 34.1474 19.1391 34.1966 18.9691C34.193 18.788 34.1297 18.6132 34.0166 18.4717" fill="white"/>
</svg>
