<svg width="48" height="48" viewBox="0 0 48 48" fill="none" xmlns="http://www.w3.org/2000/svg">
<rect x="0.5" y="0.5" width="47" height="47" rx="23.5" stroke="#EBEFF5"/>
<path d="M29.6005 39.5302L16.1893 30.7988C16.1893 30.7988 14.5072 29.8321 14.1222 28.0302C13.5813 25.5002 15.3645 23.333 15.3645 23.333L32.7703 34.6736C33.4136 35.0951 33.8637 35.7542 34.0222 36.5068C34.1807 37.2593 34.0347 38.044 33.616 38.6891C32.7296 40.0769 30.908 40.3817 29.6005 39.536" fill="#38D200"/>
<path d="M16.8976 21.4613C16.8976 21.4613 14.8433 20.2213 14.8433 17.3527C14.8433 14.4841 16.8964 13.2696 16.8964 13.2696L24.2249 8.47122C24.5443 8.25455 24.9037 8.10376 25.2821 8.02767C25.6604 7.95158 26.0502 7.95172 26.4285 8.02808C26.8068 8.10444 27.1661 8.25549 27.4854 8.47239C27.8046 8.68929 28.0774 8.96768 28.2877 9.29127C28.498 9.61487 28.6417 9.97716 28.7103 10.357C28.779 10.7368 28.7712 11.1264 28.6874 11.5032C28.6036 11.8799 28.4455 12.2361 28.2223 12.5511C27.9992 12.866 27.7155 13.1332 27.3878 13.3371L21.2121 17.3585L31.7407 24.2159C31.7407 24.2159 33.6357 25.3024 34.0091 27.1345C34.5302 29.6937 32.7702 31.7991 32.7702 31.7991L16.8976 21.4613Z" fill="#0473EA"/>
<path d="M30.6975 14.3521C30.104 14.3523 29.5252 14.5368 29.0411 14.8802L25.4629 17.2067L29.0411 19.5332C29.527 19.873 30.1046 20.0571 30.6975 20.0613C31.4559 20.0613 32.1831 19.7601 32.7194 19.2239C33.2556 18.6877 33.5568 17.9604 33.5568 17.2021C33.5568 16.4437 33.2556 15.7165 32.7194 15.1802C32.1831 14.644 31.4559 14.3428 30.6975 14.3428" fill="#38D200"/>
<path d="M16.8593 39.9917C17.4529 39.9922 18.032 39.8076 18.5158 39.4636L22.0951 37.137L18.5158 34.8105C18.0303 34.4698 17.4524 34.2851 16.8593 34.2812C16.101 34.2812 15.3737 34.5825 14.8375 35.1187C14.3012 35.6549 14 36.3822 14 37.1405C14 37.8989 14.3012 38.6261 14.8375 39.1624C15.3737 39.6986 16.101 39.9998 16.8593 39.9998" fill="#0473EA"/>
</svg>
