<svg width="48" height="48" viewBox="0 0 48 48" fill="none" xmlns="http://www.w3.org/2000/svg">
<circle cx="24" cy="24" r="22" fill="#0480E9"/>
<path fill-rule="evenodd" clip-rule="evenodd" d="M35.4657 18.7739C33.6612 20.093 31.8375 19.5494 31.1037 16.9588C30.7351 15.6685 29.8224 15.0093 28.8888 15.3762C27.9586 15.7419 28.5089 17.4425 29.2167 19.0189C30.6324 22.6283 27.1153 22.5081 26.7066 22.4613C24.8383 22.0684 24.459 20.3758 24.459 20.3758C24.3044 19.7797 24.2688 19.0279 24.3924 18.0684C24.6481 16.0608 25.1883 15.1171 25.8018 13.5633C26.6344 11.4727 24.6148 10.2501 24.9484 9.48083C25.405 8.43948 26.8477 9.76304 28.4547 9.86068C29.8399 9.93744 30.673 9.86802 31.7505 10.0114C33.1814 10.2016 34.8922 10.687 35.6537 11.5822C36.3519 12.4 35.2851 13.3984 34.001 12.7725C33.064 12.3159 31.8815 12.597 32.5741 13.5745C33.41 14.5047 33.8091 14.5295 34.6591 14.7536C37.0021 15.3705 37.0479 17.6118 35.4657 18.7739M31.9758 38.8196C30.2966 39.9818 28.4362 40.5276 25.9966 40.6585C25.7754 40.689 25.378 40.562 25.3577 40.1737C25.3419 39.7583 25.9492 39.6533 25.9492 39.6533C31.3876 38.5826 29.7987 35.0155 27.874 33.1958C27.0662 32.4299 19.4925 25.8996 19.4925 25.8996C12.2744 19.6831 12.8518 14.8308 12.8518 14.8308C13.2001 8.85986 18.4291 7.37884 22.3847 7.72031C22.8487 7.75982 23.105 8.04372 23.0209 8.42921C22.9339 8.84914 22.3226 8.88018 22.3226 8.88018C21.0639 8.95525 19.9396 9.08337 19.0816 9.65964C15.8947 11.8039 16.8357 15.4506 21.0865 19.5098C21.6199 20.0223 22.1883 20.5596 22.7708 21.1054C22.7708 21.1054 23.6254 21.8584 25.3244 23.4743C28.5925 26.486 30.3835 28.111 30.3835 28.111C36.1442 32.9085 34.1777 37.2935 31.9758 38.8196M19.8547 39.5886C17.8227 39.3894 15.3967 38.7488 13.2835 36.9217C11.3418 35.2409 10.1367 32.9302 9.55247 30.9039C8.95473 28.8258 8.70298 26.3959 9.69133 26.5873C9.99443 26.6482 10.5199 27.9831 11.0912 28.955C11.6799 29.9585 12.1625 30.5139 12.6106 30.8514C12.8161 31.005 13.5087 29.4635 14.5156 28.587C15.1027 28.1033 15.745 27.9368 15.8472 29.3806C15.9736 31.1528 15.6558 33.2581 16.1706 33.2581C16.6549 33.2581 17.7454 32.8941 20.1398 32.6914C21.0378 32.6147 21.5503 32.784 20.6929 33.9958C20.2651 34.5975 19.6905 35.4509 18.3341 36.4245C20.369 38.3305 22.8119 38.1019 22.8548 38.9096C22.8869 39.4915 21.4713 39.7461 19.8547 39.5886M0.0254223 25.0847C0.623171 38.3264 11.8427 48.5728 25.0834 47.9751C38.3304 47.3785 48.5729 36.1574 47.9751 22.9162C47.3779 9.67328 36.1567 -0.575958 22.916 0.0251452C9.67124 0.622298 -0.579099 11.8423 0.0254223 25.0847Z" fill="white"/>
</svg>
