<svg width="48" height="48" viewBox="0 0 48 48" fill="none" xmlns="http://www.w3.org/2000/svg">
<path fill-rule="evenodd" clip-rule="evenodd" d="M0 24C0 10.7452 10.7452 0 24 0C37.2548 0 48 10.7452 48 24C48 37.2548 37.2548 48 24 48C10.7452 48 0 37.2548 0 24Z" fill="#1FB25A"/>
<path fill-rule="evenodd" clip-rule="evenodd" d="M33.6006 26.384C33.6006 32.2274 29.3028 36.0008 24.0006 36.0008C21.4383 36.045 18.9683 35.0454 17.1578 33.2317C15.3473 31.4181 14.352 28.9462 14.4006 26.384C14.353 23.3929 15.9402 20.6137 18.5406 19.1348L14.6784 17.7458V12.9608L20.2806 15.4496L23.5206 21.6122C21.1026 22.0814 19.2084 23.8976 19.2084 26.384C19.2084 29.0284 21.3521 31.172 23.9964 31.172C26.6408 31.172 28.7844 29.0284 28.7844 26.384C28.7844 23.8976 26.8956 22.0814 24.471 21.6122L27.7206 15.4496L33.5736 12.9608V17.7482L30.3066 19.1348C32.4022 20.9605 33.6038 23.6047 33.6006 26.384ZM19.2153 12.001L24.0003 14.4064L28.7871 12.001L24.0003 21.1108L19.2153 12.001Z" fill="#FCC800"/>
</svg>
