<svg width="48" height="48" viewBox="0 0 48 48" fill="none" xmlns="http://www.w3.org/2000/svg">
<path fill-rule="evenodd" clip-rule="evenodd" d="M0 24C0 10.7452 10.7452 0 24 0C37.2548 0 48 10.7452 48 24C48 37.2548 37.2548 48 24 48C10.7452 48 0 37.2548 0 24Z" fill="#CB0202"/>
<path fill-rule="evenodd" clip-rule="evenodd" d="M24 36C17.3726 36 12 30.6274 12 24C12 17.3726 17.3726 12 24 12C30.6274 12 36 17.3726 36 24C36 30.6274 30.6274 36 24 36ZM24.0002 14C18.4772 14 14 18.4772 14 24.0002C14 29.5232 18.4772 34.0004 24.0002 34.0004C29.5232 34.0004 34.0004 29.5232 34.0004 24.0002C34.0004 21.348 32.9468 18.8044 31.0714 16.929C29.196 15.0536 26.6524 14 24.0002 14ZM24.3892 28.5459H28.5448V26.7279H24.9088V21.3279H28.5454V19.4559H24.3892V17.6367H30.3634V23.0913H26.7274V24.9093H30.364V30.3639H24.3892V28.5459ZM17.6362 24.9093H21.3268V23.0913H17.6362V17.6367H23.6104V19.4547H19.4542V21.3267H23.0908V26.7267H19.4542V28.5447H23.6098V30.3627H17.6362V24.9093Z" fill="white"/>
</svg>
