<svg width="48" height="48" viewBox="0 0 48 48" fill="none" xmlns="http://www.w3.org/2000/svg">
<path fill-rule="evenodd" clip-rule="evenodd" d="M0 24C0 10.7452 10.7452 0 24 0C37.2548 0 48 10.7452 48 24C48 37.2548 37.2548 48 24 48C10.7452 48 0 37.2548 0 24Z" fill="#056DAE"/>
<path fill-rule="evenodd" clip-rule="evenodd" d="M34.9536 32.9703V20.8437H37.3446V32.9703H34.9536ZM32.519 32.5982C31.8868 32.9976 31.1467 33.1921 30.3998 33.155C28.8134 33.1214 27.7532 31.8476 27.7532 29.9846V23.1392H25.7324V20.8592H27.7532V18.3872L30.0932 17.084V20.8592H32.525V23.1392H30.0932V29.573C30.0932 30.5174 30.4406 30.9404 31.2128 30.9404C31.8319 30.9012 32.4344 30.7241 32.9762 30.422L33.1172 30.2456L32.6588 32.5856L32.519 32.5982ZM21.2344 20.8437H23.6404V32.9703H21.2344V20.8437ZM15.664 30.8285C16.7468 30.7802 17.761 30.2848 18.4648 29.4605H18.5182L19.8688 31.1705L19.8328 31.1459C18.8676 32.4575 17.3289 33.2229 15.7006 33.2015C14.1296 33.2254 12.6052 32.6679 11.4202 31.6361C10.2026 30.3739 9.54595 28.6737 9.5992 26.9207C9.5335 25.1885 10.1935 23.5075 11.4202 22.2827C12.5821 21.2052 14.1163 20.6198 15.7006 20.6495C17.3283 20.6291 18.8663 21.3935 19.8328 22.7033L19.8688 22.7957L18.5182 24.4805L18.4648 24.3941C17.7623 23.5675 16.7477 23.0702 15.664 23.0213C13.5346 23.0213 12.0082 24.6641 12.0082 26.9213C12.0082 29.1785 13.5346 30.8285 15.664 30.8285Z" fill="white"/>
<path fill-rule="evenodd" clip-rule="evenodd" d="M38.2974 17.9877C36.4531 14.779 33.0344 12.8008 29.3334 12.8008C25.6324 12.8008 22.2137 14.779 20.3694 17.9877L20.2632 18.1533H22.914L22.8858 18.2043C24.4594 16.2577 26.8284 15.1264 29.3316 15.1264C31.8347 15.1264 34.2038 16.2577 35.7774 18.2043L35.808 18.1533H38.4L38.2974 17.9877Z" fill="#E02D2C"/>
</svg>
