<svg width="48" height="48" viewBox="0 0 48 48" fill="none" xmlns="http://www.w3.org/2000/svg">
<path fill-rule="evenodd" clip-rule="evenodd" d="M0 24C0 10.7452 10.7452 0 24 0C37.2548 0 48 10.7452 48 24C48 37.2548 37.2548 48 24 48C10.7452 48 0 37.2548 0 24Z" fill="#E72410"/>
<path fill-rule="evenodd" clip-rule="evenodd" d="M39.5624 20.4204L33.3524 24.0402L38.1866 27.5682C38.24 27.6072 38.2304 27.7212 38.168 27.7212H36.95C36.887 27.7212 36.791 27.606 36.7382 27.5682L32.0024 24.0756C31.978 24.0626 31.9633 24.0368 31.9644 24.0092C31.9656 23.9815 31.9824 23.957 32.0078 23.946L38.114 20.4204C38.181 20.3849 38.2549 20.3644 38.3306 20.3604H39.548C39.6128 20.361 39.6182 20.3886 39.5624 20.4204ZM30.8439 24.0402L35.5839 27.5682C35.6355 27.6072 35.6277 27.7212 35.6349 27.7212H34.3443C34.3863 27.7212 34.1865 27.606 34.1337 27.5682L29.3937 24.0756C29.3695 24.0623 29.355 24.0362 29.3566 24.0086C29.3581 23.9809 29.3753 23.9566 29.4009 23.946L35.5083 20.4204C35.6084 20.3844 35.7134 20.3642 35.8197 20.3604H36.9417C37.0575 20.3604 37.1169 20.388 36.9543 20.4204L30.8439 24.0402ZM28.1471 24.0405L32.9735 27.5685C33.0245 27.6075 33.0173 27.7215 32.9531 27.7215H24.4697L25.8497 20.3613H34.3343C34.3943 20.3613 34.4033 20.3889 34.3469 20.4213L28.1471 24.0405ZM19.5338 23.9994L30.7904 32.3298C30.8426 32.3694 30.8348 32.4006 30.7712 32.4006H10.7954C9.67877 32.4006 9.19757 31.6962 9.45737 30.6438C9.5239 30.0862 9.84912 29.5925 10.3352 29.3112L13.2602 27.6972L8.47757 24.0732C8.36537 24.033 8.36777 23.9754 8.54177 23.943L14.6132 20.3652L12.35 18.6912C11.9702 18.3608 11.7995 17.8504 11.9042 17.358C12.0682 16.3398 12.9506 15.5934 13.982 15.6006H34.0526C34.0226 15.6006 34.028 15.6276 33.971 15.6606L19.5338 23.9994ZM14.6139 20.3662L13.2837 27.6862L19.5237 24.0022L14.6139 20.3662Z" fill="white"/>
</svg>
