<svg width="48" height="48" viewBox="0 0 48 48" fill="none" xmlns="http://www.w3.org/2000/svg">
<path fill-rule="evenodd" clip-rule="evenodd" d="M0 24C0 10.7452 10.7452 0 24 0C37.2548 0 48 10.7452 48 24C48 37.2548 37.2548 48 24 48C10.7452 48 0 37.2548 0 24Z" fill="#0071BC"/>
<path fill-rule="evenodd" clip-rule="evenodd" d="M41.8798 21.7984C40.6742 22.146 39.5788 22.7991 38.6998 23.6944C38.3602 24.0574 38.1643 24.5317 38.1489 25.0286C38.1334 25.5255 38.2994 26.011 38.6158 26.3944C39.0118 26.8084 39.1498 26.9404 38.9038 27.0664C38.6578 27.1924 37.5418 26.9404 35.8498 26.9404C31.5538 26.9404 26.7658 28.5784 26.7658 30.9484C26.7658 32.2084 28.0438 32.7484 28.0438 33.0964C28.0438 33.4444 26.1478 33.6004 24.5758 33.6004C18.0778 33.6004 16.2358 31.1164 16.2358 30.0004C16.2358 27.7684 20.5318 26.2084 25.0318 26.2084C26.6914 26.1839 28.3493 26.3226 29.9818 26.6224C29.9818 26.6224 27.4438 25.5724 27.4438 23.9944C27.4438 22.1944 31.1038 20.1604 36.8278 20.1604C38.7674 20.1953 40.7004 20.396 42.6058 20.7604C42.8758 20.9344 43.2058 21.0604 43.2058 21.1804C43.1998 21.5344 42.6658 21.6004 41.8798 21.7984ZM20.3458 27.7984C20.2 27.8023 20.0564 27.8349 19.9232 27.8943C19.79 27.9537 19.6699 28.0387 19.5696 28.1446C19.4693 28.2505 19.3908 28.3751 19.3387 28.5113C19.2866 28.6475 19.2618 28.7926 19.2658 28.9384C19.2628 28.9583 19.2628 28.9785 19.2658 28.9984C19.2535 29.1438 19.2699 29.2902 19.3142 29.4292C19.3585 29.5683 19.4298 29.6972 19.524 29.8087C19.6182 29.9201 19.7334 30.0119 19.8631 30.0788C19.9928 30.1457 20.1344 30.1863 20.2798 30.1984H20.3398C20.6581 30.1984 20.9633 30.072 21.1883 29.8469C21.4134 29.6219 21.5398 29.3167 21.5398 28.9984C21.5398 28.6801 21.4134 28.3749 21.1883 28.1499C20.9633 27.9248 20.6581 27.7984 20.3398 27.7984H20.3458ZM31.6978 21.7984C31.4518 21.7748 31.2045 21.8277 30.9897 21.95C30.775 22.0722 30.6032 22.2577 30.4979 22.4813C30.3925 22.7048 30.3587 22.9554 30.4011 23.1988C30.4435 23.4423 30.5601 23.6667 30.7348 23.8414C30.9095 24.0162 31.1339 24.1327 31.3773 24.1751C31.6208 24.2175 31.8714 24.1837 32.095 24.0784C32.3185 23.973 32.5041 23.8012 32.6263 23.5864C32.7485 23.3717 32.8014 23.1244 32.7778 22.8784C32.7422 22.6085 32.6159 22.3588 32.4197 22.1702C32.2234 21.9816 31.9688 21.8653 31.6978 21.8404V21.7984ZM30.4378 16.0204C29.2199 16.3392 28.1173 16.9965 27.2578 17.9164C26.9179 18.2795 26.7223 18.7544 26.7079 19.2516C26.6936 19.7489 26.8614 20.2342 27.1798 20.6164C27.5758 21.0304 27.7138 21.1684 27.5518 21.2944C27.2158 21.4204 26.1058 21.1684 24.4138 21.1684C20.1178 21.1684 15.3298 22.8004 15.3298 25.1704C15.3298 26.4364 16.6078 26.9704 16.6078 27.3184C16.6078 27.6664 14.7058 27.8704 13.1398 27.8704C6.61182 27.8704 4.7998 25.4044 4.7998 24.2044C4.7998 21.9724 9.08983 20.4064 13.5958 20.4064C15.2557 20.3812 16.9139 20.5219 18.5458 20.8264C18.5458 20.8264 16.0078 19.7764 16.0078 18.1924C16.0078 16.3924 19.6078 14.3584 25.3018 14.3584C27.2565 14.3666 29.2036 14.6022 31.1038 15.0604C31.4398 15.0604 31.7638 15.2644 31.7638 15.3904C31.7638 15.7984 31.2298 15.9424 30.4378 16.0624V16.0204ZM8.90979 22.0504C8.67245 22.0504 8.44048 22.1208 8.24314 22.2526C8.0458 22.3845 7.89195 22.5719 7.80112 22.7912C7.7103 23.0104 7.68656 23.2517 7.73286 23.4845C7.77916 23.7173 7.89346 23.9311 8.06128 24.0989C8.2291 24.2668 8.44293 24.381 8.67571 24.4274C8.90849 24.4737 9.14975 24.4499 9.36902 24.3591C9.58829 24.2682 9.77571 24.1144 9.90757 23.9171C10.0394 23.7198 10.1098 23.4877 10.1098 23.2504C10.0989 22.9395 9.96767 22.6449 9.7438 22.4289C9.51993 22.2129 9.22091 22.0922 8.90979 22.0924V22.0504ZM20.1778 16.0504C19.8595 16.0504 19.5543 16.1768 19.3293 16.4019C19.1043 16.6269 18.9778 16.9321 18.9778 17.2504C18.9778 17.5687 19.1043 17.8739 19.3293 18.0989C19.5543 18.324 19.8595 18.4504 20.1778 18.4504C20.3268 18.4618 20.4766 18.4432 20.6183 18.3956C20.76 18.348 20.8907 18.2724 21.0026 18.1734C21.1145 18.0743 21.2054 17.9538 21.2699 17.819C21.3343 17.6841 21.371 17.5377 21.3778 17.3884V17.2504C21.3884 17.103 21.3698 16.9549 21.323 16.8147C21.2762 16.6745 21.2022 16.5449 21.1052 16.4334C21.0082 16.3219 20.8901 16.2307 20.7577 16.165C20.6254 16.0992 20.4813 16.0603 20.3338 16.0504H20.1778Z" fill="white"/>
</svg>
