<svg width="48" height="48" viewBox="0 0 48 48" fill="none" xmlns="http://www.w3.org/2000/svg">
<path fill-rule="evenodd" clip-rule="evenodd" d="M0 24C0 10.7452 10.7452 0 24 0C37.2548 0 48 10.7452 48 24C48 37.2548 37.2548 48 24 48C10.7452 48 0 37.2548 0 24Z" fill="#03B89F"/>
<path fill-rule="evenodd" clip-rule="evenodd" d="M38.2257 16.1599C37.045 16.9578 35.7947 17.6474 34.4901 18.2203C30.4701 19.7803 25.9869 20.2993 21.7101 20.9203C19.2009 21.2737 16.6845 21.4081 14.1939 21.5659C13.229 21.5351 12.2938 21.2249 11.5017 20.6731C10.6727 20.2121 9.97426 19.5481 9.47186 18.7435C9.23186 18.0499 9.12086 17.0035 9.71186 16.4473C10.2633 16.0825 10.9527 15.9939 11.5785 16.2073C12.294 16.195 13.0086 16.2656 13.7079 16.4179C14.8437 16.5931 15.9879 16.8157 17.1189 16.9771C23.7219 17.9119 30.7911 17.4685 37.1805 15.1255C37.4631 15.0055 37.8033 14.9065 38.0589 14.8129C38.2257 14.7982 38.3914 14.8523 38.5175 14.9626C38.6436 15.0729 38.7191 15.23 38.7267 15.3973C38.6844 15.7145 38.5 15.9952 38.2257 16.1599ZM23.219 15.705C21.8692 15.716 20.766 14.6308 20.7548 13.281V13.2252C20.7534 12.8011 20.891 12.3883 21.1466 12.0498C21.361 11.6426 21.6998 11.3144 22.1138 11.1132C22.6214 10.8865 23.1739 10.778 23.7296 10.7958C24.2288 10.7958 25.1582 10.8048 25.1258 11.5188C25.1024 12.0456 25.34 12.2604 25.5512 12.7014C25.6274 12.8859 25.6722 13.0818 25.6838 13.281C25.6784 13.9293 25.4157 14.5489 24.9534 15.0035C24.4912 15.4581 23.8673 15.7105 23.219 15.705ZM18.7039 24.5411C19.3823 23.3201 20.5284 22.4278 21.8784 22.0695C23.2284 21.7112 24.6661 21.9177 25.8607 22.6415C26.9267 23.2743 27.7456 24.251 28.1827 25.4111C28.3653 25.728 28.4828 26.0783 28.5283 26.4413C28.6887 27.4939 28.6515 28.5673 28.4185 29.6063C28.2788 30.3296 28.0887 31.0424 27.8497 31.7393C27.3003 33.6585 26.2824 35.4111 24.8875 36.8393C24.6852 37.1227 24.3266 37.2483 23.9917 37.1531C23.9054 37.1211 23.8303 37.0646 23.7757 36.9905C23.6557 36.8105 23.7523 36.5825 23.8441 36.4001C23.8809 36.1611 23.9342 35.9249 24.0037 35.6933C24.7538 33.3813 25.1201 30.9621 25.0879 28.5317C25.0733 27.9823 24.9584 27.4402 24.7489 26.9321C24.5161 26.4191 24.0536 26.047 23.5027 25.9295C23.1719 25.8704 22.8318 25.9592 22.5721 26.1725C22.4371 26.1419 22.3087 26.3057 22.2001 26.3285C22.0558 26.5241 21.9256 26.7298 21.8107 26.9441C21.5955 27.6456 21.5774 28.3929 21.7585 29.1041C21.9169 29.6797 21.7085 30.2937 21.2323 30.6539C20.8052 30.9062 20.2853 30.9461 19.8247 30.7619C19.3757 30.5857 19.004 30.2554 18.7765 29.8301C17.9455 28.5785 18.0637 26.7329 18.3697 25.3619C18.4573 25.0817 18.5671 24.8609 18.7009 24.5441L18.7039 24.5411Z" fill="white"/>
</svg>
