<svg width="48" height="48" viewBox="0 0 48 48" fill="none" xmlns="http://www.w3.org/2000/svg">
<rect width="48" height="48" rx="24" fill="#17A86F"/>
<path fill-rule="evenodd" clip-rule="evenodd" d="M37.8172 13.7172C37.4788 14.1431 37.0906 14.5271 36.6609 14.8609C36.5931 16.2976 36.4483 17.7297 36.227 19.1508C36.0243 20.3145 35.7342 21.4613 35.359 22.5813C35.2884 21.2397 35.1435 19.9031 34.9251 18.5776C34.7808 17.7877 34.5382 17.019 34.2027 16.2895C34.2027 16.2895 32.8931 16.9775 31.7452 17.5767C30.3208 18.32 29.063 19.0067 29.063 19.0067C29.063 19.0067 30.0745 17.9217 30.7331 17.0258C31.0341 16.6177 31.2941 16.181 31.5093 15.7218C31.5093 15.7218 29.0987 15.782 27.2236 16.0074C26.1173 16.1245 25.0202 16.3155 23.9395 16.5793C24.9082 16.0549 25.9247 15.6239 26.9751 15.2921C28.5902 14.8034 30.2311 14.4041 31.8901 14.0959C31.1063 13.4911 30.2858 12.9354 29.4333 12.4321C28.109 11.6621 26.6867 11 26.6867 11C28.1978 11.1081 29.6967 11.3473 31.1664 11.7146C32.5925 12.0897 33.9573 12.6677 35.2191 13.4309C35.5447 13.2979 35.8841 13.2019 36.2312 13.1446C36.8063 13.0656 37.3853 13.0188 37.9656 13.0046C38.0431 13.2518 37.9869 13.5215 37.8172 13.7172ZM26.2535 21.5817C25.0628 21.339 23.854 21.1954 22.6396 21.1526C21.6208 21.1489 20.6041 21.2447 19.604 21.4389C19.3224 22.2092 19.0813 22.9938 18.8816 23.7893C18.6802 24.5861 18.5352 25.396 18.4477 26.2132L17.0023 22.2935C17.0023 22.2935 15.3924 23.4743 14.1115 24.5816C13.5082 25.1044 12.9515 25.6786 12.4478 26.2979C12.6563 25.586 12.9739 24.9107 13.3892 24.2961C14.3488 22.8164 15.8467 20.8663 15.8467 20.8663C15.5058 20.5965 15.1117 20.4017 14.6904 20.2945C13.9527 20.1388 13.2037 20.0433 12.4506 20.0089C13.267 19.7153 14.1175 19.5271 14.9816 19.4489C16.0361 19.3289 17.0973 19.2763 18.1586 19.2915C18.6098 18.9157 19.0935 18.5808 19.604 18.2905C20.1671 18.0172 20.7463 17.7783 21.3384 17.5752L20.4712 19.577C21.5006 19.7337 22.5157 19.9727 23.5069 20.2917C24.4626 20.6303 25.3826 21.0624 26.2535 21.5817ZM13.5326 31.4493L16.1343 31.0622C15.8626 31.4588 15.6207 31.875 15.4106 32.3074C15.2374 32.6892 15.0924 33.0832 14.9766 33.4861C15.3448 33.7841 15.731 34.0592 16.1329 34.3099C16.9952 34.8699 18.0123 35.4019 18.0123 35.4019C18.0123 35.4019 16.9679 35.3319 15.9887 35.1681C15.4935 35.0748 15.0092 34.9311 14.5433 34.739C14.5109 35.0719 14.5109 35.4071 14.5433 35.7399C14.6126 36.2269 14.7299 36.7059 14.8933 37.1699C14.2878 36.5494 13.7351 35.8796 13.2407 35.1674C13.0272 34.816 12.8801 34.4283 12.8068 34.0237C12.3094 33.8896 11.8255 33.7096 11.3614 33.4861C10.874 33.1876 10.4179 32.8408 10 32.4509L11.9423 31.879C11.9423 31.879 11.9493 30.8851 11.9423 29.7344C11.9773 28.6719 12.0872 27.4463 12.0872 27.4463C12.2157 28.2238 12.4091 28.9892 12.6654 29.7344C12.8872 30.3376 13.1782 30.9131 13.5326 31.4493ZM20.1821 35.5959C20.6145 35.6449 21.051 35.6449 21.4833 35.5959C22.0727 35.5028 22.653 35.3592 23.2178 35.1668C23.2178 35.1668 23.756 34.6482 24.169 34.1659C24.5155 33.5849 24.8074 33.0215 24.8074 33.0215C24.8845 33.2036 24.9331 33.3965 24.9515 33.5933C24.9728 33.879 24.9728 34.1658 24.9515 34.4515L27.4091 33.1643L25.0992 35.3999L25.3883 36.3098H23.6511C23.1938 36.5763 22.7209 36.8152 22.2351 37.0252C21.6251 37.2946 20.9839 37.4867 20.3263 37.597L21.9201 36.3105C21.6244 36.2364 21.3345 36.1407 21.0529 36.0242C20.6602 35.8647 20.1821 35.5959 20.1821 35.5959Z" fill="white"/>
</svg>
